<svg xmlns="http://www.w3.org/2000/svg" xmlns:xlink="http://www.w3.org/1999/xlink" width="405" height="380" viewBox="0 0 405 380">
  <defs>
    <clipPath id="clip-_4x4">
      <rect width="405" height="380"/>
    </clipPath>
  </defs>
  <g id="_4x4" data-name="4x4" clip-path="url(#clip-_4x4)">
    <rect width="405" height="380" fill="#202020"/>
    <path id="Path_7" data-name="Path 7" d="M15.984-18.384l-9.24,6.192L13.632-.528-.816,3.84l-.072-.216L8.28-2.52,1.344-14.16l14.568-4.392Zm12.768,23.4H23.3L24.288-.84a10.276,10.276,0,0,1-4.656,1.1,5.57,5.57,0,0,1-3.12-.792,2.424,2.424,0,0,1-1.2-2.112,4.653,4.653,0,0,1,1.944-3.408,10.857,10.857,0,0,1,4.7-2.328,8.858,8.858,0,0,1,3.648-.144l.288-1.8h.264ZM25.44-7.56a7.217,7.217,0,0,0-1.608-.192,4.2,4.2,0,0,0-2.952,1.1A3.67,3.67,0,0,0,19.728-3.72a2.7,2.7,0,0,0,.648,1.788,2.1,2.1,0,0,0,1.656.708A5.035,5.035,0,0,0,24.5-2.04ZM39.48.264H36.216L36.6-2.688A6.5,6.5,0,0,1,31.128.5a5.461,5.461,0,0,1-1.68-.24l3.264-9.12.36.072A11.539,11.539,0,0,0,32.9-6.792q0,2.616,1.2,2.616a1.229,1.229,0,0,0,.456-.1,4.358,4.358,0,0,0,2.064-2.112,8.782,8.782,0,0,0,1.08-2.9h.288Zm6.432-13.536-2.064.624.528,2.112-1.248-1.776L41.3-11.16l1.3-1.728L40.944-14.28l2.04.7.816-1.992-.048,2.16Zm-.192,3.5L43.128.1h-.264L40.272-9.768Zm11.016.72L53.472.072,53.112,0a11.539,11.539,0,0,0,.168-1.992q0-2.616-1.2-2.616a1.229,1.229,0,0,0-.456.1A4.358,4.358,0,0,0,49.56-2.4a8.969,8.969,0,0,0-1.1,2.9h-.264L46.7-9.048h3.24L49.584-6.1a6.5,6.5,0,0,1,5.472-3.192A5.763,5.763,0,0,1,56.736-9.048ZM68.712-8.3,63.72-4.752,66.888.888l-.216.312L61.1-2.664l-.7,4.176H60.12L57.528-13.824H63l-1.656,9.7,2.9-4.176Zm14.4,2.04L72.792,5.376l-.216-.144L74.808-.24,69-6.624l4.9-2.424,1.392,7.656L78.48-9.168ZM103.008-.7H96.816L97.032.672l-5.352.792L92.016-.7H88.344L88.3-.984,92.232-2.16l2.04-13.7h.168L96.384-3.408,103.008-5.4ZM116.88,0H111.6l.456-2.016A10.529,10.529,0,0,1,109.2-.48a7.776,7.776,0,0,1-2.568.48,3.56,3.56,0,0,1-2.148-.588,1.9,1.9,0,0,1-.8-1.62,4.684,4.684,0,0,1,1.62-3.18,9.992,9.992,0,0,1,3.9-2.436,7.983,7.983,0,0,1,2.592-.48,4.068,4.068,0,0,1,1.608.288l.048-.288h.768Zm-4.968-4.3a3.686,3.686,0,0,0,.288-1.368q0-1.608-1.32-1.608a2.9,2.9,0,0,0-1.872.876,5.427,5.427,0,0,0-1.464,2.1,3.686,3.686,0,0,0-.288,1.368q0,1.584,1.32,1.584a2.894,2.894,0,0,0,1.884-.864A5.382,5.382,0,0,0,111.912-4.3Zm19.224-1.44a4.638,4.638,0,0,1-1.944,3.384,10.857,10.857,0,0,1-4.7,2.328,9.982,9.982,0,0,1-2.232.264,7.525,7.525,0,0,1-1.728-.192l-.192,1.128h-.288L117.456-14.16h5.472l-1.152,6.792a10.793,10.793,0,0,1,5.016-1.3,5.565,5.565,0,0,1,3.132.8A2.447,2.447,0,0,1,131.136-5.736ZM126.72-4.68a2.7,2.7,0,0,0-.648-1.788,2.1,2.1,0,0,0-1.656-.708A5.4,5.4,0,0,0,121.56-6.12L120.7-.936a6.494,6.494,0,0,0,1.92.312,4.1,4.1,0,0,0,2.952-1.152A3.7,3.7,0,0,0,126.72-4.68ZM142.056-.5l-9.192,2.28-.072-.144,3.888-3.048-4.968-5.976,8.76-2.352.048.12-3.6,2.976ZM163.3-4.3l-.1.264-3.888-.5.84,5.472H154.8l.84-5.5-7.728-.072L155.736-18l.216.072-2.808,10.2L156-6.816l1.416-9.408h.12L159.12-5.832ZM183,1.368l-.192.168L172.32-6.888,163.944.888,163.776.72l6.456-9.288-6.024-4.824,2.52-4.32,5.424,6.36,3.984-5.712,2.52,4.32-4.3,3.984ZM198.864-4.3l-.1.264-3.888-.5.84,5.472h-5.352l.84-5.5-7.728-.072L191.3-18l.216.072-2.808,10.2,2.856.912,1.416-9.408h.12l1.584,10.392Z" transform="translate(103 30)" fill="#a0a0a0"/>
    <path id="Path_8" data-name="Path 8" d="M8.477-3.158A3.662,3.662,0,0,1,7.311-.721,3.82,3.82,0,0,1,4.7.137,3.507,3.507,0,0,1,1.876-1.128,5.088,5.088,0,0,1,.813-4.512v-.957a5.671,5.671,0,0,1,.5-2.44,3.7,3.7,0,0,1,1.4-1.617,3.911,3.911,0,0,1,2.105-.564A3.6,3.6,0,0,1,7.362-9.2,3.706,3.706,0,0,1,8.477-6.754H7.157a2.86,2.86,0,0,0-.742-1.728,2.244,2.244,0,0,0-1.6-.535,2.348,2.348,0,0,0-1.972.93,4.271,4.271,0,0,0-.714,2.648v.965A4.391,4.391,0,0,0,2.81-1.894,2.187,2.187,0,0,0,4.7-.937a2.526,2.526,0,0,0,1.678-.5,2.75,2.75,0,0,0,.776-1.726ZM11.443,0H10.179V-10.5h1.265Zm1.688-3.767a4.369,4.369,0,0,1,.427-1.955,3.187,3.187,0,0,1,1.189-1.34,3.238,3.238,0,0,1,1.74-.472,3.119,3.119,0,0,1,2.444,1.046,4.024,4.024,0,0,1,.933,2.782v.089a4.407,4.407,0,0,1-.414,1.938A3.14,3.14,0,0,1,18.269-.342,3.275,3.275,0,0,1,16.5.137,3.111,3.111,0,0,1,14.065-.909a4,4,0,0,1-.933-2.769Zm1.271.15a3.164,3.164,0,0,0,.571,1.976A1.827,1.827,0,0,0,16.5-.9a1.816,1.816,0,0,0,1.531-.755A3.46,3.46,0,0,0,18.6-3.767a3.159,3.159,0,0,0-.578-1.972,1.836,1.836,0,0,0-1.535-.755,1.816,1.816,0,0,0-1.511.745A3.434,3.434,0,0,0,14.4-3.616ZM24.418-.9a1.822,1.822,0,0,0,1.183-.41,1.443,1.443,0,0,0,.561-1.025h1.2a2.293,2.293,0,0,1-.437,1.21,2.881,2.881,0,0,1-1.077.916,3.107,3.107,0,0,1-1.425.342,3.047,3.047,0,0,1-2.4-1.008,4.016,4.016,0,0,1-.892-2.758v-.212a4.453,4.453,0,0,1,.4-1.921,3.02,3.02,0,0,1,1.138-1.306,3.233,3.233,0,0,1,1.753-.465,2.966,2.966,0,0,1,2.068.745,2.663,2.663,0,0,1,.878,1.935h-1.2a1.743,1.743,0,0,0-.543-1.179,1.691,1.691,0,0,0-1.207-.461,1.77,1.77,0,0,0-1.494.694,3.259,3.259,0,0,0-.53,2.006v.239a3.194,3.194,0,0,0,.526,1.969A1.779,1.779,0,0,0,24.418-.9Zm6.426-2.529-.793.827V0H28.786V-10.5h1.265v6.351l.677-.813,2.3-2.434h1.538l-2.878,3.09L34.9,0H33.421Z" transform="translate(67 328)" fill="#a0a0a0"/>
    <path id="Path_9" data-name="Path 9" d="M4.806-4.026H2.468V0H1.148V-9.953H4.443a3.9,3.9,0,0,1,2.587.766,2.755,2.755,0,0,1,.906,2.229,2.68,2.68,0,0,1-.5,1.62,3,3,0,0,1-1.4,1.032L8.374-.082V0H6.966ZM2.468-5.1H4.484A2.275,2.275,0,0,0,6.04-5.606a1.714,1.714,0,0,0,.578-1.356,1.8,1.8,0,0,0-.55-1.418,2.33,2.33,0,0,0-1.589-.5H2.468ZM12.646.137A3.232,3.232,0,0,1,10.2-.851a3.666,3.666,0,0,1-.943-2.642v-.232a4.438,4.438,0,0,1,.42-1.965,3.28,3.28,0,0,1,1.176-1.354,2.956,2.956,0,0,1,1.637-.489,2.77,2.77,0,0,1,2.242.95,4.114,4.114,0,0,1,.8,2.721v.526H10.521a2.629,2.629,0,0,0,.639,1.767A2.009,2.009,0,0,0,12.715-.9a2.2,2.2,0,0,0,1.135-.273,2.851,2.851,0,0,0,.813-.725l.772.6A3.106,3.106,0,0,1,12.646.137Zm-.157-6.631a1.687,1.687,0,0,0-1.285.557,2.708,2.708,0,0,0-.643,1.562h3.705v-.1a2.409,2.409,0,0,0-.52-1.494A1.588,1.588,0,0,0,12.489-6.494ZM21.3-1.962a.931.931,0,0,0-.386-.8,3.718,3.718,0,0,0-1.347-.489,6.367,6.367,0,0,1-1.524-.492,2.169,2.169,0,0,1-.834-.684,1.635,1.635,0,0,1-.27-.943A1.919,1.919,0,0,1,17.708-6.9a3,3,0,0,1,1.965-.629,3.091,3.091,0,0,1,2.041.649A2.063,2.063,0,0,1,22.5-5.223H21.226a1.142,1.142,0,0,0-.441-.9,1.652,1.652,0,0,0-1.111-.376,1.729,1.729,0,0,0-1.08.3.947.947,0,0,0-.39.786.767.767,0,0,0,.362.69,4.458,4.458,0,0,0,1.309.444,6.821,6.821,0,0,1,1.535.506,2.239,2.239,0,0,1,.872.708,1.74,1.74,0,0,1,.284,1.008,1.893,1.893,0,0,1-.793,1.589,3.326,3.326,0,0,1-2.058.6,3.725,3.725,0,0,1-1.572-.314,2.557,2.557,0,0,1-1.07-.878,2.117,2.117,0,0,1-.386-1.22h1.265a1.309,1.309,0,0,0,.509,1.008A1.976,1.976,0,0,0,19.715-.9a2.039,2.039,0,0,0,1.152-.291A.893.893,0,0,0,21.3-1.962Zm5.981,2.1a3.232,3.232,0,0,1-2.447-.988,3.666,3.666,0,0,1-.943-2.642v-.232a4.438,4.438,0,0,1,.42-1.965,3.28,3.28,0,0,1,1.176-1.354,2.956,2.956,0,0,1,1.637-.489,2.77,2.77,0,0,1,2.242.95,4.114,4.114,0,0,1,.8,2.721v.526H25.156A2.629,2.629,0,0,0,25.8-1.569,2.009,2.009,0,0,0,27.351-.9a2.2,2.2,0,0,0,1.135-.273,2.851,2.851,0,0,0,.813-.725l.772.6A3.106,3.106,0,0,1,27.282.137Zm-.157-6.631a1.687,1.687,0,0,0-1.285.557A2.708,2.708,0,0,0,25.2-4.375H28.9v-.1a2.409,2.409,0,0,0-.52-1.494A1.588,1.588,0,0,0,27.125-6.494Zm6.221-2.693V-7.4h1.381v.978H33.346v4.593a1.027,1.027,0,0,0,.185.667.777.777,0,0,0,.629.222,3.062,3.062,0,0,0,.6-.082V0a3.688,3.688,0,0,1-.971.136,1.575,1.575,0,0,1-1.278-.513,2.2,2.2,0,0,1-.431-1.456V-6.419H30.734V-7.4h1.347V-9.187Z" transform="translate(140 328)" fill="#a0a0a0"/>
    <path id="Path_10" data-name="Path 10" d="M4.806-4.026H2.468V0H1.148V-9.953H4.443a3.9,3.9,0,0,1,2.587.766,2.755,2.755,0,0,1,.906,2.229,2.68,2.68,0,0,1-.5,1.62,3,3,0,0,1-1.4,1.032L8.374-.082V0H6.966ZM2.468-5.1H4.484A2.275,2.275,0,0,0,6.04-5.606a1.714,1.714,0,0,0,.578-1.356,1.8,1.8,0,0,0-.55-1.418,2.33,2.33,0,0,0-1.589-.5H2.468ZM14.144-.731a2.686,2.686,0,0,1-2.167.868,2.3,2.3,0,0,1-1.8-.687A2.974,2.974,0,0,1,9.55-2.584V-7.4h1.265v4.778q0,1.682,1.367,1.682a1.893,1.893,0,0,0,1.928-1.08V-7.4h1.265V0h-1.2ZM18.491-7.4l.041.93a2.7,2.7,0,0,1,2.215-1.066q2.345,0,2.365,2.646V0H21.848V-4.895a1.7,1.7,0,0,0-.366-1.183,1.466,1.466,0,0,0-1.118-.383,1.825,1.825,0,0,0-1.08.328,2.228,2.228,0,0,0-.725.861V0H17.295V-7.4Z" transform="translate(213 328)" fill="#a0a0a0"/>
    <path id="Path_3" data-name="Path 3" d="M-286.483-140.4h-7.05v10.6" transform="translate(351.533 463.9)" fill="none" stroke="gray" stroke-linecap="round" stroke-width="2"/>
    <path id="Path_4" data-name="Path 4" d="M-297.3-140.4h9v10.6" transform="translate(401.3 463.9)" fill="none" stroke="gray" stroke-linecap="round" stroke-width="2"/>
    <path id="Path_5" data-name="Path 5" d="M-284.48-140.4h-9.053v10.6" transform="translate(495.2 463.9)" fill="none" stroke="gray" stroke-linecap="round" stroke-width="2"/>
    <path id="Path_6" data-name="Path 6" d="M-297.3-140.4h9v10.6" transform="translate(537.3 463.9)" fill="none" stroke="gray" stroke-linecap="round" stroke-width="2"/>
    <path id="Path_11" data-name="Path 11" d="M4.088-4.437A6.172,6.172,0,0,1,1.63-5.629,2.279,2.279,0,0,1,.861-7.376,2.408,2.408,0,0,1,1.8-9.321a3.736,3.736,0,0,1,2.444-.769,4.078,4.078,0,0,1,1.829.4A3.007,3.007,0,0,1,7.318-8.6a2.8,2.8,0,0,1,.441,1.524H6.439A1.82,1.82,0,0,0,5.865-8.5a2.335,2.335,0,0,0-1.62-.518,2.391,2.391,0,0,0-1.514.428A1.428,1.428,0,0,0,2.188-7.4,1.285,1.285,0,0,0,2.7-6.37,5.062,5.062,0,0,0,4.46-5.6,8.152,8.152,0,0,1,6.4-4.83a2.946,2.946,0,0,1,1.039.981,2.5,2.5,0,0,1,.338,1.319A2.326,2.326,0,0,1,6.836-.591,4.022,4.022,0,0,1,4.313.137,4.678,4.678,0,0,1,2.4-.256,3.221,3.221,0,0,1,1.029-1.333,2.627,2.627,0,0,1,.547-2.885H1.866a1.714,1.714,0,0,0,.667,1.425,2.806,2.806,0,0,0,1.781.523A2.58,2.58,0,0,0,5.906-1.36,1.377,1.377,0,0,0,6.46-2.516a1.351,1.351,0,0,0-.513-1.131A5.911,5.911,0,0,0,4.088-4.437ZM12.332.137A3.232,3.232,0,0,1,9.885-.851a3.666,3.666,0,0,1-.943-2.642v-.232a4.438,4.438,0,0,1,.42-1.965,3.28,3.28,0,0,1,1.176-1.354,2.956,2.956,0,0,1,1.637-.489,2.77,2.77,0,0,1,2.242.95,4.114,4.114,0,0,1,.8,2.721v.526H10.206a2.629,2.629,0,0,0,.639,1.767A2.009,2.009,0,0,0,12.4-.9a2.2,2.2,0,0,0,1.135-.273,2.851,2.851,0,0,0,.813-.725l.772.6A3.106,3.106,0,0,1,12.332.137Zm-.157-6.631a1.687,1.687,0,0,0-1.285.557,2.708,2.708,0,0,0-.643,1.562h3.705v-.1a2.409,2.409,0,0,0-.52-1.494A1.588,1.588,0,0,0,12.175-6.494ZM18.054,0H16.789V-10.5h1.265ZM31.063-3.158A3.662,3.662,0,0,1,29.9-.721a3.82,3.82,0,0,1-2.608.858,3.507,3.507,0,0,1-2.827-1.265A5.088,5.088,0,0,1,23.4-4.512v-.957a5.671,5.671,0,0,1,.5-2.44,3.7,3.7,0,0,1,1.4-1.617,3.911,3.911,0,0,1,2.105-.564,3.6,3.6,0,0,1,2.543.885,3.706,3.706,0,0,1,1.114,2.451H29.743A2.86,2.86,0,0,0,29-8.482a2.244,2.244,0,0,0-1.6-.535,2.348,2.348,0,0,0-1.972.93,4.272,4.272,0,0,0-.714,2.648v.965A4.391,4.391,0,0,0,25.4-1.894a2.187,2.187,0,0,0,1.894.958,2.526,2.526,0,0,0,1.678-.5,2.75,2.75,0,0,0,.776-1.726Zm5.086,1.415,2.844-8.21h1.436L36.736,0H35.574L31.89-9.953h1.429Z" transform="translate(283 328)" fill="#a0a0a0"/>
    <path id="Path_12" data-name="Path 12" d="M4.088-4.437A6.172,6.172,0,0,1,1.63-5.629,2.279,2.279,0,0,1,.861-7.376,2.408,2.408,0,0,1,1.8-9.321a3.736,3.736,0,0,1,2.444-.769,4.078,4.078,0,0,1,1.829.4A3.007,3.007,0,0,1,7.318-8.6a2.8,2.8,0,0,1,.441,1.524H6.439A1.82,1.82,0,0,0,5.865-8.5a2.335,2.335,0,0,0-1.62-.518,2.391,2.391,0,0,0-1.514.428A1.428,1.428,0,0,0,2.188-7.4,1.285,1.285,0,0,0,2.7-6.37,5.062,5.062,0,0,0,4.46-5.6,8.152,8.152,0,0,1,6.4-4.83a2.946,2.946,0,0,1,1.039.981,2.5,2.5,0,0,1,.338,1.319A2.326,2.326,0,0,1,6.836-.591,4.022,4.022,0,0,1,4.313.137,4.678,4.678,0,0,1,2.4-.256,3.221,3.221,0,0,1,1.029-1.333,2.627,2.627,0,0,1,.547-2.885H1.866a1.714,1.714,0,0,0,.667,1.425,2.806,2.806,0,0,0,1.781.523A2.58,2.58,0,0,0,5.906-1.36,1.377,1.377,0,0,0,6.46-2.516a1.351,1.351,0,0,0-.513-1.131A5.911,5.911,0,0,0,4.088-4.437ZM12.332.137A3.232,3.232,0,0,1,9.885-.851a3.666,3.666,0,0,1-.943-2.642v-.232a4.438,4.438,0,0,1,.42-1.965,3.28,3.28,0,0,1,1.176-1.354,2.956,2.956,0,0,1,1.637-.489,2.77,2.77,0,0,1,2.242.95,4.114,4.114,0,0,1,.8,2.721v.526H10.206a2.629,2.629,0,0,0,.639,1.767A2.009,2.009,0,0,0,12.4-.9a2.2,2.2,0,0,0,1.135-.273,2.851,2.851,0,0,0,.813-.725l.772.6A3.106,3.106,0,0,1,12.332.137Zm-.157-6.631a1.687,1.687,0,0,0-1.285.557,2.708,2.708,0,0,0-.643,1.562h3.705v-.1a2.409,2.409,0,0,0-.52-1.494A1.588,1.588,0,0,0,12.175-6.494ZM18.054,0H16.789V-10.5h1.265ZM31.09-1.306A3.032,3.032,0,0,1,29.678-.222a5.7,5.7,0,0,1-2.109.359,4.09,4.09,0,0,1-2.16-.571A3.8,3.8,0,0,1,23.95-2.058a5.607,5.607,0,0,1-.53-2.44v-.868a5.234,5.234,0,0,1,1.049-3.486,3.656,3.656,0,0,1,2.95-1.237,3.777,3.777,0,0,1,2.509.8A3.469,3.469,0,0,1,31.09-7.034H29.777a2.17,2.17,0,0,0-2.352-1.982,2.323,2.323,0,0,0-2,.927A4.526,4.526,0,0,0,24.739-5.4v.814A4.242,4.242,0,0,0,25.5-1.925a2.482,2.482,0,0,0,2.071.989A4.575,4.575,0,0,0,28.868-1.1a2,2,0,0,0,.916-.552v-2.23h-2.3V-4.956H31.09ZM37.646,0a2.657,2.657,0,0,1-.178-.779,2.822,2.822,0,0,1-2.105.916,2.611,2.611,0,0,1-1.794-.619,2,2,0,0,1-.7-1.569,2.091,2.091,0,0,1,.878-1.794,4.142,4.142,0,0,1,2.471-.639h1.23v-.581a1.42,1.42,0,0,0-.4-1.056,1.593,1.593,0,0,0-1.169-.393,1.844,1.844,0,0,0-1.135.342,1.007,1.007,0,0,0-.458.827H33.018a1.745,1.745,0,0,1,.393-1.07,2.683,2.683,0,0,1,1.066-.817,3.588,3.588,0,0,1,1.48-.3,2.924,2.924,0,0,1,2,.639,2.306,2.306,0,0,1,.752,1.76v3.4a4.162,4.162,0,0,0,.26,1.62V0Zm-2.1-.964a2.223,2.223,0,0,0,1.128-.308,1.861,1.861,0,0,0,.772-.8V-3.589h-.991q-2.324,0-2.324,1.36a1.151,1.151,0,0,0,.4.93A1.524,1.524,0,0,0,35.547-.964ZM42.41-9.187V-7.4h1.381v.978H42.41v4.593a1.027,1.027,0,0,0,.185.667.777.777,0,0,0,.629.222,3.062,3.062,0,0,0,.6-.082V0a3.688,3.688,0,0,1-.971.136,1.575,1.575,0,0,1-1.278-.513,2.2,2.2,0,0,1-.431-1.456V-6.419H39.8V-7.4h1.347V-9.187ZM48.337.137A3.232,3.232,0,0,1,45.89-.851a3.666,3.666,0,0,1-.943-2.642v-.232a4.438,4.438,0,0,1,.42-1.965,3.28,3.28,0,0,1,1.176-1.354,2.956,2.956,0,0,1,1.637-.489,2.77,2.77,0,0,1,2.242.95,4.114,4.114,0,0,1,.8,2.721v.526H46.211a2.629,2.629,0,0,0,.639,1.767A2.009,2.009,0,0,0,48.405-.9a2.2,2.2,0,0,0,1.135-.273,2.851,2.851,0,0,0,.813-.725l.772.6A3.106,3.106,0,0,1,48.337.137ZM48.18-6.494a1.687,1.687,0,0,0-1.285.557,2.708,2.708,0,0,0-.643,1.562h3.705v-.1a2.409,2.409,0,0,0-.52-1.494A1.588,1.588,0,0,0,48.18-6.494Z" transform="translate(332 328)" fill="#a0a0a0"/>
    <line id="Line_2" data-name="Line 2" x2="322" transform="translate(58.5 175)" fill="none" stroke="#505050" stroke-linecap="round" stroke-width="2"/>
    <line id="Line_3" data-name="Line 3" x2="322" y2="1" transform="translate(58.5 238.5)" fill="none" stroke="#505050" stroke-linecap="round" stroke-width="2"/>
    <line id="Line_4" data-name="Line 4" x2="322" transform="translate(58.5 111)" fill="none" stroke="#505050" stroke-linecap="round" stroke-width="2"/>
  </g>
</svg>
