<svg xmlns="http://www.w3.org/2000/svg" xmlns:xlink="http://www.w3.org/1999/xlink" width="25" height="24" viewBox="0 0 25 24">
  <defs>
    <clipPath id="clip-black-handle-223">
      <rect width="25" height="24"/>
    </clipPath>
  </defs>
  <g id="black-handle-223" clip-path="url(#clip-black-handle-223)">
    <g id="Union_2" data-name="Union 2">
      <path d="M 22.9995002746582 23.50030136108398 L 1.999799966812134 23.50030136108398 C 1.172809958457947 23.50030136108398 0.5 22.82709121704102 0.5 21.99960136413574 L 0.5 16.00020027160645 C 0.5 15.17321109771729 1.172809958457947 14.50040054321289 1.999799966812134 14.50040054321289 L 2.500200033187866 14.50040054321289 L 3.000200033187866 14.50040054321289 L 3.000200033187866 14.00040054321289 L 3.000200033187866 0.5000006556510925 L 22 0.5000006556510925 L 22 14.00040054321289 L 22 14.50040054321289 L 22.5 14.50040054321289 L 22.9995002746582 14.50040054321289 C 23.82649040222168 14.50040054321289 24.49930000305176 15.17321109771729 24.49930000305176 16.00020027160645 L 24.49930000305176 21.99960136413574 C 24.49930000305176 22.82709121704102 23.82649040222168 23.50030136108398 22.9995002746582 23.50030136108398 Z" stroke="none"/>
      <path d="M 22.9995002746582 23.00030136108398 C 23.55079078674316 23.00030136108398 23.99930000305176 22.5513916015625 23.99930000305176 21.99960136413574 L 23.99930000305176 16.00020027160645 C 23.99930000305176 15.4489107131958 23.55079078674316 15.00040054321289 22.9995002746582 15.00040054321289 L 22.5 15.00040054321289 L 21.5 15.00040054321289 L 21.5 14.00040054321289 L 21.5 1.000000715255737 L 3.500200033187866 1.000000715255737 L 3.500200033187866 14.00040054321289 L 3.500200033187866 15.00040054321289 L 2.500200033187866 15.00040054321289 L 1.999799966812134 15.00040054321289 C 1.448510050773621 15.00040054321289 1 15.4489107131958 1 16.00020027160645 L 1 21.99960136413574 C 1 22.5513916015625 1.448510050773621 23.00030136108398 1.999799966812134 23.00030136108398 L 22.9995002746582 23.00030136108398 M 22.9995002746582 24.00030136108398 L 1.999799966812134 24.00030136108398 C 0.8955000042915344 24.00030136108398 1.525878090546939e-09 23.10480117797852 1.525878090546939e-09 21.99960136413574 L 1.525878090546939e-09 16.00020027160645 C 1.525878090546939e-09 14.89500045776367 0.8955000042915344 14.00040054321289 1.999799966812134 14.00040054321289 L 2.500200033187866 14.00040054321289 L 2.500200033187866 6.805419729971618e-07 L 22.5 6.805419729971618e-07 L 22.5 14.00040054321289 L 22.9995002746582 14.00040054321289 C 24.10379981994629 14.00040054321289 24.99930000305176 14.89500045776367 24.99930000305176 16.00020027160645 L 24.99930000305176 21.99960136413574 C 24.99930000305176 23.10480117797852 24.10379981994629 24.00030136108398 22.9995002746582 24.00030136108398 Z" stroke="none" fill="#fff"/>
    </g>
    <path id="Path_5" data-name="Path 5" d="M4.146-5.683a1.593,1.593,0,0,0-.11-.618,1.224,1.224,0,0,0-.3-.438A1.232,1.232,0,0,0,3.287-7a1.756,1.756,0,0,0-.559-.086,1.848,1.848,0,0,0-.5.07,2.454,2.454,0,0,0-.481.193,2.957,2.957,0,0,0-.451.3,3.259,3.259,0,0,0-.406.381V-7.09a2.634,2.634,0,0,1,.83-.551,2.922,2.922,0,0,1,1.12-.191,2.7,2.7,0,0,1,.875.137,2.007,2.007,0,0,1,.7.4,1.85,1.85,0,0,1,.465.65,2.192,2.192,0,0,1,.169.886,3.039,3.039,0,0,1-.1.827,2.558,2.558,0,0,1-.317.7,3.369,3.369,0,0,1-.534.628,7.57,7.57,0,0,1-.757.612q-.542.387-.894.661a3.953,3.953,0,0,0-.559.513,1.488,1.488,0,0,0-.29.478A1.671,1.671,0,0,0,1.5-.79H5.339V0H.585V-.381a3.178,3.178,0,0,1,.107-.87,2.259,2.259,0,0,1,.354-.714,3.964,3.964,0,0,1,.647-.677q.4-.338.98-.763a6.2,6.2,0,0,0,.7-.575,2.988,2.988,0,0,0,.454-.548,1.968,1.968,0,0,0,.244-.556A2.4,2.4,0,0,0,4.146-5.683ZM9.663-3.137H6.687v-.44a1.109,1.109,0,0,1,.158-.588,2.343,2.343,0,0,1,.4-.486,5.1,5.1,0,0,1,.518-.427,6.193,6.193,0,0,0,.518-.416,2.345,2.345,0,0,0,.4-.457.968.968,0,0,0,.158-.542.6.6,0,0,0-.2-.483.8.8,0,0,0-.54-.172,1.573,1.573,0,0,0-1.16.548v-.8A1.8,1.8,0,0,1,8.2-7.81a1.616,1.616,0,0,1,.553.091,1.264,1.264,0,0,1,.435.26,1.187,1.187,0,0,1,.285.406,1.329,1.329,0,0,1,.1.532,1.57,1.57,0,0,1-.153.706,2.314,2.314,0,0,1-.384.556,3.412,3.412,0,0,1-.5.44l-.5.357a3.333,3.333,0,0,0-.384.312.422.422,0,0,0-.153.3v.059H9.663Zm4.1-4.565L9.158,0H8.384L13-7.7ZM12.515-.177V-.94a1.933,1.933,0,0,0,1.166.408,1.041,1.041,0,0,0,.677-.2.666.666,0,0,0,.247-.545q0-.757-1.176-.757h-.451v-.634h.43q1.058,0,1.058-.72,0-.639-.773-.639a1.656,1.656,0,0,0-1,.371V-4.4a2.227,2.227,0,0,1,1.144-.274,1.4,1.4,0,0,1,.967.32,1.064,1.064,0,0,1,.36.835,1.088,1.088,0,0,1-.779,1.1V-2.4a1.058,1.058,0,0,1,.951,1.085A1.3,1.3,0,0,1,14.878-.29a1.791,1.791,0,0,1-1.219.4A1.979,1.979,0,0,1,12.515-.177Z" transform="translate(5 20)" fill="#fff"/>
  </g>
</svg>
