<svg xmlns="http://www.w3.org/2000/svg" xmlns:xlink="http://www.w3.org/1999/xlink" width="25" height="24" viewBox="0 0 25 24">
  <defs>
    <clipPath id="clip-black-handle-135">
      <rect width="25" height="24"/>
    </clipPath>
  </defs>
  <g id="black-handle-135" clip-path="url(#clip-black-handle-135)">
    <g id="Union_2" data-name="Union 2">
      <path d="M 22.9995002746582 23.50030136108398 L 1.999799966812134 23.50030136108398 C 1.172809958457947 23.50030136108398 0.5 22.82709121704102 0.5 21.99960136413574 L 0.5 16.00020027160645 C 0.5 15.17321109771729 1.172809958457947 14.50040054321289 1.999799966812134 14.50040054321289 L 2.500200033187866 14.50040054321289 L 3.000200033187866 14.50040054321289 L 3.000200033187866 14.00040054321289 L 3.000200033187866 0.5000006556510925 L 22 0.5000006556510925 L 22 14.00040054321289 L 22 14.50040054321289 L 22.5 14.50040054321289 L 22.9995002746582 14.50040054321289 C 23.82649040222168 14.50040054321289 24.49930000305176 15.17321109771729 24.49930000305176 16.00020027160645 L 24.49930000305176 21.99960136413574 C 24.49930000305176 22.82709121704102 23.82649040222168 23.50030136108398 22.9995002746582 23.50030136108398 Z" stroke="none"/>
      <path d="M 22.9995002746582 23.00030136108398 C 23.55079078674316 23.00030136108398 23.99930000305176 22.5513916015625 23.99930000305176 21.99960136413574 L 23.99930000305176 16.00020027160645 C 23.99930000305176 15.4489107131958 23.55079078674316 15.00040054321289 22.9995002746582 15.00040054321289 L 22.5 15.00040054321289 L 21.5 15.00040054321289 L 21.5 14.00040054321289 L 21.5 1.000000715255737 L 3.500200033187866 1.000000715255737 L 3.500200033187866 14.00040054321289 L 3.500200033187866 15.00040054321289 L 2.500200033187866 15.00040054321289 L 1.999799966812134 15.00040054321289 C 1.448510050773621 15.00040054321289 1 15.4489107131958 1 16.00020027160645 L 1 21.99960136413574 C 1 22.5513916015625 1.448510050773621 23.00030136108398 1.999799966812134 23.00030136108398 L 22.9995002746582 23.00030136108398 M 22.9995002746582 24.00030136108398 L 1.999799966812134 24.00030136108398 C 0.8955000042915344 24.00030136108398 1.525878090546939e-09 23.10480117797852 1.525878090546939e-09 21.99960136413574 L 1.525878090546939e-09 16.00020027160645 C 1.525878090546939e-09 14.89500045776367 0.8955000042915344 14.00040054321289 1.999799966812134 14.00040054321289 L 2.500200033187866 14.00040054321289 L 2.500200033187866 6.805419729971618e-07 L 22.5 6.805419729971618e-07 L 22.5 14.00040054321289 L 22.9995002746582 14.00040054321289 C 24.10379981994629 14.00040054321289 24.99930000305176 14.89500045776367 24.99930000305176 16.00020027160645 L 24.99930000305176 21.99960136413574 C 24.99930000305176 23.10480117797852 24.10379981994629 24.00030136108398 22.9995002746582 24.00030136108398 Z" stroke="none" fill="#fff"/>
    </g>
    <path id="Path_12" data-name="Path 12" d="M3.889,0H3.008V-6.655a2.039,2.039,0,0,1-.3.234,4.859,4.859,0,0,1-.44.26q-.244.129-.516.242a3.747,3.747,0,0,1-.529.177v-.892a5.121,5.121,0,0,0,.615-.218q.325-.137.639-.306t.594-.354a4.712,4.712,0,0,0,.483-.363h.333Z" transform="translate(5 20)" fill="#fff"/>
    <path id="Path_10" data-name="Path 10" d="M3.573-6.3.549,1.046H-.123L2.892-6.3Z" transform="translate(14 19)" fill="#fff"/>
    <path id="Path_7" data-name="Path 7" d="M3.257-1.388a1.429,1.429,0,0,1-.125.6,1.332,1.332,0,0,1-.352.465,1.625,1.625,0,0,1-.545.3,2.205,2.205,0,0,1-.7.106A2.036,2.036,0,0,1,.42-.181v-.6a1.786,1.786,0,0,0,1.135.39,1.542,1.542,0,0,0,.463-.065,1.038,1.038,0,0,0,.355-.188.835.835,0,0,0,.229-.3.929.929,0,0,0,.08-.393q0-.96-1.367-.96H.909v-.475H1.3q1.21,0,1.21-.9,0-.834-.923-.834a1.571,1.571,0,0,0-.974.349V-4.7a2.13,2.13,0,0,1,1.114-.28A1.712,1.712,0,0,1,2.28-4.9a1.277,1.277,0,0,1,.427.239,1.06,1.06,0,0,1,.275.369,1.139,1.139,0,0,1,.1.475A1.2,1.2,0,0,1,2.1-2.57v.014a1.546,1.546,0,0,1,.461.121,1.231,1.231,0,0,1,.366.244,1.089,1.089,0,0,1,.241.354A1.129,1.129,0,0,1,3.257-1.388Z" transform="translate(11 17)" fill="#fff"/>
    <path id="Path_8" data-name="Path 8" d="M3.312-1.5a1.65,1.65,0,0,1-.123.649,1.42,1.42,0,0,1-.35.5,1.569,1.569,0,0,1-.549.321,2.145,2.145,0,0,1-.714.113A1.973,1.973,0,0,1,.561-.12V-.714a1.867,1.867,0,0,0,1.022.321,1.383,1.383,0,0,0,.48-.079A1.067,1.067,0,0,0,2.427-.69a.937.937,0,0,0,.231-.338,1.145,1.145,0,0,0,.08-.434.93.93,0,0,0-.321-.75,1.409,1.409,0,0,0-.933-.272q-.1,0-.208,0l-.219.009-.214.012q-.1.007-.19.017L.82-4.9H3.086V-4.4H1.306l-.1,1.439.232-.012q.123-.005.219-.005a2.2,2.2,0,0,1,.7.1,1.477,1.477,0,0,1,.521.292,1.225,1.225,0,0,1,.325.465A1.635,1.635,0,0,1,3.312-1.5Z" transform="translate(17 20)" fill="#fff"/>
  </g>
</svg>
