<svg xmlns="http://www.w3.org/2000/svg" xmlns:xlink="http://www.w3.org/1999/xlink" width="25" height="24" viewBox="0 0 25 24">
  <defs>
    <clipPath id="clip-blue-handle-16">
      <rect width="25" height="24"/>
    </clipPath>
  </defs>
  <g id="blue-handle-16" clip-path="url(#clip-blue-handle-16)">
    <g id="Union_2" data-name="Union 2" fill="#307dee">
      <path d="M 22.9995002746582 23.50030136108398 L 1.999799966812134 23.50030136108398 C 1.172809958457947 23.50030136108398 0.5 22.82709121704102 0.5 21.99960136413574 L 0.5 16.00020027160645 C 0.5 15.17321109771729 1.172809958457947 14.50040054321289 1.999799966812134 14.50040054321289 L 2.500200033187866 14.50040054321289 L 3.000200033187866 14.50040054321289 L 3.000200033187866 14.00040054321289 L 3.000200033187866 0.5000006556510925 L 22 0.5000006556510925 L 22 14.00040054321289 L 22 14.50040054321289 L 22.5 14.50040054321289 L 22.9995002746582 14.50040054321289 C 23.82649040222168 14.50040054321289 24.49930000305176 15.17321109771729 24.49930000305176 16.00020027160645 L 24.49930000305176 21.99960136413574 C 24.49930000305176 22.82709121704102 23.82649040222168 23.50030136108398 22.9995002746582 23.50030136108398 Z" stroke="none"/>
      <path d="M 22.9995002746582 23.00030136108398 C 23.55079078674316 23.00030136108398 23.99930000305176 22.5513916015625 23.99930000305176 21.99960136413574 L 23.99930000305176 16.00020027160645 C 23.99930000305176 15.4489107131958 23.55079078674316 15.00040054321289 22.9995002746582 15.00040054321289 L 22.5 15.00040054321289 L 21.5 15.00040054321289 L 21.5 14.00040054321289 L 21.5 1.000000715255737 L 3.500200033187866 1.000000715255737 L 3.500200033187866 14.00040054321289 L 3.500200033187866 15.00040054321289 L 2.500200033187866 15.00040054321289 L 1.999799966812134 15.00040054321289 C 1.448510050773621 15.00040054321289 1 15.4489107131958 1 16.00020027160645 L 1 21.99960136413574 C 1 22.5513916015625 1.448510050773621 23.00030136108398 1.999799966812134 23.00030136108398 L 22.9995002746582 23.00030136108398 M 22.9995002746582 24.00030136108398 L 1.999799966812134 24.00030136108398 C 0.8955000042915344 24.00030136108398 1.525878090546939e-09 23.10480117797852 1.525878090546939e-09 21.99960136413574 L 1.525878090546939e-09 16.00020027160645 C 1.525878090546939e-09 14.89500045776367 0.8955000042915344 14.00040054321289 1.999799966812134 14.00040054321289 L 2.500200033187866 14.00040054321289 L 2.500200033187866 6.805419729971618e-07 L 22.5 6.805419729971618e-07 L 22.5 14.00040054321289 L 22.9995002746582 14.00040054321289 C 24.10379981994629 14.00040054321289 24.99930000305176 14.89500045776367 24.99930000305176 16.00020027160645 L 24.99930000305176 21.99960136413574 C 24.99930000305176 23.10480117797852 24.10379981994629 24.00030136108398 22.9995002746582 24.00030136108398 Z" stroke="none" fill="#0"/>
    </g>
    <path id="Path_1" data-name="Path 1" d="M3.889,0H3.008V-6.655a2.039,2.039,0,0,1-.3.234,4.859,4.859,0,0,1-.44.26q-.244.129-.516.242a3.747,3.747,0,0,1-.529.177v-.892a5.121,5.121,0,0,0,.615-.218q.325-.137.639-.306t.594-.354a4.712,4.712,0,0,0,.483-.363h.333Zm7.53-2.444a2.853,2.853,0,0,1-.183,1.037,2.492,2.492,0,0,1-.5.816,2.256,2.256,0,0,1-.768.534A2.432,2.432,0,0,1,9,.134,2.2,2.2,0,0,1,7.957-.107a2.2,2.2,0,0,1-.779-.7,3.336,3.336,0,0,1-.486-1.109,6.009,6.009,0,0,1-.167-1.477,6.941,6.941,0,0,1,.223-1.823,4.43,4.43,0,0,1,.634-1.4,2.922,2.922,0,0,1,.991-.9,2.655,2.655,0,0,1,1.294-.317,3.118,3.118,0,0,1,1.278.22v.833a2.715,2.715,0,0,0-1.257-.306,1.873,1.873,0,0,0-.929.231,2.134,2.134,0,0,0-.709.653A3.183,3.183,0,0,0,7.6-5.183a5.164,5.164,0,0,0-.158,1.327H7.46a1.85,1.85,0,0,1,1.756-.961,2.312,2.312,0,0,1,.91.172,1.965,1.965,0,0,1,.693.486,2.189,2.189,0,0,1,.443.749A2.852,2.852,0,0,1,11.419-2.444Zm-.9.113a2.4,2.4,0,0,0-.1-.725,1.573,1.573,0,0,0-.293-.548,1.262,1.262,0,0,0-.47-.346,1.582,1.582,0,0,0-.634-.121,1.484,1.484,0,0,0-.607.124,1.511,1.511,0,0,0-.483.336,1.555,1.555,0,0,0-.32.494,1.565,1.565,0,0,0-.115.6,2.389,2.389,0,0,0,.113.744,1.922,1.922,0,0,0,.317.6,1.507,1.507,0,0,0,.486.406,1.328,1.328,0,0,0,.626.148,1.433,1.433,0,0,0,.607-.126,1.354,1.354,0,0,0,.467-.352,1.629,1.629,0,0,0,.3-.54A2.139,2.139,0,0,0,10.517-2.331Z" transform="translate(6 20)"/>
  </g>
</svg>
