<svg xmlns="http://www.w3.org/2000/svg" xmlns:xlink="http://www.w3.org/1999/xlink" width="25" height="24" viewBox="0 0 25 24">
  <defs>
    <clipPath id="clip-blue-handle-513">
      <rect width="25" height="24"/>
    </clipPath>
  </defs>
  <g id="blue-handle-513" clip-path="url(#clip-blue-handle-513)">
    <g id="Union_2" data-name="Union 2" fill="#307dee">
      <path d="M 22.9995002746582 23.50030136108398 L 1.999799966812134 23.50030136108398 C 1.172809958457947 23.50030136108398 0.5 22.82709121704102 0.5 21.99960136413574 L 0.5 16.00020027160645 C 0.5 15.17321109771729 1.172809958457947 14.50040054321289 1.999799966812134 14.50040054321289 L 2.500200033187866 14.50040054321289 L 3.000200033187866 14.50040054321289 L 3.000200033187866 14.00040054321289 L 3.000200033187866 0.5000006556510925 L 22 0.5000006556510925 L 22 14.00040054321289 L 22 14.50040054321289 L 22.5 14.50040054321289 L 22.9995002746582 14.50040054321289 C 23.82649040222168 14.50040054321289 24.49930000305176 15.17321109771729 24.49930000305176 16.00020027160645 L 24.49930000305176 21.99960136413574 C 24.49930000305176 22.82709121704102 23.82649040222168 23.50030136108398 22.9995002746582 23.50030136108398 Z" stroke="none"/>
      <path d="M 22.9995002746582 23.00030136108398 C 23.55079078674316 23.00030136108398 23.99930000305176 22.5513916015625 23.99930000305176 21.99960136413574 L 23.99930000305176 16.00020027160645 C 23.99930000305176 15.4489107131958 23.55079078674316 15.00040054321289 22.9995002746582 15.00040054321289 L 22.5 15.00040054321289 L 21.5 15.00040054321289 L 21.5 14.00040054321289 L 21.5 1.000000715255737 L 3.500200033187866 1.000000715255737 L 3.500200033187866 14.00040054321289 L 3.500200033187866 15.00040054321289 L 2.500200033187866 15.00040054321289 L 1.999799966812134 15.00040054321289 C 1.448510050773621 15.00040054321289 1 15.4489107131958 1 16.00020027160645 L 1 21.99960136413574 C 1 22.5513916015625 1.448510050773621 23.00030136108398 1.999799966812134 23.00030136108398 L 22.9995002746582 23.00030136108398 M 22.9995002746582 24.00030136108398 L 1.999799966812134 24.00030136108398 C 0.8955000042915344 24.00030136108398 1.525878090546939e-09 23.10480117797852 1.525878090546939e-09 21.99960136413574 L 1.525878090546939e-09 16.00020027160645 C 1.525878090546939e-09 14.89500045776367 0.8955000042915344 14.00040054321289 1.999799966812134 14.00040054321289 L 2.500200033187866 14.00040054321289 L 2.500200033187866 6.805419729971618e-07 L 22.5 6.805419729971618e-07 L 22.5 14.00040054321289 L 22.9995002746582 14.00040054321289 C 24.10379981994629 14.00040054321289 24.99930000305176 14.89500045776367 24.99930000305176 16.00020027160645 L 24.99930000305176 21.99960136413574 C 24.99930000305176 23.10480117797852 24.10379981994629 24.00030136108398 22.9995002746582 24.00030136108398 Z" stroke="none" fill="#0"/>
    </g>
    <path id="Path_2" data-name="Path 2" d="M5.2-2.353a2.592,2.592,0,0,1-.193,1.021,2.231,2.231,0,0,1-.551.784,2.465,2.465,0,0,1-.862.5A3.371,3.371,0,0,1,2.476.134a3.1,3.1,0,0,1-1.6-.322v-.935a2.933,2.933,0,0,0,1.606.5,2.173,2.173,0,0,0,.755-.124,1.677,1.677,0,0,0,.572-.344,1.472,1.472,0,0,0,.363-.532A1.8,1.8,0,0,0,4.3-2.3a1.461,1.461,0,0,0-.5-1.179A2.214,2.214,0,0,0,2.331-3.9Q2.175-3.9,2-3.9l-.344.013q-.172.008-.336.019t-.3.027L1.289-7.7H4.85v.795h-2.8L1.9-4.646q.172-.011.365-.019T2.6-4.673a3.457,3.457,0,0,1,1.1.161,2.321,2.321,0,0,1,.819.459,1.925,1.925,0,0,1,.51.73A2.569,2.569,0,0,1,5.2-2.353Zm2.412-.784V-6.929a5.291,5.291,0,0,1-.628.438,5.726,5.726,0,0,1-.661.336V-6.88a3.459,3.459,0,0,0,.392-.161q.188-.091.381-.207t.4-.258q.2-.142.44-.314h.376v4.684ZM13.777-7.7,9.168,0H8.4l4.614-7.7ZM12.525-.177V-.94a1.933,1.933,0,0,0,1.166.408,1.041,1.041,0,0,0,.677-.2.666.666,0,0,0,.247-.545q0-.757-1.176-.757h-.451v-.634h.43q1.058,0,1.058-.72,0-.639-.773-.639a1.656,1.656,0,0,0-1,.371V-4.4a2.227,2.227,0,0,1,1.144-.274,1.4,1.4,0,0,1,.967.32,1.064,1.064,0,0,1,.36.835,1.088,1.088,0,0,1-.779,1.1V-2.4a1.058,1.058,0,0,1,.951,1.085A1.3,1.3,0,0,1,14.889-.29a1.791,1.791,0,0,1-1.219.4A1.979,1.979,0,0,1,12.525-.177Z" transform="translate(5 20)"/>
  </g>
</svg>
