<?xml version="1.0" encoding="UTF-8" standalone="no"?>
<svg
   xmlns:dc="http://purl.org/dc/elements/1.1/"
   xmlns:cc="http://creativecommons.org/ns#"
   xmlns:rdf="http://www.w3.org/1999/02/22-rdf-syntax-ns#"
   xmlns:svg="http://www.w3.org/2000/svg"
   xmlns="http://www.w3.org/2000/svg"
   xmlns:sodipodi="http://sodipodi.sourceforge.net/DTD/sodipodi-0.dtd"
   xmlns:inkscape="http://www.inkscape.org/namespaces/inkscape"
   id="Layer_1"
   data-name="Layer 1"
   width="90"
   height="380"
   viewBox="0 0 90 380"
   version="1.1"
   sodipodi:docname="booty_panel.svg"
   inkscape:version="1.0.2-2 (e86c870879, 2021-01-15)">
  <metadata
     id="metadata1406">
    <rdf:RDF>
      <cc:Work
         rdf:about="">
        <dc:format>image/svg+xml</dc:format>
        <dc:type
           rdf:resource="http://purl.org/dc/dcmitype/StillImage" />
      </cc:Work>
    </rdf:RDF>
  </metadata>
  <sodipodi:namedview
     pagecolor="#ffffff"
     bordercolor="#666666"
     borderopacity="1"
     objecttolerance="10"
     gridtolerance="10"
     guidetolerance="10"
     inkscape:pageopacity="0"
     inkscape:pageshadow="2"
     inkscape:window-width="1920"
     inkscape:window-height="991"
     id="namedview1404"
     showgrid="false"
     inkscape:zoom="8.9064375"
     inkscape:cx="45"
     inkscape:cy="289.01702"
     inkscape:window-x="-9"
     inkscape:window-y="-9"
     inkscape:window-maximized="1"
     inkscape:current-layer="Layer_1"
     inkscape:document-rotation="0" />
  <defs
     id="defs1269">
    <clipPath
       id="clip-path">
      <rect
         width="90"
         height="380"
         style="fill: none"
         id="rect1266" />
    </clipPath>
  </defs>
  <title
     id="title1271">panel-6b-flat</title>
  <rect
     width="90"
     height="380"
     style="fill:#ffffff"
     id="rect1273"
     x="0"
     y="0" />
  <g
     id="background_fill"
     data-name="background fill">
    <rect
       width="90"
       height="380"
       style="fill:#e6e6e6"
       id="rect1275"
       x="0"
       y="0" />
    <rect
       x="0.5"
       y="0.5"
       width="89"
       height="379"
       style="fill:none;stroke:#707070"
       id="rect1277" />
  </g>
  <g
     id="Booty_Shifter"
     data-name="Booty Shifter"
     style="isolation:isolate">
    <g
       style="isolation:isolate"
       id="g1304">
      <path
         d="m 13.27,27.22 -6.18,0.65 0.09,0.82 H 4.92 L 5,28.08 4.15,28.18 5,27.72 5.86,19.61 4.11,18.72 6,18.91 v -0.63 h 0.07 l 0.07,0.65 7.11,0.75 v 0.23 L 7.88,23.45 13.27,27 Z M 8.73,25.83 7.42,23.45 8.73,21.06 6.25,19.8 7,26.73 Z"
         id="path1280" />
      <path
         d="m 21.28,24.65 a 2.71,2.71 0 0 1 -1.14,2 6.39,6.39 0 0 1 -2.73,1.35 6.23,6.23 0 0 1 -1.33,0.15 3.29,3.29 0 0 1 -1.83,-0.46 1.41,1.41 0 0 1 -0.7,-1.23 2.71,2.71 0 0 1 1.13,-2 6.61,6.61 0 0 1 2.73,-1.35 5.68,5.68 0 0 1 1.33,-0.11 3.19,3.19 0 0 1 1.83,0.47 1.42,1.42 0 0 1 0.71,1.18 z m -2.64,1.4 a 2.73,2.73 0 0 0 0.21,-1.05 1.77,1.77 0 0 0 -0.23,-0.92 0.91,0.91 0 0 0 -0.8,-0.46 1.37,1.37 0 0 0 -0.92,0.4 2.8,2.8 0 0 0 -0.72,1 2.71,2.71 0 0 0 -0.21,1 1.75,1.75 0 0 0 0.24,0.94 0.9,0.9 0 0 0 0.8,0.45 1.45,1.45 0 0 0 0.92,-0.39 2.54,2.54 0 0 0 0.71,-0.97 z"
         id="path1282" />
      <path
         d="m 29.34,24.65 a 2.73,2.73 0 0 1 -1.13,2 6.51,6.51 0 0 1 -2.73,1.35 6.23,6.23 0 0 1 -1.33,0.15 3.27,3.27 0 0 1 -1.83,-0.46 1.42,1.42 0 0 1 -0.71,-1.23 2.7,2.7 0 0 1 1.14,-2 6.49,6.49 0 0 1 2.73,-1.35 5.62,5.62 0 0 1 1.33,-0.11 3.18,3.18 0 0 1 1.82,0.47 1.42,1.42 0 0 1 0.71,1.18 z m -2.63,1.4 A 2.73,2.73 0 0 0 26.92,25 1.68,1.68 0 0 0 26.68,24.08 0.9,0.9 0 0 0 25.88,23.62 1.39,1.39 0 0 0 25,24 a 2.8,2.8 0 0 0 -0.72,1 2.71,2.71 0 0 0 -0.21,1 1.75,1.75 0 0 0 0.24,0.94 0.91,0.91 0 0 0 0.8,0.45 1.41,1.41 0 0 0 0.92,-0.39 2.66,2.66 0 0 0 0.68,-0.95 z"
         id="path1284" />
      <path
         d="M 39.52,22 32,22.37 33,28 h -3.2 l 1,-5.57 -3,0.14 v -1.18 l 3.17,0.16 0.37,-2 h 0.14 l 0.36,2.07 7.69,0.36 z"
         id="path1286" />
      <path
         d="m 42.11,24.35 -6,6.79 -0.11,-0.09 1.3,-3.19 -3.38,-3.72 2.85,-1.42 0.81,4.47 1.87,-4.54 z"
         id="path1288" />
      <path
         d="m 54.23,17.28 -5.39,3.61 4,6.8 -8.43,2.55 v -0.13 l 5.35,-3.58 -4.05,-6.79 8.5,-2.56 z"
         id="path1290" />
      <path
         d="M 60.53,22.72 58.63,28 h -0.21 a 7.26,7.26 0 0 0 0.1,-1.16 c 0,-1 -0.24,-1.53 -0.7,-1.53 a 0.66,0.66 0 0 0 -0.27,0.06 2.53,2.53 0 0 0 -1.2,1.23 5.1,5.1 0 0 0 -0.65,1.69 H 55.55 L 54,19.36 h 3.19 l -0.87,5.08 a 3.79,3.79 0 0 1 3.19,-1.86 3.46,3.46 0 0 1 1.02,0.14 z"
         id="path1292" />
      <path
         d="m 64.2,22.3 -1.51,5.76 H 62.53 L 61,22.3 Z m 0.11,-2 -1.2,0.36 0.32,1.25 -0.74,-1.05 -1.07,0.67 0.76,-1 -1,-0.81 1.19,0.41 0.48,-1.17 v 1.26 z"
         id="path1294" />
      <path
         d="m 70,19.61 -2.24,0.44 -0.45,2.64 2,-0.37 v 2 l -2.16,-0.42 -0.7,4.2 h -0.17 l -0.75,-4.52 -1.14,-0.21 v -0.1 l 1,-0.21 -0.39,-2.47 -1.06,0.2 V 18.31 L 70,19.49 Z"
         id="path1296" />
      <path
         d="m 80.19,22 -7.55,0.36 1,5.63 h -3.17 l 1,-5.57 -3,0.14 v -1.17 l 3.17,0.16 0.37,-2 h 0.14 l 0.36,2.07 7.69,0.36 z"
         id="path1298" />
      <path
         d="m 81.7,24.39 a 1.46,1.46 0 0 1 -0.7,1.34 5.24,5.24 0 0 1 -2.52,1 8.37,8.37 0 0 1 -1,0.1 1.25,1.25 0 0 0 1.08,0.46 4.81,4.81 0 0 0 2.47,-0.88 l 0.31,0.38 a 4.44,4.44 0 0 1 -1.51,0.78 8.64,8.64 0 0 1 -2.18,0.45 4,4 0 0 1 -2,-0.32 1.65,1.65 0 0 1 -1,-1.49 2.28,2.28 0 0 1 1.07,-1.89 5.63,5.63 0 0 1 2.42,-1 6.9,6.9 0 0 1 1.23,-0.12 3.06,3.06 0 0 1 1.58,0.35 1.26,1.26 0 0 1 0.75,0.84 z m -2.82,-0.77 a 1.71,1.71 0 0 0 -1,0.35 2,2 0 0 0 -1,1.62 0.65,0.65 0 0 0 0.73,0.73 1.78,1.78 0 0 0 1,-0.36 2.55,2.55 0 0 0 0.73,-0.77 1.67,1.67 0 0 0 0.28,-0.84 0.65,0.65 0 0 0 -0.74,-0.73 z"
         id="path1300" />
      <path
         d="m 86.6,25.61 -2.31,0.14 -0.7,2.84 h -0.2 l -1.34,-5.43 h 2.88 l -0.26,1.07 1.93,-1.07 z"
         id="path1302" />
    </g>
  </g>
  <g
     id="Squinky_Labs"
     data-name="Squinky Labs"
     style="isolation:isolate"
     transform="translate(0,6)">
    <g
       style="isolation:isolate"
       id="g1329">
      <path
         d="m 14.32,348.28 -5.39,3.61 4,6.8 -8.43,2.55 v -0.13 l 5.35,-3.58 -4,-6.79 8.5,-2.56 z"
         id="path1307" />
      <path
         d="m 21.77,361.93 h -3.18 l 0.58,-3.42 a 6,6 0 0 1 -2.72,0.64 3.26,3.26 0 0 1 -1.82,-0.46 1.43,1.43 0 0 1 -0.7,-1.23 2.73,2.73 0 0 1 1.14,-2 6.43,6.43 0 0 1 2.74,-1.36 5.33,5.33 0 0 1 2.13,-0.08 l 0.17,-1 h 0.15 z m -1.93,-7.34 a 4.53,4.53 0 0 0 -0.94,-0.11 2.45,2.45 0 0 0 -1.72,0.64 2.13,2.13 0 0 0 -0.67,1.71 1.53,1.53 0 0 0 0.38,1 1.2,1.2 0 0 0 1,0.42 2.91,2.91 0 0 0 1.44,-0.48 z"
         id="path1309" />
      <path
         d="m 28,359.15 h -1.9 l 0.22,-1.72 a 3.79,3.79 0 0 1 -3.19,1.86 3,3 0 0 1 -1,-0.14 l 1.9,-5.32 0.21,0.05 a 7.26,7.26 0 0 0 -0.1,1.16 c 0,1 0.24,1.52 0.7,1.52 a 0.86,0.86 0 0 0 0.27,-0.05 2.53,2.53 0 0 0 1.2,-1.23 5,5 0 0 0 0.63,-1.7 h 0.17 z"
         id="path1311" />
      <path
         d="m 31.67,353.3 -1.51,5.76 H 30 l -1.51,-5.76 z m 0.11,-2 -1.2,0.36 0.32,1.25 -0.74,-1.05 -1.07,0.67 0.76,-1 -1,-0.81 1.19,0.41 0.48,-1.17 v 1.26 z"
         id="path1313" />
      <path
         d="M 38.1,353.72 36.19,359 H 36 a 6.26,6.26 0 0 0 0.1,-1.16 c 0,-1 -0.23,-1.53 -0.7,-1.53 a 0.74,0.74 0 0 0 -0.27,0.06 2.53,2.53 0 0 0 -1.2,1.23 5.06,5.06 0 0 0 -0.64,1.69 h -0.16 l -0.87,-5.57 h 1.89 l -0.21,1.72 a 3.8,3.8 0 0 1 3.2,-1.86 3.52,3.52 0 0 1 0.96,0.14 z"
         id="path1315" />
      <path
         d="m 45.08,354.16 -2.91,2.07 1.83,3.29 -0.13,0.18 -3.25,-2.25 -0.4,2.43 h -0.17 l -1.51,-8.94 h 3.19 l -1,5.65 1.7,-2.43 z"
         id="path1317" />
      <path
         d="m 52.52,355.35 -6,6.79 -0.13,-0.09 1.3,-3.19 -3.39,-3.72 2.86,-1.42 0.81,4.47 1.86,-4.54 z"
         id="path1319" />
      <path
         d="m 64.12,358.59 h -3.61 l 0.12,0.8 -3.12,0.46 0.2,-1.26 h -2.14 v -0.16 l 2.3,-0.69 1.19,-8 h 0.09 l 1.11,7.26 3.86,-1.16 z"
         id="path1321" />
      <path
         d="m 72.21,359 h -3.08 l 0.27,-1.18 a 6,6 0 0 1 -1.67,0.9 4.43,4.43 0 0 1 -1.49,0.28 2.07,2.07 0 0 1 -1.26,-0.34 1.13,1.13 0 0 1 -0.47,-1 2.75,2.75 0 0 1 0.95,-1.85 5.76,5.76 0 0 1 2.27,-1.42 4.59,4.59 0 0 1 1.52,-0.28 2.38,2.38 0 0 1 0.93,0.16 v -0.16 h 0.45 z m -2.89,-2.51 a 2.14,2.14 0 0 0 0.16,-0.79 c 0,-0.63 -0.25,-0.94 -0.77,-0.94 a 1.69,1.69 0 0 0 -1.09,0.51 3.14,3.14 0 0 0 -0.85,1.22 2.21,2.21 0 0 0 -0.17,0.8 c 0,0.62 0.26,0.93 0.77,0.93 a 1.69,1.69 0 0 0 1.1,-0.51 3.09,3.09 0 0 0 0.85,-1.22 z"
         id="path1323" />
      <path
         d="m 79.44,355.65 a 2.71,2.71 0 0 1 -1.14,2 6.43,6.43 0 0 1 -2.74,1.35 6,6 0 0 1 -1.3,0.15 4.67,4.67 0 0 1 -1,-0.11 l -0.11,0.66 H 73 l -1.51,-8.95 h 3.19 l -0.67,4 a 6.31,6.31 0 0 1 2.89,-0.75 3.19,3.19 0 0 1 1.83,0.47 1.42,1.42 0 0 1 0.71,1.18 z m -2.58,0.62 a 1.53,1.53 0 0 0 -0.38,-1 1.2,1.2 0 0 0 -1,-0.42 3.17,3.17 0 0 0 -1.67,0.62 l -0.5,3 a 3.51,3.51 0 0 0 1.12,0.19 2.39,2.39 0 0 0 1.72,-0.68 2.13,2.13 0 0 0 0.71,-1.71 z"
         id="path1325" />
      <path
         d="M 85.81,358.71 80.45,360 v -0.09 l 2.27,-1.78 -2.9,-3.48 5.11,-1.37 v 0.07 l -2.1,1.73 z"
         id="path1327" />
    </g>
  </g>
  <g
     id="shift_block_border"
     data-name="shift block border">
    <rect
       x="8"
       y="75"
       width="74"
       height="147"
       rx="4"
       ry="4"
       style="fill:#f0f0f0"
       id="rect1332" />
    <rect
       x="8.5"
       y="75.5"
       width="73"
       height="146"
       rx="3.5"
       ry="3.5"
       style="fill:none;stroke:#000000"
       id="rect1334" />
  </g>
  <path
     id="cat-outputs"
     d="m 56.112278,352.97012 c -1.932997,0 -2.755259,-4.03723 -2.775477,-5.97012 l -0.4184,-40 c 0.0017,-0.66155 -0.3512,0.56063 0,0 -0.37,-1.59 1.691599,-14.63 3.671599,-16.59 -0.492393,-2.98019 1.758421,8.94887 1.584618,5.93329 C 55.844618,294.87329 52.68,284.33 50.48,272.78 c -0.86,-4.3 -2.2,-6.72 -4,-6.92 -1.8,-0.2 -3.91,2.1 -4.76,3.77 -0.49,1.47 -1.35,4.1 -4.89,8.71 -1.002895,9.76242 -1.728332,19.58199 -1.391324,29.39 l 0.02708,0.27 -0.05788,0.21 H 35.3808 L 35.49,347 c 0.0054,1.93299 -1.56702,6.17232 -3.5,6.16418 l -19.367313,-0.0816 C 10.689707,353.07444 8.5,348.933 8.5,347 v -56.31762 c 0,-1.933 1.567247,-2.5959 3.5,-2.62653 L 30.67,287.76 h 0.28 c 0,0 -0.214798,2.5184 -2.294798,0.4184 -2.08,-2.1 -6.015202,-10.4184 -6.625202,-19.9384 -6.11,0.84 -11.86,-2 -13.08,-6.72 -0.3384388,-1.05163 -0.3799644,-2.17628 -0.12,-3.25 l -1.83,-7 4.28,2.52 c 1.86596,-1.83665 4.25584,-3.04906 6.84,-3.47 0.481507,-0.1202 0.974098,-0.19057 1.47,-0.21 l 0.85,-5 4.77,5.35 c 0.61,0.21 1.1,0.42 1.71,0.63 l -0.49,-3.09 1.47,1.26 -0.12,-1.26 1,0.21 -1.34,-4.51 2.93,3 -0.12,-1.15 1.34,0.52 v -5.35 l 3.06,3.47 v -2.52 l 1.83,1.89 v -3.15 l 1,1.47 1,-5.56 1.71,6.5 0.73,-3.57 1,2.42 1.34,-2.52 0.25,2.41 3.54,-7 0.12,7.77 1.23,-1 0.24,1.36 1.36,-1.84 0.12,1.57 2.69,-3.67 0.19,4.25 1.46,-1.26 0.25,2.31 2.08,-1.78 v 2.1 l 3.79,-3 -0.58,5.04 1.46,-0.94 v 2 l 1.23,-0.63 -0.13,1.36 2.57,-1 -1.1,2.41 1.71,-0.53 -0.37,2.2 1,-0.1 -0.49,2 0.49,-0.1 v -0.63 l 0.49,0.21 -0.35,-1.66 1.23,0.41 -1.23,-2.2 1.72,0.74 -0.62,-1.26 1.72,0.42 -0.37,-0.95 1,0.11 -1.35,-2.1 2.08,0.52 -2.2,-2.62 3.3,1 -1.83,-2.42 2.44,1.15 -0.49,-1.46 1.47,0.84 -0.25,-0.95 0.86,0.11 -2,-2.1 3.01,0.76 -0.62,-1 h 0.49 l -1.59,-1.26 2.94,0.21 -1.15,-1.95 1.59,0.53 -0.86,-1.26 1.22,0.31 -1.46,-2 2.07,0.73 -1,-1.68 2.44,0.63 -0.24,-1 0.85,0.1 -1,-2.1 1.84,0.84 -0.13,-0.63 h 0.62 l -1.23,-2 1.59,0.42 -0.36,-0.73 1,0.1 -0.61,-0.95 1.35,0.32 -1.47,-2.2 1.71,0.84 1.1,-0.21 0.86,-2 0.36,2.2 1.23,-0.94 -0.74,1.67 3.18,-0.2 -2.93,1.36 0.73,1.26 H 86 l 0.24,1.05 H 85.7 l 1.1,1.36 -1.83,0.11 0.61,0.94 -1,0.11 0.61,1.05 h -0.85 l 1.22,2.1 -1.47,0.21 4.65,2.31 -5.14,-0.53 3.06,1.68 -4.16,-0.1 0.86,1.47 -2,-0.21 0.13,1.15 2.07,1.58 -2.93,-0.21 2.57,1.88 -2.82,-0.21 1.62,1.31 -2.81,-0.21 1,1.15 H 79.1 l 1.1,1.68 -2.44,-0.53 1.34,1.26 h -1.71 l 0.73,1.16 -1.46,0.1 2.34,1.16 h -3.08 c 0,0.1 -0.12,0.1 -0.12,0.21 l 2.08,1.47 H 76.17 L 78,256 l -2.08,-0.1 2.32,0.84 -3.66,-0.11 2.2,1.58 -3.18,-0.42 2.08,2.2 -2.32,-0.99 0.24,2.2 -0.85,-0.42 0.73,0.84 L 72,261.2 73.23,263.72 71,262 l -0.13,0.11 0.37,3.56 -1.35,-1.57 v 1.06 l -1,-0.1 c 0.61,11 -0.733211,22.15429 -4.383211,27.61429 L 58.157595,287.9692 78,287.76 c 1.93289,-0.0204 3.7166,2.613 3.7092,4.54598 L 81.5,346.95 c -0.0074,1.93298 -1.342446,6.19468 -3.275443,6.19468 z"
     sodipodi:nodetypes="cscccccsccccccssssssccscccccccccccccccccccccccccccccccccccccccccccccccccccccccccccccccccccccccccccccccccccccccccccccccccccccccccccccccccccccccccccccccccccccccccccccccccccccccccccccccccccccccccssscc" />
  <g
     id="UP"
     style="isolation:isolate;fill:#000000"
     transform="translate(24.143075,1.6030484)">
    <g
       style="isolation:isolate;fill:#000000"
       id="g1342">
      <path
         d="m 19.83,306.89 v 4.83 a 2.25,2.25 0 0 1 -0.63,1.65 2.54,2.54 0 0 1 -1.7,0.72 h -0.25 a 2.65,2.65 0 0 1 -1.86,-0.63 2.25,2.25 0 0 1 -0.71,-1.74 v -4.84 h 0.93 v 4.82 a 1.58,1.58 0 0 0 0.39,1.2 1.6,1.6 0 0 0 1.21,0.43 1.67,1.67 0 0 0 1.22,-0.42 1.66,1.66 0 0 0 0.42,-1.2 v -4.82 z"
         style="fill:#000000"
         id="path1338" />
      <path
         d="M 22.25,311.22 V 314 h -0.94 v -7.11 h 2.62 a 2.62,2.62 0 0 1 1.83,0.6 2,2 0 0 1 0.66,1.57 2,2 0 0 1 -0.65,1.6 2.74,2.74 0 0 1 -1.85,0.56 z m 0,-0.77 h 1.68 a 1.7,1.7 0 0 0 1.15,-0.35 1.3,1.3 0 0 0 0.4,-1 1.35,1.35 0 0 0 -0.4,-1 1.57,1.57 0 0 0 -1.09,-0.39 h -1.74 z"
         style="fill:#000000"
         id="path1340" />
    </g>
  </g>
  <g
     id="DN"
     style="isolation:isolate;fill:#000000"
     transform="translate(-22.146152,30.418221)">
    <g
       style="isolation:isolate;fill:#000000"
       id="g1349">
      <path
         d="m 60.83,314 v -7.11 h 2 a 3.25,3.25 0 0 1 1.64,0.41 2.71,2.71 0 0 1 1.1,1.17 3.85,3.85 0 0 1 0.4,1.74 v 0.45 a 3.77,3.77 0 0 1 -0.39,1.76 2.71,2.71 0 0 1 -1.11,1.16 3.38,3.38 0 0 1 -1.68,0.42 z m 0.93,-6.34 v 5.57 h 1 a 2.16,2.16 0 0 0 1.69,-0.67 2.8,2.8 0 0 0 0.6,-1.92 v -0.42 a 2.83,2.83 0 0 0 -0.57,-1.88 2,2 0 0 0 -1.61,-0.68 z"
         style="fill:#000000"
         id="path1345" />
      <path
         d="M 72.85,314 H 71.9 l -3.57,-5.48 V 314 h -1 v -7.11 h 1 l 3.58,5.5 v -5.5 h 0.94 z"
         style="fill:#000000"
         id="path1347" />
    </g>
  </g>
  <g
     id="SHIFT_AMT"
     data-name="SHIFT AMT"
     style="isolation:isolate">
    <g
       style="isolation:isolate"
       id="g1368">
      <path
         d="m 17.5,89.2 a 5.25,5.25 0 0 1 -2.1,-1 1.94,1.94 0 0 1 -0.66,-1.49 2.09,2.09 0 0 1 0.8,-1.67 3.22,3.22 0 0 1 2.1,-0.66 3.48,3.48 0 0 1 1.57,0.34 2.56,2.56 0 0 1 1.06,0.94 2.41,2.41 0 0 1 0.38,1.31 H 19.52 A 1.54,1.54 0 0 0 19,85.72 a 2,2 0 0 0 -1.39,-0.45 2,2 0 0 0 -1.3,0.37 1.21,1.21 0 0 0 -0.46,1 1.09,1.09 0 0 0 0.44,0.88 4.27,4.27 0 0 0 1.5,0.66 7,7 0 0 1 1.67,0.66 2.58,2.58 0 0 1 0.89,0.84 2.18,2.18 0 0 1 0.29,1.13 2,2 0 0 1 -0.81,1.66 3.42,3.42 0 0 1 -2.16,0.63 4,4 0 0 1 -1.64,-0.34 2.76,2.76 0 0 1 -1.18,-0.92 2.3,2.3 0 0 1 -0.41,-1.33 h 1.16 a 1.48,1.48 0 0 0 0.57,1.22 2.4,2.4 0 0 0 1.53,0.45 2.14,2.14 0 0 0 1.36,-0.37 1.27,1.27 0 0 0 0,-2 5.37,5.37 0 0 0 -1.56,-0.61 z"
         id="path1352" />
      <path
         d="M 28.67,93 H 27.54 V 89.06 H 23.23 V 93 h -1.12 v -8.53 h 1.12 v 3.67 h 4.31 v -3.67 h 1.13 z"
         id="path1354" />
      <path
         d="m 31.87,93 h -1.12 v -8.53 h 1.12 z"
         id="path1356" />
      <path
         d="M 38.63,89.23 H 35.05 V 93 h -1.12 v -8.53 h 5.28 v 0.92 h -4.16 v 2.92 h 3.58 z"
         id="path1358" />
      <path
         d="M 46.57,85.39 H 43.83 V 93 H 42.71 V 85.39 H 40 v -0.92 h 6.6 z"
         id="path1360" />
      <path
         d="M 55.29,90.77 H 51.71 L 50.91,93 H 49.75 L 53,84.47 h 1 L 57.25,93 H 56.1 Z M 52.05,89.85 H 55 l -1.45,-4 z"
         id="path1362" />
      <path
         d="m 59.86,84.47 2.78,7 2.79,-7 h 1.46 V 93 h -1.12 v -3.32 l 0.1,-3.59 -2.8,6.91 h -0.86 l -2.79,-6.89 0.11,3.57 V 93 H 58.4 v -8.53 z"
         id="path1364" />
      <path
         d="M 74.77,85.39 H 72 V 93 h -1.09 v -7.61 h -2.73 v -0.92 h 6.59 z"
         id="path1366" />
    </g>
  </g>
  <g
     id="RANGE"
     style="isolation:isolate">
    <g
       style="isolation:isolate"
       id="g1381">
      <path
         d="m 28.12,175.55 h -2 V 179 H 25 v -8.53 h 2.83 a 3.34,3.34 0 0 1 2.22,0.66 2.36,2.36 0 0 1 0.75,1.87 2.24,2.24 0 0 1 -0.43,1.38 2.55,2.55 0 0 1 -1.2,0.89 l 2,3.62 V 179 H 30 Z m -2,-0.92 h 1.72 a 2,2 0 0 0 1.34,-0.44 1.44,1.44 0 0 0 0.49,-1.16 1.54,1.54 0 0 0 -0.47,-1.21 2,2 0 0 0 -1.36,-0.43 h -1.72 z"
         id="path1371" />
      <path
         d="M 37.09,176.77 H 33.52 L 32.71,179 h -1.16 l 3.26,-8.53 h 1 L 39.06,179 H 37.9 Z m -3.23,-0.92 h 2.9 l -1.46,-4 z"
         id="path1373" />
      <path
         d="m 46.76,179 h -1.13 l -4.29,-6.57 V 179 h -1.13 v -8.53 h 1.13 l 4.3,6.6 v -6.6 h 1.12 z"
         id="path1375" />
      <path
         d="m 55.06,177.88 a 2.65,2.65 0 0 1 -1.21,0.93 5,5 0 0 1 -1.81,0.31 3.57,3.57 0 0 1 -1.85,-0.49 3.31,3.31 0 0 1 -1.25,-1.39 4.81,4.81 0 0 1 -0.45,-2.1 v -0.74 a 4.5,4.5 0 0 1 0.9,-3 3.15,3.15 0 0 1 2.52,-1.06 3.26,3.26 0 0 1 2.15,0.68 3,3 0 0 1 1,1.94 h -1.12 a 1.87,1.87 0 0 0 -2,-1.7 2,2 0 0 0 -1.71,0.8 3.83,3.83 0 0 0 -0.59,2.3 v 0.7 a 3.68,3.68 0 0 0 0.65,2.28 2.12,2.12 0 0 0 1.78,0.85 4.1,4.1 0 0 0 1.11,-0.14 1.74,1.74 0 0 0 0.78,-0.48 v -1.91 H 52 v -0.92 h 3.09 z"
         id="path1377" />
      <path
         d="m 61.76,175.06 h -3.7 v 3 h 4.3 V 179 h -5.42 v -8.53 h 5.36 v 0.92 h -4.24 v 2.75 h 3.7 z"
         id="path1379" />
    </g>
  </g>
  <g
     id="Group_6"
     data-name="Group 6"
     transform="translate(21.0174,1.7761183)">
    <g
       id="IN"
       style="isolation:isolate">
      <g
         style="isolation:isolate"
         id="g1388">
        <path
           d="m 18.93,42 v -7.16 h 0.95 V 42 Z"
           id="path1384" />
        <path
           d="m 21.54,42 v -7.16 h 1 l 3.76,5.62 v -5.62 h 0.91 V 42 h -1 L 22.45,36.38 V 42 Z"
           id="path1386" />
      </g>
    </g>
  </g>
  <g
     aria-label="R"
     id="text1551"
     style="font-style:normal;font-variant:normal;font-weight:normal;font-stretch:normal;font-size:10.6667px;line-height:1.25;font-family:sans-serif;-inkscape-font-specification:'sans-serif, Normal';font-variant-ligatures:normal;font-variant-caps:normal;font-variant-numeric:normal;font-variant-east-asian:normal;fill:#ffffff"
     transform="translate(-2,-4)">
    <path
       d="M 73.174734,301.94012 H 71.836188 L 69.24243,298.85678 H 67.7893 v 3.08334 h -1.031253 v -7.75523 h 2.171882 q 0.703127,0 1.171879,0.0937 0.468751,0.0885 0.843752,0.32292 0.421877,0.26563 0.656253,0.67188 0.239584,0.40104 0.239584,1.02083 0,0.83855 -0.421877,1.40626 -0.421876,0.5625 -1.161462,0.84896 z m -2.411466,-5.57293 q 0,-0.33333 -0.119792,-0.58854 -0.114584,-0.26042 -0.385418,-0.4375 -0.223959,-0.15105 -0.531251,-0.20834 -0.307293,-0.0625 -0.723961,-0.0625 H 67.7893 v 2.92709 h 1.04167 q 0.489585,0 0.85417,-0.0833 0.364584,-0.0885 0.619793,-0.32292 0.234376,-0.21875 0.343752,-0.5 0.114583,-0.28646 0.114583,-0.72396 z"
       id="path1662" />
  </g>
  <g
     aria-label="L"
     id="text1551-4"
     style="font-style:normal;font-variant:normal;font-weight:normal;font-stretch:normal;font-size:10.6667px;line-height:1.25;font-family:sans-serif;-inkscape-font-specification:'sans-serif, Normal';font-variant-ligatures:normal;font-variant-caps:normal;font-variant-numeric:normal;font-variant-east-asian:normal;fill:#ffffff"
     transform="translate(0,-4)">
    <path
       d="m 24.65461,303.15353 h -4.906265 v -7.75523 h 1.031253 v 6.83856 h 3.875012 z"
       id="path1659" />
  </g>
  <g
     aria-label="L"
     id="text1551-4-4"
     style="font-style:normal;font-variant:normal;font-weight:normal;font-stretch:normal;font-size:10.6667px;line-height:1.25;font-family:sans-serif;-inkscape-font-specification:'sans-serif, Normal';font-variant-ligatures:normal;font-variant-caps:normal;font-variant-numeric:normal;font-variant-east-asian:normal;fill:#000000"
     transform="translate(2.3681585)">
    <path
       d="m 22.286452,44.073734 h -4.906266 v -7.755233 h 1.031253 v 6.838564 h 3.875013 z"
       id="path1653" />
  </g>
  <g
     aria-label="R"
     id="text1551-4-4-5"
     style="font-style:normal;font-variant:normal;font-weight:normal;font-stretch:normal;font-size:10.6667px;line-height:1.25;font-family:sans-serif;-inkscape-font-specification:'sans-serif, Normal';font-variant-ligatures:normal;font-variant-caps:normal;font-variant-numeric:normal;font-variant-east-asian:normal;fill:#000000"
     transform="translate(-0.577339)">
    <path
       d="M 71.752073,44.073734 H 70.413527 L 67.819769,40.990391 H 66.36664 v 3.083343 h -1.031254 v -7.755233 h 2.171882 q 0.703127,0 1.171879,0.09375 0.468751,0.08854 0.843753,0.322917 0.421876,0.265626 0.656252,0.671878 0.239584,0.401042 0.239584,1.020836 0,0.838544 -0.421877,1.406255 -0.421876,0.562501 -1.161462,0.848961 z M 69.340607,38.5008 q 0,-0.333334 -0.119792,-0.588544 -0.114583,-0.260417 -0.385418,-0.437501 -0.223959,-0.151042 -0.531251,-0.208334 -0.307293,-0.0625 -0.723961,-0.0625 H 66.36664 v 2.927092 h 1.04167 q 0.489584,0 0.854169,-0.08333 0.364584,-0.08854 0.619794,-0.322918 0.234375,-0.21875 0.343751,-0.500001 0.114583,-0.28646 0.114583,-0.723961 z"
       id="path1656" />
  </g>
</svg>
