<svg xmlns="http://www.w3.org/2000/svg" xmlns:xlink="http://www.w3.org/1999/xlink" width="135" height="380" viewBox="0 0 135 380">
  <defs>
    <clipPath id="clip-compressor2_panel">
      <rect width="135" height="380"/>
    </clipPath>
  </defs>
  <g id="compressor2_panel" clip-path="url(#clip-compressor2_panel)">
    <rect width="135" height="380" fill="#353535"/>
    <path id="Path_6" data-name="Path 6" d="M11.988-13.788,5.058-9.144,10.224-.4-.612,2.88l-.054-.162L6.21-1.89l-5.2-8.73,10.926-3.294Zm9.576,17.55H17.478L18.216-.63A7.707,7.707,0,0,1,14.724.2,4.177,4.177,0,0,1,12.384-.4a1.818,1.818,0,0,1-.9-1.584,3.489,3.489,0,0,1,1.458-2.556A8.143,8.143,0,0,1,16.47-6.282a6.643,6.643,0,0,1,2.736-.108l.216-1.35h.2ZM19.08-5.67a5.413,5.413,0,0,0-1.206-.144,3.149,3.149,0,0,0-2.214.828,2.753,2.753,0,0,0-.864,2.2,2.025,2.025,0,0,0,.486,1.341,1.574,1.574,0,0,0,1.242.531,3.776,3.776,0,0,0,1.854-.612ZM29.61.2H27.162l.288-2.214a4.872,4.872,0,0,1-4.1,2.394A4.1,4.1,0,0,1,22.086.2l2.448-6.84.27.054a8.654,8.654,0,0,0-.126,1.494q0,1.962.9,1.962A.921.921,0,0,0,25.92-3.2a3.269,3.269,0,0,0,1.548-1.584,6.586,6.586,0,0,0,.81-2.178h.216ZM34.434-9.954l-1.548.468.4,1.584-.936-1.332-1.368.864.972-1.3L30.708-10.71l1.53.522.612-1.494-.036,1.62ZM34.29-7.326,32.346.072h-.2L30.2-7.326Zm8.262.54L40.1.054,39.834,0a8.654,8.654,0,0,0,.126-1.494q0-1.962-.9-1.962a.921.921,0,0,0-.342.072A3.269,3.269,0,0,0,37.17-1.8,6.727,6.727,0,0,0,36.342.378h-.2L35.028-6.786h2.43l-.27,2.214a4.872,4.872,0,0,1,4.1-2.394A4.322,4.322,0,0,1,42.552-6.786Zm8.982.558L47.79-3.564,50.166.666,50,.9,45.828-2l-.522,3.132H45.09l-1.944-11.5h4.1L46.008-3.1l2.178-3.132Zm10.8,1.53-7.74,8.73-.162-.108,1.674-4.1L51.75-4.968l3.672-1.818,1.044,5.742L58.86-6.876ZM77.256-.522H72.612L72.774.5,68.76,1.1l.252-1.62H66.258l-.036-.216,2.952-.882L70.7-11.9h.126l1.458,9.342L77.256-4.05ZM87.66,0H83.7l.342-1.512A7.9,7.9,0,0,1,81.9-.36,5.832,5.832,0,0,1,79.974,0a2.67,2.67,0,0,1-1.611-.441,1.423,1.423,0,0,1-.6-1.215,3.513,3.513,0,0,1,1.215-2.385A7.494,7.494,0,0,1,81.9-5.868a5.988,5.988,0,0,1,1.944-.36,3.051,3.051,0,0,1,1.206.216l.036-.216h.576ZM83.934-3.222a2.764,2.764,0,0,0,.216-1.026q0-1.206-.99-1.206a2.174,2.174,0,0,0-1.4.657,4.07,4.07,0,0,0-1.1,1.575A2.764,2.764,0,0,0,80.442-2.2q0,1.188.99,1.188a2.17,2.17,0,0,0,1.413-.648A4.037,4.037,0,0,0,83.934-3.222ZM98.352-4.3a3.479,3.479,0,0,1-1.458,2.538A8.143,8.143,0,0,1,93.366-.018a7.486,7.486,0,0,1-1.674.2A5.644,5.644,0,0,1,90.4.036l-.144.846h-.216l-1.944-11.5h4.1l-.864,5.094A8.1,8.1,0,0,1,95.094-6.5a4.174,4.174,0,0,1,2.349.6A1.835,1.835,0,0,1,98.352-4.3ZM95.04-3.51a2.025,2.025,0,0,0-.486-1.341,1.574,1.574,0,0,0-1.242-.531,4.046,4.046,0,0,0-2.142.792L90.522-.7a4.871,4.871,0,0,0,1.44.234,3.075,3.075,0,0,0,2.214-.864A2.779,2.779,0,0,0,95.04-3.51Zm11.5,3.132-6.894,1.71-.054-.108,2.916-2.286L98.784-5.544l6.57-1.764.036.09-2.7,2.232Z" transform="translate(14 373)" fill="#fff"/>
    <path id="Path_9" data-name="Path 9" d="M5.906-7.611H3.662V0H2.59V-7.611H.352v-.92H5.906Zm2.15,1.922a1.829,1.829,0,0,1,1.512-.768q1.682,0,1.705,2.244V0H10.242V-4.166a1.727,1.727,0,0,0-.249-1.058.9.9,0,0,0-.747-.313,1.052,1.052,0,0,0-.694.258,1.857,1.857,0,0,0-.5.674V0H7.02V-9H8.057Zm7.377.322a2.523,2.523,0,0,0-.469-.041,1.138,1.138,0,0,0-1.113.873V0H12.814V-6.34h1.008l.018.645a1.29,1.29,0,0,1,1.178-.762.913.913,0,0,1,.41.082Zm4.113,3.744a.766.766,0,0,0-.252-.574,3.727,3.727,0,0,0-.973-.562,6.361,6.361,0,0,1-1.181-.592,1.683,1.683,0,0,1-.513-.56,1.546,1.546,0,0,1-.17-.747,1.663,1.663,0,0,1,.565-1.286,2.068,2.068,0,0,1,1.444-.513,2.061,2.061,0,0,1,1.488.539,1.831,1.831,0,0,1,.563,1.383H19.488a1.02,1.02,0,0,0-.287-.729.967.967,0,0,0-.732-.3,1.029,1.029,0,0,0-.718.237.814.814,0,0,0-.261.634.692.692,0,0,0,.19.508,3.394,3.394,0,0,0,.917.508,4.609,4.609,0,0,1,1.57.883A1.512,1.512,0,0,1,20.584-1.7a1.669,1.669,0,0,1-.568,1.323,2.236,2.236,0,0,1-1.523.5,2.272,2.272,0,0,1-1.605-.568,1.877,1.877,0,0,1-.615-1.441h1.043a1.162,1.162,0,0,0,.322.826,1.17,1.17,0,0,0,.855.3A1.174,1.174,0,0,0,19.277-1,.78.78,0,0,0,19.547-1.623Zm3.422-4.066a1.829,1.829,0,0,1,1.512-.768q1.682,0,1.705,2.244V0H25.154V-4.166a1.727,1.727,0,0,0-.249-1.058.9.9,0,0,0-.747-.313,1.052,1.052,0,0,0-.694.258,1.857,1.857,0,0,0-.5.674V0H21.932V-9h1.037Z" transform="translate(7 206)" fill="#fff"/>
    <path id="Path_12" data-name="Path 12" d="M4.9-2.232H2.016L1.354,0H.252L3-8.531h.92L6.674,0h-1.1Zm-2.6-.92H4.623L3.457-7.031Zm6.65-4.723V-6.34H9.9V-5.5H8.947v3.937A1.07,1.07,0,0,0,9.07-1,.461.461,0,0,0,9.492-.8a1.31,1.31,0,0,0,.416-.07L9.9,0a2.278,2.278,0,0,1-.721.116,1.09,1.09,0,0,1-.937-.439,2.071,2.071,0,0,1-.322-1.242V-5.5H6.949V-6.34h.967V-7.875Zm3.545,0V-6.34h.955V-5.5h-.955v3.937A1.07,1.07,0,0,0,12.615-1a.461.461,0,0,0,.422.194,1.31,1.31,0,0,0,.416-.07L13.441,0a2.278,2.278,0,0,1-.721.116,1.09,1.09,0,0,1-.937-.439,2.071,2.071,0,0,1-.322-1.242V-5.5h-.967V-6.34h.967V-7.875Z" transform="translate(60 206)" fill="#fff"/>
    <path id="Path_2" data-name="Path 2" d="M2.3-8.531,4.529-1.57,6.756-8.531H8.139V0H7.066V-3.322l.1-3.328L4.934,0h-.82L1.893-6.627l.1,3.3V0H.92V-8.531ZM10.957,0H9.92V-6.34h1.037Zm.082-8.021a.663.663,0,0,1-.146.439.547.547,0,0,1-.445.176.539.539,0,0,1-.439-.176.663.663,0,0,1-.146-.439.687.687,0,0,1,.146-.445.531.531,0,0,1,.439-.182.536.536,0,0,1,.442.185A.681.681,0,0,1,11.039-8.021Zm3.381,4L15.5-6.34h1.2L14.982-3.205,16.746,0H15.557L14.438-2.373,13.313,0h-1.2l1.764-3.205L12.164-6.34h1.189Z" transform="translate(11 263)" fill="#fff"/>
    <path id="Path_10" data-name="Path 10" d="M3.5-3.451H2V0H.92V-8.531H3.311a2.553,2.553,0,0,1,1.9.653,2.614,2.614,0,0,1,.645,1.913A2.658,2.658,0,0,1,5.5-4.585a2.2,2.2,0,0,1-.987.888L6.17-.07V0H5.016ZM2-4.371H3.3a1.393,1.393,0,0,0,1.075-.434,1.645,1.645,0,0,0,.4-1.162q0-1.644-1.488-1.644H2ZM9.41.117A2.313,2.313,0,0,1,7.594-.589,3.052,3.052,0,0,1,6.949-2.66v-.768a3.573,3.573,0,0,1,.618-2.224,2.051,2.051,0,0,1,1.726-.806,1.976,1.976,0,0,1,1.664.709,3.644,3.644,0,0,1,.563,2.209v.68H7.98v.146A2.313,2.313,0,0,0,8.364-1.23a1.353,1.353,0,0,0,1.1.463,1.791,1.791,0,0,0,.806-.173,2,2,0,0,0,.653-.548l.539.656A2.353,2.353,0,0,1,9.41.117ZM9.293-5.566a1.087,1.087,0,0,0-.955.442A2.626,2.626,0,0,0,7.986-3.75h2.5v-.141a2.423,2.423,0,0,0-.325-1.289A1,1,0,0,0,9.293-5.566ZM13.881,0H12.844V-9h1.037Z" transform="translate(106 206)" fill="#fff"/>
    <path id="Path_4" data-name="Path 4" d="M2.039,0H.967V-8.531H2.039ZM4.752-6.34l.029.686a1.85,1.85,0,0,1,1.541-.8Q8-6.457,8.027-4.213V0H7V-4.166a1.727,1.727,0,0,0-.249-1.058A.9.9,0,0,0,6-5.537a1.052,1.052,0,0,0-.694.258,1.857,1.857,0,0,0-.5.674V0H3.773V-6.34Z" transform="translate(17 320)" fill="#fff"/>
    <path id="Path_8" data-name="Path 8" d="M7.266-2.707a3.139,3.139,0,0,1-1,2.089A3.274,3.274,0,0,1,4.031.117,3.006,3.006,0,0,1,1.608-.967,4.361,4.361,0,0,1,.7-3.867v-.82a4.861,4.861,0,0,1,.425-2.092,3.173,3.173,0,0,1,1.2-1.386,3.353,3.353,0,0,1,1.8-.483,3.083,3.083,0,0,1,2.18.759,3.176,3.176,0,0,1,.955,2.1H6.135A2.451,2.451,0,0,0,5.5-7.27a1.924,1.924,0,0,0-1.368-.458,2.013,2.013,0,0,0-1.69.8,3.661,3.661,0,0,0-.612,2.269v.827a3.764,3.764,0,0,0,.58,2.211A1.874,1.874,0,0,0,4.031-.8,2.165,2.165,0,0,0,5.47-1.228a2.357,2.357,0,0,0,.665-1.479ZM9.715-5.572a2.3,2.3,0,0,1,1.875-.885q2.01,0,2.027,2.268V0H12.533V-4.2a1.459,1.459,0,0,0-.313-1.014,1.256,1.256,0,0,0-.958-.328,1.564,1.564,0,0,0-.926.281,1.91,1.91,0,0,0-.621.738V0H8.631V-9H9.715ZM19.154,0A2.277,2.277,0,0,1,19-.668a2.419,2.419,0,0,1-1.8.785,2.238,2.238,0,0,1-1.538-.53,1.716,1.716,0,0,1-.6-1.345A1.792,1.792,0,0,1,15.812-3.3a3.55,3.55,0,0,1,2.118-.548h1.055v-.5a1.217,1.217,0,0,0-.34-.905,1.366,1.366,0,0,0-1-.337,1.581,1.581,0,0,0-.973.293.863.863,0,0,0-.393.709h-1.09a1.5,1.5,0,0,1,.337-.917,2.3,2.3,0,0,1,.914-.7,3.075,3.075,0,0,1,1.269-.258,2.506,2.506,0,0,1,1.717.548A1.976,1.976,0,0,1,20.068-4.4v2.918a3.567,3.567,0,0,0,.223,1.389V0Zm-1.8-.826a1.905,1.905,0,0,0,.967-.264,1.6,1.6,0,0,0,.662-.686v-1.3h-.85q-1.992,0-1.992,1.166a.987.987,0,0,0,.34.8A1.306,1.306,0,0,0,17.355-.826ZM22.793-6.34l.035.8a2.31,2.31,0,0,1,1.9-.914q2.01,0,2.027,2.268V0H25.67V-4.2a1.459,1.459,0,0,0-.313-1.014,1.256,1.256,0,0,0-.958-.328,1.564,1.564,0,0,0-.926.281,1.91,1.91,0,0,0-.621.738V0H21.768V-6.34Zm6.621,0,.035.8a2.31,2.31,0,0,1,1.9-.914q2.01,0,2.027,2.268V0H32.291V-4.2a1.459,1.459,0,0,0-.313-1.014,1.256,1.256,0,0,0-.958-.328,1.564,1.564,0,0,0-.926.281,1.91,1.91,0,0,0-.621.738V0H28.389V-6.34ZM37.641.117a2.77,2.77,0,0,1-2.1-.847,3.142,3.142,0,0,1-.809-2.265v-.2a3.8,3.8,0,0,1,.36-1.685A2.811,2.811,0,0,1,36.1-6.038a2.534,2.534,0,0,1,1.4-.419,2.374,2.374,0,0,1,1.922.814,3.526,3.526,0,0,1,.686,2.332v.451H35.818a2.254,2.254,0,0,0,.548,1.515A1.722,1.722,0,0,0,37.7-.768,1.888,1.888,0,0,0,38.672-1a2.444,2.444,0,0,0,.7-.621l.662.516A2.662,2.662,0,0,1,37.641.117Zm-.135-5.684a1.446,1.446,0,0,0-1.1.478,2.321,2.321,0,0,0-.551,1.339h3.176v-.082a2.065,2.065,0,0,0-.445-1.28A1.361,1.361,0,0,0,37.506-5.566ZM42.545,0H41.461V-9h1.084Zm1.7-.568a.679.679,0,0,1,.167-.469.636.636,0,0,1,.5-.187.655.655,0,0,1,.507.188.665.665,0,0,1,.173.469.629.629,0,0,1-.173.451.667.667,0,0,1-.507.182.648.648,0,0,1-.5-.182A.641.641,0,0,1,44.244-.568Zm.006-5.174a.679.679,0,0,1,.167-.469.636.636,0,0,1,.5-.187.655.655,0,0,1,.507.188.665.665,0,0,1,.173.469.629.629,0,0,1-.173.451.667.667,0,0,1-.507.182.648.648,0,0,1-.5-.182A.641.641,0,0,1,44.25-5.742Z" transform="translate(54 46)" fill="#fff"/>
    <path id="Path_1" data-name="Path 1" d="M9.492-3.547A4.077,4.077,0,0,1,8.207-.8,4.251,4.251,0,0,1,5.3.156,4.012,4.012,0,0,1,3.066-.477a4.126,4.126,0,0,1-1.5-1.793,6.387,6.387,0,0,1-.539-2.652V-6.4a6.446,6.446,0,0,1,.531-2.687,4.086,4.086,0,0,1,1.527-1.809,4.164,4.164,0,0,1,2.293-.637,4.072,4.072,0,0,1,2.887.984A4.124,4.124,0,0,1,9.492-7.82H8.523a2.9,2.9,0,0,0-3.148-2.9A2.984,2.984,0,0,0,2.91-9.562a5.018,5.018,0,0,0-.918,3.2v1.392a5.055,5.055,0,0,0,.895,3.143A2.882,2.882,0,0,0,5.3-.656a3.2,3.2,0,0,0,2.273-.723,3.463,3.463,0,0,0,.945-2.168Zm1.6-.8a4.974,4.974,0,0,1,.473-2.2A3.6,3.6,0,0,1,12.9-8.066a3.6,3.6,0,0,1,1.957-.543,3.477,3.477,0,0,1,2.734,1.184,4.561,4.561,0,0,1,1.047,3.137v.2a5.018,5.018,0,0,1-.473,2.207A3.529,3.529,0,0,1,16.836-.375a3.652,3.652,0,0,1-1.961.531,3.48,3.48,0,0,1-2.73-1.184,4.55,4.55,0,0,1-1.051-3.137Zm.938.258a3.836,3.836,0,0,0,.785,2.488,2.518,2.518,0,0,0,2.059.973,2.51,2.51,0,0,0,2.051-.973,3.962,3.962,0,0,0,.785-2.566v-.18a4.3,4.3,0,0,0-.359-1.773,2.888,2.888,0,0,0-1.008-1.246,2.575,2.575,0,0,0-1.484-.441,2.5,2.5,0,0,0-2.039.98,3.968,3.968,0,0,0-.789,2.566Zm9.391-4.359.031,1.375a3.129,3.129,0,0,1,1.172-1.148,3.214,3.214,0,0,1,1.563-.383,2.371,2.371,0,0,1,2.539,1.641,3.174,3.174,0,0,1,1.211-1.215,3.354,3.354,0,0,1,1.672-.426q2.719,0,2.773,2.969V0h-.937V-5.57a2.52,2.52,0,0,0-.488-1.68A1.988,1.988,0,0,0,29.391-7.8a2.49,2.49,0,0,0-1.7.652,2.305,2.305,0,0,0-.773,1.551V0h-.937V-5.641a2.316,2.316,0,0,0-.512-1.621A2.036,2.036,0,0,0,23.914-7.8a2.358,2.358,0,0,0-1.516.5,2.955,2.955,0,0,0-.937,1.5V0h-.937V-8.453ZM41.547-4.141A5.091,5.091,0,0,1,40.672-1,2.787,2.787,0,0,1,38.328.156a3.129,3.129,0,0,1-2.656-1.219V3.25h-.93v-11.7h.867l.047,1.2A3,3,0,0,1,38.3-8.609a2.812,2.812,0,0,1,2.379,1.148,5.2,5.2,0,0,1,.863,3.188ZM40.609-4.3a4.348,4.348,0,0,0-.664-2.555A2.141,2.141,0,0,0,38.094-7.8a2.588,2.588,0,0,0-1.477.414,2.6,2.6,0,0,0-.945,1.2v4.055a2.482,2.482,0,0,0,.961,1.109,2.771,2.771,0,0,0,1.477.383,2.121,2.121,0,0,0,1.84-.941A4.734,4.734,0,0,0,40.609-4.3ZM48.9,0h-.961V-11.375H48.9Zm4.258,0H52.2V-11.375h.961Z" transform="translate(41 17)" fill="#fff"/>
    <path id="Path_3" data-name="Path 3" d="M6.469-3.516A4.255,4.255,0,0,1,5.725-.826,2.537,2.537,0,0,1,3.609.117,2.569,2.569,0,0,1,1.526-.8,4.056,4.056,0,0,1,.732-3.393V-5a4.26,4.26,0,0,1,.756-2.681A2.523,2.523,0,0,1,3.6-8.648a2.553,2.553,0,0,1,2.1.929,4.185,4.185,0,0,1,.771,2.651ZM5.4-5.01a3.656,3.656,0,0,0-.442-2.013A1.521,1.521,0,0,0,3.6-7.682a1.515,1.515,0,0,0-1.339.668A3.539,3.539,0,0,0,1.8-5.045v1.529a3.614,3.614,0,0,0,.454,1.992,1.519,1.519,0,0,0,1.356.686,1.508,1.508,0,0,0,1.336-.633A3.555,3.555,0,0,0,5.4-3.41ZM11.215-.557A1.78,1.78,0,0,1,9.709.117a1.515,1.515,0,0,1-1.3-.595,2.912,2.912,0,0,1-.445-1.731V-6.34H8.994v4.055Q8.994-.8,9.885-.8a1.3,1.3,0,0,0,1.3-.844V-6.34h1.037V0h-.984Zm3.926-7.318V-6.34H16.1V-5.5h-.955v3.937A1.07,1.07,0,0,0,15.264-1a.461.461,0,0,0,.422.194,1.31,1.31,0,0,0,.416-.07L16.09,0a2.278,2.278,0,0,1-.721.116,1.09,1.09,0,0,1-.937-.439,2.071,2.071,0,0,1-.322-1.242V-5.5h-.967V-6.34h.967V-7.875Z" transform="translate(104 263)" fill="#fff"/>
    <path id="Path_11" data-name="Path 11" d="M.92,0V-8.531H3.352a2.435,2.435,0,0,1,1.755.568A2.267,2.267,0,0,1,5.7-6.258,1.884,1.884,0,0,1,5.4-5.2a2.008,2.008,0,0,1-.809.709,1.623,1.623,0,0,1,.929.721,2.415,2.415,0,0,1,.343,1.313,2.5,2.5,0,0,1-.63,1.8A2.373,2.373,0,0,1,3.434,0ZM1.992-3.99V-.92H3.457a1.229,1.229,0,0,0,.967-.4,1.639,1.639,0,0,0,.357-1.128q0-1.541-1.3-1.541Zm0-.9H3.369a1.16,1.16,0,0,0,.9-.376,1.424,1.424,0,0,0,.343-1A1.431,1.431,0,0,0,4.3-7.291a1.268,1.268,0,0,0-.949-.32H1.992Zm7.061,3.17L10.207-6.34h1.1L9.234.9a2.81,2.81,0,0,1-.662,1.239,1.345,1.345,0,0,1-.973.425,2.05,2.05,0,0,1-.539-.094V1.588l.229.023A1.066,1.066,0,0,0,8,1.4,1.522,1.522,0,0,0,8.408.656l.205-.709L6.75-6.34H7.881ZM16.9-2.865a3.793,3.793,0,0,1-.542,2.244,1.789,1.789,0,0,1-1.532.738A1.7,1.7,0,0,1,13.354-.6V2.438H12.322V-6.34h.938l.053.7a1.669,1.669,0,0,1,1.494-.82,1.784,1.784,0,0,1,1.559.727A3.842,3.842,0,0,1,16.9-3.557Zm-1.031-.592a2.956,2.956,0,0,0-.328-1.573,1.163,1.163,0,0,0-1.055-.507,1.221,1.221,0,0,0-1.131.744v3.3A1.223,1.223,0,0,0,14.5-.768a1.147,1.147,0,0,0,1.034-.507,2.91,2.91,0,0,0,.337-1.55Z" transform="translate(58 263)" fill="#fff"/>
    <g id="knob-30" transform="translate(17 24)">
      <path id="path7663" d="M30,15A15,15,0,1,1,15,0,15,15,0,0,1,30,15" transform="translate(0 0.003)"/>
      <path id="path7665" d="M26.87,15A11.87,11.87,0,1,1,15,3.14h0A11.86,11.86,0,0,1,26.87,15Z" transform="translate(0 0.003)" fill="none" stroke="#636363" stroke-miterlimit="10" stroke-width="0.9"/>
      <path id="path7667" d="M23.47,15A8.47,8.47,0,1,1,15,6.54,8.47,8.47,0,0,1,23.47,15h0" transform="translate(0 0.003)" fill="#307def"/>
      <path id="path7669" d="M16.39.07C15.93.07,15.47,0,15,0a9,9,0,0,0-1.38.07V7h2.77Z" transform="translate(0 0.003)" fill="#307dee"/>
    </g>
    <path id="Path_5" data-name="Path 5" d="M4.646-2.156A1.311,1.311,0,0,0,4.3-3.135,3.542,3.542,0,0,0,3.053-3.8a5.418,5.418,0,0,1-1.38-.677,2.4,2.4,0,0,1-.715-.809,2.213,2.213,0,0,1-.237-1.04A2.226,2.226,0,0,1,1.4-7.992,2.438,2.438,0,0,1,3.17-8.648a2.645,2.645,0,0,1,1.336.335,2.284,2.284,0,0,1,.9.932A2.757,2.757,0,0,1,5.725-6.07H4.646a1.8,1.8,0,0,0-.381-1.225,1.381,1.381,0,0,0-1.1-.434,1.349,1.349,0,0,0-1.008.364A1.4,1.4,0,0,0,1.8-6.343a1.191,1.191,0,0,0,.387.9,3.428,3.428,0,0,0,1.2.651,4.114,4.114,0,0,1,1.8,1.026A2.309,2.309,0,0,1,5.73-2.168,2.156,2.156,0,0,1,5.057-.507,2.594,2.594,0,0,1,3.223.117,2.951,2.951,0,0,1,1.849-.208a2.458,2.458,0,0,1-.99-.914A2.535,2.535,0,0,1,.5-2.473H1.576a1.657,1.657,0,0,0,.442,1.23,1.633,1.633,0,0,0,1.2.439,1.433,1.433,0,0,0,1.066-.363A1.351,1.351,0,0,0,4.646-2.156Zm7.84-.557a3.162,3.162,0,0,1-.771,2.1A2.612,2.612,0,0,1,9.738.117,2.445,2.445,0,0,1,7.7-.858,4.213,4.213,0,0,1,6.943-3.5V-5.051A4.086,4.086,0,0,1,7.72-7.682a2.571,2.571,0,0,1,2.118-.967,2.465,2.465,0,0,1,1.913.738,3.235,3.235,0,0,1,.735,2.115H11.4a2.636,2.636,0,0,0-.439-1.488,1.377,1.377,0,0,0-1.125-.445A1.53,1.53,0,0,0,8.5-7.046a3.535,3.535,0,0,0-.469,2V-3.48a3.736,3.736,0,0,0,.437,1.986A1.415,1.415,0,0,0,9.738-.8a1.541,1.541,0,0,0,1.207-.416A2.618,2.618,0,0,0,11.4-2.713Z" transform="translate(60 300)" fill="#fff"/>
    <g id="Standard_Output_Jack" data-name="Standard Output Jack" transform="translate(97 309)">
      <rect id="Rectangle_9" data-name="Rectangle 9" width="32" height="50" rx="3"/>
      <path id="Path_7" data-name="Path 7" d="M6.469-3.516A4.255,4.255,0,0,1,5.725-.826,2.537,2.537,0,0,1,3.609.117,2.569,2.569,0,0,1,1.526-.8,4.056,4.056,0,0,1,.732-3.393V-5a4.26,4.26,0,0,1,.756-2.681A2.523,2.523,0,0,1,3.6-8.648a2.553,2.553,0,0,1,2.1.929,4.185,4.185,0,0,1,.771,2.651ZM5.4-5.01a3.656,3.656,0,0,0-.442-2.013A1.521,1.521,0,0,0,3.6-7.682a1.515,1.515,0,0,0-1.339.668A3.539,3.539,0,0,0,1.8-5.045v1.529a3.614,3.614,0,0,0,.454,1.992,1.519,1.519,0,0,0,1.356.686,1.508,1.508,0,0,0,1.336-.633A3.555,3.555,0,0,0,5.4-3.41ZM11.215-.557A1.78,1.78,0,0,1,9.709.117a1.515,1.515,0,0,1-1.3-.595,2.912,2.912,0,0,1-.445-1.731V-6.34H8.994v4.055Q8.994-.8,9.885-.8a1.3,1.3,0,0,0,1.3-.844V-6.34h1.037V0h-.984Zm3.926-7.318V-6.34H16.1V-5.5h-.955v3.937A1.07,1.07,0,0,0,15.264-1a.461.461,0,0,0,.422.194,1.31,1.31,0,0,0,.416-.07L16.09,0a2.278,2.278,0,0,1-.721.116,1.09,1.09,0,0,1-.937-.439,2.071,2.071,0,0,1-.322-1.242V-5.5h-.967V-6.34h.967V-7.875Z" transform="translate(8 11)" fill="#fff"/>
    </g>
  </g>
</svg>
