<svg xmlns="http://www.w3.org/2000/svg" xmlns:xlink="http://www.w3.org/1999/xlink" width="90" height="380" viewBox="0 0 90 380">
  <defs>
    <clipPath id="clip-compressor_panel">
      <rect width="90" height="380"/>
    </clipPath>
  </defs>
  <g id="compressor_panel" clip-path="url(#clip-compressor_panel)">
    <rect width="90" height="380" fill="#e6e6e6"/>
    <path id="Path_1" data-name="Path 1" d="M11.92-13.92,5.98-7.1,10.28.98l-.16.18L0-7.8l11.78-6.36ZM23.2-4.78a3.865,3.865,0,0,1-1.62,2.82,9.045,9.045,0,0,1-3.9,1.94,8.665,8.665,0,0,1-1.9.22,4.692,4.692,0,0,1-2.61-.66,2.016,2.016,0,0,1-1.01-1.76,3.849,3.849,0,0,1,1.62-2.83,9.1,9.1,0,0,1,3.9-1.93,7.977,7.977,0,0,1,1.9-.24,4.638,4.638,0,0,1,2.61.67A2.039,2.039,0,0,1,23.2-4.78Zm-3.76,2a3.962,3.962,0,0,0,.3-1.5A2.429,2.429,0,0,0,19.4-5.6a1.292,1.292,0,0,0-1.14-.66,1.993,1.993,0,0,0-1.31.57,3.972,3.972,0,0,0-1.03,1.47,3.913,3.913,0,0,0-.3,1.48,2.533,2.533,0,0,0,.34,1.34,1.3,1.3,0,0,0,1.14.64,2.048,2.048,0,0,0,1.32-.56A3.651,3.651,0,0,0,19.44-2.78ZM37.28-7.54,34.54.06,34.24,0a10.842,10.842,0,0,0,.16-1.72q0-2.02-1.18-2.02a2.816,2.816,0,0,0-2.16,1.46,5.957,5.957,0,0,0-1.1,2.5L29.44,0a11.181,11.181,0,0,0,.12-1.66q0-2.18-.98-2.18a1.024,1.024,0,0,0-.38.08A3.632,3.632,0,0,0,26.48-2,7.474,7.474,0,0,0,25.56.42h-.22L24.1-7.54h2.7l-.3,2.46a5.413,5.413,0,0,1,4.56-2.66,4.8,4.8,0,0,1,1.4.2L31.8-5.7a5.207,5.207,0,0,1,4.06-2.04A4.874,4.874,0,0,1,37.28-7.54ZM49.64-5.8a4.87,4.87,0,0,1-2.21,3.98A8.589,8.589,0,0,1,42.12-.16h-.2L40.64,8.96h-.22L38.16-7.08h11.3A4.568,4.568,0,0,1,49.64-5.8Zm-3.58-.34V-6.2a.058.058,0,0,1-.02-.04H42.78L42.02-.86a4.511,4.511,0,0,0,3.1-1.09A3.5,3.5,0,0,0,46.3-4.66,4.9,4.9,0,0,0,46.06-6.14Z" transform="translate(19 34)"/>
    <path id="Path_2" data-name="Path 2" d="M13.32-15.32l-7.7,5.16L11.36-.44-.68,3.2l-.06-.18L6.9-2.1,1.12-11.8l12.14-3.66ZM25.16-.58H20L20.18.56l-4.46.66L16-.58H12.94L12.9-.82l3.28-.98,1.7-11.42h.14L19.64-2.84,25.16-4.5Z" transform="translate(32 374)"/>
    <path id="Path_3" data-name="Path 3" d="M8.032-8.88h-3.2V0H3.527V-8.88H.335V-9.953h7.7ZM10.575-6.5a2.689,2.689,0,0,1,2.188-1.032q2.345,0,2.365,2.646V0H13.863V-4.895A1.7,1.7,0,0,0,13.5-6.077,1.466,1.466,0,0,0,12.38-6.46a1.825,1.825,0,0,0-1.08.328,2.228,2.228,0,0,0-.725.861V0H9.311V-10.5h1.265ZM20.6-6.262a3.79,3.79,0,0,0-.622-.048,1.667,1.667,0,0,0-1.688,1.06V0H17.021V-7.4h1.23l.021.854a1.969,1.969,0,0,1,1.764-.991,1.292,1.292,0,0,1,.561.1Zm5.469,4.3a.931.931,0,0,0-.386-.8,3.718,3.718,0,0,0-1.347-.489,6.367,6.367,0,0,1-1.524-.492,2.169,2.169,0,0,1-.834-.684,1.635,1.635,0,0,1-.27-.943A1.919,1.919,0,0,1,22.473-6.9a3,3,0,0,1,1.965-.629,3.091,3.091,0,0,1,2.041.649,2.063,2.063,0,0,1,.783,1.661H25.99a1.142,1.142,0,0,0-.441-.9,1.652,1.652,0,0,0-1.111-.376,1.729,1.729,0,0,0-1.08.3.947.947,0,0,0-.39.786.767.767,0,0,0,.362.69,4.458,4.458,0,0,0,1.309.444,6.821,6.821,0,0,1,1.535.506,2.239,2.239,0,0,1,.872.708,1.74,1.74,0,0,1,.284,1.008,1.893,1.893,0,0,1-.793,1.589,3.326,3.326,0,0,1-2.058.6,3.725,3.725,0,0,1-1.572-.314,2.557,2.557,0,0,1-1.07-.878,2.117,2.117,0,0,1-.386-1.22h1.265a1.309,1.309,0,0,0,.509,1.008A1.976,1.976,0,0,0,24.479-.9a2.039,2.039,0,0,0,1.152-.291A.893.893,0,0,0,26.065-1.962ZM30.242-6.5A2.689,2.689,0,0,1,32.43-7.533q2.345,0,2.365,2.646V0H33.53V-4.895a1.7,1.7,0,0,0-.366-1.183,1.466,1.466,0,0,0-1.118-.383,1.825,1.825,0,0,0-1.08.328,2.228,2.228,0,0,0-.725.861V0H28.978V-10.5h1.265Z" transform="translate(5 118)"/>
    <path id="Path_4" data-name="Path 4" d="M8.812-4.655A6.157,6.157,0,0,1,8.319-2.1,3.728,3.728,0,0,1,6.925-.437,3.837,3.837,0,0,1,4.819.137,3.8,3.8,0,0,1,2.734-.441,3.817,3.817,0,0,1,1.323-2.088,5.908,5.908,0,0,1,.807-4.566v-.718a6.084,6.084,0,0,1,.5-2.536A3.8,3.8,0,0,1,2.717-9.505a3.788,3.788,0,0,1,2.088-.584,3.858,3.858,0,0,1,2.109.578,3.721,3.721,0,0,1,1.4,1.675,6.187,6.187,0,0,1,.492,2.553ZM7.506-5.3a4.463,4.463,0,0,0-.711-2.717,2.345,2.345,0,0,0-1.989-.947,2.32,2.32,0,0,0-1.958.947,4.371,4.371,0,0,0-.735,2.628v.731a4.469,4.469,0,0,0,.721,2.7,2.329,2.329,0,0,0,1.986.981A2.32,2.32,0,0,0,6.788-1.9,4.444,4.444,0,0,0,7.506-4.56ZM15.148-.731a2.686,2.686,0,0,1-2.167.868,2.3,2.3,0,0,1-1.8-.687,2.974,2.974,0,0,1-.625-2.034V-7.4h1.265v4.778q0,1.682,1.367,1.682a1.893,1.893,0,0,0,1.928-1.08V-7.4h1.265V0h-1.2Zm4.867-8.456V-7.4H21.4v.978H20.016v4.593a1.027,1.027,0,0,0,.185.667.777.777,0,0,0,.629.222,3.062,3.062,0,0,0,.6-.082V0a3.688,3.688,0,0,1-.971.136,1.575,1.575,0,0,1-1.278-.513,2.2,2.2,0,0,1-.431-1.456V-6.419H17.4V-7.4h1.347V-9.187Z" transform="translate(56 118)"/>
    <path id="Path_5" data-name="Path 5" d="M6.651-2.6H2.481L1.545,0H.191l3.8-9.953H5.141L8.948,0H7.6ZM2.878-3.678H6.262l-1.7-4.655Zm8.812-5.51V-7.4H13.07v.978H11.689v4.593a1.027,1.027,0,0,0,.185.667.777.777,0,0,0,.629.222,3.062,3.062,0,0,0,.6-.082V0a3.688,3.688,0,0,1-.971.136,1.575,1.575,0,0,1-1.278-.513,2.2,2.2,0,0,1-.431-1.456V-6.419H9.078V-7.4h1.347V-9.187Zm4.573,0V-7.4h1.381v.978H16.263v4.593a1.027,1.027,0,0,0,.185.667.777.777,0,0,0,.629.222,3.062,3.062,0,0,0,.6-.082V0a3.688,3.688,0,0,1-.971.136,1.575,1.575,0,0,1-1.278-.513A2.2,2.2,0,0,1,15-1.832V-6.419H13.651V-7.4H15V-9.187Z" transform="translate(13 170)"/>
    <path id="Path_9" data-name="Path 9" d="M2.851-9.953,6.1-1.832,9.358-9.953h1.7V0H9.748V-3.876L9.871-8.06,6.6,0h-1L2.338-8.039l.13,4.163V0H1.155V-9.953ZM14.554,0H13.289V-7.4h1.265ZM13.187-9.358a.755.755,0,0,1,.188-.52.706.706,0,0,1,.557-.212.717.717,0,0,1,.561.212.747.747,0,0,1,.191.52.722.722,0,0,1-.191.513.73.73,0,0,1-.561.205.718.718,0,0,1-.557-.205A.73.73,0,0,1,13.187-9.358ZM19.059-4.7,20.7-7.4h1.477l-2.42,3.657L22.251,0H20.788L19.079-2.769,17.37,0H15.9l2.5-3.739L15.976-7.4h1.463Z" transform="translate(12 220)"/>
    <path id="Path_8" data-name="Path 8" d="M4.806-4.026H2.468V0H1.148V-9.953H4.443a3.9,3.9,0,0,1,2.587.766,2.755,2.755,0,0,1,.906,2.229,2.68,2.68,0,0,1-.5,1.62,3,3,0,0,1-1.4,1.032L8.374-.082V0H6.966ZM2.468-5.1H4.484A2.275,2.275,0,0,0,6.04-5.606a1.714,1.714,0,0,0,.578-1.356,1.8,1.8,0,0,0-.55-1.418,2.33,2.33,0,0,0-1.589-.5H2.468ZM12.646.137A3.232,3.232,0,0,1,10.2-.851a3.666,3.666,0,0,1-.943-2.642v-.232a4.438,4.438,0,0,1,.42-1.965,3.28,3.28,0,0,1,1.176-1.354,2.956,2.956,0,0,1,1.637-.489,2.77,2.77,0,0,1,2.242.95,4.114,4.114,0,0,1,.8,2.721v.526H10.521a2.629,2.629,0,0,0,.639,1.767A2.009,2.009,0,0,0,12.715-.9a2.2,2.2,0,0,0,1.135-.273,2.851,2.851,0,0,0,.813-.725l.772.6A3.106,3.106,0,0,1,12.646.137Zm-.157-6.631a1.687,1.687,0,0,0-1.285.557,2.708,2.708,0,0,0-.643,1.562h3.705v-.1a2.409,2.409,0,0,0-.52-1.494A1.588,1.588,0,0,0,12.489-6.494ZM18.368,0H17.1V-10.5h1.265Z" transform="translate(57 170)"/>
    <g id="Standard_Output_Jack" data-name="Standard Output Jack" transform="translate(52 263)">
      <rect id="Rectangle_9" data-name="Rectangle 9" width="32" height="50" rx="3"/>
      <path id="Path_12" data-name="Path 12" d="M8.812-4.655A6.157,6.157,0,0,1,8.319-2.1,3.728,3.728,0,0,1,6.925-.437,3.837,3.837,0,0,1,4.819.137,3.8,3.8,0,0,1,2.734-.441,3.817,3.817,0,0,1,1.323-2.088,5.908,5.908,0,0,1,.807-4.566v-.718a6.084,6.084,0,0,1,.5-2.536A3.8,3.8,0,0,1,2.717-9.505a3.788,3.788,0,0,1,2.088-.584,3.858,3.858,0,0,1,2.109.578,3.721,3.721,0,0,1,1.4,1.675,6.187,6.187,0,0,1,.492,2.553ZM7.506-5.3a4.463,4.463,0,0,0-.711-2.717,2.345,2.345,0,0,0-1.989-.947,2.32,2.32,0,0,0-1.958.947,4.371,4.371,0,0,0-.735,2.628v.731a4.469,4.469,0,0,0,.721,2.7,2.329,2.329,0,0,0,1.986.981A2.32,2.32,0,0,0,6.788-1.9,4.444,4.444,0,0,0,7.506-4.56ZM15.148-.731a2.686,2.686,0,0,1-2.167.868,2.3,2.3,0,0,1-1.8-.687,2.974,2.974,0,0,1-.625-2.034V-7.4h1.265v4.778q0,1.682,1.367,1.682a1.893,1.893,0,0,0,1.928-1.08V-7.4h1.265V0h-1.2Zm4.867-8.456V-7.4H21.4v.978H20.016v4.593a1.027,1.027,0,0,0,.185.667.777.777,0,0,0,.629.222,3.062,3.062,0,0,0,.6-.082V0a3.688,3.688,0,0,1-.971.136,1.575,1.575,0,0,1-1.278-.513,2.2,2.2,0,0,1-.431-1.456V-6.419H17.4V-7.4h1.347V-9.187Z" transform="translate(4 13)" fill="#fff"/>
    </g>
    <path id="Path_7" data-name="Path 7" d="M2.563,0H1.251V-9.953H2.563Zm3.4-7.4L6-6.467A2.7,2.7,0,0,1,8.217-7.533q2.345,0,2.365,2.646V0H9.317V-4.895a1.7,1.7,0,0,0-.366-1.183A1.466,1.466,0,0,0,7.834-6.46a1.825,1.825,0,0,0-1.08.328,2.228,2.228,0,0,0-.725.861V0H4.765V-7.4ZM17.473-1.073h4.717V0H16.153V-9.953h1.319Z" transform="translate(11 276)"/>
    <path id="Path_10" data-name="Path 10" d="M2.563,0H1.251V-9.953H2.563Zm3.4-7.4L6-6.467A2.7,2.7,0,0,1,8.217-7.533q2.345,0,2.365,2.646V0H9.317V-4.895a1.7,1.7,0,0,0-.366-1.183A1.466,1.466,0,0,0,7.834-6.46a1.825,1.825,0,0,0-1.08.328,2.228,2.228,0,0,0-.725.861V0H4.765V-7.4ZM19.8-4.026H17.466V0H16.146V-9.953h3.295a3.9,3.9,0,0,1,2.587.766,2.755,2.755,0,0,1,.906,2.229,2.68,2.68,0,0,1-.5,1.62,3,3,0,0,1-1.4,1.032L23.372-.082V0H21.964ZM17.466-5.1h2.017a2.275,2.275,0,0,0,1.555-.507,1.714,1.714,0,0,0,.578-1.356,1.8,1.8,0,0,0-.55-1.418,2.33,2.33,0,0,0-1.589-.5h-2.01Z" transform="translate(11 320)"/>
    <g id="Standard_Output_Jack-2" data-name="Standard Output Jack" transform="translate(52 307)">
      <rect id="Rectangle_9-2" data-name="Rectangle 9" width="32" height="46" rx="3"/>
      <path id="Path_11" data-name="Path 11" d="M8.812-4.655A6.157,6.157,0,0,1,8.319-2.1,3.728,3.728,0,0,1,6.925-.437,3.837,3.837,0,0,1,4.819.137,3.8,3.8,0,0,1,2.734-.441,3.817,3.817,0,0,1,1.323-2.088,5.908,5.908,0,0,1,.807-4.566v-.718a6.084,6.084,0,0,1,.5-2.536A3.8,3.8,0,0,1,2.717-9.505a3.788,3.788,0,0,1,2.088-.584,3.858,3.858,0,0,1,2.109.578,3.721,3.721,0,0,1,1.4,1.675,6.187,6.187,0,0,1,.492,2.553ZM7.506-5.3a4.463,4.463,0,0,0-.711-2.717,2.345,2.345,0,0,0-1.989-.947,2.32,2.32,0,0,0-1.958.947,4.371,4.371,0,0,0-.735,2.628v.731a4.469,4.469,0,0,0,.721,2.7,2.329,2.329,0,0,0,1.986.981A2.32,2.32,0,0,0,6.788-1.9,4.444,4.444,0,0,0,7.506-4.56ZM15.148-.731a2.686,2.686,0,0,1-2.167.868,2.3,2.3,0,0,1-1.8-.687,2.974,2.974,0,0,1-.625-2.034V-7.4h1.265v4.778q0,1.682,1.367,1.682a1.893,1.893,0,0,0,1.928-1.08V-7.4h1.265V0h-1.2Zm4.867-8.456V-7.4H21.4v.978H20.016v4.593a1.027,1.027,0,0,0,.185.667.777.777,0,0,0,.629.222,3.062,3.062,0,0,0,.6-.082V0a3.688,3.688,0,0,1-.971.136,1.575,1.575,0,0,1-1.278-.513,2.2,2.2,0,0,1-.431-1.456V-6.419H17.4V-7.4h1.347V-9.187Z" transform="translate(4 13)" fill="#fff"/>
    </g>
    <path id="Path_6" data-name="Path 6" d="M4.983,0H3.712V-8.429l-2.55.937V-8.641L4.785-10h.2ZM9.071.854H7.984L12.141-9.953h1.08ZM20.7-4.245a5.784,5.784,0,0,1-.759,3.3A2.7,2.7,0,0,1,17.568.137,2.718,2.718,0,0,1,15.21-.919a5.49,5.49,0,0,1-.793-3.155V-5.763a5.655,5.655,0,0,1,.759-3.261,2.719,2.719,0,0,1,2.379-1.066A2.744,2.744,0,0,1,19.92-9.061,5.458,5.458,0,0,1,20.7-5.886ZM19.435-5.975a4.634,4.634,0,0,0-.451-2.341,1.553,1.553,0,0,0-1.429-.735,1.532,1.532,0,0,0-1.415.731,4.525,4.525,0,0,0-.458,2.249v2.023a4.708,4.708,0,0,0,.468,2.382A1.55,1.55,0,0,0,17.568-.9a1.529,1.529,0,0,0,1.391-.725A4.538,4.538,0,0,0,19.435-3.9Z" transform="translate(54 220)"/>
  </g>
</svg>
