<svg id="Layer_1" data-name="Layer 1" xmlns="http://www.w3.org/2000/svg" width="90" height="380" viewBox="0 0 90 380">
  <title>dt_panel</title>
  <rect width="90" height="380" style="fill: #e6e6e6"/>
  <rect x="55.5" y="43" width="29" height="258" rx="3"/>
  <g>
    <path d="M9.78,108.28a6.58,6.58,0,0,1,5.39,3,11.71,11.71,0,0,1,2.25,7.21c0,.24,0,.42,0,.55l9-.82V122L5.51,120.21V120L8,119.79V108.56A6,6,0,0,1,9.78,108.28Zm-.49,4.87a.28.28,0,0,0-.12,0v6.51l7.3-.57v-.42A6.16,6.16,0,0,0,15,114.46a4.78,4.78,0,0,0-3.72-1.62A6.89,6.89,0,0,0,9.29,113.15Z"/>
    <path d="M18.24,103.28a4.06,4.06,0,0,1,3,1.71,9.52,9.52,0,0,1,2.27,6.09,4.87,4.87,0,0,1-.7,2.74,2.12,2.12,0,0,1-1.84,1.06,4.08,4.08,0,0,1-3-1.7,9.64,9.64,0,0,1-2-4.1,8.28,8.28,0,0,1-.25-2,4.9,4.9,0,0,1,.7-2.75A2.16,2.16,0,0,1,18.24,103.28Zm2.1,4a4.16,4.16,0,0,0-1.58-.31,2.62,2.62,0,0,0-1.38.35,1.38,1.38,0,0,0-.7,1.2,2.11,2.11,0,0,0,.6,1.38,4.31,4.31,0,0,0,1.55,1.08,4,4,0,0,0,1.55.31,2.73,2.73,0,0,0,1.41-.35,1.38,1.38,0,0,0,.67-1.2,2.19,2.19,0,0,0-.59-1.39A3.81,3.81,0,0,0,20.34,107.23Z"/>
    <path d="M10.91,98.92l13.4,2.27v.25l-13.4,2.27Z"/>
    <path d="M17.78,86.34l10.18,9-.12.19-4.79-2-5.59,5.09L15.34,94.4,22,93.18l-6.8-2.79Z"/>
    <path d="M14.52,73.76l1.26,2.92,10.29-2.75.27,11.84-.16,0-2.73-8.23L21.87,78a9.28,9.28,0,0,1,1.6,5.21,4.87,4.87,0,0,1-.7,2.74A2.09,2.09,0,0,1,20.93,87a4.09,4.09,0,0,1-3-1.7,9.29,9.29,0,0,1-2-4.1,7.58,7.58,0,0,1-.23-1.53l-2.54.69,1.21-6.59Zm5.82,5.58A4.16,4.16,0,0,0,18.76,79a2.53,2.53,0,0,0-1.38.36,1.36,1.36,0,0,0-.7,1.19,2.12,2.12,0,0,0,.6,1.39A4,4,0,0,0,18.83,83a4.06,4.06,0,0,0,1.55.32A2.64,2.64,0,0,0,21.79,83a1.36,1.36,0,0,0,.67-1.2,2.15,2.15,0,0,0-.59-1.38A3.83,3.83,0,0,0,20.34,79.34Z"/>
    <path d="M23.26,62.61v4.62l-1.77-.4a9.21,9.21,0,0,1,1.35,2.5,6.83,6.83,0,0,1,.42,2.25,3,3,0,0,1-.52,1.87,1.65,1.65,0,0,1-1.41.71,4.09,4.09,0,0,1-2.79-1.42,8.66,8.66,0,0,1-2.13-3.41A7,7,0,0,1,16,67.06a3.74,3.74,0,0,1,.25-1.41l-.25,0v-.67ZM19.5,67a3.21,3.21,0,0,0-1.2-.26c-.94,0-1.41.39-1.41,1.16a2.56,2.56,0,0,0,.77,1.64,4.75,4.75,0,0,0,1.84,1.28,3.19,3.19,0,0,0,1.2.25c.92,0,1.38-.39,1.38-1.16a2.51,2.51,0,0,0-.75-1.64A4.76,4.76,0,0,0,19.5,67Z"/>
    <path d="M14.27,47.34l.55,11.32,8.44-1.53v4.79L14.9,60.4l.21,4.54H13.35l.23-4.77-3.05-.54v-.21l3.11-.55.55-11.53Z"/>
    <path d="M17.84,45.07a2.18,2.18,0,0,1,2,1,8,8,0,0,1,1.51,3.78,11.81,11.81,0,0,1,.14,1.53,1.88,1.88,0,0,0,.7-1.61A7.23,7.23,0,0,0,20.88,46l.57-.46a6.81,6.81,0,0,1,1.18,2.27,12.45,12.45,0,0,1,.67,3.27,5.89,5.89,0,0,1-.48,3,2.47,2.47,0,0,1-2.23,1.43A3.39,3.39,0,0,1,17.76,54a8.35,8.35,0,0,1-1.58-3.64A9.43,9.43,0,0,1,16,48.48a4.71,4.71,0,0,1,.53-2.38A1.91,1.91,0,0,1,17.84,45.07Zm-1.16,4.22a2.66,2.66,0,0,0,.53,1.5,3,3,0,0,0,2.44,1.51,1,1,0,0,0,1.09-1.09,2.63,2.63,0,0,0-.55-1.52,3.94,3.94,0,0,0-1.14-1.09,2.47,2.47,0,0,0-1.27-.42A1,1,0,0,0,16.68,49.29Z"/>
  </g>
  <g>
    <path d="M7.17,288.24l5.42,8.09,10.21-6,3.82,12.64-.19.06-5.38-8-10.18,6.07L7,288.3Z"/>
    <path d="M27.65,277.07v4.77L22.52,281a8.94,8.94,0,0,1,1,4.08,4.89,4.89,0,0,1-.69,2.73A2.13,2.13,0,0,1,21,288.83a4.08,4.08,0,0,1-3-1.7,9.58,9.58,0,0,1-2-4.12,7.71,7.71,0,0,1-.13-3.19l-1.57-.25v-.23Zm-11,2.9a6.44,6.44,0,0,0-.17,1.4,3.7,3.7,0,0,0,1,2.59A3.2,3.2,0,0,0,20,285a2.39,2.39,0,0,0,1.57-.56,1.86,1.86,0,0,0,.62-1.45,4.36,4.36,0,0,0-.72-2.16Z"/>
    <path d="M23.49,267.68v2.86l-2.58-.34A5.7,5.7,0,0,1,23.7,275a4.74,4.74,0,0,1-.21,1.47l-8-2.86.06-.31a9.88,9.88,0,0,0,1.74.15c1.53,0,2.29-.35,2.29-1.05a1,1,0,0,0-.08-.4,3.78,3.78,0,0,0-1.85-1.81,7.55,7.55,0,0,0-2.54-.94V269Z"/>
    <path d="M11.64,262.05l.55,1.8,1.87-.47-1.58,1.1,1,1.61L12,265l-1.22,1.45.61-1.78-1.74-.72,1.89,0Zm3.07.17,8.63,2.27v.23L14.71,267Z"/>
    <path d="M15.34,252.58l8,2.86-.06.31a11,11,0,0,0-1.75-.14q-2.28,0-2.28,1.05a1,1,0,0,0,.08.4,3.77,3.77,0,0,0,1.85,1.8,7.72,7.72,0,0,0,2.54,1v.23l-8.36,1.3v-2.83l2.58.31a5.68,5.68,0,0,1-2.79-4.79A5.07,5.07,0,0,1,15.34,252.58Z"/>
    <path d="M16,242.1l3.11,4.37L24,243.7l.28.19-3.38,4.87,3.65.61v.25l-13.42,2.27V247.1l8.49,1.45L16,246Z"/>
    <path d="M17.78,231,28,240l-.12.19-4.79-1.95-5.59,5.08L15.34,239,22,237.8,15.24,235Z"/>
    <path d="M22.65,213.54V219l1.2-.19.69,4.69-1.89-.3v3.22l-.25,0-1-3.45-12-1.78V221l10.9-1.7-1.75-5.8Z"/>
    <path d="M23.26,201.41V206l-1.77-.4a9.07,9.07,0,0,1,1.35,2.5,6.73,6.73,0,0,1,.42,2.24,3.06,3.06,0,0,1-.52,1.88,1.65,1.65,0,0,1-1.41.71,4.13,4.13,0,0,1-2.79-1.42,8.73,8.73,0,0,1-2.13-3.41,7,7,0,0,1-.42-2.27,3.7,3.7,0,0,1,.25-1.41l-.25,0v-.67Zm-3.76,4.34a3.39,3.39,0,0,0-1.2-.25c-.94,0-1.41.39-1.41,1.16a2.54,2.54,0,0,0,.77,1.63,4.77,4.77,0,0,0,1.84,1.29,3.39,3.39,0,0,0,1.2.25c.92,0,1.38-.39,1.38-1.16a2.55,2.55,0,0,0-.75-1.65A4.87,4.87,0,0,0,19.5,205.75Z"/>
    <path d="M18.24,190.57a4.08,4.08,0,0,1,3,1.7,9.58,9.58,0,0,1,2,4.12,8.93,8.93,0,0,1,.23,2,6.65,6.65,0,0,1-.17,1.51l1,.17v.25l-13.42,2.27v-4.79l5.94,1a9.41,9.41,0,0,1-1.13-4.39,4.87,4.87,0,0,1,.7-2.74A2.14,2.14,0,0,1,18.24,190.57Zm.92,3.86a2.4,2.4,0,0,0-1.56.57,1.86,1.86,0,0,0-.62,1.45,4.77,4.77,0,0,0,.92,2.5l4.54.76a5.76,5.76,0,0,0,.27-1.68,3.56,3.56,0,0,0-1-2.59A3.27,3.27,0,0,0,19.16,194.43Z"/>
    <path d="M22.82,181l2,8.05-.12.06L22,185.72l-5.23,4.35-2.06-7.67.11,0,2.6,3.15Z"/>
  </g>
  <g>
    <path d="M20.49,318.22v0a2.54,2.54,0,0,1-.84,2,3.22,3.22,0,0,1-2.29.81,3,3,0,0,1-2.36-1,3.79,3.79,0,0,1-.91-2.61v-1.51a3.79,3.79,0,0,1,.91-2.61,3,3,0,0,1,2.36-1,3.33,3.33,0,0,1,2.3.77,2.55,2.55,0,0,1,.83,2.05v0H19.38a1.91,1.91,0,0,0-.52-1.42,2.08,2.08,0,0,0-1.49-.52,1.81,1.81,0,0,0-1.54.78,3.12,3.12,0,0,0-.58,1.93v1.53a3.11,3.11,0,0,0,.58,1.94,1.81,1.81,0,0,0,1.54.78,2,2,0,0,0,1.49-.52,1.9,1.9,0,0,0,.52-1.43Z"/>
    <path d="M24.59,318.84l.2.67h0l.19-.67,2.21-6.41h1.24L25.29,321h-1l-3.17-8.53h1.26Z"/>
  </g>
  <g>
    <path d="M63.6,320.8a2.74,2.74,0,0,1-1.06.86,4.23,4.23,0,0,1-1.95.39,3.42,3.42,0,0,1-2.52-1,3.36,3.36,0,0,1-1-2.53v-1.75a3.55,3.55,0,0,1,.93-2.54,3.16,3.16,0,0,1,2.4-1,3.39,3.39,0,0,1,2.3.72,2.38,2.38,0,0,1,.86,1.85v0h-1.1a1.83,1.83,0,0,0-.57-1.23,2.08,2.08,0,0,0-1.48-.48,1.92,1.92,0,0,0-1.57.74,2.8,2.8,0,0,0-.6,1.85v1.77a2.65,2.65,0,0,0,.67,1.87,2.17,2.17,0,0,0,1.69.73,3.05,3.05,0,0,0,1.19-.19,1.69,1.69,0,0,0,.67-.44v-1.93H60.58v-.91h3Z"/>
    <path d="M69.28,321.93q-.06-.29-.09-.51a3.13,3.13,0,0,1,0-.44,2.82,2.82,0,0,1-.84.77,2.21,2.21,0,0,1-1.12.3,2.12,2.12,0,0,1-1.51-.5,1.9,1.9,0,0,1-.51-1.4,1.62,1.62,0,0,1,.73-1.42,3.46,3.46,0,0,1,2-.52h1.25v-.62a1.14,1.14,0,0,0-.34-.88,1.33,1.33,0,0,0-1-.33,1.42,1.42,0,0,0-.91.29.84.84,0,0,0-.35.68h-1.1v0a1.55,1.55,0,0,1,.65-1.26,3,3,0,0,1,3.52,0,2,2,0,0,1,.65,1.58v3c0,.23,0,.45,0,.66a3.25,3.25,0,0,0,.13.62Zm-1.92-.85a2.07,2.07,0,0,0,1.13-.32,1.53,1.53,0,0,0,.66-.74v-1h-1.3a1.7,1.7,0,0,0-1.11.35,1.06,1.06,0,0,0-.42.83.87.87,0,0,0,.26.66A1.09,1.09,0,0,0,67.36,321.08Z"/>
    <path d="M73.5,314.06v1.53h1.2v.86H73.5v3.84a.83.83,0,0,0,.19.63.66.66,0,0,0,.49.18.9.9,0,0,0,.22,0l.21-.06.15.79a1,1,0,0,1-.38.18,2.07,2.07,0,0,1-.5.06,1.52,1.52,0,0,1-1.12-.42,1.9,1.9,0,0,1-.41-1.34v-3.84h-1v-.86h1v-1.53Z"/>
    <path d="M78.76,322.05a2.68,2.68,0,0,1-2.11-.88,3.33,3.33,0,0,1-.78-2.29v-.25a3.25,3.25,0,0,1,.81-2.26,2.46,2.46,0,0,1,1.9-.9,2.39,2.39,0,0,1,1.94.78,3.05,3.05,0,0,1,.66,2.06V319H77.07l0,0a2.46,2.46,0,0,0,.46,1.5,1.48,1.48,0,0,0,1.25.58,3,3,0,0,0,1-.16,2.41,2.41,0,0,0,.76-.46l.45.75a2.66,2.66,0,0,1-.89.56A3.6,3.6,0,0,1,78.76,322.05Zm-.18-5.67a1.26,1.26,0,0,0-1,.49,2.28,2.28,0,0,0-.5,1.22v0H80V318a1.76,1.76,0,0,0-.36-1.13A1.28,1.28,0,0,0,78.58,316.38Z"/>
  </g>
</svg>
