<svg xmlns="http://www.w3.org/2000/svg" xmlns:xlink="http://www.w3.org/1999/xlink" width="120" height="380" viewBox="0 0 120 380">
  <defs>
    <clipPath id="clip-f2-panel">
      <rect width="120" height="380"/>
    </clipPath>
  </defs>
  <g id="f2-panel" clip-path="url(#clip-f2-panel)">
    <rect width="120" height="380" fill="#e6e6e6"/>
    <path id="Path_2" data-name="Path 2" d="M6.74-4.655H2.1V0H1.258V-9.953H7.424v.711H2.1v3.876H6.74ZM15.046,0H8.812V-.629L12.223-4.5A8.952,8.952,0,0,0,13.4-6.111a2.69,2.69,0,0,0,.328-1.237,2.011,2.011,0,0,0-.554-1.494,2.067,2.067,0,0,0-1.524-.55,2.151,2.151,0,0,0-1.624.643,2.3,2.3,0,0,0-.619,1.668H8.593a3.126,3.126,0,0,1,.379-1.531A2.73,2.73,0,0,1,10.052-9.7a3.206,3.206,0,0,1,1.6-.393,3.009,3.009,0,0,1,2.136.718,2.544,2.544,0,0,1,.769,1.955,3.318,3.318,0,0,1-.434,1.524,11.331,11.331,0,0,1-1.528,2.064L9.816-.69h5.229ZM25.778-4.655H21.137V0H20.3V-9.953h6.166v.711H21.137v3.876h4.642ZM28.9,0h-.82V-7.4h.82Zm-.964-9.533a.548.548,0,0,1,.15-.391.536.536,0,0,1,.41-.16.548.548,0,0,1,.414.16.542.542,0,0,1,.154.391.53.53,0,0,1-.154.387.554.554,0,0,1-.414.156.543.543,0,0,1-.41-.156A.537.537,0,0,1,27.932-9.533ZM32.033,0h-.82V-10.5h.82Zm3.493-9.29V-7.4h1.531v.67H35.526v4.934a1.545,1.545,0,0,0,.222.917.861.861,0,0,0,.742.3,5.089,5.089,0,0,0,.663-.068l.034.664a2.674,2.674,0,0,1-.875.115,1.459,1.459,0,0,1-1.224-.489,2.3,2.3,0,0,1-.383-1.439V-6.727h-1.36V-7.4h1.36V-9.29ZM41.617.137a3.211,3.211,0,0,1-1.706-.465,3.168,3.168,0,0,1-1.186-1.3A4.039,4.039,0,0,1,38.3-3.486V-3.78A4.352,4.352,0,0,1,38.715-5.7a3.29,3.29,0,0,1,1.152-1.343,2.842,2.842,0,0,1,1.6-.489,2.671,2.671,0,0,1,2.136.919,3.729,3.729,0,0,1,.79,2.512v.458H39.115v.157a3.1,3.1,0,0,0,.721,2.1,2.294,2.294,0,0,0,1.815.837A2.665,2.665,0,0,0,42.81-.793a2.57,2.57,0,0,0,.913-.766l.513.39A2.984,2.984,0,0,1,41.617.137Zm-.15-6.973a2.045,2.045,0,0,0-1.555.677,3.126,3.126,0,0,0-.769,1.818h4.437V-4.43a2.714,2.714,0,0,0-.608-1.736A1.885,1.885,0,0,0,41.467-6.836ZM49.4-6.7a3.055,3.055,0,0,0-.554-.048,2,2,0,0,0-1.3.427A2.34,2.34,0,0,0,46.8-5.079V0h-.813V-7.4h.8L46.8-6.221a2.175,2.175,0,0,1,2.085-1.312,1.345,1.345,0,0,1,.54.089Z" transform="translate(35 24)"/>
    <g id="Standard_Output_Jack" data-name="Standard Output Jack" transform="translate(83 304)">
      <rect id="Rectangle_9" data-name="Rectangle 9" width="32" height="48" rx="3"/>
      <path id="Path_12" data-name="Path 12" d="M8.812-4.655A6.157,6.157,0,0,1,8.319-2.1,3.728,3.728,0,0,1,6.925-.437,3.837,3.837,0,0,1,4.819.137,3.8,3.8,0,0,1,2.734-.441,3.817,3.817,0,0,1,1.323-2.088,5.908,5.908,0,0,1,.807-4.566v-.718a6.084,6.084,0,0,1,.5-2.536A3.8,3.8,0,0,1,2.717-9.505a3.788,3.788,0,0,1,2.088-.584,3.858,3.858,0,0,1,2.109.578,3.721,3.721,0,0,1,1.4,1.675,6.187,6.187,0,0,1,.492,2.553ZM7.506-5.3a4.463,4.463,0,0,0-.711-2.717,2.345,2.345,0,0,0-1.989-.947,2.32,2.32,0,0,0-1.958.947,4.371,4.371,0,0,0-.735,2.628v.731a4.469,4.469,0,0,0,.721,2.7,2.329,2.329,0,0,0,1.986.981A2.32,2.32,0,0,0,6.788-1.9,4.444,4.444,0,0,0,7.506-4.56ZM15.148-.731a2.686,2.686,0,0,1-2.167.868,2.3,2.3,0,0,1-1.8-.687,2.974,2.974,0,0,1-.625-2.034V-7.4h1.265v4.778q0,1.682,1.367,1.682a1.893,1.893,0,0,0,1.928-1.08V-7.4h1.265V0h-1.2Zm4.867-8.456V-7.4H21.4v.978H20.016v4.593a1.027,1.027,0,0,0,.185.667.777.777,0,0,0,.629.222,3.062,3.062,0,0,0,.6-.082V0a3.688,3.688,0,0,1-.971.136,1.575,1.575,0,0,1-1.278-.513,2.2,2.2,0,0,1-.431-1.456V-6.419H17.4V-7.4h1.347V-9.187Z" transform="translate(5 13)" fill="#fff"/>
    </g>
    <path id="Path_11" data-name="Path 11" d="M2.563,0H1.251V-9.953H2.563Zm3.4-7.4L6-6.467A2.7,2.7,0,0,1,8.217-7.533q2.345,0,2.365,2.646V0H9.317V-4.895a1.7,1.7,0,0,0-.366-1.183A1.466,1.466,0,0,0,7.834-6.46a1.825,1.825,0,0,0-1.08.328,2.228,2.228,0,0,0-.725.861V0H4.765V-7.4Z" transform="translate(16 316)"/>
    <path id="Path_8" data-name="Path 8" d="M6.645-4.4H2.468V0H1.155V-9.953H7.321V-8.88H2.468v3.411H6.645ZM11.519-.9a1.822,1.822,0,0,0,1.183-.41,1.443,1.443,0,0,0,.561-1.025h1.2a2.293,2.293,0,0,1-.437,1.21,2.881,2.881,0,0,1-1.077.916,3.107,3.107,0,0,1-1.425.342,3.047,3.047,0,0,1-2.4-1.008A4.016,4.016,0,0,1,8.224-3.63v-.212a4.453,4.453,0,0,1,.4-1.921A3.02,3.02,0,0,1,9.758-7.068a3.233,3.233,0,0,1,1.753-.465,2.966,2.966,0,0,1,2.068.745,2.663,2.663,0,0,1,.878,1.935h-1.2a1.743,1.743,0,0,0-.543-1.179,1.691,1.691,0,0,0-1.207-.461,1.77,1.77,0,0,0-1.494.694,3.259,3.259,0,0,0-.53,2.006v.239a3.194,3.194,0,0,0,.526,1.969A1.779,1.779,0,0,0,11.519-.9Z" transform="translate(15 270)"/>
    <path id="Path_4" data-name="Path 4" d="M2.475-1.073H7.191V0H1.155V-9.953H2.475ZM9.864,0H8.6V-7.4H9.864ZM8.5-9.358a.755.755,0,0,1,.188-.52.706.706,0,0,1,.557-.212.717.717,0,0,1,.561.212.747.747,0,0,1,.191.52.722.722,0,0,1-.191.513.73.73,0,0,1-.561.205.718.718,0,0,1-.557-.205A.73.73,0,0,1,8.5-9.358ZM13.077-7.4l.034.82a2.732,2.732,0,0,1,2.194-.957,2.115,2.115,0,0,1,2.112,1.189,2.8,2.8,0,0,1,.96-.861,2.837,2.837,0,0,1,1.4-.328q2.434,0,2.475,2.577V0H20.986V-4.881a1.7,1.7,0,0,0-.362-1.186,1.6,1.6,0,0,0-1.217-.393,1.677,1.677,0,0,0-1.169.42,1.706,1.706,0,0,0-.54,1.131V0H16.427V-4.847A1.411,1.411,0,0,0,14.848-6.46a1.692,1.692,0,0,0-1.7,1.06V0H11.881V-7.4ZM25.532,0H24.268V-7.4h1.265ZM24.165-9.358a.755.755,0,0,1,.188-.52.706.706,0,0,1,.557-.212.717.717,0,0,1,.561.212.747.747,0,0,1,.191.52.722.722,0,0,1-.191.513.73.73,0,0,1-.561.205.718.718,0,0,1-.557-.205A.73.73,0,0,1,24.165-9.358Zm5.106.171V-7.4h1.381v.978H29.271v4.593a1.027,1.027,0,0,0,.185.667.777.777,0,0,0,.629.222,3.062,3.062,0,0,0,.6-.082V0a3.688,3.688,0,0,1-.971.136,1.575,1.575,0,0,1-1.278-.513,2.2,2.2,0,0,1-.431-1.456V-6.419H26.66V-7.4h1.347V-9.187Z" transform="translate(84 46)"/>
    <path id="Path_3" data-name="Path 3" d="M4.45-1.743l2.844-8.21H8.729L5.038,0H3.876L.191-9.953H1.62ZM9.215-3.767a4.369,4.369,0,0,1,.427-1.955,3.187,3.187,0,0,1,1.189-1.34,3.238,3.238,0,0,1,1.74-.472,3.119,3.119,0,0,1,2.444,1.046,4.024,4.024,0,0,1,.933,2.782v.089a4.407,4.407,0,0,1-.414,1.938A3.14,3.14,0,0,1,14.352-.342a3.275,3.275,0,0,1-1.767.479A3.111,3.111,0,0,1,10.148-.909a4,4,0,0,1-.933-2.769Zm1.271.15a3.164,3.164,0,0,0,.571,1.976A1.827,1.827,0,0,0,12.585-.9a1.816,1.816,0,0,0,1.531-.755,3.46,3.46,0,0,0,.567-2.116,3.159,3.159,0,0,0-.578-1.972,1.836,1.836,0,0,0-1.535-.755,1.816,1.816,0,0,0-1.511.745A3.434,3.434,0,0,0,10.486-3.616ZM18.908,0H17.644V-10.5h1.265Z" transform="translate(12 46)"/>
    <path id="Path_5" data-name="Path 5" d="M6.645-4.4H2.468V0H1.155V-9.953H7.321V-8.88H2.468v3.411H6.645ZM11.519-.9a1.822,1.822,0,0,0,1.183-.41,1.443,1.443,0,0,0,.561-1.025h1.2a2.293,2.293,0,0,1-.437,1.21,2.881,2.881,0,0,1-1.077.916,3.107,3.107,0,0,1-1.425.342,3.047,3.047,0,0,1-2.4-1.008A4.016,4.016,0,0,1,8.224-3.63v-.212a4.453,4.453,0,0,1,.4-1.921A3.02,3.02,0,0,1,9.758-7.068a3.233,3.233,0,0,1,1.753-.465,2.966,2.966,0,0,1,2.068.745,2.663,2.663,0,0,1,.878,1.935h-1.2a1.743,1.743,0,0,0-.543-1.179,1.691,1.691,0,0,0-1.207-.461,1.77,1.77,0,0,0-1.494.694,3.259,3.259,0,0,0-.53,2.006v.239a3.194,3.194,0,0,0,.526,1.969A1.779,1.779,0,0,0,11.519-.9Z" transform="translate(15 179)"/>
    <path id="Path_6" data-name="Path 6" d="M8.757-4.655A6.147,6.147,0,0,1,8.3-2.17,3.84,3.84,0,0,1,7.014-.54L8.791.854l-.9.827L5.8.014A4.27,4.27,0,0,1,4.758.137,3.8,3.8,0,0,1,2.673-.441,3.817,3.817,0,0,1,1.261-2.088,5.908,5.908,0,0,1,.745-4.566v-.718a6.084,6.084,0,0,1,.5-2.536A3.8,3.8,0,0,1,2.656-9.505a3.788,3.788,0,0,1,2.088-.584,3.854,3.854,0,0,1,2.116.581,3.748,3.748,0,0,1,1.4,1.671,6.139,6.139,0,0,1,.492,2.546ZM7.444-5.3a4.517,4.517,0,0,0-.7-2.71,2.332,2.332,0,0,0-2-.954,2.313,2.313,0,0,0-1.952.947,4.371,4.371,0,0,0-.735,2.628v.731a4.5,4.5,0,0,0,.714,2.693,2.316,2.316,0,0,0,1.986.984A2.32,2.32,0,0,0,6.727-1.9,4.444,4.444,0,0,0,7.444-4.56Z" transform="translate(55 179)"/>
    <path id="Path_7" data-name="Path 7" d="M4.806-4.026H2.468V0H1.148V-9.953H4.443a3.9,3.9,0,0,1,2.587.766,2.755,2.755,0,0,1,.906,2.229,2.68,2.68,0,0,1-.5,1.62,3,3,0,0,1-1.4,1.032L8.374-.082V0H6.966ZM2.468-5.1H4.484A2.275,2.275,0,0,0,6.04-5.606a1.714,1.714,0,0,0,.578-1.356,1.8,1.8,0,0,0-.55-1.418,2.33,2.33,0,0,0-1.589-.5H2.468Z" transform="translate(95 179)"/>
    <path id="Path_9" data-name="Path 9" d="M8.757-4.655A6.147,6.147,0,0,1,8.3-2.17,3.84,3.84,0,0,1,7.014-.54L8.791.854l-.9.827L5.8.014A4.27,4.27,0,0,1,4.758.137,3.8,3.8,0,0,1,2.673-.441,3.817,3.817,0,0,1,1.261-2.088,5.908,5.908,0,0,1,.745-4.566v-.718a6.084,6.084,0,0,1,.5-2.536A3.8,3.8,0,0,1,2.656-9.505a3.788,3.788,0,0,1,2.088-.584,3.854,3.854,0,0,1,2.116.581,3.748,3.748,0,0,1,1.4,1.671,6.139,6.139,0,0,1,.492,2.546ZM7.444-5.3a4.517,4.517,0,0,0-.7-2.71,2.332,2.332,0,0,0-2-.954,2.313,2.313,0,0,0-1.952.947,4.371,4.371,0,0,0-.735,2.628v.731a4.5,4.5,0,0,0,.714,2.693,2.316,2.316,0,0,0,1.986.984A2.32,2.32,0,0,0,6.727-1.9,4.444,4.444,0,0,0,7.444-4.56Z" transform="translate(55 270)"/>
    <path id="Path_10" data-name="Path 10" d="M4.806-4.026H2.468V0H1.148V-9.953H4.443a3.9,3.9,0,0,1,2.587.766,2.755,2.755,0,0,1,.906,2.229,2.68,2.68,0,0,1-.5,1.62,3,3,0,0,1-1.4,1.032L8.374-.082V0H6.966ZM2.468-5.1H4.484A2.275,2.275,0,0,0,6.04-5.606a1.714,1.714,0,0,0,.578-1.356,1.8,1.8,0,0,0-.55-1.418,2.33,2.33,0,0,0-1.589-.5H2.468Z" transform="translate(95 270)"/>
    <path id="Path_1" data-name="Path 1" d="M13.32-15.32l-7.7,5.16L11.36-.44-.68,3.2l-.06-.18L6.9-2.1,1.12-11.8l12.14-3.66ZM25.16-.58H20L20.18.56l-4.46.66L16-.58H12.94L12.9-.82l3.28-.98,1.7-11.42h.14L19.64-2.84,25.16-4.5Z" transform="translate(48 370)"/>
  </g>
</svg>
