<?xml version="1.0" encoding="UTF-8" standalone="no"?>
<svg
   xmlns:dc="http://purl.org/dc/elements/1.1/"
   xmlns:cc="http://creativecommons.org/ns#"
   xmlns:rdf="http://www.w3.org/1999/02/22-rdf-syntax-ns#"
   xmlns:svg="http://www.w3.org/2000/svg"
   xmlns="http://www.w3.org/2000/svg"
   xmlns:sodipodi="http://sodipodi.sourceforge.net/DTD/sodipodi-0.dtd"
   xmlns:inkscape="http://www.inkscape.org/namespaces/inkscape"
   width="120"
   height="380"
   viewBox="0 0 120 380"
   version="1.1"
   id="svg883"
   sodipodi:docname="f2-panel.svg"
   inkscape:version="1.0.2-2 (e86c870879, 2021-01-15)">
  <metadata
     id="metadata887">
    <rdf:RDF>
      <cc:Work
         rdf:about="">
        <dc:format>image/svg+xml</dc:format>
        <dc:type
           rdf:resource="http://purl.org/dc/dcmitype/StillImage" />
      </cc:Work>
    </rdf:RDF>
  </metadata>
  <sodipodi:namedview
     pagecolor="#ffffff"
     bordercolor="#666666"
     borderopacity="1"
     objecttolerance="10"
     gridtolerance="10"
     guidetolerance="10"
     inkscape:pageopacity="0"
     inkscape:pageshadow="2"
     inkscape:window-width="1920"
     inkscape:window-height="1001"
     id="namedview885"
     showgrid="false"
     inkscape:zoom="2.1842105"
     inkscape:cx="60"
     inkscape:cy="153.37349"
     inkscape:window-x="-9"
     inkscape:window-y="-9"
     inkscape:window-maximized="1"
     inkscape:current-layer="svg883"
     inkscape:document-rotation="0" />
  <defs
     id="defs864">
    <clipPath
       id="clip-f2-panel">
      <rect
         width="120"
         height="380"
         id="rect861" />
    </clipPath>
  </defs>
  <rect
     width="120"
     height="380"
     fill="#e6e6e6"
     id="rect866"
     x="0"
     y="0" />
  <g
     id="Standard_Output_Jack"
     data-name="Standard Output Jack"
     transform="translate(83,304)">
    <rect
       id="Rectangle_9"
       data-name="Rectangle 9"
       width="32"
       height="48"
       rx="3"
       x="0"
       y="0" />
    <path
       id="Path_12"
       data-name="Path 12"
       d="M 8.812,-4.655 A 6.157,6.157 0 0 1 8.319,-2.1 3.728,3.728 0 0 1 6.925,-0.437 3.837,3.837 0 0 1 4.819,0.137 3.8,3.8 0 0 1 2.734,-0.441 3.817,3.817 0 0 1 1.323,-2.088 5.908,5.908 0 0 1 0.807,-4.566 v -0.718 a 6.084,6.084 0 0 1 0.5,-2.536 3.8,3.8 0 0 1 1.41,-1.685 3.788,3.788 0 0 1 2.088,-0.584 3.858,3.858 0 0 1 2.109,0.578 3.721,3.721 0 0 1 1.4,1.675 6.187,6.187 0 0 1 0.492,2.553 z M 7.506,-5.3 A 4.463,4.463 0 0 0 6.795,-8.017 2.345,2.345 0 0 0 4.806,-8.964 2.32,2.32 0 0 0 2.848,-8.017 4.371,4.371 0 0 0 2.113,-5.389 v 0.731 a 4.469,4.469 0 0 0 0.721,2.7 2.329,2.329 0 0 0 1.986,0.981 2.32,2.32 0 0 0 1.968,-0.923 4.444,4.444 0 0 0 0.718,-2.66 z m 7.642,4.569 a 2.686,2.686 0 0 1 -2.167,0.868 2.3,2.3 0 0 1 -1.8,-0.687 2.974,2.974 0 0 1 -0.625,-2.034 V -7.4 h 1.265 v 4.778 q 0,1.682 1.367,1.682 a 1.893,1.893 0 0 0 1.928,-1.08 V -7.4 h 1.265 V 0 h -1.2 z m 4.867,-8.456 V -7.4 H 21.4 v 0.978 h -1.384 v 4.593 a 1.027,1.027 0 0 0 0.185,0.667 0.777,0.777 0 0 0 0.629,0.222 3.062,3.062 0 0 0 0.6,-0.082 V 0 A 3.688,3.688 0 0 1 20.459,0.136 1.575,1.575 0 0 1 19.181,-0.377 2.2,2.2 0 0 1 18.75,-1.833 V -6.419 H 17.4 V -7.4 h 1.347 v -1.787 z"
       transform="translate(5,13)"
       fill="#ffffff" />
  </g>
  <path
     id="Path_11"
     data-name="Path 11"
     d="m 18.563,316 h -1.312 v -9.953 h 1.312 z m 3.4,-7.4 0.037,0.933 a 2.7,2.7 0 0 1 2.217,-1.066 q 2.345,0 2.365,2.646 V 316 h -1.265 v -4.895 a 1.7,1.7 0 0 0 -0.366,-1.183 1.466,1.466 0 0 0 -1.117,-0.382 1.825,1.825 0 0 0 -1.08,0.328 2.228,2.228 0 0 0 -0.725,0.861 V 316 h -1.264 v -7.4 z" />
  <path
     id="Path_8"
     data-name="Path 8"
     d="m 21.645,265.6 h -4.177 v 4.4 h -1.313 v -9.953 h 6.166 v 1.073 h -4.853 v 3.411 h 4.177 z m 4.874,3.5 a 1.822,1.822 0 0 0 1.183,-0.41 1.443,1.443 0 0 0 0.561,-1.025 h 1.2 a 2.293,2.293 0 0 1 -0.437,1.21 2.881,2.881 0 0 1 -1.077,0.916 3.107,3.107 0 0 1 -1.425,0.342 3.047,3.047 0 0 1 -2.4,-1.008 4.016,4.016 0 0 1 -0.9,-2.755 v -0.212 a 4.453,4.453 0 0 1 0.4,-1.921 3.02,3.02 0 0 1 1.134,-1.305 3.233,3.233 0 0 1 1.753,-0.465 2.966,2.966 0 0 1 2.068,0.745 2.663,2.663 0 0 1 0.878,1.935 h -1.2 a 1.743,1.743 0 0 0 -0.543,-1.179 1.691,1.691 0 0 0 -1.207,-0.461 1.77,1.77 0 0 0 -1.494,0.694 3.259,3.259 0 0 0 -0.53,2.006 v 0.239 a 3.194,3.194 0 0 0 0.526,1.969 1.779,1.779 0 0 0 1.51,0.685 z" />
  <path
     id="Path_4"
     data-name="Path 4"
     d="m 86.475,44.927 h 4.716 V 46 h -6.036 v -9.953 h 1.32 z M 93.864,46 H 92.6 v -7.4 h 1.264 z M 92.5,36.642 a 0.755,0.755 0 0 1 0.188,-0.52 0.706,0.706 0 0 1 0.557,-0.212 0.717,0.717 0 0 1 0.561,0.212 0.747,0.747 0 0 1 0.191,0.52 0.722,0.722 0 0 1 -0.191,0.513 0.73,0.73 0 0 1 -0.561,0.205 0.718,0.718 0 0 1 -0.557,-0.205 0.73,0.73 0 0 1 -0.188,-0.513 z m 4.577,1.958 0.034,0.82 a 2.732,2.732 0 0 1 2.194,-0.957 2.115,2.115 0 0 1 2.112,1.189 2.8,2.8 0 0 1 0.96,-0.861 2.837,2.837 0 0 1 1.4,-0.328 q 2.434,0 2.475,2.577 V 46 h -1.266 v -4.881 a 1.7,1.7 0 0 0 -0.362,-1.186 1.6,1.6 0 0 0 -1.217,-0.393 1.677,1.677 0 0 0 -1.169,0.42 1.706,1.706 0 0 0 -0.54,1.131 V 46 h -1.271 v -4.847 a 1.411,1.411 0 0 0 -1.579,-1.613 1.692,1.692 0 0 0 -1.7,1.06 V 46 h -1.267 v -7.4 z m 12.455,7.4 h -1.264 v -7.4 h 1.265 z m -1.367,-9.358 a 0.755,0.755 0 0 1 0.188,-0.52 0.706,0.706 0 0 1 0.557,-0.212 0.717,0.717 0 0 1 0.561,0.212 0.747,0.747 0 0 1 0.191,0.52 0.722,0.722 0 0 1 -0.191,0.513 0.73,0.73 0 0 1 -0.561,0.205 0.718,0.718 0 0 1 -0.557,-0.205 0.73,0.73 0 0 1 -0.188,-0.513 z m 5.106,0.171 V 38.6 h 1.381 v 0.978 h -1.381 v 4.593 a 1.027,1.027 0 0 0 0.185,0.667 0.777,0.777 0 0 0 0.629,0.222 3.062,3.062 0 0 0 0.6,-0.082 V 46 a 3.688,3.688 0 0 1 -0.971,0.136 1.575,1.575 0 0 1 -1.278,-0.513 2.2,2.2 0 0 1 -0.431,-1.456 V 39.581 H 110.66 V 38.6 h 1.347 v -1.787 z" />
  <path
     id="Path_3"
     data-name="Path 3"
     d="m 16.45,44.257 2.844,-8.21 h 1.435 L 17.038,46 h -1.162 l -3.685,-9.953 h 1.429 z m 4.765,-2.024 a 4.369,4.369 0 0 1 0.427,-1.955 3.187,3.187 0 0 1 1.189,-1.34 3.238,3.238 0 0 1 1.74,-0.472 3.119,3.119 0 0 1 2.444,1.046 4.024,4.024 0 0 1 0.933,2.782 v 0.089 a 4.407,4.407 0 0 1 -0.414,1.938 3.14,3.14 0 0 1 -1.182,1.337 3.275,3.275 0 0 1 -1.767,0.479 3.111,3.111 0 0 1 -2.437,-1.046 4,4 0 0 1 -0.933,-2.769 z m 1.271,0.15 a 3.164,3.164 0 0 0 0.571,1.976 1.827,1.827 0 0 0 1.528,0.741 1.816,1.816 0 0 0 1.531,-0.755 3.46,3.46 0 0 0 0.567,-2.116 3.159,3.159 0 0 0 -0.578,-1.972 1.836,1.836 0 0 0 -1.535,-0.755 1.816,1.816 0 0 0 -1.511,0.745 3.434,3.434 0 0 0 -0.573,2.137 z M 30.908,46 H 29.644 V 35.5 h 1.265 z" />
  <path
     id="Path_5"
     data-name="Path 5"
     d="m 21.645,174.6 h -4.177 v 4.4 h -1.313 v -9.953 h 6.166 v 1.073 h -4.853 v 3.411 h 4.177 z m 4.874,3.5 a 1.822,1.822 0 0 0 1.183,-0.41 1.443,1.443 0 0 0 0.561,-1.025 h 1.2 a 2.293,2.293 0 0 1 -0.437,1.21 2.881,2.881 0 0 1 -1.077,0.916 3.107,3.107 0 0 1 -1.425,0.342 3.047,3.047 0 0 1 -2.4,-1.008 4.016,4.016 0 0 1 -0.9,-2.755 v -0.212 a 4.453,4.453 0 0 1 0.4,-1.921 3.02,3.02 0 0 1 1.134,-1.305 3.233,3.233 0 0 1 1.753,-0.465 2.966,2.966 0 0 1 2.068,0.745 2.663,2.663 0 0 1 0.878,1.935 h -1.2 a 1.743,1.743 0 0 0 -0.543,-1.179 1.691,1.691 0 0 0 -1.207,-0.461 1.77,1.77 0 0 0 -1.494,0.694 3.259,3.259 0 0 0 -0.53,2.006 v 0.239 a 3.194,3.194 0 0 0 0.526,1.969 1.779,1.779 0 0 0 1.51,0.685 z" />
  <path
     id="Path_6"
     data-name="Path 6"
     d="m 63.757,174.345 a 6.147,6.147 0 0 1 -0.457,2.485 3.84,3.84 0 0 1 -1.286,1.63 l 1.777,1.394 -0.9,0.827 -2.091,-1.667 a 4.27,4.27 0 0 1 -1.042,0.123 3.8,3.8 0 0 1 -2.085,-0.578 3.817,3.817 0 0 1 -1.412,-1.647 5.908,5.908 0 0 1 -0.516,-2.478 v -0.718 a 6.084,6.084 0 0 1 0.5,-2.536 3.8,3.8 0 0 1 1.411,-1.685 3.788,3.788 0 0 1 2.088,-0.584 3.854,3.854 0 0 1 2.116,0.581 3.748,3.748 0 0 1 1.4,1.671 6.139,6.139 0 0 1 0.492,2.546 z M 62.444,173.7 a 4.517,4.517 0 0 0 -0.7,-2.71 2.332,2.332 0 0 0 -2,-0.954 2.313,2.313 0 0 0 -1.952,0.947 4.371,4.371 0 0 0 -0.735,2.628 v 0.731 a 4.5,4.5 0 0 0 0.714,2.693 2.316,2.316 0 0 0 1.986,0.984 2.32,2.32 0 0 0 1.97,-0.919 4.444,4.444 0 0 0 0.717,-2.66 z" />
  <path
     id="Path_7"
     data-name="Path 7"
     d="M 99.806,174.974 H 97.468 V 179 h -1.32 v -9.953 h 3.295 a 3.9,3.9 0 0 1 2.587,0.766 2.755,2.755 0 0 1 0.906,2.229 2.68,2.68 0 0 1 -0.5,1.62 3,3 0 0 1 -1.4,1.032 l 2.338,4.224 V 179 h -1.408 z M 97.468,173.9 h 2.016 a 2.275,2.275 0 0 0 1.556,-0.506 1.714,1.714 0 0 0 0.578,-1.356 1.8,1.8 0 0 0 -0.55,-1.418 2.33,2.33 0 0 0 -1.589,-0.5 h -2.011 z" />
  <path
     id="Path_9"
     data-name="Path 9"
     d="m 63.757,265.345 a 6.147,6.147 0 0 1 -0.457,2.485 3.84,3.84 0 0 1 -1.286,1.63 l 1.777,1.394 -0.9,0.827 -2.091,-1.667 a 4.27,4.27 0 0 1 -1.042,0.123 3.8,3.8 0 0 1 -2.085,-0.578 3.817,3.817 0 0 1 -1.412,-1.647 5.908,5.908 0 0 1 -0.516,-2.478 v -0.718 a 6.084,6.084 0 0 1 0.5,-2.536 3.8,3.8 0 0 1 1.411,-1.685 3.788,3.788 0 0 1 2.088,-0.584 3.854,3.854 0 0 1 2.116,0.581 3.748,3.748 0 0 1 1.4,1.671 6.139,6.139 0 0 1 0.492,2.546 z M 62.444,264.7 a 4.517,4.517 0 0 0 -0.7,-2.71 2.332,2.332 0 0 0 -2,-0.954 2.313,2.313 0 0 0 -1.952,0.947 4.371,4.371 0 0 0 -0.735,2.628 v 0.731 a 4.5,4.5 0 0 0 0.714,2.693 2.316,2.316 0 0 0 1.986,0.984 2.32,2.32 0 0 0 1.97,-0.919 4.444,4.444 0 0 0 0.717,-2.66 z" />
  <path
     id="Path_10"
     data-name="Path 10"
     d="M 99.806,265.974 H 97.468 V 270 h -1.32 v -9.953 h 3.295 a 3.9,3.9 0 0 1 2.587,0.766 2.755,2.755 0 0 1 0.906,2.229 2.68,2.68 0 0 1 -0.5,1.62 3,3 0 0 1 -1.4,1.032 l 2.338,4.224 V 270 h -1.408 z M 97.468,264.9 h 2.016 a 2.275,2.275 0 0 0 1.556,-0.506 1.714,1.714 0 0 0 0.578,-1.356 1.8,1.8 0 0 0 -0.55,-1.418 2.33,2.33 0 0 0 -1.589,-0.5 h -2.011 z" />
  <g
     aria-label="F2 Filter"
     id="text906"
     style="font-style:normal;font-variant:normal;font-weight:normal;font-stretch:normal;font-size:14.6667px;line-height:1.25;font-family:'Space Patrol NF';-inkscape-font-specification:'Space Patrol NF, Normal';font-variant-ligatures:normal;font-variant-caps:normal;font-variant-numeric:normal;font-variant-east-asian:normal"
     transform="translate(0,8)">
    <path
       d="m 41.549352,5.0700824 -4.840011,1.9213377 3.754676,1.2906697 V 8.5020903 L 37.325343,9.543426 36.650675,14.588771 H 36.489341 L 33.38,4.9234154 h 8.169352 z"
       id="path908" />
    <path
       d="m 50.877352,4.5127478 -7.025349,8.8880202 6.394681,-2.434672 0.396001,3.226674 -8.44802,-0.01467 v -0.146667 l 1.129336,-0.425334 3.344008,-6.8786825 -4.282676,-2.053338 V 4.5127478 Z"
       id="path910" />
    <path
       d="m 62.640007,5.0700824 -4.840011,1.9213377 3.754675,1.2906697 v 0.2200005 l -3.138674,1.0413357 -0.674668,5.045345 h -0.161334 l -3.10934,-9.6653556 h 8.169352 z"
       id="path912" />
    <path
       d="m 65.573313,6.0820847 -1.261336,0.3813342 0.322667,1.2906696 -0.762668,-1.0853358 -1.11467,0.7040016 0.792002,-1.0560024 -1.012002,-0.8506686 1.246669,0.4253343 0.498668,-1.2173361 -0.02933,1.320003 z M 65.455979,8.223423 63.871976,14.251437 H 63.710642 L 62.126638,8.223423 Z"
       id="path914" />
    <path
       d="M 69.254639,5.5687502 67.670636,14.926105 H 67.494635 L 65.910632,5.5687502 Z"
       id="path916" />
    <path
       d="m 79.902634,7.9154222 -7.905352,0.3813343 1.07067,5.8960135 h -3.344008 l 1.056002,-5.8373467 -3.168007,0.146667 V 7.2700874 l 3.329341,0.1613337 0.381334,-2.1266715 h 0.146667 l 0.381334,2.1706716 8.052019,0.3813342 z"
       id="path918" />
    <path
       d="m 81.486616,10.408761 q 0.117333,0.748002 -0.689335,1.408004 -0.909336,0.762668 -2.640006,1.056002 -0.440001,0.07333 -1.070669,0.102667 0.366667,0.484001 1.129336,0.484001 1.114669,0 2.596006,-0.924002 l 0.322667,0.396001 q -0.484001,0.440001 -1.584004,0.821335 -1.158669,0.396001 -2.288005,0.469334 -1.29067,0.07333 -2.097338,-0.337334 -0.953336,-0.484001 -0.997336,-1.55467 -0.044,-1.100002 1.11467,-1.980004 1.026669,-0.806669 2.537339,-1.100003 0.689335,-0.1320003 1.290669,-0.1320003 1.026669,0 1.657337,0.3666675 0.630669,0.3666675 0.718669,0.9240018 z M 78.538609,9.6020928 q -0.513334,0 -1.041336,0.3666675 -1.056002,0.7480017 -1.056002,1.7013377 0,0.762668 0.762668,0.762668 0.513335,0 1.056003,-0.381334 0.469334,-0.322668 0.762668,-0.792002 0.293334,-0.484001 0.293334,-0.894669 0,-0.7626682 -0.777335,-0.7626682 z"
       id="path920" />
    <path
       d="m 86.619936,11.684764 -2.420006,0.146667 -0.733335,2.97734 H 83.261261 L 81.853258,9.1180917 h 3.02134 l -0.278667,1.1293363 2.024005,-1.1293363 z"
       id="path922" />
  </g>
  <g
     aria-label="SquinkyLabs"
     id="text864"
     style="font-style:normal;font-variant:normal;font-weight:normal;font-stretch:normal;font-size:13.3333px;line-height:1.25;font-family:'Space Patrol NF';-inkscape-font-specification:'Space Patrol NF, Normal';font-variant-ligatures:normal;font-variant-caps:normal;font-variant-numeric:normal;font-variant-east-asian:normal"
     transform="translate(0,-12)">
    <path
       d="m 32.687204,365.66621 -5.133321,3.43999 3.826657,6.47998 -8.026646,2.42666 -0.04,-0.12 5.093321,-3.41332 -3.853324,-6.46665 8.093313,-2.43999 z"
       id="path889" />
    <path
       d="m 39.780515,378.66618 h -3.026659 l 0.546665,-3.25333 q -1.226663,0.61333 -2.58666,0.61333 -1.066664,0 -1.733329,-0.44 -0.666665,-0.43999 -0.666665,-1.17333 0,-0.95999 1.079998,-1.89332 1.079997,-0.93334 2.613326,-1.29333 1.066664,-0.25334 2.026662,-0.08 l 0.16,-1 h 0.146666 z m -1.839995,-6.98665 q -0.466666,-0.10667 -0.893331,-0.10667 -0.973331,0 -1.639996,0.61333 -0.679998,0.65333 -0.639998,1.62667 0.01333,0.59999 0.359999,0.99999 0.346665,0.38667 0.919997,0.38667 0.599999,0 1.37333,-0.45333 z"
       id="path891" />
    <path
       d="m 45.740495,376.02618 h -1.813329 l 0.213333,-1.63999 q -1.226663,1.77333 -3.039992,1.77333 -0.519999,0 -0.933331,-0.13334 l 1.813329,-5.06665 0.199999,0.04 q -0.09333,0.53333 -0.09333,1.10666 0,1.45333 0.666665,1.45333 0.12,0 0.253333,-0.0533 0.599998,-0.21333 1.146663,-1.17333 0.479999,-0.85333 0.599999,-1.61333 h 0.159999 z"
       id="path893" />
    <path
       d="m 49.313808,368.5062 -1.146664,0.34667 0.293333,1.17333 -0.693332,-0.98667 -1.013331,0.64 0.719999,-0.96 -0.919998,-0.77333 1.13333,0.38667 0.453333,-1.10666 -0.02667,1.19999 z m -0.106666,1.94666 -1.439997,5.47999 h -0.146666 l -1.439996,-5.47999 z"
       id="path895" />
    <path
       d="m 55.32711,370.85286 -1.813329,5.06666 -0.2,-0.04 q 0.09333,-0.53334 0.09333,-1.10667 0,-1.45333 -0.666665,-1.45333 -0.12,0 -0.253333,0.0533 -0.599999,0.21333 -1.146664,1.17333 -0.479999,0.83999 -0.613332,1.61333 h -0.146666 l -0.826665,-5.30666 h 1.799996 l -0.2,1.64 q 1.226664,-1.77333 3.039993,-1.77333 0.493332,0 0.933331,0.13333 z"
       id="path897" />
    <path
       d="m 61.980415,371.26619 -2.773326,1.97333 1.759995,3.13333 -0.12,0.17333 -3.093325,-2.14666 -0.386666,2.31999 h -0.159999 l -1.439997,-8.51997 h 3.039993 l -0.919998,5.38665 1.613329,-2.32 z"
       id="path899" />
    <path
       d="m 69.060391,372.39953 -5.733318,6.46665 -0.12,-0.08 1.239997,-3.04 -3.226659,-3.54665 2.719993,-1.34667 0.773332,4.25333 1.773329,-4.31999 z"
       id="path901" />
    <path
       d="m 77.447026,375.49285 h -3.439991 l 0.12,0.76 -2.973326,0.44 0.186666,-1.2 H 69.30038 l -0.02667,-0.16 2.186661,-0.65333 1.13333,-7.61331 h 0.09333 l 1.079998,6.91998 3.67999,-1.10667 z"
       id="path903" />
    <path
       d="M 85.153656,375.87952 H 82.22033 l 0.253332,-1.12 q -0.746664,0.56 -1.586662,0.85333 -0.759998,0.26667 -1.426663,0.26667 -0.746665,0 -1.199997,-0.32 -0.439999,-0.33334 -0.439999,-0.90667 0,-0.85333 0.893331,-1.75999 0.906664,-0.92 2.173328,-1.36 0.773331,-0.26667 1.439996,-0.26667 0.519999,0 0.893331,0.16 l 0.02667,-0.16 h 0.426665 z m -2.759993,-2.38666 q 0.159999,-0.4 0.159999,-0.76 0,-0.89333 -0.733331,-0.89333 -0.493332,0 -1.039998,0.49333 -0.546665,0.48 -0.813331,1.16 -0.159999,0.39999 -0.159999,0.75999 0,0.88 0.733331,0.88 0.506665,0 1.039997,-0.48 0.546666,-0.48 0.813332,-1.15999 z"
       id="path905" />
    <path
       d="m 92.033618,372.69286 q 0,0.94666 -1.079997,1.87999 -1.079997,0.93333 -2.613327,1.29333 -0.639998,0.14667 -1.239997,0.14667 -0.506665,0 -0.959997,-0.10667 l -0.106667,0.62667 h -0.159999 l -1.439997,-8.51998 h 3.039993 l -0.639999,3.77332 q 1.386663,-0.71999 2.78666,-0.71999 1.066664,0 1.733329,0.45333 0.679998,0.44 0.679998,1.17333 z m -2.453327,0.58666 q -0.01333,-0.6 -0.359999,-0.98666 -0.346666,-0.4 -0.919998,-0.4 -0.693331,0 -1.586662,0.58667 l -0.479999,2.87999 q 0.559998,0.17333 1.066664,0.17333 0.973331,0 1.639996,-0.64 0.666665,-0.64 0.639998,-1.61333 z"
       id="path907" />
    <path
       d="m 98.100269,375.59952 -5.106654,1.26666 -0.04,-0.08 2.159994,-1.69333 -2.759993,-3.31999 4.866655,-1.30666 0.02667,0.0667 -1.999995,1.65333 z"
       id="path909" />
  </g>
</svg>
