<svg id="Layer_1" data-name="Layer 1" xmlns="http://www.w3.org/2000/svg" width="210" height="380" viewBox="0 0 210 380">
  <title>Stairway</title>
  <rect y="-1" width="210" height="380" style="fill: #e6e6e6"/>
  <g>
    <path d="M79.63,9.17l-8.09,5.42,6,10.21L64.93,28.62l-.06-.19,8-5.38L66.82,12.87,79.57,9Z"/>
    <path d="M93.87,16.27l-11.32.55,1.53,8.44H79.3l1.51-8.36-4.54.21V15.35l4.77.23.54-3.05h.21l.55,3.11,11.53.55Z"/>
    <path d="M97.21,25.26H92.59l.4-1.77a9.36,9.36,0,0,1-2.5,1.35,6.83,6.83,0,0,1-2.25.42,3.08,3.08,0,0,1-1.88-.52,1.64,1.64,0,0,1-.7-1.41,4.09,4.09,0,0,1,1.42-2.79,8.66,8.66,0,0,1,3.41-2.13A7,7,0,0,1,92.76,18a3.69,3.69,0,0,1,1.4.25l0-.25h.67ZM92.86,21.5a3.19,3.19,0,0,0,.25-1.2c0-.94-.38-1.4-1.15-1.4a2.52,2.52,0,0,0-1.64.76A4.75,4.75,0,0,0,89,21.5a3.19,3.19,0,0,0-.25,1.2c0,.92.38,1.38,1.15,1.38a2.55,2.55,0,0,0,1.65-.75A4.76,4.76,0,0,0,92.86,21.5Z"/>
    <path d="M102.48,16.71l-2.27,8.63H100l-2.27-8.63Zm.17-3.07-1.8.55.47,1.87-1.1-1.58-1.6,1L99.75,14,98.3,12.76l1.79.61.71-1.74,0,1.89Z"/>
    <path d="M110,21.67l-3.47.21-1.05,4.26h-.29l-2-8.15h4.33l-.4,1.62L110,18Z"/>
    <path d="M122.85,17.66,120.9,25.4l-3.24.3-1-5.57-1.12,5.57-3.11-.3-2-7.74.21-.11,3.68,3.87,2.24-3.22H117l2,3.22,3.68-3.87Z"/>
    <path d="M133.81,25.26h-4.62l.4-1.77a9.21,9.21,0,0,1-2.5,1.35,6.83,6.83,0,0,1-2.25.42,3.08,3.08,0,0,1-1.88-.52,1.66,1.66,0,0,1-.7-1.41,4.09,4.09,0,0,1,1.42-2.79,8.66,8.66,0,0,1,3.41-2.13,7,7,0,0,1,2.27-.42,3.74,3.74,0,0,1,1.41.25l0-.25h.67Zm-4.35-3.76a3.21,3.21,0,0,0,.26-1.2c0-.94-.39-1.4-1.16-1.4a2.54,2.54,0,0,0-1.64.76,4.75,4.75,0,0,0-1.28,1.84,3.19,3.19,0,0,0-.25,1.2c0,.92.39,1.38,1.16,1.38a2.51,2.51,0,0,0,1.64-.75A4.76,4.76,0,0,0,129.46,21.5Z"/>
    <path d="M145.13,19.78,136.1,30l-.19-.12,2-4.79-5.08-5.59,4.29-2.12,1.21,6.7,2.8-6.8Z"/>
  </g>
  <g>
    <path d="M74.1,352.12l-5.4,3.61,4,6.8-8.42,2.55,0-.13,5.35-3.58-4-6.79L74.05,352Z"/>
    <path d="M81.54,365.76H78.37l.57-3.41a6,6,0,0,1-2.72.64,3.26,3.26,0,0,1-1.82-.46,1.43,1.43,0,0,1-.7-1.23,2.71,2.71,0,0,1,1.14-2A6.43,6.43,0,0,1,77.58,358a5.33,5.33,0,0,1,2.13-.08l.17-1.05H80Zm-1.93-7.33a3.94,3.94,0,0,0-.94-.11A2.45,2.45,0,0,0,77,359a2.16,2.16,0,0,0-.67,1.71,1.58,1.58,0,0,0,.38,1,1.2,1.2,0,0,0,1,.42,3,3,0,0,0,1.45-.48Z"/>
    <path d="M87.8,363H85.9l.22-1.72a3.79,3.79,0,0,1-3.19,1.86,3,3,0,0,1-1-.14l1.9-5.32.21,0a7.49,7.49,0,0,0-.09,1.17c0,1,.23,1.52.7,1.52a.85.85,0,0,0,.26,0,2.59,2.59,0,0,0,1.21-1.23,5.48,5.48,0,0,0,.63-1.7h.16Z"/>
    <path d="M91.44,357.14l-1.51,5.75h-.15l-1.52-5.75Zm.11-2-1.2.36.32,1.25-.73-1-1.07.67.75-1-1-.81,1.19.41.47-1.17,0,1.26Z"/>
    <path d="M97.87,357.56,96,362.88l-.21,0a6.26,6.26,0,0,0,.1-1.16c0-1-.23-1.53-.7-1.53a.65.65,0,0,0-.26.06,2.54,2.54,0,0,0-1.21,1.23,5.29,5.29,0,0,0-.64,1.69h-.16L92,357.56h1.89l-.21,1.72a3.78,3.78,0,0,1,3.19-1.86A3.52,3.52,0,0,1,97.87,357.56Z"/>
    <path d="M104.85,358l-2.91,2.07,1.85,3.29-.13.18-3.24-2.25-.41,2.43h-.17l-1.51-9h3.19l-1,5.66,1.69-2.43Z"/>
    <path d="M112.29,359.18l-6,6.79-.13-.08,1.3-3.19L104.06,359l2.85-1.41.81,4.47,1.86-4.54Z"/>
    <path d="M123.89,362.43h-3.61l.13.8-3.12.46.19-1.26h-2.14l0-.17,2.3-.68,1.19-8h.1l1.13,7.27,3.86-1.16Z"/>
    <path d="M132,362.84H128.9l.27-1.18a6.29,6.29,0,0,1-1.67.9,4.43,4.43,0,0,1-1.49.28,2.16,2.16,0,0,1-1.26-.34,1.13,1.13,0,0,1-.47-.95,2.71,2.71,0,0,1,1-1.85,5.89,5.89,0,0,1,2.27-1.43A4.88,4.88,0,0,1,129,358a2.38,2.38,0,0,1,.93.16l0-.16h.45Zm-2.89-2.51a2.14,2.14,0,0,0,.16-.79c0-.63-.25-.94-.77-.94a1.72,1.72,0,0,0-1.09.51,3.24,3.24,0,0,0-.85,1.22,2.21,2.21,0,0,0-.17.8c0,.62.26.92.77.92a1.66,1.66,0,0,0,1.1-.5A3.17,3.17,0,0,0,129.09,360.33Z"/>
    <path d="M139.21,359.49a2.73,2.73,0,0,1-1.13,2,6.53,6.53,0,0,1-2.75,1.36,6,6,0,0,1-1.3.15,4.67,4.67,0,0,1-1-.11l-.11.65h-.17l-1.51-8.94h3.19l-.67,4a6.31,6.31,0,0,1,2.92-.75,3.27,3.27,0,0,1,1.83.46A1.45,1.45,0,0,1,139.21,359.49Zm-2.58.62a1.53,1.53,0,0,0-.38-1,1.2,1.2,0,0,0-1-.42,3.17,3.17,0,0,0-1.67.62l-.5,3a3.79,3.79,0,0,0,1.12.18,2.38,2.38,0,0,0,1.72-.67A2.14,2.14,0,0,0,136.63,360.11Z"/>
    <path d="M145.58,362.54l-5.36,1.34-.05-.09,2.27-1.78-2.9-3.48,5.11-1.37,0,.06-2.1,1.74Z"/>
  </g>
  <line x1="29.5" y1="164" x2="29.5" y2="182" style="fill: none;stroke: #b3b3b3;stroke-linecap: round;stroke-miterlimit: 10;stroke-width: 4px"/>
  <rect x="125" y="302.75" width="76" height="47" rx="3"/>
</svg>
