<svg xmlns="http://www.w3.org/2000/svg" xmlns:xlink="http://www.w3.org/1999/xlink" width="210" height="380" viewBox="0 0 210 380">
  <defs>
    <clipPath id="clip-kitchen-sink-panel">
      <rect width="210" height="380"/>
    </clipPath>
  </defs>
  <g id="kitchen-sink-panel" clip-path="url(#clip-kitchen-sink-panel)">
    <rect width="210" height="380" fill="#e6e6e6"/>
    <path id="Path_1" data-name="Path 1" d="M8.812-4.655A6.157,6.157,0,0,1,8.319-2.1,3.728,3.728,0,0,1,6.925-.437,3.837,3.837,0,0,1,4.819.137,3.8,3.8,0,0,1,2.734-.441,3.817,3.817,0,0,1,1.323-2.088,5.908,5.908,0,0,1,.807-4.566v-.718a6.084,6.084,0,0,1,.5-2.536A3.8,3.8,0,0,1,2.717-9.505a3.788,3.788,0,0,1,2.088-.584,3.858,3.858,0,0,1,2.109.578,3.721,3.721,0,0,1,1.4,1.675,6.187,6.187,0,0,1,.492,2.553ZM7.506-5.3a4.463,4.463,0,0,0-.711-2.717,2.345,2.345,0,0,0-1.989-.947,2.32,2.32,0,0,0-1.958.947,4.371,4.371,0,0,0-.735,2.628v.731a4.469,4.469,0,0,0,.721,2.7,2.329,2.329,0,0,0,1.986.981A2.32,2.32,0,0,0,6.788-1.9,4.444,4.444,0,0,0,7.506-4.56ZM13.549-.9a1.822,1.822,0,0,0,1.183-.41,1.443,1.443,0,0,0,.561-1.025h1.2a2.293,2.293,0,0,1-.437,1.21,2.881,2.881,0,0,1-1.077.916,3.107,3.107,0,0,1-1.425.342,3.047,3.047,0,0,1-2.4-1.008,4.016,4.016,0,0,1-.892-2.758v-.212a4.453,4.453,0,0,1,.4-1.921,3.02,3.02,0,0,1,1.138-1.306,3.233,3.233,0,0,1,1.753-.465,2.966,2.966,0,0,1,2.068.745,2.663,2.663,0,0,1,.878,1.935h-1.2a1.743,1.743,0,0,0-.543-1.179,1.691,1.691,0,0,0-1.207-.461,1.77,1.77,0,0,0-1.494.694,3.259,3.259,0,0,0-.53,2.006v.239a3.194,3.194,0,0,0,.526,1.969A1.779,1.779,0,0,0,13.549-.9Zm6.077-8.292V-7.4h1.381v.978H19.626v4.593a1.027,1.027,0,0,0,.185.667.777.777,0,0,0,.629.222,3.062,3.062,0,0,0,.6-.082V0a3.688,3.688,0,0,1-.971.136,1.575,1.575,0,0,1-1.278-.513,2.2,2.2,0,0,1-.431-1.456V-6.419H17.015V-7.4h1.347V-9.187ZM27.05,0a2.657,2.657,0,0,1-.178-.779,2.822,2.822,0,0,1-2.105.916,2.611,2.611,0,0,1-1.794-.619,2,2,0,0,1-.7-1.569,2.091,2.091,0,0,1,.878-1.794,4.142,4.142,0,0,1,2.471-.639h1.23v-.581a1.42,1.42,0,0,0-.4-1.056,1.593,1.593,0,0,0-1.169-.393,1.844,1.844,0,0,0-1.135.342,1.007,1.007,0,0,0-.458.827H22.422a1.745,1.745,0,0,1,.393-1.07,2.683,2.683,0,0,1,1.066-.817,3.588,3.588,0,0,1,1.48-.3,2.924,2.924,0,0,1,2,.639,2.306,2.306,0,0,1,.752,1.76v3.4a4.162,4.162,0,0,0,.26,1.62V0Zm-2.1-.964a2.223,2.223,0,0,0,1.128-.308,1.861,1.861,0,0,0,.772-.8V-3.589H25.86q-2.324,0-2.324,1.36a1.151,1.151,0,0,0,.4.93A1.524,1.524,0,0,0,24.951-.964Zm7.485-.752L34.269-7.4h1.292L32.908,0h-.964l-2.68-7.4h1.292ZM39.758.137a3.232,3.232,0,0,1-2.447-.988,3.666,3.666,0,0,1-.943-2.642v-.232a4.438,4.438,0,0,1,.42-1.965,3.28,3.28,0,0,1,1.176-1.354A2.956,2.956,0,0,1,39.6-7.533a2.77,2.77,0,0,1,2.242.95,4.114,4.114,0,0,1,.8,2.721v.526H37.632a2.629,2.629,0,0,0,.639,1.767A2.009,2.009,0,0,0,39.826-.9a2.2,2.2,0,0,0,1.135-.273,2.851,2.851,0,0,0,.813-.725l.772.6A3.106,3.106,0,0,1,39.758.137ZM39.6-6.494a1.687,1.687,0,0,0-1.285.557,2.708,2.708,0,0,0-.643,1.562h3.705v-.1a2.409,2.409,0,0,0-.52-1.494A1.588,1.588,0,0,0,39.6-6.494Z" transform="translate(5 50)"/>
    <path id="Path_2" data-name="Path 2" d="M4.806-4.026H2.468V0H1.148V-9.953H4.443a3.9,3.9,0,0,1,2.587.766,2.755,2.755,0,0,1,.906,2.229,2.68,2.68,0,0,1-.5,1.62,3,3,0,0,1-1.4,1.032L8.374-.082V0H6.966ZM2.468-5.1H4.484A2.275,2.275,0,0,0,6.04-5.606a1.714,1.714,0,0,0,.578-1.356,1.8,1.8,0,0,0-.55-1.418,2.33,2.33,0,0,0-1.589-.5H2.468ZM14.144,0a2.657,2.657,0,0,1-.178-.779A2.822,2.822,0,0,1,11.86.137a2.611,2.611,0,0,1-1.794-.619,2,2,0,0,1-.7-1.569,2.091,2.091,0,0,1,.878-1.794,4.142,4.142,0,0,1,2.471-.639h1.23v-.581a1.42,1.42,0,0,0-.4-1.056,1.593,1.593,0,0,0-1.169-.393,1.844,1.844,0,0,0-1.135.342,1.007,1.007,0,0,0-.458.827H9.516a1.745,1.745,0,0,1,.393-1.07,2.683,2.683,0,0,1,1.066-.817,3.588,3.588,0,0,1,1.48-.3,2.924,2.924,0,0,1,2,.639,2.306,2.306,0,0,1,.752,1.76v3.4a4.162,4.162,0,0,0,.26,1.62V0Zm-2.1-.964a2.223,2.223,0,0,0,1.128-.308,1.861,1.861,0,0,0,.772-.8V-3.589h-.991q-2.324,0-2.324,1.36a1.151,1.151,0,0,0,.4.93A1.524,1.524,0,0,0,12.045-.964Zm6.863-8.224V-7.4h1.381v.978H18.908v4.593a1.027,1.027,0,0,0,.185.667.777.777,0,0,0,.629.222,3.062,3.062,0,0,0,.6-.082V0a3.688,3.688,0,0,1-.971.136,1.575,1.575,0,0,1-1.278-.513,2.2,2.2,0,0,1-.431-1.456V-6.419H16.3V-7.4h1.347V-9.187ZM23.14,0H21.875V-7.4H23.14ZM21.772-9.358a.755.755,0,0,1,.188-.52.706.706,0,0,1,.557-.212.717.717,0,0,1,.561.212.747.747,0,0,1,.191.52.722.722,0,0,1-.191.513.73.73,0,0,1-.561.205.718.718,0,0,1-.557-.205A.73.73,0,0,1,21.772-9.358Zm3.056,5.592a4.369,4.369,0,0,1,.427-1.955,3.187,3.187,0,0,1,1.189-1.34,3.238,3.238,0,0,1,1.74-.472,3.119,3.119,0,0,1,2.444,1.046,4.024,4.024,0,0,1,.933,2.782v.089a4.407,4.407,0,0,1-.414,1.938A3.14,3.14,0,0,1,29.965-.342,3.275,3.275,0,0,1,28.2.137,3.111,3.111,0,0,1,25.761-.909a4,4,0,0,1-.933-2.769Zm1.271.15a3.164,3.164,0,0,0,.571,1.976A1.827,1.827,0,0,0,28.2-.9a1.816,1.816,0,0,0,1.531-.755A3.46,3.46,0,0,0,30.3-3.767a3.159,3.159,0,0,0-.578-1.972,1.836,1.836,0,0,0-1.535-.755,1.816,1.816,0,0,0-1.511.745A3.434,3.434,0,0,0,26.1-3.616Z" transform="translate(63 50)"/>
    <path id="Path_5" data-name="Path 5" d="M4.088-4.437A6.172,6.172,0,0,1,1.63-5.629,2.279,2.279,0,0,1,.861-7.376,2.408,2.408,0,0,1,1.8-9.321a3.736,3.736,0,0,1,2.444-.769,4.078,4.078,0,0,1,1.829.4A3.007,3.007,0,0,1,7.318-8.6a2.8,2.8,0,0,1,.441,1.524H6.439A1.82,1.82,0,0,0,5.865-8.5a2.335,2.335,0,0,0-1.62-.518,2.391,2.391,0,0,0-1.514.428A1.428,1.428,0,0,0,2.188-7.4,1.285,1.285,0,0,0,2.7-6.37,5.062,5.062,0,0,0,4.46-5.6,8.152,8.152,0,0,1,6.4-4.83a2.946,2.946,0,0,1,1.039.981,2.5,2.5,0,0,1,.338,1.319A2.326,2.326,0,0,1,6.836-.591,4.022,4.022,0,0,1,4.313.137,4.678,4.678,0,0,1,2.4-.256,3.221,3.221,0,0,1,1.029-1.333,2.627,2.627,0,0,1,.547-2.885H1.866a1.714,1.714,0,0,0,.667,1.425,2.806,2.806,0,0,0,1.781.523A2.58,2.58,0,0,0,5.906-1.36,1.377,1.377,0,0,0,6.46-2.516a1.351,1.351,0,0,0-.513-1.131A5.911,5.911,0,0,0,4.088-4.437ZM10.527-6.5a2.689,2.689,0,0,1,2.188-1.032q2.345,0,2.365,2.646V0H13.815V-4.895a1.7,1.7,0,0,0-.366-1.183,1.466,1.466,0,0,0-1.118-.383,1.825,1.825,0,0,0-1.08.328,2.228,2.228,0,0,0-.725.861V0H9.263V-10.5h1.265ZM21.54,0a2.657,2.657,0,0,1-.178-.779,2.822,2.822,0,0,1-2.105.916,2.611,2.611,0,0,1-1.794-.619,2,2,0,0,1-.7-1.569,2.091,2.091,0,0,1,.878-1.794,4.142,4.142,0,0,1,2.471-.639h1.23v-.581a1.42,1.42,0,0,0-.4-1.056,1.593,1.593,0,0,0-1.169-.393,1.844,1.844,0,0,0-1.135.342,1.007,1.007,0,0,0-.458.827H16.912a1.745,1.745,0,0,1,.393-1.07,2.683,2.683,0,0,1,1.066-.817,3.588,3.588,0,0,1,1.48-.3,2.924,2.924,0,0,1,2,.639,2.306,2.306,0,0,1,.752,1.76v3.4a4.162,4.162,0,0,0,.26,1.62V0Zm-2.1-.964a2.223,2.223,0,0,0,1.128-.308,1.861,1.861,0,0,0,.772-.8V-3.589h-.991q-2.324,0-2.324,1.36a1.151,1.151,0,0,0,.4.93A1.524,1.524,0,0,0,19.441-.964Zm11.4-2.652A4.429,4.429,0,0,1,30.064-.9,2.476,2.476,0,0,1,27.973.137a2.713,2.713,0,0,1-2.119-.854V2.844H24.589V-7.4h1.155l.062.82a2.605,2.605,0,0,1,2.146-.957,2.522,2.522,0,0,1,2.109,1,4.477,4.477,0,0,1,.776,2.8ZM29.572-3.76a3.268,3.268,0,0,0-.533-1.976,1.718,1.718,0,0,0-1.463-.725,1.859,1.859,0,0,0-1.723,1.019v3.534A1.863,1.863,0,0,0,27.59-.9a1.71,1.71,0,0,0,1.446-.721A3.567,3.567,0,0,0,29.572-3.76Zm5.94,3.9a3.232,3.232,0,0,1-2.447-.988,3.666,3.666,0,0,1-.943-2.642v-.232a4.438,4.438,0,0,1,.42-1.965,3.28,3.28,0,0,1,1.176-1.354,2.956,2.956,0,0,1,1.637-.489,2.77,2.77,0,0,1,2.242.95,4.114,4.114,0,0,1,.8,2.721v.526H33.387a2.629,2.629,0,0,0,.639,1.767A2.009,2.009,0,0,0,35.581-.9a2.2,2.2,0,0,0,1.135-.273,2.851,2.851,0,0,0,.813-.725l.772.6A3.106,3.106,0,0,1,35.513.137Zm-.157-6.631a1.687,1.687,0,0,0-1.285.557,2.708,2.708,0,0,0-.643,1.562h3.705v-.1a2.409,2.409,0,0,0-.52-1.494A1.588,1.588,0,0,0,35.355-6.494Z" transform="translate(164 114)"/>
    <path id="Path_6" data-name="Path 6" d="M14.234,1.562l-.088.088L3.608-4.092,2.794,1.3H2.618L0-14.828H5.412L4.378-8.514l9.416-6.292.088.132-6.4,8.14Zm5.434-13.728-1.892.572.484,1.936-1.144-1.628L15.444-10.23l1.188-1.584L15.114-13.09l1.87.638.748-1.826-.044,1.98Zm-.176,3.212L17.116.088h-.242L14.5-8.954Zm16.17-.462L23.8-8.844,25.41,0H20.394l1.584-8.756-4.752.22v-1.848l4.994.242.572-3.19h.22l.572,3.256L35.662-9.5ZM38.676-5.06h-3.5a2.782,2.782,0,0,0-.528-1.254,1.222,1.222,0,0,0-1.166-.528A2.1,2.1,0,0,0,31.966-5.61a4.824,4.824,0,0,0-.528,2.266,3.426,3.426,0,0,0,.352,1.628,1.383,1.383,0,0,0,1.276.836,6.37,6.37,0,0,0,2.31-.616,14.758,14.758,0,0,0,1.936-.99l.506.594A7.325,7.325,0,0,1,35.42-.66a12.965,12.965,0,0,1-3.41.7,6.212,6.212,0,0,1-3.168-.506,2.523,2.523,0,0,1-1.474-2.332Q27.28-4.95,29.986-6.38a9.814,9.814,0,0,1,4.708-1.232A5.194,5.194,0,0,1,37.378-7,2.477,2.477,0,0,1,38.676-5.06ZM49.94-8.294,46.948.066,46.618,0a10.577,10.577,0,0,0,.154-1.826q0-2.4-1.1-2.4a1.126,1.126,0,0,0-.418.088A4,4,0,0,0,43.362-2.2,8.221,8.221,0,0,0,42.35.462h-.242L39.732-13.574h5.016L43.384-5.588A5.954,5.954,0,0,1,48.4-8.514,5.283,5.283,0,0,1,49.94-8.294ZM61.688-5.676a2.265,2.265,0,0,1-1.034,2.112,8.239,8.239,0,0,1-3.96,1.584,13.9,13.9,0,0,1-1.606.154,1.989,1.989,0,0,0,1.694.726,7.654,7.654,0,0,0,3.894-1.386l.484.594A7.029,7.029,0,0,1,58.784-.66a13.243,13.243,0,0,1-3.432.7,6.153,6.153,0,0,1-3.146-.506,2.567,2.567,0,0,1-1.5-2.332,3.544,3.544,0,0,1,1.672-2.97,8.754,8.754,0,0,1,3.806-1.65,10.325,10.325,0,0,1,1.936-.2,4.916,4.916,0,0,1,2.486.55A1.976,1.976,0,0,1,61.688-5.676Zm-4.422-1.21a2.735,2.735,0,0,0-1.562.55A3.155,3.155,0,0,0,54.12-3.784,1.011,1.011,0,0,0,55.264-2.64a2.764,2.764,0,0,0,1.584-.572,3.962,3.962,0,0,0,1.144-1.2,2.573,2.573,0,0,0,.44-1.331A1.021,1.021,0,0,0,57.266-6.886ZM71.632-8.294,68.64.066,68.31,0a10.577,10.577,0,0,0,.154-1.826q0-2.4-1.1-2.4a1.126,1.126,0,0,0-.418.088A4,4,0,0,0,65.054-2.2,8.221,8.221,0,0,0,64.042.462H63.8L62.436-8.294h2.97l-.33,2.706a5.954,5.954,0,0,1,5.016-2.926A5.283,5.283,0,0,1,71.632-8.294Zm19.514-8.558-8.47,5.676L88.99-.484l-13.244,4-.066-.2,8.4-5.632L77.726-12.98,91.08-17.006Zm4.62,4.686-1.892.572.484,1.936-1.144-1.628L91.542-10.23l1.188-1.584L91.212-13.09l1.87.638.748-1.826-.044,1.98ZM95.59-8.954,93.214.088h-.242L90.6-8.954Zm10.1.66L102.7.066,102.366,0a10.577,10.577,0,0,0,.154-1.826q0-2.4-1.1-2.4a1.126,1.126,0,0,0-.418.088A4,4,0,0,0,99.11-2.2,8.221,8.221,0,0,0,98.1.462h-.242L96.492-8.294h2.97l-.33,2.706a5.954,5.954,0,0,1,5.016-2.926A5.283,5.283,0,0,1,105.688-8.294Zm10.978.682L112.09-4.356l2.9,5.17-.2.286-5.1-3.542-.638,3.828h-.264l-2.376-14.058h5.016l-1.518,8.888,2.662-3.828Z" transform="translate(47 22)"/>
    <path id="Path_7" data-name="Path 7" d="M10.656-12.256,4.5-8.128,9.088-.352-.544,2.56l-.048-.144L5.52-1.68.9-9.44l9.712-2.928Zm8.512,15.6H15.536l.656-3.9a6.851,6.851,0,0,1-3.1.736,3.713,3.713,0,0,1-2.08-.528,1.616,1.616,0,0,1-.8-1.408,3.1,3.1,0,0,1,1.3-2.272A7.238,7.238,0,0,1,14.64-5.584a5.905,5.905,0,0,1,2.432-.1l.192-1.2h.176ZM16.96-5.04a4.811,4.811,0,0,0-1.072-.128,2.8,2.8,0,0,0-1.968.736,2.447,2.447,0,0,0-.768,1.952,1.8,1.8,0,0,0,.432,1.192,1.4,1.4,0,0,0,1.1.472,3.356,3.356,0,0,0,1.648-.544ZM26.32.176H24.144L24.4-1.792A4.33,4.33,0,0,1,20.752.336a3.641,3.641,0,0,1-1.12-.16L21.808-5.9l.24.048a7.693,7.693,0,0,0-.112,1.328q0,1.744.8,1.744a.819.819,0,0,0,.3-.064,2.905,2.905,0,0,0,1.376-1.408,5.855,5.855,0,0,0,.72-1.936h.192Zm4.288-9.024-1.376.416.352,1.408-.832-1.184-1.216.768L28.4-8.592,27.3-9.52l1.36.464.544-1.328-.032,1.44ZM30.48-6.512,28.752.064h-.176L26.848-6.512Zm7.344.48L35.648.048,35.408,0a7.693,7.693,0,0,0,.112-1.328q0-1.744-.8-1.744a.819.819,0,0,0-.3.064A2.905,2.905,0,0,0,33.04-1.6,5.979,5.979,0,0,0,32.3.336h-.176l-.992-6.368H33.3l-.24,1.968A4.33,4.33,0,0,1,36.7-6.192,3.842,3.842,0,0,1,37.824-6.032Zm7.984.5L42.48-3.168,44.592.592,44.448.8,40.736-1.776l-.464,2.784H40.08L38.352-9.216H42L40.9-2.752l1.936-2.784Zm9.6,1.36-6.88,7.76-.144-.1L49.872-.16,46-4.416l3.264-1.616.928,5.1L52.32-6.112ZM68.672-.464H64.544l.144.912L61.12.976l.224-1.44H58.9l-.032-.192,2.624-.784,1.36-9.136h.112l1.3,8.3L68.672-3.6ZM77.92,0H74.4l.3-1.344A7.019,7.019,0,0,1,72.8-.32,5.184,5.184,0,0,1,71.088,0a2.374,2.374,0,0,1-1.432-.392,1.265,1.265,0,0,1-.536-1.08,3.123,3.123,0,0,1,1.08-2.12,6.661,6.661,0,0,1,2.6-1.624,5.322,5.322,0,0,1,1.728-.32,2.712,2.712,0,0,1,1.072.192l.032-.192h.512ZM74.608-2.864a2.457,2.457,0,0,0,.192-.912q0-1.072-.88-1.072a1.933,1.933,0,0,0-1.248.584,3.618,3.618,0,0,0-.976,1.4,2.457,2.457,0,0,0-.192.912q0,1.056.88,1.056a1.929,1.929,0,0,0,1.256-.576A3.588,3.588,0,0,0,74.608-2.864Zm12.816-.96a3.092,3.092,0,0,1-1.3,2.256A7.238,7.238,0,0,1,82.992-.016,6.654,6.654,0,0,1,81.5.16,5.017,5.017,0,0,1,80.352.032l-.128.752h-.192L78.3-9.44h3.648l-.768,4.528a7.2,7.2,0,0,1,3.344-.864,3.71,3.71,0,0,1,2.088.536A1.631,1.631,0,0,1,87.424-3.824Zm-2.944.7a1.8,1.8,0,0,0-.432-1.192,1.4,1.4,0,0,0-1.1-.472,3.6,3.6,0,0,0-1.9.7L80.464-.624a4.33,4.33,0,0,0,1.28.208,2.733,2.733,0,0,0,1.968-.768A2.47,2.47,0,0,0,84.48-3.12ZM94.7-.336l-6.128,1.52-.048-.1L91.12-.944,87.808-4.928,93.648-6.5l.032.08-2.4,1.984Z" transform="translate(58 370)"/>
    <path id="Path_8" data-name="Path 8" d="M4.088-4.437A6.172,6.172,0,0,1,1.63-5.629,2.279,2.279,0,0,1,.861-7.376,2.408,2.408,0,0,1,1.8-9.321a3.736,3.736,0,0,1,2.444-.769,4.078,4.078,0,0,1,1.829.4A3.007,3.007,0,0,1,7.318-8.6a2.8,2.8,0,0,1,.441,1.524H6.439A1.82,1.82,0,0,0,5.865-8.5a2.335,2.335,0,0,0-1.62-.518,2.391,2.391,0,0,0-1.514.428A1.428,1.428,0,0,0,2.188-7.4,1.285,1.285,0,0,0,2.7-6.37,5.062,5.062,0,0,0,4.46-5.6,8.152,8.152,0,0,1,6.4-4.83a2.946,2.946,0,0,1,1.039.981,2.5,2.5,0,0,1,.338,1.319A2.326,2.326,0,0,1,6.836-.591,4.022,4.022,0,0,1,4.313.137,4.678,4.678,0,0,1,2.4-.256,3.221,3.221,0,0,1,1.029-1.333,2.627,2.627,0,0,1,.547-2.885H1.866a1.714,1.714,0,0,0,.667,1.425,2.806,2.806,0,0,0,1.781.523A2.58,2.58,0,0,0,5.906-1.36,1.377,1.377,0,0,0,6.46-2.516a1.351,1.351,0,0,0-.513-1.131A5.911,5.911,0,0,0,4.088-4.437ZM10.527-6.5a2.689,2.689,0,0,1,2.188-1.032q2.345,0,2.365,2.646V0H13.815V-4.895a1.7,1.7,0,0,0-.366-1.183,1.466,1.466,0,0,0-1.118-.383,1.825,1.825,0,0,0-1.08.328,2.228,2.228,0,0,0-.725.861V0H9.263V-10.5h1.265ZM21.54,0a2.657,2.657,0,0,1-.178-.779,2.822,2.822,0,0,1-2.105.916,2.611,2.611,0,0,1-1.794-.619,2,2,0,0,1-.7-1.569,2.091,2.091,0,0,1,.878-1.794,4.142,4.142,0,0,1,2.471-.639h1.23v-.581a1.42,1.42,0,0,0-.4-1.056,1.593,1.593,0,0,0-1.169-.393,1.844,1.844,0,0,0-1.135.342,1.007,1.007,0,0,0-.458.827H16.912a1.745,1.745,0,0,1,.393-1.07,2.683,2.683,0,0,1,1.066-.817,3.588,3.588,0,0,1,1.48-.3,2.924,2.924,0,0,1,2,.639,2.306,2.306,0,0,1,.752,1.76v3.4a4.162,4.162,0,0,0,.26,1.62V0Zm-2.1-.964a2.223,2.223,0,0,0,1.128-.308,1.861,1.861,0,0,0,.772-.8V-3.589h-.991q-2.324,0-2.324,1.36a1.151,1.151,0,0,0,.4.93A1.524,1.524,0,0,0,19.441-.964Zm11.4-2.652A4.429,4.429,0,0,1,30.064-.9,2.476,2.476,0,0,1,27.973.137a2.713,2.713,0,0,1-2.119-.854V2.844H24.589V-7.4h1.155l.062.82a2.605,2.605,0,0,1,2.146-.957,2.522,2.522,0,0,1,2.109,1,4.477,4.477,0,0,1,.776,2.8ZM29.572-3.76a3.268,3.268,0,0,0-.533-1.976,1.718,1.718,0,0,0-1.463-.725,1.859,1.859,0,0,0-1.723,1.019v3.534A1.863,1.863,0,0,0,27.59-.9a1.71,1.71,0,0,0,1.446-.721A3.567,3.567,0,0,0,29.572-3.76Zm5.94,3.9a3.232,3.232,0,0,1-2.447-.988,3.666,3.666,0,0,1-.943-2.642v-.232a4.438,4.438,0,0,1,.42-1.965,3.28,3.28,0,0,1,1.176-1.354,2.956,2.956,0,0,1,1.637-.489,2.77,2.77,0,0,1,2.242.95,4.114,4.114,0,0,1,.8,2.721v.526H33.387a2.629,2.629,0,0,0,.639,1.767A2.009,2.009,0,0,0,35.581-.9a2.2,2.2,0,0,0,1.135-.273,2.851,2.851,0,0,0,.813-.725l.772.6A3.106,3.106,0,0,1,35.513.137Zm-.157-6.631a1.687,1.687,0,0,0-1.285.557,2.708,2.708,0,0,0-.643,1.562h3.705v-.1a2.409,2.409,0,0,0-.52-1.494A1.588,1.588,0,0,0,35.355-6.494Z" transform="translate(168 270)"/>
    <path id="Path_11" data-name="Path 11" d="M4.088-4.437A6.172,6.172,0,0,1,1.63-5.629,2.279,2.279,0,0,1,.861-7.376,2.408,2.408,0,0,1,1.8-9.321a3.736,3.736,0,0,1,2.444-.769,4.078,4.078,0,0,1,1.829.4A3.007,3.007,0,0,1,7.318-8.6a2.8,2.8,0,0,1,.441,1.524H6.439A1.82,1.82,0,0,0,5.865-8.5a2.335,2.335,0,0,0-1.62-.518,2.391,2.391,0,0,0-1.514.428A1.428,1.428,0,0,0,2.188-7.4,1.285,1.285,0,0,0,2.7-6.37,5.062,5.062,0,0,0,4.46-5.6,8.152,8.152,0,0,1,6.4-4.83a2.946,2.946,0,0,1,1.039.981,2.5,2.5,0,0,1,.338,1.319A2.326,2.326,0,0,1,6.836-.591,4.022,4.022,0,0,1,4.313.137,4.678,4.678,0,0,1,2.4-.256,3.221,3.221,0,0,1,1.029-1.333,2.627,2.627,0,0,1,.547-2.885H1.866a1.714,1.714,0,0,0,.667,1.425,2.806,2.806,0,0,0,1.781.523A2.58,2.58,0,0,0,5.906-1.36,1.377,1.377,0,0,0,6.46-2.516a1.351,1.351,0,0,0-.513-1.131A5.911,5.911,0,0,0,4.088-4.437Zm7.595,2.584L13.405-7.4h1.354L11.785,1.142q-.69,1.846-2.194,1.846l-.239-.021L8.88,2.878V1.853l.342.027a1.683,1.683,0,0,0,1-.26,1.88,1.88,0,0,0,.591-.95l.28-.752L8.456-7.4H9.837Zm5.4-5.544.041.93a2.7,2.7,0,0,1,2.215-1.066q2.345,0,2.365,2.646V0H20.439V-4.895a1.7,1.7,0,0,0-.366-1.183,1.466,1.466,0,0,0-1.118-.383,1.825,1.825,0,0,0-1.08.328,2.228,2.228,0,0,0-.725.861V0H15.887V-7.4Zm9.5,6.5a1.822,1.822,0,0,0,1.183-.41,1.443,1.443,0,0,0,.561-1.025h1.2a2.293,2.293,0,0,1-.437,1.21A2.881,2.881,0,0,1,28-.205a3.107,3.107,0,0,1-1.425.342,3.047,3.047,0,0,1-2.4-1.008,4.016,4.016,0,0,1-.892-2.758v-.212a4.453,4.453,0,0,1,.4-1.921,3.02,3.02,0,0,1,1.138-1.306,3.233,3.233,0,0,1,1.753-.465,2.966,2.966,0,0,1,2.068.745,2.663,2.663,0,0,1,.878,1.935h-1.2a1.743,1.743,0,0,0-.543-1.179,1.691,1.691,0,0,0-1.207-.461,1.77,1.77,0,0,0-1.494.694,3.259,3.259,0,0,0-.53,2.006v.239a3.194,3.194,0,0,0,.526,1.969A1.779,1.779,0,0,0,26.578-.9Z" transform="translate(132 321)"/>
    <path id="Path_12" data-name="Path 12" d="M6.651-2.6H2.481L1.545,0H.191l3.8-9.953H5.141L8.948,0H7.6ZM2.878-3.678H6.262l-1.7-4.655Z" transform="translate(49 202)"/>
    <path id="Path_13" data-name="Path 13" d="M4.088-4.437A6.172,6.172,0,0,1,1.63-5.629,2.279,2.279,0,0,1,.861-7.376,2.408,2.408,0,0,1,1.8-9.321a3.736,3.736,0,0,1,2.444-.769,4.078,4.078,0,0,1,1.829.4A3.007,3.007,0,0,1,7.318-8.6a2.8,2.8,0,0,1,.441,1.524H6.439A1.82,1.82,0,0,0,5.865-8.5a2.335,2.335,0,0,0-1.62-.518,2.391,2.391,0,0,0-1.514.428A1.428,1.428,0,0,0,2.188-7.4,1.285,1.285,0,0,0,2.7-6.37,5.062,5.062,0,0,0,4.46-5.6,8.152,8.152,0,0,1,6.4-4.83a2.946,2.946,0,0,1,1.039.981,2.5,2.5,0,0,1,.338,1.319A2.326,2.326,0,0,1,6.836-.591,4.022,4.022,0,0,1,4.313.137,4.678,4.678,0,0,1,2.4-.256,3.221,3.221,0,0,1,1.029-1.333,2.627,2.627,0,0,1,.547-2.885H1.866a1.714,1.714,0,0,0,.667,1.425,2.806,2.806,0,0,0,1.781.523A2.58,2.58,0,0,0,5.906-1.36,1.377,1.377,0,0,0,6.46-2.516a1.351,1.351,0,0,0-.513-1.131A5.911,5.911,0,0,0,4.088-4.437Z" transform="translate(136 202)"/>
    <path id="Path_14" data-name="Path 14" d="M1.155,0V-9.953h2.81a4.523,4.523,0,0,1,2.3.574A3.884,3.884,0,0,1,7.8-7.745a5.318,5.318,0,0,1,.55,2.434v.636A5.336,5.336,0,0,1,7.81-2.208,3.823,3.823,0,0,1,6.258-.581,4.811,4.811,0,0,1,3.91,0ZM2.468-8.88v7.807H3.849A3,3,0,0,0,6.21-2.017a3.9,3.9,0,0,0,.844-2.689v-.582a3.963,3.963,0,0,0-.8-2.637A2.834,2.834,0,0,0,4-8.88Z" transform="translate(92 202)"/>
    <path id="Path_15" data-name="Path 15" d="M4.806-4.026H2.468V0H1.148V-9.953H4.443a3.9,3.9,0,0,1,2.587.766,2.755,2.755,0,0,1,.906,2.229,2.68,2.68,0,0,1-.5,1.62,3,3,0,0,1-1.4,1.032L8.374-.082V0H6.966ZM2.468-5.1H4.484A2.275,2.275,0,0,0,6.04-5.606a1.714,1.714,0,0,0,.578-1.356,1.8,1.8,0,0,0-.55-1.418,2.33,2.33,0,0,0-1.589-.5H2.468Z" transform="translate(180 202)"/>
    <path id="Path_16" data-name="Path 16" d="M4.088-4.437A6.172,6.172,0,0,1,1.63-5.629,2.279,2.279,0,0,1,.861-7.376,2.408,2.408,0,0,1,1.8-9.321a3.736,3.736,0,0,1,2.444-.769,4.078,4.078,0,0,1,1.829.4A3.007,3.007,0,0,1,7.318-8.6a2.8,2.8,0,0,1,.441,1.524H6.439A1.82,1.82,0,0,0,5.865-8.5a2.335,2.335,0,0,0-1.62-.518,2.391,2.391,0,0,0-1.514.428A1.428,1.428,0,0,0,2.188-7.4,1.285,1.285,0,0,0,2.7-6.37,5.062,5.062,0,0,0,4.46-5.6,8.152,8.152,0,0,1,6.4-4.83a2.946,2.946,0,0,1,1.039.981,2.5,2.5,0,0,1,.338,1.319A2.326,2.326,0,0,1,6.836-.591,4.022,4.022,0,0,1,4.313.137,4.678,4.678,0,0,1,2.4-.256,3.221,3.221,0,0,1,1.029-1.333,2.627,2.627,0,0,1,.547-2.885H1.866a1.714,1.714,0,0,0,.667,1.425,2.806,2.806,0,0,0,1.781.523A2.58,2.58,0,0,0,5.906-1.36,1.377,1.377,0,0,0,6.46-2.516a1.351,1.351,0,0,0-.513-1.131A5.911,5.911,0,0,0,4.088-4.437ZM10.459-7.4l.041.93a2.7,2.7,0,0,1,2.215-1.066q2.345,0,2.365,2.646V0H13.815V-4.895a1.7,1.7,0,0,0-.366-1.183,1.466,1.466,0,0,0-1.118-.383,1.825,1.825,0,0,0-1.08.328,2.228,2.228,0,0,0-.725.861V0H9.263V-7.4ZM21.554,0a2.657,2.657,0,0,1-.178-.779,2.822,2.822,0,0,1-2.105.916,2.611,2.611,0,0,1-1.794-.619,2,2,0,0,1-.7-1.569,2.091,2.091,0,0,1,.878-1.794,4.142,4.142,0,0,1,2.471-.639h1.23v-.581a1.42,1.42,0,0,0-.4-1.056,1.593,1.593,0,0,0-1.169-.393,1.844,1.844,0,0,0-1.135.342,1.007,1.007,0,0,0-.458.827H16.926a1.745,1.745,0,0,1,.393-1.07,2.683,2.683,0,0,1,1.066-.817,3.588,3.588,0,0,1,1.48-.3,2.924,2.924,0,0,1,2,.639,2.306,2.306,0,0,1,.752,1.76v3.4a4.162,4.162,0,0,0,.26,1.62V0Zm-2.1-.964a2.223,2.223,0,0,0,1.128-.308,1.861,1.861,0,0,0,.772-.8V-3.589h-.991q-2.324,0-2.324,1.36a1.151,1.151,0,0,0,.4.93A1.524,1.524,0,0,0,19.455-.964Zm11.4-2.652A4.429,4.429,0,0,1,30.078-.9,2.476,2.476,0,0,1,27.986.137a2.713,2.713,0,0,1-2.119-.854V2.844H24.6V-7.4h1.155l.062.82a2.605,2.605,0,0,1,2.146-.957,2.522,2.522,0,0,1,2.109,1,4.477,4.477,0,0,1,.776,2.8ZM29.586-3.76a3.268,3.268,0,0,0-.533-1.976A1.718,1.718,0,0,0,27.59-6.46a1.859,1.859,0,0,0-1.723,1.019v3.534A1.863,1.863,0,0,0,27.6-.9a1.71,1.71,0,0,0,1.446-.721A3.567,3.567,0,0,0,29.586-3.76Z" transform="translate(3 202)"/>
    <path id="Path_17" data-name="Path 17" d="M8.5-1.306A3.032,3.032,0,0,1,7.092-.222,5.7,5.7,0,0,1,4.983.137a4.09,4.09,0,0,1-2.16-.571A3.8,3.8,0,0,1,1.364-2.058,5.607,5.607,0,0,1,.834-4.5v-.868A5.234,5.234,0,0,1,1.883-8.853a3.656,3.656,0,0,1,2.95-1.237,3.777,3.777,0,0,1,2.509.8A3.469,3.469,0,0,1,8.5-7.034H7.191A2.17,2.17,0,0,0,4.84-9.017a2.323,2.323,0,0,0-2,.927A4.526,4.526,0,0,0,2.153-5.4v.814a4.242,4.242,0,0,0,.766,2.665A2.482,2.482,0,0,0,4.99-.937,4.575,4.575,0,0,0,6.282-1.1,2,2,0,0,0,7.2-1.653v-2.23h-2.3V-4.956H8.5ZM15.06,0a2.657,2.657,0,0,1-.178-.779,2.822,2.822,0,0,1-2.105.916,2.611,2.611,0,0,1-1.794-.619,2,2,0,0,1-.7-1.569,2.091,2.091,0,0,1,.878-1.794,4.142,4.142,0,0,1,2.471-.639h1.23v-.581a1.42,1.42,0,0,0-.4-1.056A1.593,1.593,0,0,0,13.3-6.515a1.844,1.844,0,0,0-1.135.342,1.007,1.007,0,0,0-.458.827H10.432a1.745,1.745,0,0,1,.393-1.07,2.683,2.683,0,0,1,1.066-.817,3.588,3.588,0,0,1,1.48-.3,2.924,2.924,0,0,1,2,.639,2.306,2.306,0,0,1,.752,1.76v3.4a4.162,4.162,0,0,0,.26,1.62V0Zm-2.1-.964a2.223,2.223,0,0,0,1.128-.308,1.861,1.861,0,0,0,.772-.8V-3.589H13.87q-2.324,0-2.324,1.36a1.151,1.151,0,0,0,.4.93A1.524,1.524,0,0,0,12.961-.964Zm6.863-8.224V-7.4h1.381v.978H19.824v4.593a1.027,1.027,0,0,0,.185.667.777.777,0,0,0,.629.222,3.062,3.062,0,0,0,.6-.082V0a3.688,3.688,0,0,1-.971.136A1.575,1.575,0,0,1,18.99-.376a2.2,2.2,0,0,1-.431-1.456V-6.419H17.213V-7.4H18.56V-9.187ZM25.751.137A3.232,3.232,0,0,1,23.3-.851a3.666,3.666,0,0,1-.943-2.642v-.232a4.438,4.438,0,0,1,.42-1.965,3.28,3.28,0,0,1,1.176-1.354,2.956,2.956,0,0,1,1.637-.489,2.77,2.77,0,0,1,2.242.95,4.114,4.114,0,0,1,.8,2.721v.526H23.625a2.629,2.629,0,0,0,.639,1.767A2.009,2.009,0,0,0,25.819-.9a2.2,2.2,0,0,0,1.135-.273,2.851,2.851,0,0,0,.813-.725l.772.6A3.106,3.106,0,0,1,25.751.137Zm-.157-6.631a1.687,1.687,0,0,0-1.285.557,2.708,2.708,0,0,0-.643,1.562h3.705v-.1a2.409,2.409,0,0,0-.52-1.494A1.588,1.588,0,0,0,25.594-6.494Z" transform="translate(9 270)"/>
    <path id="Path_18" data-name="Path 18" d="M1.155,0V-9.953h2.81a4.523,4.523,0,0,1,2.3.574A3.884,3.884,0,0,1,7.8-7.745a5.318,5.318,0,0,1,.55,2.434v.636A5.336,5.336,0,0,1,7.81-2.208,3.823,3.823,0,0,1,6.258-.581,4.811,4.811,0,0,1,3.91,0ZM2.468-8.88v7.807H3.849A3,3,0,0,0,6.21-2.017a3.9,3.9,0,0,0,.844-2.689v-.582a3.963,3.963,0,0,0-.8-2.637A2.834,2.834,0,0,0,4-8.88ZM13.207.137A3.232,3.232,0,0,1,10.76-.851a3.666,3.666,0,0,1-.943-2.642v-.232a4.438,4.438,0,0,1,.42-1.965,3.28,3.28,0,0,1,1.176-1.354,2.956,2.956,0,0,1,1.637-.489,2.77,2.77,0,0,1,2.242.95,4.114,4.114,0,0,1,.8,2.721v.526H11.081a2.629,2.629,0,0,0,.639,1.767A2.009,2.009,0,0,0,13.275-.9a2.2,2.2,0,0,0,1.135-.273,2.851,2.851,0,0,0,.813-.725l.772.6A3.106,3.106,0,0,1,13.207.137ZM13.05-6.494a1.687,1.687,0,0,0-1.285.557,2.708,2.708,0,0,0-.643,1.562h3.705v-.1a2.409,2.409,0,0,0-.52-1.494A1.588,1.588,0,0,0,13.05-6.494ZM23.8-3.616A4.429,4.429,0,0,1,23.03-.9,2.476,2.476,0,0,1,20.938.137a2.713,2.713,0,0,1-2.119-.854V2.844H17.555V-7.4H18.71l.062.82a2.605,2.605,0,0,1,2.146-.957,2.522,2.522,0,0,1,2.109,1,4.477,4.477,0,0,1,.776,2.8ZM22.538-3.76A3.268,3.268,0,0,0,22-5.735a1.718,1.718,0,0,0-1.463-.725,1.859,1.859,0,0,0-1.723,1.019v3.534A1.863,1.863,0,0,0,20.556-.9,1.71,1.71,0,0,0,22-1.617,3.567,3.567,0,0,0,22.538-3.76Zm4.587-5.428V-7.4h1.381v.978H27.125v4.593a1.027,1.027,0,0,0,.185.667.777.777,0,0,0,.629.222,3.062,3.062,0,0,0,.6-.082V0a3.688,3.688,0,0,1-.971.136,1.575,1.575,0,0,1-1.278-.513,2.2,2.2,0,0,1-.431-1.456V-6.419H24.514V-7.4H25.86V-9.187ZM31.247-6.5a2.689,2.689,0,0,1,2.188-1.032q2.345,0,2.365,2.646V0H34.535V-4.895a1.7,1.7,0,0,0-.366-1.183,1.466,1.466,0,0,0-1.118-.383,1.825,1.825,0,0,0-1.08.328,2.228,2.228,0,0,0-.725.861V0H29.982V-10.5h1.265Z" transform="translate(87 270)"/>
    <path id="Path_19" data-name="Path 19" d="M6.645-4.4H2.468V0H1.155V-9.953H7.321V-8.88H2.468v3.411H6.645Zm1.6.636A4.333,4.333,0,0,1,9.051-6.5a2.551,2.551,0,0,1,2.112-1.036,2.565,2.565,0,0,1,2.058.889V-10.5h1.265V0H13.323l-.062-.793a2.575,2.575,0,0,1-2.112.93,2.526,2.526,0,0,1-2.1-1.053,4.382,4.382,0,0,1-.81-2.748Zm1.265.144a3.281,3.281,0,0,0,.52,1.969,1.68,1.68,0,0,0,1.436.711,1.845,1.845,0,0,0,1.757-1.08v-3.4A1.859,1.859,0,0,0,11.478-6.46a1.687,1.687,0,0,0-1.449.718A3.612,3.612,0,0,0,9.509-3.616Zm13.2,0A4.4,4.4,0,0,1,21.93-.892,2.49,2.49,0,0,1,19.838.137a2.578,2.578,0,0,1-2.167-.991L17.609,0H16.447V-10.5h1.265v3.917a2.564,2.564,0,0,1,2.112-.95A2.505,2.505,0,0,1,21.94-6.515a4.53,4.53,0,0,1,.769,2.789ZM21.444-3.76a3.417,3.417,0,0,0-.5-2,1.652,1.652,0,0,0-1.436-.7,1.857,1.857,0,0,0-1.8,1.162v3.2A1.909,1.909,0,0,0,19.523-.937a1.643,1.643,0,0,0,1.415-.7A3.634,3.634,0,0,0,21.444-3.76Zm4.922.335-.793.827V0H24.309V-10.5h1.265v6.351l.677-.813,2.3-2.434h1.538l-2.878,3.09L30.427,0H28.943Z" transform="translate(131 270)"/>
    <g id="Component_9_1" data-name="Component 9 – 1" transform="translate(171 310)">
      <rect id="Rectangle_9" data-name="Rectangle 9" width="33" height="50" rx="3"/>
      <path id="Path_29" data-name="Path 29" d="M8.812-4.655A6.157,6.157,0,0,1,8.319-2.1,3.728,3.728,0,0,1,6.925-.437,3.837,3.837,0,0,1,4.819.137,3.8,3.8,0,0,1,2.734-.441,3.817,3.817,0,0,1,1.323-2.088,5.908,5.908,0,0,1,.807-4.566v-.718a6.084,6.084,0,0,1,.5-2.536A3.8,3.8,0,0,1,2.717-9.505a3.788,3.788,0,0,1,2.088-.584,3.858,3.858,0,0,1,2.109.578,3.721,3.721,0,0,1,1.4,1.675,6.187,6.187,0,0,1,.492,2.553ZM7.506-5.3a4.463,4.463,0,0,0-.711-2.717,2.345,2.345,0,0,0-1.989-.947,2.32,2.32,0,0,0-1.958.947,4.371,4.371,0,0,0-.735,2.628v.731a4.469,4.469,0,0,0,.721,2.7,2.329,2.329,0,0,0,1.986.981A2.32,2.32,0,0,0,6.788-1.9,4.444,4.444,0,0,0,7.506-4.56ZM15.148-.731a2.686,2.686,0,0,1-2.167.868,2.3,2.3,0,0,1-1.8-.687,2.974,2.974,0,0,1-.625-2.034V-7.4h1.265v4.778q0,1.682,1.367,1.682a1.893,1.893,0,0,0,1.928-1.08V-7.4h1.265V0h-1.2Zm4.867-8.456V-7.4H21.4v.978H20.016v4.593a1.027,1.027,0,0,0,.185.667.777.777,0,0,0,.629.222,3.062,3.062,0,0,0,.6-.082V0a3.688,3.688,0,0,1-.971.136,1.575,1.575,0,0,1-1.278-.513,2.2,2.2,0,0,1-.431-1.456V-6.419H17.4V-7.4h1.347V-9.187Z" transform="translate(4 13)" fill="#fff"/>
    </g>
    <path id="Path_20" data-name="Path 20" d="M4.45-1.743l2.844-8.21H8.729L5.038,0H3.876L.191-9.953H1.62Zm5.667,2.6H9.03L13.187-9.953h1.08Zm13.371-5.51A6.157,6.157,0,0,1,23-2.1,3.728,3.728,0,0,1,21.6-.437,3.837,3.837,0,0,1,19.5.137a3.8,3.8,0,0,1-2.085-.578A3.817,3.817,0,0,1,16-2.088a5.908,5.908,0,0,1-.516-2.478v-.718a6.084,6.084,0,0,1,.5-2.536,3.8,3.8,0,0,1,1.412-1.685,3.788,3.788,0,0,1,2.088-.584,3.858,3.858,0,0,1,2.109.578A3.721,3.721,0,0,1,23-7.837a6.187,6.187,0,0,1,.492,2.553ZM22.183-5.3a4.463,4.463,0,0,0-.711-2.717,2.345,2.345,0,0,0-1.989-.947,2.32,2.32,0,0,0-1.958.947,4.371,4.371,0,0,0-.735,2.628v.731a4.469,4.469,0,0,0,.721,2.7A2.329,2.329,0,0,0,19.5-.978,2.32,2.32,0,0,0,21.465-1.9a4.444,4.444,0,0,0,.718-2.656ZM28.226-.9a1.822,1.822,0,0,0,1.183-.41,1.443,1.443,0,0,0,.561-1.025h1.2a2.293,2.293,0,0,1-.437,1.21,2.881,2.881,0,0,1-1.077.916,3.107,3.107,0,0,1-1.425.342,3.047,3.047,0,0,1-2.4-1.008,4.016,4.016,0,0,1-.892-2.758v-.212a4.453,4.453,0,0,1,.4-1.921,3.02,3.02,0,0,1,1.138-1.306,3.233,3.233,0,0,1,1.753-.465,2.966,2.966,0,0,1,2.068.745,2.663,2.663,0,0,1,.878,1.935h-1.2a1.743,1.743,0,0,0-.543-1.179,1.691,1.691,0,0,0-1.207-.461,1.77,1.77,0,0,0-1.494.694,3.259,3.259,0,0,0-.53,2.006v.239a3.194,3.194,0,0,0,.526,1.969A1.779,1.779,0,0,0,28.226-.9ZM34.3-9.187V-7.4h1.381v.978H34.3v4.593a1.027,1.027,0,0,0,.185.667.777.777,0,0,0,.629.222,3.062,3.062,0,0,0,.6-.082V0a3.688,3.688,0,0,1-.971.136,1.575,1.575,0,0,1-1.278-.513,2.2,2.2,0,0,1-.431-1.456V-6.419H31.691V-7.4h1.347V-9.187Z" transform="translate(6 321)"/>
    <path id="Path_21" data-name="Path 21" d="M6.645-4.4H2.468V0H1.155V-9.953H7.321V-8.88H2.468v3.411H6.645Zm3.944-5.558,3.254,8.121L17.1-9.953h1.7V0H17.486V-3.876l.123-4.184L14.342,0h-1L10.076-8.039l.13,4.163V0H8.894V-9.953Z" transform="translate(54 270)"/>
    <path id="Path_22" data-name="Path 22" d="M2.475-1.073H7.191V0H1.155V-9.953H2.475ZM14.178-4.4H10V0H8.688V-9.953h6.166V-8.88H10v3.411h4.177Zm3.944-5.558,3.254,8.121L24.63-9.953h1.7V0H25.02V-3.876l.123-4.184L21.875,0h-1L17.609-8.039l.13,4.163V0H16.427V-9.953Z" transform="translate(91 321)"/>
    <path id="Path_23" data-name="Path 23" d="M6.645-4.4H2.468V0H1.155V-9.953H7.321V-8.88H2.468v3.411H6.645ZM10.069,0H8.8V-7.4h1.265ZM8.7-9.358a.755.755,0,0,1,.188-.52.706.706,0,0,1,.557-.212.717.717,0,0,1,.561.212.747.747,0,0,1,.191.52.722.722,0,0,1-.191.513.73.73,0,0,1-.561.205.718.718,0,0,1-.557-.205A.73.73,0,0,1,8.7-9.358ZM13.289-7.4l.041.93a2.7,2.7,0,0,1,2.215-1.066q2.345,0,2.365,2.646V0H16.646V-4.895a1.7,1.7,0,0,0-.366-1.183,1.466,1.466,0,0,0-1.118-.383,1.825,1.825,0,0,0-1.08.328,2.228,2.228,0,0,0-.725.861V0H12.093V-7.4Zm9.6,7.533a3.232,3.232,0,0,1-2.447-.988A3.666,3.666,0,0,1,19.5-3.493v-.232a4.438,4.438,0,0,1,.42-1.965,3.28,3.28,0,0,1,1.176-1.354,2.956,2.956,0,0,1,1.637-.489,2.77,2.77,0,0,1,2.242.95,4.114,4.114,0,0,1,.8,2.721v.526H20.761A2.629,2.629,0,0,0,21.4-1.569,2.009,2.009,0,0,0,22.955-.9a2.2,2.2,0,0,0,1.135-.273,2.851,2.851,0,0,0,.813-.725l.772.6A3.106,3.106,0,0,1,22.887.137Zm-.157-6.631a1.687,1.687,0,0,0-1.285.557A2.708,2.708,0,0,0,20.8-4.375h3.705v-.1a2.409,2.409,0,0,0-.52-1.494A1.588,1.588,0,0,0,22.729-6.494Z" transform="translate(117 50)"/>
    <path id="Path_24" data-name="Path 24" d="M3.3-3.138l.191,1.313.28-1.183L5.742-9.953H6.85L8.771-3.008l.273,1.2.212-1.34L10.8-9.953H12.12L9.707,0h-1.2L6.46-7.253,6.3-8.012l-.157.759L4.02,0h-1.2L.417-9.953H1.729ZM17.719,0a2.657,2.657,0,0,1-.178-.779,2.822,2.822,0,0,1-2.105.916,2.611,2.611,0,0,1-1.794-.619,2,2,0,0,1-.7-1.569,2.091,2.091,0,0,1,.878-1.794,4.142,4.142,0,0,1,2.471-.639h1.23v-.581a1.42,1.42,0,0,0-.4-1.056,1.593,1.593,0,0,0-1.169-.393,1.844,1.844,0,0,0-1.135.342,1.007,1.007,0,0,0-.458.827H13.091a1.745,1.745,0,0,1,.393-1.07,2.683,2.683,0,0,1,1.066-.817,3.588,3.588,0,0,1,1.48-.3,2.924,2.924,0,0,1,2,.639,2.306,2.306,0,0,1,.752,1.76v3.4a4.162,4.162,0,0,0,.26,1.62V0Zm-2.1-.964a2.223,2.223,0,0,0,1.128-.308,1.861,1.861,0,0,0,.772-.8V-3.589h-.991q-2.324,0-2.324,1.36a1.151,1.151,0,0,0,.4.93A1.524,1.524,0,0,0,15.62-.964Zm7.485-.752L24.938-7.4h1.292L23.577,0h-.964l-2.68-7.4h1.292ZM30.427.137a3.232,3.232,0,0,1-2.447-.988,3.666,3.666,0,0,1-.943-2.642v-.232a4.438,4.438,0,0,1,.42-1.965,3.28,3.28,0,0,1,1.176-1.354,2.956,2.956,0,0,1,1.637-.489,2.77,2.77,0,0,1,2.242.95,4.114,4.114,0,0,1,.8,2.721v.526H28.3a2.629,2.629,0,0,0,.639,1.767A2.009,2.009,0,0,0,30.5-.9a2.2,2.2,0,0,0,1.135-.273,2.851,2.851,0,0,0,.813-.725l.772.6A3.106,3.106,0,0,1,30.427.137ZM30.27-6.494a1.687,1.687,0,0,0-1.285.557,2.708,2.708,0,0,0-.643,1.562h3.705v-.1a2.409,2.409,0,0,0-.52-1.494A1.588,1.588,0,0,0,30.27-6.494Z" transform="translate(164 50)"/>
    <path id="Path_25" data-name="Path 25" d="M1.155,0V-9.953h2.81a4.523,4.523,0,0,1,2.3.574A3.884,3.884,0,0,1,7.8-7.745a5.318,5.318,0,0,1,.55,2.434v.636A5.336,5.336,0,0,1,7.81-2.208,3.823,3.823,0,0,1,6.258-.581,4.811,4.811,0,0,1,3.91,0ZM2.468-8.88v7.807H3.849A3,3,0,0,0,6.21-2.017a3.9,3.9,0,0,0,.844-2.689v-.582a3.963,3.963,0,0,0-.8-2.637A2.834,2.834,0,0,0,4-8.88ZM13.207.137A3.232,3.232,0,0,1,10.76-.851a3.666,3.666,0,0,1-.943-2.642v-.232a4.438,4.438,0,0,1,.42-1.965,3.28,3.28,0,0,1,1.176-1.354,2.956,2.956,0,0,1,1.637-.489,2.77,2.77,0,0,1,2.242.95,4.114,4.114,0,0,1,.8,2.721v.526H11.081a2.629,2.629,0,0,0,.639,1.767A2.009,2.009,0,0,0,13.275-.9a2.2,2.2,0,0,0,1.135-.273,2.851,2.851,0,0,0,.813-.725l.772.6A3.106,3.106,0,0,1,13.207.137ZM13.05-6.494a1.687,1.687,0,0,0-1.285.557,2.708,2.708,0,0,0-.643,1.562h3.705v-.1a2.409,2.409,0,0,0-.52-1.494A1.588,1.588,0,0,0,13.05-6.494ZM23.8-3.616A4.429,4.429,0,0,1,23.03-.9,2.476,2.476,0,0,1,20.938.137a2.713,2.713,0,0,1-2.119-.854V2.844H17.555V-7.4H18.71l.062.82a2.605,2.605,0,0,1,2.146-.957,2.522,2.522,0,0,1,2.109,1,4.477,4.477,0,0,1,.776,2.8ZM22.538-3.76A3.268,3.268,0,0,0,22-5.735a1.718,1.718,0,0,0-1.463-.725,1.859,1.859,0,0,0-1.723,1.019v3.534A1.863,1.863,0,0,0,20.556-.9,1.71,1.71,0,0,0,22-1.617,3.567,3.567,0,0,0,22.538-3.76Zm4.587-5.428V-7.4h1.381v.978H27.125v4.593a1.027,1.027,0,0,0,.185.667.777.777,0,0,0,.629.222,3.062,3.062,0,0,0,.6-.082V0a3.688,3.688,0,0,1-.971.136,1.575,1.575,0,0,1-1.278-.513,2.2,2.2,0,0,1-.431-1.456V-6.419H24.514V-7.4H25.86V-9.187ZM31.247-6.5a2.689,2.689,0,0,1,2.188-1.032q2.345,0,2.365,2.646V0H34.535V-4.895a1.7,1.7,0,0,0-.366-1.183,1.466,1.466,0,0,0-1.118-.383,1.825,1.825,0,0,0-1.08.328,2.228,2.228,0,0,0-.725.861V0H29.982V-10.5h1.265Z" transform="translate(61 114)"/>
    <path id="Path_26" data-name="Path 26" d="M2.475-1.073H7.191V0H1.155V-9.953H2.475ZM11.56.137A3.232,3.232,0,0,1,9.112-.851a3.666,3.666,0,0,1-.943-2.642v-.232a4.438,4.438,0,0,1,.42-1.965A3.28,3.28,0,0,1,9.765-7.044,2.956,2.956,0,0,1,11.4-7.533a2.77,2.77,0,0,1,2.242.95,4.114,4.114,0,0,1,.8,2.721v.526H9.434a2.629,2.629,0,0,0,.639,1.767A2.009,2.009,0,0,0,11.628-.9a2.2,2.2,0,0,0,1.135-.273,2.851,2.851,0,0,0,.813-.725l.772.6A3.106,3.106,0,0,1,11.56.137ZM11.4-6.494a1.687,1.687,0,0,0-1.285.557,2.708,2.708,0,0,0-.643,1.562H13.18v-.1a2.409,2.409,0,0,0-.52-1.494A1.588,1.588,0,0,0,11.4-6.494Zm6.856,4.778L20.091-7.4h1.292L18.73,0h-.964l-2.68-7.4h1.292ZM25.58.137a3.232,3.232,0,0,1-2.447-.988,3.666,3.666,0,0,1-.943-2.642v-.232a4.438,4.438,0,0,1,.42-1.965,3.28,3.28,0,0,1,1.176-1.354,2.956,2.956,0,0,1,1.637-.489,2.77,2.77,0,0,1,2.242.95,4.114,4.114,0,0,1,.8,2.721v.526H23.454a2.629,2.629,0,0,0,.639,1.767A2.009,2.009,0,0,0,25.648-.9a2.2,2.2,0,0,0,1.135-.273,2.851,2.851,0,0,0,.813-.725l.772.6A3.106,3.106,0,0,1,25.58.137Zm-.157-6.631a1.687,1.687,0,0,0-1.285.557A2.708,2.708,0,0,0,23.5-4.375H27.2v-.1a2.409,2.409,0,0,0-.52-1.494A1.588,1.588,0,0,0,25.423-6.494ZM31.3,0H30.037V-10.5H31.3Z" transform="translate(10 114)"/>
    <path id="Path_27" data-name="Path 27" d="M6.645-4.4H2.468V0H1.155V-9.953H7.321V-8.88H2.468v3.411H6.645Zm1.6.636A4.333,4.333,0,0,1,9.051-6.5a2.551,2.551,0,0,1,2.112-1.036,2.565,2.565,0,0,1,2.058.889V-10.5h1.265V0H13.323l-.062-.793a2.575,2.575,0,0,1-2.112.93,2.526,2.526,0,0,1-2.1-1.053,4.382,4.382,0,0,1-.81-2.748Zm1.265.144a3.281,3.281,0,0,0,.52,1.969,1.68,1.68,0,0,0,1.436.711,1.845,1.845,0,0,0,1.757-1.08v-3.4A1.859,1.859,0,0,0,11.478-6.46a1.687,1.687,0,0,0-1.449.718A3.612,3.612,0,0,0,9.509-3.616Zm13.2,0A4.4,4.4,0,0,1,21.93-.892,2.49,2.49,0,0,1,19.838.137a2.578,2.578,0,0,1-2.167-.991L17.609,0H16.447V-10.5h1.265v3.917a2.564,2.564,0,0,1,2.112-.95A2.505,2.505,0,0,1,21.94-6.515a4.53,4.53,0,0,1,.769,2.789ZM21.444-3.76a3.417,3.417,0,0,0-.5-2,1.652,1.652,0,0,0-1.436-.7,1.857,1.857,0,0,0-1.8,1.162v3.2A1.909,1.909,0,0,0,19.523-.937a1.643,1.643,0,0,0,1.415-.7A3.634,3.634,0,0,0,21.444-3.76Zm4.922.335-.793.827V0H24.309V-10.5h1.265v6.351l.677-.813,2.3-2.434h1.538l-2.878,3.09L30.427,0H28.943Z" transform="translate(116 114)"/>
    <path id="Path_28" data-name="Path 28" d="M0,0V16" transform="translate(64 305.5)" fill="none" stroke="#707070" stroke-linecap="round" stroke-width="3"/>
  </g>
</svg>
