<svg id="Layer_1" data-name="Layer 1" xmlns="http://www.w3.org/2000/svg" xmlns:xlink="http://www.w3.org/1999/xlink" width="90" height="380" viewBox="0 0 90 380">
  <defs>
    <clipPath id="clip-path">
      <rect width="90" height="380" style="fill: none"/>
    </clipPath>
  </defs>
  <title>lfn_panel</title>
  <g style="clip-path: url(#clip-path)">
    <g id="Custom_Size_1" data-name="Custom Size 1">
      <rect width="90" height="380" style="fill: #fff"/>
      <g id="background">
        <rect width="90" height="380" style="fill: #e6e6e6"/>
        <rect x="0.5" y="0.5" width="89" height="379" style="fill: none"/>
      </g>
      <g id="Rectangle_2" data-name="Rectangle 2">
        <rect x="58" y="52" width="27" height="41" rx="4"/>
        <rect x="58.5" y="52.5" width="26" height="40" rx="3.5" style="fill: none;stroke: #707070"/>
      </g>
      <g id="LFN">
        <g>
          <path d="M40.32,30.48H35.68l.16,1-4,.6.25-1.62H29.32v-.22l3-.88L33.77,19.1h.13l1.45,9.34,5-1.49Z"/>
          <path d="M50.91,19.8,45,22.16l4.6,1.59V24l-3.85,1.27-.83,6.2H44.7L40.88,19.62h10Z"/>
          <path d="M61.13,31.27l-7-6L51.81,31h-.15V18.69l7.06,7.2L61,19h.11Z"/>
        </g>
      </g>
    </g>
  </g>
  <g>
    <path d="M14.56,349.87l-5.39,3.61,4,6.8-8.43,2.55,0-.12,5.35-3.59L6,352.33l8.5-2.56Z"/>
    <path d="M22,363.52H18.83l.58-3.42a6,6,0,0,1-2.72.65,3.23,3.23,0,0,1-1.82-.47,1.39,1.39,0,0,1-.7-1.23,2.73,2.73,0,0,1,1.14-2,6.31,6.31,0,0,1,2.74-1.35,5.16,5.16,0,0,1,2.13-.09l.17-1.05h.15Zm-1.93-7.34a4.53,4.53,0,0,0-.94-.11,2.45,2.45,0,0,0-1.72.64,2.13,2.13,0,0,0-.67,1.71,1.53,1.53,0,0,0,.38,1,1.2,1.2,0,0,0,1,.42,2.91,2.91,0,0,0,1.44-.48Z"/>
    <path d="M28.27,360.75h-1.9l.22-1.73a3.78,3.78,0,0,1-3.19,1.87,3.26,3.26,0,0,1-1-.14l1.9-5.32.21,0a7.26,7.26,0,0,0-.1,1.16c0,1,.24,1.53.7,1.53a.66.66,0,0,0,.27-.06,2.53,2.53,0,0,0,1.2-1.23,4.94,4.94,0,0,0,.63-1.7h.17Z"/>
    <path d="M31.91,354.89l-1.51,5.76h-.16l-1.51-5.76Zm.11-2-1.2.36.32,1.25-.74-1-1.07.67.76-1-1-.81,1.19.41.48-1.16,0,1.25Z"/>
    <path d="M38.33,355.31l-1.9,5.32-.21,0a6.26,6.26,0,0,0,.1-1.16c0-1-.23-1.53-.7-1.53a.74.74,0,0,0-.27.06,2.53,2.53,0,0,0-1.2,1.23,5.29,5.29,0,0,0-.65,1.7h-.15l-.87-5.58h1.89L34.16,357a3.79,3.79,0,0,1,3.19-1.87A3.41,3.41,0,0,1,38.33,355.31Z"/>
    <path d="M45.32,355.75l-2.91,2.07,1.85,3.29-.13.18L40.88,359l-.4,2.43h-.17l-1.51-8.94H42l-1,5.65,1.7-2.43Z"/>
    <path d="M52.75,356.94l-6,6.79-.12-.09,1.3-3.19-3.39-3.72,2.86-1.42.81,4.47,1.86-4.54Z"/>
    <path d="M64.36,360.19H60.75l.12.79-3.12.47.2-1.26H55.81l0-.17,2.29-.69,1.19-8h.1l1.14,7.26,3.86-1.16Z"/>
    <path d="M72.45,360.59H69.37l.27-1.17a6,6,0,0,1-1.67.89,4.44,4.44,0,0,1-1.5.28,2.06,2.06,0,0,1-1.25-.34,1.11,1.11,0,0,1-.47-.95,2.75,2.75,0,0,1,1-1.85A5.87,5.87,0,0,1,68,356a4.58,4.58,0,0,1,1.51-.28,2.23,2.23,0,0,1,.94.17l0-.17h.45Zm-2.9-2.5a2,2,0,0,0,.17-.8c0-.63-.25-.94-.77-.94a1.69,1.69,0,0,0-1.09.51,3.1,3.1,0,0,0-.85,1.23,2,2,0,0,0-.17.79c0,.62.26.93.77.93a1.69,1.69,0,0,0,1.1-.51A3,3,0,0,0,69.55,358.09Z"/>
    <path d="M79.68,357.25a2.69,2.69,0,0,1-1.14,2,6.32,6.32,0,0,1-2.74,1.36,6,6,0,0,1-1.3.15,4.67,4.67,0,0,1-1-.11l-.11.66h-.17l-1.51-8.95h3.19l-.67,4a6.31,6.31,0,0,1,2.92-.75A3.19,3.19,0,0,1,79,356,1.42,1.42,0,0,1,79.68,357.25Zm-2.58.61a1.53,1.53,0,0,0-.38-1,1.19,1.19,0,0,0-1-.41,3.15,3.15,0,0,0-1.67.61l-.5,3a3.79,3.79,0,0,0,1.12.18,2.43,2.43,0,0,0,1.72-.67A2.16,2.16,0,0,0,77.1,357.86Z"/>
    <path d="M86.05,360.3l-5.37,1.33,0-.09,2.27-1.77L80,356.28l5.11-1.37,0,.07-2.1,1.73Z"/>
  </g>
</svg>
