<svg id="Layer_1" data-name="Layer 1" xmlns="http://www.w3.org/2000/svg" width="120" height="380" viewBox="0 0 120 380">
  <title>mix2_panel</title>
  <rect x="0.5" y="0.5" width="120" height="380" style="fill: #e6e6e6"/>
  <rect y="336" width="120" height="29.5" style="fill: #307dee;opacity: 0.5"/>
  <g>
    <path d="M54.19,6.05,50.83,7.48l1.62,1.87-1.92,1.9L53.67,13l0,.08-6.11-.88,2.85-2.95L48,6.3,54.18,6Z"/>
    <path d="M59.72,10.28,58,11.17l1.05,1.38-.07.09-1.88-1-1.87,1-.07-.09,1-1.38-1.68-.89L56,8.51,57.14,10l1.14-1.5Z"/>
    <path d="M66.83,5.45,63.22,6.84l.91,6H62.05L63,7,60.11,8l.55-2.21,6.16-.43Z"/>
    <path d="M70.12,8.81l-.93,3.69-1.54.14L67.18,10l-.53,2.65-1.48-.14-.94-3.69.1-.05,1.75,1.84,1.07-1.53h.16l1,1.53L70,8.76Z"/>
    <path d="M75.45,10a1.91,1.91,0,0,1-.81,1.41,4.49,4.49,0,0,1-2,1,4,4,0,0,1-1,.11,2.38,2.38,0,0,1-1.31-.33,1,1,0,0,1-.5-.88,1.91,1.91,0,0,1,.81-1.41,4.49,4.49,0,0,1,2-1,4,4,0,0,1,1-.12,2.32,2.32,0,0,1,1.3.34A1,1,0,0,1,75.45,10Zm-1.88,1a1.93,1.93,0,0,0,.15-.75,1.24,1.24,0,0,0-.17-.66A.65.65,0,0,0,73,9.3a1,1,0,0,0-.66.29,2.08,2.08,0,0,0-.51.73,2,2,0,0,0-.15.74,1.28,1.28,0,0,0,.17.67.64.64,0,0,0,.57.32,1,1,0,0,0,.66-.28A1.78,1.78,0,0,0,73.57,11Z"/>
  </g>
</svg>
