<svg id="Layer_1" data-name="Layer 1" xmlns="http://www.w3.org/2000/svg" width="150" height="380" viewBox="0 0 150 380">
  <title>mix4_panel</title>
  <rect x="0.5" y="0.5" width="150" height="380" style="fill: #e6e6e6"/>
  <rect y="336" width="150" height="29.5" style="fill: #307dee;opacity: 0.5"/>
  <g>
    <path d="M69.19,6.05,65.83,7.48l1.62,1.87-1.92,1.9L68.67,13l0,.08-6.11-.88,2.85-2.95L63,6.3,69.18,6Z"/>
    <path d="M74.72,10.28,73,11.17l1,1.38-.07.09-1.88-1-1.87,1-.07-.09,1-1.38-1.68-.89L71,8.51,72.14,10l1.14-1.5Z"/>
    <path d="M80.7,6.21,77.4,7.52,80,8.4v.15l-2.14.71-.46,3.44h-.11L75.13,6.11H80.7Z"/>
    <path d="M84,10a1.91,1.91,0,0,1-.81,1.41,4.49,4.49,0,0,1-2,1,4,4,0,0,1-.95.11A2.32,2.32,0,0,1,79,12.2a1,1,0,0,1-.51-.88,1.91,1.91,0,0,1,.81-1.41,4.49,4.49,0,0,1,1.95-1,4,4,0,0,1,1-.12,2.32,2.32,0,0,1,1.3.34A1,1,0,0,1,84,10Zm-1.88,1a1.93,1.93,0,0,0,.15-.75,1.24,1.24,0,0,0-.17-.66.65.65,0,0,0-.57-.33,1,1,0,0,0-.66.29,2.08,2.08,0,0,0-.51.73,2,2,0,0,0-.15.74,1.28,1.28,0,0,0,.17.67.64.64,0,0,0,.57.32,1,1,0,0,0,.66-.28A1.78,1.78,0,0,0,82.09,11Z"/>
    <path d="M87.46,10.72l-1.65.1-.5,2h-.14L84.21,9h2.06l-.19.77L87.46,9Z"/>
  </g>
</svg>
