<svg id="Layer_1" data-name="Layer 1" xmlns="http://www.w3.org/2000/svg" width="390" height="380" viewBox="0 0 390 380">
  <title>mix8_panel</title>
  <rect width="390" height="380" style="fill: #e6e6e6"/>
  <g>
    <path d="M176.61,26.3l-.07.06-6-7.55-2.83,3.93-2.81-3.93-5.92,7.37-.12-.08,5.05-13.19,3.81,5,3.81-5Z"/>
    <path d="M180.86,17.93l-2,7.4h-.2l-1.94-7.4ZM181,15.3l-1.54.47.4,1.61L178.92,16l-1.38.87,1-1.3-1.25-1,1.53.52.62-1.49,0,1.61Z"/>
    <path d="M191,21.38l-3,1.6,1.89,2.49-.13.17-3.38-1.79-3.37,1.79-.12-.17L184.71,23l-3-1.6,2.6-3.18,2,2.7,2.05-2.7Z"/>
    <path d="M199.68,20.61a1.84,1.84,0,0,1-.84,1.73,6.73,6.73,0,0,1-3.24,1.3,10.71,10.71,0,0,1-1.32.12,1.63,1.63,0,0,0,1.39.6,6.28,6.28,0,0,0,3.19-1.14l.39.49a5.63,5.63,0,0,1-1.94,1,11.05,11.05,0,0,1-2.81.57,5,5,0,0,1-2.57-.41A2.12,2.12,0,0,1,190.7,23a2.91,2.91,0,0,1,1.37-2.43,7.18,7.18,0,0,1,3.11-1.35,8.4,8.4,0,0,1,1.59-.16,4,4,0,0,1,2,.45A1.6,1.6,0,0,1,199.68,20.61Zm-3.61-1a2.24,2.24,0,0,0-1.28.45,2.59,2.59,0,0,0-1.3,2.09.83.83,0,0,0,.94.94,2.25,2.25,0,0,0,1.29-.47,3.14,3.14,0,0,0,.94-1,2.1,2.1,0,0,0,.36-1.09A.84.84,0,0,0,196.07,19.62Z"/>
    <path d="M206,22.18l-3,.18-.9,3.65h-.25l-1.73-7h3.71l-.34,1.39L206,19Z"/>
    <path d="M209.69,20h-2.91V18.56h2.91Z"/>
    <path d="M220.69,21.77a3.09,3.09,0,0,1-1.46,2.39,7.23,7.23,0,0,1-3.51,1.39,8.87,8.87,0,0,1-1,.07,5.23,5.23,0,0,1-2.83-.71,2.13,2.13,0,0,1-1.13-1.83,2.71,2.71,0,0,1,.87-1.89,6.07,6.07,0,0,1,2.27-1.44,4.38,4.38,0,0,1-2.26-.85,2,2,0,0,1-.88-1.65,3.09,3.09,0,0,1,1.46-2.41,7.31,7.31,0,0,1,3.51-1.37,7.23,7.23,0,0,1,1-.07,5.1,5.1,0,0,1,2.81.71,2.1,2.1,0,0,1,1.13,1.82,2.7,2.7,0,0,1-.87,1.88,6.25,6.25,0,0,1-2.26,1.45,4.5,4.5,0,0,1,2.27.84A2.06,2.06,0,0,1,220.69,21.77Zm-3.38-4.38a3.38,3.38,0,0,0,.27-1.31,1.8,1.8,0,0,0-.89-1.78,1.16,1.16,0,0,0-.57-.15,1.73,1.73,0,0,0-1.12.45,3.13,3.13,0,0,0-.86,1.19,3.38,3.38,0,0,0-.27,1.31,1.81,1.81,0,0,0,.88,1.79,1.27,1.27,0,0,0,.58.14,1.72,1.72,0,0,0,1.11-.45A3.26,3.26,0,0,0,217.31,17.39Zm0,5.83a3.25,3.25,0,0,0,.27-1.29,1.82,1.82,0,0,0-.89-1.8,1.16,1.16,0,0,0-.57-.15,1.73,1.73,0,0,0-1.12.45,3.13,3.13,0,0,0-.86,1.19,3.26,3.26,0,0,0-.27,1.3,1.8,1.8,0,0,0,.88,1.78,1.2,1.2,0,0,0,.59.14,1.7,1.7,0,0,0,1.1-.44A3.06,3.06,0,0,0,217.31,23.22Z"/>
  </g>
  <rect x="1" y="306" width="294" height="29" rx="4"/>
  <rect x="313" y="306" width="76" height="29" rx="4"/>
  <rect x="313" y="246" width="76" height="29" rx="4"/>
</svg>
