<svg id="Layer_1" data-name="Layer 1" xmlns="http://www.w3.org/2000/svg" width="255" height="380" viewBox="0 0 255 380">
  <title>mixm_panel</title>
  <rect width="253.63" height="376.65" style="fill: #e6e6e6"/>
  <g>
    <path d="M8.18,33.9H4.62l-.8,2.18H2.65l3.28-8.46h1l3.23,8.46H9Zm-3.2-1H7.83L6.44,29.09h0Z" style="fill: #303030"/>
    <path d="M14.05,30.92l2-3.3h1.39l-2.7,4.19,2.75,4.27H16.1l-2-3.36-2,3.36H10.64l2.76-4.27-2.7-4.19h1.38Z" style="fill: #303030"/>
    <path d="M21.78,36.08H20.63V28.74l-1.74,0v-.83l2.89-.31Z" style="fill: #303030"/>
  </g>
  <g>
    <path d="M8.65,68H5.1l-.81,2.18H3.12L6.4,61.72h1l3.22,8.46H9.44Zm-3.2-1H8.31l-1.4-3.85h0Z" style="fill: #303030"/>
    <path d="M14.52,65l2-3.3h1.39L15.2,65.91,18,70.18H16.58l-2-3.36-2,3.36H11.12l2.75-4.27-2.7-4.19h1.38Z" style="fill: #303030"/>
    <path d="M24.47,70.18H19v-.79l2.78-3.08a8.46,8.46,0,0,0,1-1.31A2.16,2.16,0,0,0,23,64a1.57,1.57,0,0,0-.37-1.07,1.22,1.22,0,0,0-1-.43,1.69,1.69,0,0,0-1.3.45A1.82,1.82,0,0,0,20,64.21H18.85v0a2.41,2.41,0,0,1,.73-1.84,2.91,2.91,0,0,1,2.1-.74,2.5,2.5,0,0,1,1.82.66,2.3,2.3,0,0,1,.68,1.7,2.71,2.71,0,0,1-.41,1.38,9,9,0,0,1-1.15,1.49l-2.23,2.42v0h4.08Z" style="fill: #303030"/>
  </g>
  <g>
    <path d="M5.73,102.16v3.4H4.58V97.1H7.83a3,3,0,0,1,2.11.7,2.37,2.37,0,0,1,.75,1.83,2.4,2.4,0,0,1-.75,1.85,3.06,3.06,0,0,1-2.11.68Zm0-.9h2.1a1.64,1.64,0,0,0,1.28-.46,1.6,1.6,0,0,0,.43-1.16A1.55,1.55,0,0,0,7.83,98H5.73Z" style="fill: #303030"/>
    <path d="M15.82,105.56q-.06-.28-.09-.51c0-.14,0-.29,0-.44a2.53,2.53,0,0,1-.83.76,2.12,2.12,0,0,1-1.11.31,2,2,0,0,1-1.5-.51,1.8,1.8,0,0,1-.52-1.38,1.64,1.64,0,0,1,.73-1.41,3.43,3.43,0,0,1,2-.51h1.24v-.62a1.15,1.15,0,0,0-.33-.87,1.33,1.33,0,0,0-1-.32,1.36,1.36,0,0,0-.9.28.83.83,0,0,0-.35.67H12.06v0a1.5,1.5,0,0,1,.65-1.26,2.64,2.64,0,0,1,1.76-.57,2.64,2.64,0,0,1,1.73.55,1.89,1.89,0,0,1,.65,1.56v3a4.63,4.63,0,0,0,0,.65,2.74,2.74,0,0,0,.13.62Zm-1.9-.85a2,2,0,0,0,1.12-.32,1.44,1.44,0,0,0,.65-.73v-1H14.41a1.66,1.66,0,0,0-1.11.34,1,1,0,0,0-.42.82.87.87,0,0,0,.26.66A1.14,1.14,0,0,0,13.92,104.71Z" style="fill: #303030"/>
    <path d="M19.54,99.27l.08.94a2.18,2.18,0,0,1,.79-.78,2.12,2.12,0,0,1,1.08-.28,2.07,2.07,0,0,1,1.58.6,2.63,2.63,0,0,1,.56,1.84v4H22.48v-4a1.72,1.72,0,0,0-.33-1.18,1.34,1.34,0,0,0-1-.35,1.58,1.58,0,0,0-.87.24,1.73,1.73,0,0,0-.61.65v4.59H18.51V99.27Z" style="fill: #303030"/>
  </g>
  <g>
    <path d="M9,138.14l.19.66h0l.19-.66,2.19-6.36h1.24l-3.15,8.46h-1l-3.16-8.46H6.84Z" style="fill: #303030"/>
    <path d="M13.31,137a3.43,3.43,0,0,1,.76-2.3,2.54,2.54,0,0,1,2.05-.9,2.58,2.58,0,0,1,2.08.9A3.46,3.46,0,0,1,19,137v.13a3.48,3.48,0,0,1-.76,2.3,2.58,2.58,0,0,1-2.06.89,2.58,2.58,0,0,1-2.07-.9,3.4,3.4,0,0,1-.76-2.29Zm1.15.12a3,3,0,0,0,.42,1.65,1.53,1.53,0,0,0,2.5,0,2.89,2.89,0,0,0,.43-1.65V137a2.94,2.94,0,0,0-.43-1.65,1.42,1.42,0,0,0-1.26-.65,1.4,1.4,0,0,0-1.24.65,3,3,0,0,0-.42,1.65Z" style="fill: #303030"/>
    <path d="M21.6,140.24H20.45v-9.06H21.6Z" style="fill: #303030"/>
  </g>
  <path d="M17,173.11a1.25,1.25,0,0,0-.44-1,3.61,3.61,0,0,0-1.55-.65,5.13,5.13,0,0,1-2.1-1,1.93,1.93,0,0,1-.75-1.56,2.08,2.08,0,0,1,.81-1.66,3.23,3.23,0,0,1,2.11-.66,3.12,3.12,0,0,1,2.21.76,2.26,2.26,0,0,1,.8,1.77v0h-1.1a1.57,1.57,0,0,0-.49-1.2,2,2,0,0,0-1.41-.46,2,2,0,0,0-1.32.39,1.25,1.25,0,0,0-.46,1,1.13,1.13,0,0,0,.5.93,4.75,4.75,0,0,0,1.61.64,4.63,4.63,0,0,1,2,1,2.11,2.11,0,0,1,.7,1.6,2,2,0,0,1-.84,1.64,3.62,3.62,0,0,1-2.19.62,3.8,3.8,0,0,1-2.25-.69,2.08,2.08,0,0,1-1-1.84v0H13a1.44,1.44,0,0,0,.6,1.24,2.54,2.54,0,0,0,1.49.42,2.32,2.32,0,0,0,1.37-.36A1.17,1.17,0,0,0,17,173.11Z" style="fill: #303030"/>
  <path d="M12.28,195.78l2.7,6.87h0l2.71-6.87h1.47v8.46H18v-3.35l.12-3.44h0l-2.75,6.79h-.77l-2.74-6.77h0l.12,3.42v3.35H10.81v-8.46Z" style="fill: #303030"/>
  <g>
    <path d="M6.73,230.85v3.39H5.58v-8.46H8.83a3,3,0,0,1,2.11.7,2.63,2.63,0,0,1,0,3.68,3,3,0,0,1-2.11.69Zm0-.9h2.1a1.7,1.7,0,0,0,1.29-.46,1.68,1.68,0,0,0,.42-1.17,1.7,1.7,0,0,0-.42-1.17,1.68,1.68,0,0,0-1.29-.47H6.73Z" style="fill: #303030"/>
    <path d="M16.83,234.24c0-.19-.07-.36-.09-.5a2.18,2.18,0,0,1,0-.44,2.65,2.65,0,0,1-.84.75,2.07,2.07,0,0,1-1.11.31,2.11,2.11,0,0,1-1.5-.5,1.87,1.87,0,0,1-.51-1.39,1.62,1.62,0,0,1,.73-1.41,3.47,3.47,0,0,1,2-.5H16.7v-.63a1.15,1.15,0,0,0-.34-.87,1.34,1.34,0,0,0-1-.32,1.4,1.4,0,0,0-.9.28.84.84,0,0,0-.34.68h-1.1v0a1.52,1.52,0,0,1,.65-1.25,2.69,2.69,0,0,1,1.77-.57,2.6,2.6,0,0,1,1.72.54,1.92,1.92,0,0,1,.66,1.57v3c0,.23,0,.44,0,.65a3.25,3.25,0,0,0,.13.62Zm-1.91-.84a2.1,2.1,0,0,0,1.13-.32,1.53,1.53,0,0,0,.65-.73v-1H15.41a1.64,1.64,0,0,0-1.11.35,1,1,0,0,0-.42.81.84.84,0,0,0,.27.66A1.1,1.1,0,0,0,14.92,233.4Z" style="fill: #303030"/>
    <path d="M20.54,228l.08.94a2.36,2.36,0,0,1,.79-.78,2.16,2.16,0,0,1,1.08-.27,2.08,2.08,0,0,1,1.58.59,2.63,2.63,0,0,1,.56,1.84v4H23.48v-4a1.67,1.67,0,0,0-.33-1.17,1.28,1.28,0,0,0-1-.35,1.61,1.61,0,0,0-.88.24,1.67,1.67,0,0,0-.61.65v4.58H19.51V228Z" style="fill: #303030"/>
  </g>
  <g>
    <path d="M10,262.14l.19.66h0l.19-.66,2.19-6.36h1.24l-3.15,8.46h-1l-3.16-8.46H7.84Z" style="fill: #303030"/>
    <path d="M14.31,261a3.43,3.43,0,0,1,.76-2.3,2.54,2.54,0,0,1,2.05-.9,2.58,2.58,0,0,1,2.08.9A3.48,3.48,0,0,1,20,261v.13a3.48,3.48,0,0,1-.76,2.3,2.58,2.58,0,0,1-2.06.89,2.58,2.58,0,0,1-2.07-.9,3.39,3.39,0,0,1-.76-2.29Zm1.15.12a3,3,0,0,0,.42,1.65,1.53,1.53,0,0,0,2.5,0,2.89,2.89,0,0,0,.43-1.65V261a2.94,2.94,0,0,0-.43-1.65,1.42,1.42,0,0,0-1.26-.65,1.4,1.4,0,0,0-1.24.65,3,3,0,0,0-.42,1.65Z" style="fill: #303030"/>
    <path d="M22.6,264.24H21.45v-9.06H22.6Z" style="fill: #303030"/>
  </g>
  <path d="M12.28,285.78l2.7,6.87h0l2.71-6.87h1.47v8.46H18v-3.35l.12-3.43h0l-2.75,6.79h-.77l-2.74-6.77h0l.12,3.42v3.35H10.81v-8.46Z" style="fill: #303030"/>
  <g>
    <path d="M227.72,32.41v3.67h-1.15V27.63h3.07a3.24,3.24,0,0,1,2.13.61A2.2,2.2,0,0,1,232.5,30a1.89,1.89,0,0,1-.34,1.13,2.36,2.36,0,0,1-1,.77,1.76,1.76,0,0,1,1,.73,2.35,2.35,0,0,1,.31,1.26v.8a2.6,2.6,0,0,0,.09.71,1.14,1.14,0,0,0,.3.51v.14h-1.18a1,1,0,0,1-.29-.58,4.15,4.15,0,0,1-.07-.79v-.78a1.52,1.52,0,0,0-.4-1.1,1.43,1.43,0,0,0-1.08-.42Zm0-.9h1.81a2.13,2.13,0,0,0,1.4-.37,1.41,1.41,0,0,0,.43-1.12,1.43,1.43,0,0,0-.42-1.1,1.85,1.85,0,0,0-1.3-.39h-1.92Z" style="fill: #303030"/>
    <path d="M237.4,36.08h-1.15V28.74l-1.74,0v-.83l2.89-.31Z" style="fill: #303030"/>
  </g>
  <g>
    <path d="M227.72,66.51v3.67h-1.15V61.73h3.07a3.24,3.24,0,0,1,2.13.61,2.2,2.2,0,0,1,.73,1.79,1.89,1.89,0,0,1-.34,1.13,2.36,2.36,0,0,1-1,.77,1.76,1.76,0,0,1,1,.73,2.35,2.35,0,0,1,.31,1.26v.8a2.6,2.6,0,0,0,.09.71,1.14,1.14,0,0,0,.3.51v.14h-1.18a1,1,0,0,1-.29-.58,4.15,4.15,0,0,1-.07-.79V68a1.52,1.52,0,0,0-.4-1.1,1.43,1.43,0,0,0-1.08-.42Zm0-.9h1.81a2.13,2.13,0,0,0,1.4-.37,1.41,1.41,0,0,0,.43-1.12,1.43,1.43,0,0,0-.42-1.1,1.85,1.85,0,0,0-1.3-.39h-1.92Z" style="fill: #303030"/>
    <path d="M239.62,70.18h-5.5v-.79l2.78-3.08a8.46,8.46,0,0,0,1-1.31,2,2,0,0,0,.26-1,1.57,1.57,0,0,0-.37-1.07,1.21,1.21,0,0,0-1-.43,1.66,1.66,0,0,0-1.29.45,1.78,1.78,0,0,0-.42,1.26H234v0a2.4,2.4,0,0,1,.72-1.84,2.91,2.91,0,0,1,2.1-.74,2.5,2.5,0,0,1,1.82.66,2.26,2.26,0,0,1,.68,1.7,2.71,2.71,0,0,1-.41,1.38,9,9,0,0,1-1.15,1.49l-2.23,2.42v0h4.08Z" style="fill: #303030"/>
  </g>
  <g>
    <path d="M238.72,230.51v3.67h-1.15v-8.45h3.07a3.24,3.24,0,0,1,2.13.61,2.2,2.2,0,0,1,.73,1.79,1.89,1.89,0,0,1-.34,1.13,2.36,2.36,0,0,1-1,.77,1.76,1.76,0,0,1,1,.73,2.35,2.35,0,0,1,.31,1.26v.8a2.6,2.6,0,0,0,.09.71,1.08,1.08,0,0,0,.3.51v.14h-1.18a1,1,0,0,1-.29-.58,4.15,4.15,0,0,1-.07-.79V232a1.52,1.52,0,0,0-.4-1.1,1.43,1.43,0,0,0-1.08-.42Zm0-.9h1.81a2.13,2.13,0,0,0,1.4-.37,1.41,1.41,0,0,0,.43-1.12,1.43,1.43,0,0,0-.42-1.1,1.85,1.85,0,0,0-1.3-.39h-1.92Z" style="fill: #303030"/>
    <path d="M248.4,234.18h-1.15v-7.34l-1.74,0V226l2.89-.31Z" style="fill: #303030"/>
  </g>
  <g style="opacity: 0.5">
    <path d="M168,283.5V328a8,8,0,0,1-8,8H1v29.5H244a8,8,0,0,0,8-8v-74a8,8,0,0,0-8-8H176A8,8,0,0,0,168,283.5Z" style="fill: #307dee"/>
  </g>
  <g>
    <path d="M238.72,260.57v3.67h-1.15v-8.45h3.07a3.24,3.24,0,0,1,2.13.61,2.2,2.2,0,0,1,.73,1.79,1.87,1.87,0,0,1-.34,1.13,2.29,2.29,0,0,1-1,.77,1.73,1.73,0,0,1,1,.74,2.32,2.32,0,0,1,.31,1.25v.8a2.6,2.6,0,0,0,.09.71,1.08,1.08,0,0,0,.3.51v.14h-1.18a1,1,0,0,1-.29-.58,4.15,4.15,0,0,1-.07-.79v-.77a1.53,1.53,0,0,0-.4-1.11,1.43,1.43,0,0,0-1.08-.42Zm0-.9h1.81a2.13,2.13,0,0,0,1.4-.37,1.4,1.4,0,0,0,.43-1.12,1.43,1.43,0,0,0-.42-1.1,1.85,1.85,0,0,0-1.3-.39h-1.92Z" style="fill: #303030"/>
    <path d="M250.62,264.24h-5.5v-.79l2.78-3.07a8.93,8.93,0,0,0,1-1.32,2,2,0,0,0,.26-1,1.58,1.58,0,0,0-.37-1.07,1.24,1.24,0,0,0-1-.43,1.66,1.66,0,0,0-1.29.45,1.78,1.78,0,0,0-.42,1.26H245v0a2.4,2.4,0,0,1,.72-1.84,2.91,2.91,0,0,1,2.1-.74,2.46,2.46,0,0,1,1.82.67,2.22,2.22,0,0,1,.68,1.69,2.71,2.71,0,0,1-.41,1.38,8.57,8.57,0,0,1-1.15,1.49l-2.23,2.42v0h4.08Z" style="fill: #303030"/>
  </g>
  <g>
    <path d="M13,350.77a3.57,3.57,0,0,1-1,2.57,3.27,3.27,0,0,1-2.5,1,3.14,3.14,0,0,1-2.42-1,3.71,3.71,0,0,1-.92-2.57v-1.51a3.71,3.71,0,0,1,.92-2.57,3.12,3.12,0,0,1,2.42-1,3.24,3.24,0,0,1,2.5,1,3.57,3.57,0,0,1,1,2.57Zm-1.15-1.52a2.87,2.87,0,0,0-.63-1.91,2.11,2.11,0,0,0-1.69-.74,2,2,0,0,0-1.6.74,3,3,0,0,0-.6,1.91v1.52a2.93,2.93,0,0,0,.6,1.91,1.94,1.94,0,0,0,1.6.75,2.08,2.08,0,0,0,1.69-.75,2.84,2.84,0,0,0,.63-1.91Z" style="fill: #303030"/>
    <path d="M18.45,353.31a2,2,0,0,1-1.84,1.05A2,2,0,0,1,15,353.7a3,3,0,0,1-.58-2V348h1.15v3.72a2.3,2.3,0,0,0,.3,1.38,1.09,1.09,0,0,0,.92.38,1.88,1.88,0,0,0,1-.25,1.54,1.54,0,0,0,.6-.7V348h1.15v6.29h-1Z" style="fill: #303030"/>
    <path d="M22.75,346.44V348h1.19v.85H22.75v3.82a.87.87,0,0,0,.18.62.66.66,0,0,0,.49.18l.21,0,.22-.06.15.78a1,1,0,0,1-.38.17,1.68,1.68,0,0,1-.5.07,1.5,1.5,0,0,1-1.11-.42,1.8,1.8,0,0,1-.41-1.32V348.8h-1V348h1v-1.51Z" style="fill: #303030"/>
  </g>
  <path d="M247,350.77a3.61,3.61,0,0,1-1,2.57,3.3,3.3,0,0,1-2.5,1,3.11,3.11,0,0,1-2.42-1,3.67,3.67,0,0,1-.93-2.57v-1.51a3.67,3.67,0,0,1,.93-2.57,3.09,3.09,0,0,1,2.42-1,3.27,3.27,0,0,1,2.5,1,3.61,3.61,0,0,1,1,2.57Zm-1.15-1.52a2.86,2.86,0,0,0-.63-1.91,2.11,2.11,0,0,0-1.68-.74,2,2,0,0,0-1.61.74,3,3,0,0,0-.59,1.91v1.52a3,3,0,0,0,.59,1.91,2,2,0,0,0,1.61.75,2.09,2.09,0,0,0,1.69-.75,2.88,2.88,0,0,0,.62-1.91Z" style="fill: #303030"/>
  <g>
    <path d="M243.19,292.11a1.22,1.22,0,0,0-.44-1,3.55,3.55,0,0,0-1.55-.65,5.25,5.25,0,0,1-2.1-.95,1.93,1.93,0,0,1-.75-1.56,2.08,2.08,0,0,1,.81-1.66,3.25,3.25,0,0,1,2.11-.66,3.13,3.13,0,0,1,2.22.76,2.25,2.25,0,0,1,.79,1.77v0h-1.1a1.57,1.57,0,0,0-.49-1.2A2.41,2.41,0,0,0,240,287a1.24,1.24,0,0,0-.45,1,1.12,1.12,0,0,0,.49.93,4.75,4.75,0,0,0,1.61.64,4.63,4.63,0,0,1,2,1,2.07,2.07,0,0,1,.7,1.6,2,2,0,0,1-.84,1.64,3.62,3.62,0,0,1-2.19.62,3.8,3.8,0,0,1-2.25-.69,2.07,2.07,0,0,1-.94-1.84v0h1.09a1.44,1.44,0,0,0,.6,1.24,2.54,2.54,0,0,0,1.49.42,2.3,2.3,0,0,0,1.37-.36A1.16,1.16,0,0,0,243.19,292.11Z" style="fill: #303030"/>
    <path d="M248.93,294.24h-1.15V286.9l-1.73,0v-.82l2.88-.32Z" style="fill: #303030"/>
  </g>
  <g>
    <path d="M242.19,322.11a1.22,1.22,0,0,0-.44-1,3.55,3.55,0,0,0-1.55-.65,5.25,5.25,0,0,1-2.1-.95,1.93,1.93,0,0,1-.75-1.56,2.08,2.08,0,0,1,.81-1.66,3.25,3.25,0,0,1,2.11-.66,3.13,3.13,0,0,1,2.22.76,2.25,2.25,0,0,1,.79,1.77v0h-1.1a1.57,1.57,0,0,0-.49-1.2A2.41,2.41,0,0,0,239,317a1.24,1.24,0,0,0-.45,1,1.12,1.12,0,0,0,.49.93,4.75,4.75,0,0,0,1.61.64,4.63,4.63,0,0,1,2,1,2.07,2.07,0,0,1,.7,1.6,2,2,0,0,1-.84,1.64,3.62,3.62,0,0,1-2.19.62,3.8,3.8,0,0,1-2.25-.69,2.07,2.07,0,0,1-.94-1.84v0h1.09a1.44,1.44,0,0,0,.6,1.24,2.54,2.54,0,0,0,1.49.42,2.3,2.3,0,0,0,1.37-.36A1.16,1.16,0,0,0,242.19,322.11Z" style="fill: #303030"/>
    <path d="M250.15,324.24h-5.5v-.79l2.78-3.07a7.7,7.7,0,0,0,1-1.32,2.06,2.06,0,0,0,.27-1,1.64,1.64,0,0,0-.37-1.07,1.26,1.26,0,0,0-1-.43,1.69,1.69,0,0,0-1.3.45,1.78,1.78,0,0,0-.42,1.26h-1.1v0a2.37,2.37,0,0,1,.73-1.84,2.88,2.88,0,0,1,2.1-.74,2.48,2.48,0,0,1,1.82.67,2.26,2.26,0,0,1,.68,1.69,2.71,2.71,0,0,1-.41,1.38,8.67,8.67,0,0,1-1.16,1.49l-2.23,2.42v0h4.08Z" style="fill: #303030"/>
  </g>
  <g>
    <path d="M66.07,4.77,62.22,7.35l2.87,4.86-6,1.82,0-.09,3.82-2.56L60,6.53,66,4.7Z"/>
    <path d="M71.39,14.52H69.12l.41-2.44a4.23,4.23,0,0,1-1.94.46,2.34,2.34,0,0,1-1.3-.33,1,1,0,0,1-.5-.88,1.94,1.94,0,0,1,.81-1.42,4.64,4.64,0,0,1,2-1,3.94,3.94,0,0,1,1.52-.06l.12-.75h.11ZM70,9.28a3.14,3.14,0,0,0-.67-.08,1.8,1.8,0,0,0-1.23.46,1.54,1.54,0,0,0-.48,1.22,1.18,1.18,0,0,0,.27.75.91.91,0,0,0,.69.29,2,2,0,0,0,1-.34Z"/>
    <path d="M75.86,12.54H74.5l.16-1.23a2.69,2.69,0,0,1-2.28,1.33,2.19,2.19,0,0,1-.7-.1L73,8.74l.15,0a5.69,5.69,0,0,0-.07.83c0,.73.17,1.09.5,1.09a.43.43,0,0,0,.19,0,1.77,1.77,0,0,0,.86-.88,3.61,3.61,0,0,0,.45-1.21h.12Z"/>
    <path d="M78.46,8.36l-1.08,4.11h-.11L76.19,8.36Zm.08-1.46-.85.26.22.89-.52-.75-.77.48.54-.72-.69-.58.85.29.34-.83,0,.9Z"/>
    <path d="M83.05,8.66l-1.36,3.8-.15,0a4.43,4.43,0,0,0,.07-.83c0-.72-.16-1.09-.5-1.09a.72.72,0,0,0-.19,0,1.86,1.86,0,0,0-.86.88,3.88,3.88,0,0,0-.46,1.21h-.11l-.62-4h1.35l-.15,1.23a2.74,2.74,0,0,1,2.28-1.33A2.63,2.63,0,0,1,83.05,8.66Z"/>
    <path d="M88,9,86,10.45l1.32,2.35-.09.13-2.32-1.61-.29,1.74h-.12L83.38,6.67h2.28l-.69,4L86.18,9Z"/>
    <path d="M93.35,9.82l-4.3,4.85L89,14.61l.93-2.28L87.47,9.67l2-1,.58,3.19,1.33-3.24Z"/>
    <path d="M101.64,12.14H99.06l.09.57L96.92,13l.14-.9H95.53l0-.12,1.64-.49L98,5.82h.07L98.88,11l2.76-.83Z"/>
    <path d="M107.42,12.43h-2.2l.19-.84a4.17,4.17,0,0,1-1.19.64,3.05,3.05,0,0,1-1.07.2,1.49,1.49,0,0,1-.89-.24.82.82,0,0,1-.34-.68,2,2,0,0,1,.68-1.32,4.14,4.14,0,0,1,1.62-1A3.45,3.45,0,0,1,105.3,9a1.67,1.67,0,0,1,.67.12L106,9h.32Zm-2.07-1.79a1.54,1.54,0,0,0,.12-.57c0-.44-.18-.67-.55-.67a1.21,1.21,0,0,0-.78.37,2.33,2.33,0,0,0-.61.87,1.54,1.54,0,0,0-.12.57c0,.44.19.66.55.66a1.2,1.2,0,0,0,.79-.36A2.2,2.2,0,0,0,105.35,10.64Z"/>
    <path d="M112.58,10a1.91,1.91,0,0,1-.81,1.41,4.47,4.47,0,0,1-2,1,3.8,3.8,0,0,1-.93.11,2.84,2.84,0,0,1-.72-.08l-.08.47H108l-1.08-6.39h2.28l-.48,2.83a4.52,4.52,0,0,1,2.09-.54,2.36,2.36,0,0,1,1.31.34A1,1,0,0,1,112.58,10Zm-1.84.44a1.05,1.05,0,0,0-.27-.74.86.86,0,0,0-.69-.3,2.31,2.31,0,0,0-1.19.44L108.23,12a2.62,2.62,0,0,0,.8.13,1.7,1.7,0,0,0,1.23-.48A1.5,1.5,0,0,0,110.74,10.48Z"/>
    <path d="M117.13,12.22l-3.83.95,0-.06,1.62-1.27-2.07-2.49,3.65-1,0,.05L115,9.66Z"/>
  </g>
  <g>
    <path d="M170.88,6.21l-3.3,1.31,2.56.88v.15L168,9.26l-.46,3.44h-.12l-2.11-6.59h5.57Z"/>
    <path d="M174.14,10a1.88,1.88,0,0,1-.81,1.41,4.49,4.49,0,0,1-2,1,3.91,3.91,0,0,1-.95.11,2.34,2.34,0,0,1-1.3-.33,1,1,0,0,1-.5-.88,1.89,1.89,0,0,1,.8-1.41,4.54,4.54,0,0,1,1.95-1,4.05,4.05,0,0,1,1-.12,2.36,2.36,0,0,1,1.31.34A1,1,0,0,1,174.14,10Zm-1.88,1a1.78,1.78,0,0,0,.16-.75,1.24,1.24,0,0,0-.17-.66.66.66,0,0,0-.58-.33,1,1,0,0,0-.65.29,2,2,0,0,0-.52.73,2.22,2.22,0,0,0-.15.74,1.28,1.28,0,0,0,.17.67.65.65,0,0,0,.57.32,1,1,0,0,0,.66-.28A1.78,1.78,0,0,0,172.26,11Z"/>
    <path d="M177.64,10.72l-1.65.1-.5,2h-.14l-1-3.88h2.06l-.19.77L177.64,9Z"/>
    <path d="M184.67,8.66l-1.37,3.8-.14,0a5.73,5.73,0,0,0,.08-.86c0-.67-.2-1-.6-1a1.44,1.44,0,0,0-1.08.73,3,3,0,0,0-.55,1.25l-.26-.11a5.49,5.49,0,0,0,.06-.83c0-.72-.16-1.09-.48-1.09a.71.71,0,0,0-.2,0,1.86,1.86,0,0,0-.86.88,4.14,4.14,0,0,0-.46,1.21h-.1l-.63-4h1.35l-.14,1.23a2.71,2.71,0,0,1,2.27-1.33,2.63,2.63,0,0,1,.7.1l-.33.92a2.54,2.54,0,0,1,2.74-.92Z"/>
  </g>
  <g>
    <path d="M12.18,324.24H11v-8.46h1.15Z" style="fill: #303030"/>
    <path d="M15.15,318l.09.94a2.36,2.36,0,0,1,.79-.78,2.36,2.36,0,0,1,2.66.32,2.63,2.63,0,0,1,.56,1.84v4H18.1v-3.95a1.67,1.67,0,0,0-.33-1.17,1.31,1.31,0,0,0-1-.35,1.58,1.58,0,0,0-.87.24,1.6,1.6,0,0,0-.61.65v4.58H14.13V318Z" style="fill: #303030"/>
  </g>
</svg>
