<?xml version="1.0" encoding="UTF-8" standalone="no"?>
<svg
   xmlns:dc="http://purl.org/dc/elements/1.1/"
   xmlns:cc="http://creativecommons.org/ns#"
   xmlns:rdf="http://www.w3.org/1999/02/22-rdf-syntax-ns#"
   xmlns:svg="http://www.w3.org/2000/svg"
   xmlns="http://www.w3.org/2000/svg"
   xmlns:sodipodi="http://sodipodi.sourceforge.net/DTD/sodipodi-0.dtd"
   xmlns:inkscape="http://www.inkscape.org/namespaces/inkscape"
   version="1.0"
   id="svg15246"
   x="0px"
   y="0px"
   width="39.6836px"
   height="39.68359px"
   viewBox="0 0 39.6836 39.68359"
   enable-background="new 0 0 39.6836 39.68359"
   xml:space="preserve"
   sodipodi:docname="RoganSLBlue40.svg"
   inkscape:version="1.0.2-2 (e86c870879, 2021-01-15)"><metadata
   id="metadata959"><rdf:RDF><cc:Work
       rdf:about=""><dc:format>image/svg+xml</dc:format><dc:type
         rdf:resource="http://purl.org/dc/dcmitype/StillImage" /></cc:Work></rdf:RDF></metadata><defs
   id="defs957">
	
	
	
	
	
	
	
	
</defs>
<sodipodi:namedview
   bordercolor="#666666"
   borderopacity="1.0"
   fit-margin-bottom="0"
   fit-margin-left="0"
   fit-margin-right="0"
   fit-margin-top="0"
   id="base"
   inkscape:current-layer="svg15246"
   inkscape:cx="34.656219"
   inkscape:cy="23.675099"
   inkscape:document-units="mm"
   inkscape:pageopacity="0.0"
   inkscape:pageshadow="2"
   inkscape:window-height="1001"
   inkscape:window-maximized="1"
   inkscape:window-width="1920"
   inkscape:window-x="-9"
   inkscape:window-y="-9"
   inkscape:zoom="5.6"
   pagecolor="#ffffff"
   showgrid="false"
   units="px"
   inkscape:document-rotation="0">
	</sodipodi:namedview>
<path
   fill="#424242"
   d="m 34.43681,19.84182 c 0,-0.6795 -0.04748,-1.35828 -0.14202,-2.03119 l -0.41997,0.05901 c -0.38271,0.05377 -0.75137,-0.19516 -0.82345,-0.57485 -0.21154,-1.11427 -0.55624,-2.18064 -1.02394,-3.17908 -0.15957,-0.34065 -0.01106,-0.74719 0.32108,-0.92379 l 0.37996,-0.20203 C 31.68759,11.0323 30.21427,9.33735 28.42057,8.03418 26.62687,6.73101 24.55968,5.8535 22.37621,5.46848 L 22.30026,5.89923 C 22.23408,6.27457 21.88649,6.53673 21.5086,6.48719 20.96263,6.41561 20.40741,6.37411 19.84184,6.37411 c -0.56562,0 -1.12085,0.04149 -1.66683,0.11307 C 17.79712,6.53672 17.44953,6.27455 17.38336,5.89922 L 17.30742,5.46852 C 15.12401,5.85346 13.05674,6.73095 11.2631,8.0341 9.46939,9.33731 7.996,11.03219 6.95515,12.98977 l 0.37989,0.20199 C 7.66718,13.36836 7.8157,13.7749 7.65613,14.11555 7.18845,15.114 6.8437,16.18039 6.63214,17.29467 6.56005,17.67436 6.19139,17.92329 5.80867,17.86951 L 5.38877,17.8105 c -0.09455,0.67291 -0.14204,1.35168 -0.14204,2.03119 -2e-5,3.78137 1.46945,7.41853 4.09621,10.13863 l 0.3138,-0.30304 c 0.27206,-0.26273 0.707,-0.27847 0.98315,-0.02004 0.81371,0.76151 1.72267,1.42046 2.70641,1.96265 0.33423,0.18421 0.45507,0.60638 0.28777,0.94938 l -0.19043,0.39043 c 1.99273,0.97187 4.18096,1.47707 6.39806,1.47708 2.2171,1e-5 4.40534,-0.50517 6.39802,-1.47702 l -0.1904,-0.39042 c -0.16728,-0.34302 -0.04643,-0.76518 0.28781,-0.94939 0.98372,-0.54217 1.89263,-1.20109 2.70635,-1.96261 0.27616,-0.25844 0.71111,-0.24271 0.9832,0.02002 l 0.31383,0.30304 c 2.62672,-2.72007 4.09628,-6.3572 4.0963,-10.13858 z"
   id="path922" /><g
   opacity="0.32"
   id="g940">
		<g
   id="g926">
			<path
   d="m 32.02744,14.11568 c 0.04254,0.09076 0.07007,0.18927 0.11053,0.28113 0.13385,0.30274 0.25311,0.61267 0.36444,0.92676 0.07318,0.20734 0.14337,0.41498 0.20654,0.62683 0.10876,0.36316 0.2033,0.73206 0.2821,1.1073 0.01678,0.08038 0.04498,0.15619 0.06036,0.23706 0.07208,0.3797 0.44073,0.62866 0.82342,0.57489 l 0.41998,-0.05902 c 3.1e-4,0.0021 3.7e-4,0.0043 6.7e-4,0.0064 l 1.08002,-0.15179 c -0.25622,-1.85193 -0.82322,-3.60327 -1.66679,-5.19007 l -0.98645,0.52453 c 0.0019,0.0035 0.0043,0.0066 0.0062,0.01019 l -0.45337,0.24109 c -0.27362,0.19556 -0.39343,0.55353 -0.24768,0.86475 z"
   id="path924" />
		</g>
		<g
   id="g930">
			<path
   d="m 5.80867,17.86946 c 0.38275,0.05383 0.7514,-0.19513 0.82349,-0.57483 0.01538,-0.08093 0.04364,-0.15674 0.06043,-0.23712 0.07855,-0.37427 0.17292,-0.74213 0.28132,-1.10437 0.06366,-0.21368 0.13434,-0.42309 0.20819,-0.6322 0.11115,-0.31329 0.23004,-0.62256 0.36359,-0.92456 0.04047,-0.0918 0.06799,-0.19012 0.11048,-0.28082 0.14575,-0.31128 0.026,-0.66919 -0.24768,-0.86481 L 6.95518,13.00972 c 0.00189,-0.0035 0.00433,-0.0067 0.00623,-0.01019 L 5.97496,12.47499 c -0.84357,1.58679 -1.4106,3.33813 -1.66683,5.19012 l 1.08002,0.1518 c 3.1e-4,-0.0021 3.7e-4,-0.0043 6.7e-4,-0.0064 z"
   id="path928" />
		</g>
		<g
   id="g934">
			<path
   d="m 13.63411,32.56927 c 0.16345,-0.33514 0.04846,-0.74249 -0.26849,-0.93305 -0.9953,-0.54725 -1.91229,-1.21253 -2.73369,-1.98396 -0.25696,-0.23371 -0.64062,-0.22718 -0.91089,-0.0171 l -0.37805,0.36511 c -0.00226,-0.0023 -0.00415,-0.005 -0.00641,-0.0073 L 8.56387,30.7391 c 1.2647,1.30732 2.75615,2.38661 4.40855,3.19326 l 0.47388,-0.97155 c -8.5e-4,-4.3e-4 -0.0018,-6.7e-4 -0.0026,-0.0011 z"
   id="path932" />
		</g>
		<g
   id="g938">
			<path
   d="m 29.0516,29.65235 c -0.82135,0.77136 -1.73835,1.4367 -2.73359,1.98387 -0.31702,0.19049 -0.43213,0.59796 -0.26868,0.93311 l 0.19043,0.39044 c -8.5e-4,4.3e-4 -0.0018,6.7e-4 -0.0026,0.0011 l 0.47387,0.97156 c 1.65241,-0.80663 3.14393,-1.88591 4.40865,-3.19322 -0.21863,-0.21106 -0.47217,-0.45593 -0.7727,-0.74616 -0.0023,0.0024 -0.0041,0.0049 -0.0064,0.0073 L 29.96259,29.6353 c -0.27015,-0.21014 -0.654,-0.21674 -0.91096,0.01703 z"
   id="path936" />
		</g>
	</g><path
   fill="#333333"
   d="M 23.05363,1.60266 22.61765,3.80389 V 4.1333 c 0.08862,-0.37518 0.45539,-0.6286 0.836,-0.54394 2.22162,0.49409 4.3211,1.4396 6.16649,2.78036 1.84545,1.34077 3.39342,3.04536 4.54978,5.00557 0.20532,0.34796 0.0664,0.79944 -0.29035,0.98907 l -0.17084,0.09082 c 0.84356,1.5868 1.41057,3.33814 1.66679,5.19007 l 0.21173,-0.02978 c 0.39954,-0.05609 0.7763,0.22656 0.81469,0.62818 0.05041,0.52661 0.07568,1.05542 0.07568,1.58472 -2e-5,4.06311 -1.48862,7.98022 -4.16753,11.0131 -0.26789,0.30334 -0.74072,0.31213 -1.0318,0.031 -0.04638,-0.0448 -0.10687,-0.10321 -0.15863,-0.1532 -1.26472,1.3073 -2.75618,2.38659 -4.40858,3.19322 l 0.09918,0.20343 c 0.17749,0.36395 0.02374,0.81281 -0.34772,0.974 -2.08716,0.90539 -4.34058,1.37419 -6.62079,1.37418 -2.28027,-1e-5 -4.53369,-0.46883 -6.62078,-1.37424 -0.37152,-0.16119 -0.52527,-0.61005 -0.34777,-0.974 l 0.09924,-0.20343 C 11.32004,33.10578 9.82859,32.02649 8.56389,30.71917 L 8.40648,30.87121 C 8.11534,31.15234 7.64134,31.1447 7.3734,30.84142 4.69452,27.80845 3.20601,23.89133 3.20603,19.82822 c 0,-0.52924 0.02521,-1.05811 0.07563,-1.58472 0.03845,-0.40161 0.41516,-0.68426 0.8147,-0.62811 l 0.21179,0.02979 C 4.56438,15.79319 5.13141,14.04185 5.97498,12.45506 L 5.80414,12.36424 C 5.44739,12.1746 5.30848,11.72312 5.51374,11.3751 6.67018,9.41496 8.21816,7.71038 10.06357,6.36963 11.90904,5.02882 14.00853,4.08339 16.23015,3.58932 16.61071,3.50467 16.9774,3.7579 17.06609,4.13309 V 3.80387 L 16.63019,1.60264 C 7.99058,3.12456 1.42084,10.64974 1.4208,19.72573 c -5e-5,10.17365 8.24729,18.42106 18.42094,18.4211 10.17365,5e-5 18.42106,-8.24729 18.4211,-18.42093 4e-5,-9.07605 -6.56962,-16.60129 -15.20921,-18.12324 z"
   id="path942" /><path
   opacity="0.35"
   d="M 19.84196,1.4e-4 C 8.88365,1e-4 1.3e-4,8.88336 9e-5,19.84186 5e-5,30.80011 8.88349,39.68357 19.84181,39.68361 30.80012,39.68366 39.68364,30.80027 39.68369,19.84202 39.68373,8.88352 30.80028,1.9e-4 19.84196,1.4e-4 Z m -2.1e-4,38.14673 C 9.66811,38.14683 1.42076,29.89948 1.42087,19.72565 1.4209,10.64973 7.99063,3.12461 16.63023,1.60267 L 16.559,1.2428 C 16.53031,1.09754 16.57005,0.94544 16.66789,0.82654 16.70347,0.78333 16.75004,0.75232 16.79643,0.72156 L 16.8264,0.69397 c 0.98212,-0.15527 1.98926,-0.23608 3.01557,-0.23607 1.02106,0 2.02307,0.07984 3.00036,0.23365 l 0.04523,0.03027 c 0.04633,0.03052 0.09283,0.06152 0.12842,0.10474 0.09827,0.11939 0.13757,0.271 0.10895,0.41626 L 23.0537,1.60268 c 8.63958,1.52201 15.20926,9.04718 15.20922,18.12335 -1.1e-4,10.1736 -8.24752,18.42088 -18.42117,18.42084 z"
   id="path944" /><rect
   x="17.066019"
   y="4.6366901"
   fill="#384ccf"
   width="5.55161"
   height="9.9718103"
   id="rect946"
   style="fill:#307dee;fill-opacity:1" /><path
   opacity="0.58"
   fill="#384ccf"
   d="M 23.12485,1.2002 C 23.15351,1.05473 23.11421,0.90306 23.01594,0.78384 22.92177,0.66936 22.78501,0.59644 22.63106,0.57821 21.71144,0.47029 20.77298,0.41523 19.8419,0.41523 c -0.9315,0 -1.86995,0.05504 -2.78876,0.16296 -0.15436,0.01823 -0.29112,0.09114 -0.38529,0.20562 -0.09786,0.11885 -0.13758,0.27089 -0.10892,0.41636 l 0.50714,2.56094 v -0.0051 l 5.55161,3e-5 v 0.00511 z"
   id="path948" /><path
   opacity="0.4"
   d="M 5.80413,12.36424 C 5.44738,12.1746 5.30847,11.72312 5.51373,11.3751 6.67017,9.41496 8.21815,7.71038 10.06356,6.36963 11.90903,5.02882 14.00852,4.08339 16.23014,3.58932 16.6107,3.50467 16.97739,3.7579 17.06608,4.13309 l -10e-6,1.39227 c -2.0932,0.40594 -4.07642,1.25431 -5.80299,2.50876 -1.79371,1.30321 -3.2671,2.99809 -4.30794,4.95567 z m -0.41604,5.4527 c -0.09387,0.67077 -0.14136,1.34741 -0.14137,2.02478 -2e-5,3.78137 1.46945,7.41853 4.09621,10.13863 L 8.40646,30.87122 C 8.11532,31.15235 7.64132,31.14471 7.37338,30.84143 4.6945,27.80846 3.20599,23.89134 3.20601,19.82823 c 0,-0.52924 0.02521,-1.05811 0.07563,-1.58472 0.03845,-0.40161 0.41516,-0.68426 0.8147,-0.62811 z m 20.85162,15.14285 c -1.99268,0.97186 -4.18091,1.47703 -6.39802,1.47702 -2.21613,-1e-5 -4.40326,-0.5049 -6.39538,-1.47598 l -0.57313,1.15503 c -0.17749,0.36395 -0.02375,0.81281 0.34777,0.974 2.08709,0.90541 4.34051,1.37423 6.62078,1.37424 2.28021,10e-6 4.53363,-0.46879 6.62079,-1.37418 0.37146,-0.16119 0.52521,-0.61004 0.34772,-0.974 l -0.57049,-1.15613 c -8.5e-4,4.3e-4 -0.0018,6.7e-4 -0.0026,0.0011 m 6.4913,-19.97098 C 31.68757,11.03232 30.21425,9.33737 28.42055,8.0342 26.69399,6.7798 24.71084,5.9314 22.61764,5.52538 l 10e-6,-1.39209 c 0.08862,-0.37518 0.45539,-0.6286 0.836,-0.54394 2.22162,0.49409 4.3211,1.4396 6.16649,2.78036 1.84545,1.34077 3.39342,3.04536 4.54978,5.00557 0.20532,0.34796 0.0664,0.79944 -0.29035,0.98907 z m 1.56706,4.8271 m -3.95502,12.16343 c 2.62672,-2.72008 4.09628,-6.35722 4.0963,-10.13859 0,-0.6795 -0.04748,-1.35828 -0.14202,-2.03119 l 1.29248,-0.19518 c 0.39954,-0.05609 0.7763,0.22656 0.81469,0.62818 0.05041,0.52661 0.07568,1.05542 0.07568,1.58472 -2e-5,4.06311 -1.48862,7.98022 -4.16753,11.0131 -0.26789,0.30334 -0.74072,0.31213 -1.0318,0.031 z"
   id="path950" /><rect
   x="17.06604"
   y="3.7611301"
   opacity="0.58"
   fill="#586fd1"
   width="5.55161"
   height="0.87555999"
   id="rect952" />
</svg>
