<?xml version="1.0" encoding="UTF-8" standalone="no"?>
<svg
   xmlns:dc="http://purl.org/dc/elements/1.1/"
   xmlns:cc="http://creativecommons.org/ns#"
   xmlns:rdf="http://www.w3.org/1999/02/22-rdf-syntax-ns#"
   xmlns:svg="http://www.w3.org/2000/svg"
   xmlns="http://www.w3.org/2000/svg"
   xmlns:sodipodi="http://sodipodi.sourceforge.net/DTD/sodipodi-0.dtd"
   xmlns:inkscape="http://www.inkscape.org/namespaces/inkscape"
   version="1.0"
   id="svg15246"
   x="0px"
   y="0px"
   width="30"
   height="30"
   viewBox="0 0 29.999999 30"
   enable-background="new 0 0 39.6836 39.68359"
   xml:space="preserve"
   sodipodi:docname="RoganSLBlue30.svg"
   inkscape:version="1.0.2-2 (e86c870879, 2021-01-15)"><metadata
   id="metadata3984"><rdf:RDF><cc:Work
       rdf:about=""><dc:format>image/svg+xml</dc:format><dc:type
         rdf:resource="http://purl.org/dc/dcmitype/StillImage" /><dc:title /></cc:Work></rdf:RDF></metadata><defs
   id="defs3982">
	
	
	
	
	
	
	
	
</defs>
<sodipodi:namedview
   bordercolor="#666666"
   borderopacity="1.0"
   fit-margin-bottom="0"
   fit-margin-left="0"
   fit-margin-right="0"
   fit-margin-top="0"
   id="base"
   inkscape:current-layer="svg15246"
   inkscape:cx="34.656219"
   inkscape:cy="23.675099"
   inkscape:document-units="mm"
   inkscape:pageopacity="0.0"
   inkscape:pageshadow="2"
   inkscape:window-height="1001"
   inkscape:window-maximized="1"
   inkscape:window-width="1920"
   inkscape:window-x="-9"
   inkscape:window-y="-9"
   inkscape:zoom="5.6"
   pagecolor="#ffffff"
   showgrid="false"
   units="px"
   inkscape:document-rotation="0">
	</sodipodi:namedview>
<path
   fill="#424242"
   d="m 26.033554,15.000098 c 0,-0.51369 -0.03589,-1.026835 -0.107364,-1.535544 l -0.317489,0.04461 c -0.289321,0.04065 -0.56802,-0.147538 -0.622511,-0.434576 -0.15992,-0.842369 -0.420506,-1.648526 -0.774078,-2.403328 -0.120632,-0.257526 -0.0084,-0.564863 0.24273,-0.6983693 L 24.742084,9.8201606 C 23.9552,8.3402572 22.841399,7.0589051 21.485399,6.0737317 20.129398,5.0885583 18.566644,4.4251763 16.915984,4.134108 l -0.05742,0.3256394 c -0.05003,0.2837504 -0.312802,0.4819387 -0.598479,0.4444873 -0.412742,-0.054113 -0.832478,-0.085487 -1.260037,-0.085487 -0.427597,0 -0.84734,0.031366 -1.26009,0.085479 -0.285677,0.037451 -0.548448,-0.1607445 -0.598471,-0.4444874 l -0.0574,-0.325601 C 11.433468,4.4251461 9.8706535,5.088513 8.5146979,6.0736712 7.1586894,7.0588749 6.0448364,8.3401741 5.2579748,9.8200698 L 5.545164,9.9727707 C 5.7962551,10.106277 5.9085332,10.413614 5.7879015,10.67114 5.4343449,11.42595 5.1737209,12.232122 5.0137858,13.074498 4.9592872,13.361537 4.6805877,13.549723 4.3912591,13.509067 L 4.0738232,13.464456 C 4.0023453,13.973164 3.9664438,14.486302 3.9664438,15 c -1.51e-5,2.858648 1.1108745,5.608277 3.096652,7.664624 l 0.2372264,-0.229093 c 0.2056719,-0.198619 0.5344778,-0.210518 0.7432416,-0.01515 0.6151483,0.575689 1.3023037,1.073843 2.0459912,1.483729 0.252671,0.13926 0.344024,0.458413 0.217548,0.717715 l -0.143961,0.295158 c 1.506464,0.734716 3.160721,1.116638 4.836804,1.116646 1.676083,7e-6 3.330348,-0.3819 4.836774,-1.116601 l -0.143939,-0.295151 c -0.12646,-0.259317 -0.0351,-0.578462 0.217579,-0.717722 0.743672,-0.40987 1.43079,-0.908002 2.045946,-1.483698 0.208771,-0.195376 0.537585,-0.183484 0.743279,0.01514 l 0.237249,0.229093 c 1.985748,-2.056325 3.096705,-4.805931 3.09672,-7.664587 z"
   id="path3947"
   style="stroke-width:0.755981" /><g
   opacity="0.32"
   id="g3965"
   transform="matrix(0.75597979,0,0,0.75598226,2.1961786e-5,3.416245e-5)">
		<g
   id="g3951">
			<path
   d="m 32.02744,14.11568 c 0.04254,0.09076 0.07007,0.18927 0.11053,0.28113 0.13385,0.30274 0.25311,0.61267 0.36444,0.92676 0.07318,0.20734 0.14337,0.41498 0.20654,0.62683 0.10876,0.36316 0.2033,0.73206 0.2821,1.1073 0.01678,0.08038 0.04498,0.15619 0.06036,0.23706 0.07208,0.3797 0.44073,0.62866 0.82342,0.57489 l 0.41998,-0.05902 c 3.1e-4,0.0021 3.7e-4,0.0043 6.7e-4,0.0064 l 1.08002,-0.15179 c -0.25622,-1.85193 -0.82322,-3.60327 -1.66679,-5.19007 l -0.98645,0.52453 c 0.0019,0.0035 0.0043,0.0066 0.0062,0.01019 l -0.45337,0.24109 c -0.27362,0.19556 -0.39343,0.55353 -0.24768,0.86475 z"
   id="path3949" />
		</g>
		<g
   id="g3955">
			<path
   d="m 5.80867,17.86946 c 0.38275,0.05383 0.7514,-0.19513 0.82349,-0.57483 0.01538,-0.08093 0.04364,-0.15674 0.06043,-0.23712 0.07855,-0.37427 0.17292,-0.74213 0.28132,-1.10437 0.06366,-0.21368 0.13434,-0.42309 0.20819,-0.6322 0.11115,-0.31329 0.23004,-0.62256 0.36359,-0.92456 0.04047,-0.0918 0.06799,-0.19012 0.11048,-0.28082 0.14575,-0.31128 0.026,-0.66919 -0.24768,-0.86481 L 6.95518,13.00972 c 0.00189,-0.0035 0.00433,-0.0067 0.00623,-0.01019 L 5.97496,12.47499 c -0.84357,1.58679 -1.4106,3.33813 -1.66683,5.19012 l 1.08002,0.1518 c 3.1e-4,-0.0021 3.7e-4,-0.0043 6.7e-4,-0.0064 z"
   id="path3953" />
		</g>
		<g
   id="g3959">
			<path
   d="m 13.63411,32.56927 c 0.16345,-0.33514 0.04846,-0.74249 -0.26849,-0.93305 -0.9953,-0.54725 -1.91229,-1.21253 -2.73369,-1.98396 -0.25696,-0.23371 -0.64062,-0.22718 -0.91089,-0.0171 l -0.37805,0.36511 c -0.00226,-0.0023 -0.00415,-0.005 -0.00641,-0.0073 L 8.56387,30.7391 c 1.2647,1.30732 2.75615,2.38661 4.40855,3.19326 l 0.47388,-0.97155 c -8.5e-4,-4.3e-4 -0.0018,-6.7e-4 -0.0026,-0.0011 z"
   id="path3957" />
		</g>
		<g
   id="g3963">
			<path
   d="m 29.0516,29.65235 c -0.82135,0.77136 -1.73835,1.4367 -2.73359,1.98387 -0.31702,0.19049 -0.43213,0.59796 -0.26868,0.93311 l 0.19043,0.39044 c -8.5e-4,4.3e-4 -0.0018,6.7e-4 -0.0026,0.0011 l 0.47387,0.97156 c 1.65241,-0.80663 3.14393,-1.88591 4.40865,-3.19322 -0.21863,-0.21106 -0.47217,-0.45593 -0.7727,-0.74616 -0.0023,0.0024 -0.0041,0.0049 -0.0064,0.0073 L 29.96259,29.6353 c -0.27015,-0.21014 -0.654,-0.21674 -0.91096,0.01703 z"
   id="path3961" />
		</g>
	</g><path
   fill="#333333"
   d="m 17.4281,1.2116167 -0.329592,1.6640908 v 0.2490281 c 0.067,-0.2836294 0.344266,-0.4752104 0.631999,-0.411209 1.6795,0.3735233 3.266665,1.0883121 4.661742,2.1019029 1.395123,1.0135983 2.565357,2.3022381 3.439542,3.7841221 0.155218,0.2630516 0.0502,0.6043625 -0.219499,0.7477194 l -0.129151,0.068658 c 0.637714,1.199593 1.066362,2.523575 1.260059,3.923601 l 0.160064,-0.02251 c 0.302044,-0.0424 0.586867,0.171275 0.615889,0.474893 0.03811,0.398108 0.05721,0.797879 0.05721,1.19802 -1.5e-5,3.071639 -1.125366,6.032905 -3.150568,8.325708 -0.202519,0.22932 -0.559969,0.235965 -0.78002,0.02344 -0.03506,-0.03387 -0.08079,-0.07803 -0.119921,-0.115817 -0.956103,0.988296 -2.083616,1.80422 -3.332797,2.414018 l 0.07498,0.153789 c 0.134179,0.27514 0.01795,0.61447 -0.26287,0.736327 -1.57785,0.684459 -3.28139,1.038863 -5.005183,1.038856 -1.723838,-8e-6 -3.427378,-0.354427 -5.0051759,-1.038901 C 9.7139465,26.405489 9.5977146,26.066159 9.731901,25.791019 L 9.8069244,25.63723 C 8.5577434,25.027417 7.4302374,24.211492 6.4741497,23.223182 L 6.3551509,23.338121 C 6.135055,23.550651 5.7767206,23.544875 5.5741633,23.315601 3.5489842,21.022729 2.4237007,18.061456 2.4237158,14.989817 c 0,-0.400096 0.019058,-0.799913 0.057175,-1.19802 0.029067,-0.303611 0.3138526,-0.517289 0.6158967,-0.47484 l 0.160109,0.02252 C 3.450601,11.939406 3.8792642,10.615424 4.5169861,9.4158386 L 4.3878345,9.3471803 C 4.1181387,9.2038158 4.0131256,8.8625049 4.168298,8.599408 5.0425432,7.1175769 6.2127848,5.8289447 7.6078775,4.8153614 9.0030155,3.8017329 10.590188,3.0870046 12.269687,2.7134964 c 0.287696,-0.063994 0.564906,0.1274435 0.631954,0.4110805 V 2.8756924 L 12.57211,1.2116016 C 6.040739,2.3621461 1.0741483,8.0510487 1.074118,14.912336 c -3.78e-5,7.691099 6.2347846,13.925995 13.925858,13.926025 7.691074,3.8e-5 13.925949,-6.234805 13.92598,-13.925896 3e-5,-6.8613332 -4.9665,-12.5502811 -11.497856,-13.7008483 z"
   id="path3967"
   style="stroke-width:0.755981" /><path
   opacity="0.35"
   d="M 15.000143,1.3999997e-4 C 6.7158818,1.0976068e-4 1.2023916e-4,6.7156967 8.9999967e-5,15.000128 5.9760775e-5,23.284371 6.7157609,30.000109 15.000029,30.000139 23.28429,30.000177 30.000052,23.284492 30.00009,15.000249 30.00012,6.7158177 23.284411,1.7779908e-4 15.000143,1.3999997e-4 Z M 14.999984,28.838391 C 7.3089177,28.838361 1.0740878,22.603511 1.074171,14.912276 1.0741936,8.0510411 6.0407768,2.3621839 12.57214,1.2116243 L 12.51829,0.93956892 c -0.02169,-0.10981399 0.0084,-0.22479889 0.08232,-0.31468518 0.0269,-0.032666 0.0621,-0.056109 0.09717,-0.079363 l 0.02266,-0.0208576 c 0.742463,-0.11738136 1.503841,-0.17847229 2.27971,-0.17846473 0.771901,0 1.5294,0.0603576 2.268212,0.17663525 l 0.03419,0.0228836 c 0.03502,0.0230726 0.07018,0.046508 0.09708,0.0791816 0.07429,0.0902567 0.104,0.20487119 0.08236,0.31468517 l -0.05385,0.27204777 c 6.531348,1.1506126 11.497893,6.8395076 11.497863,13.7009312 -8.3e-5,7.691061 -6.234958,13.925858 -13.926032,13.925828 z"
   id="path3969"
   style="stroke-width:0.755981" /><rect
   x="12.901587"
   y="3.5052896"
   fill="#384ccf"
   width="4.1969051"
   height="7.5385118"
   id="rect3971"
   style="stroke-width:0.755981;fill:#307dee;fill-opacity:1" /><path
   opacity="0.58"
   fill="#384ccf"
   d="M 17.481941,0.90736407 C 17.503611,0.79739133 17.473941,0.6827315 17.399611,0.5926033 17.328421,0.5060584 17.225033,0.45093222 17.10865,0.43715067 16.413436,0.35556507 15.703979,0.31394068 15.000101,0.31394068 c -0.704195,0 -1.413644,0.0416093 -2.108246,0.12319487 -0.116693,0.0137816 -0.220081,0.0689002 -0.291271,0.15544507 -0.07398,0.0898485 -0.104008,0.20478803 -0.08234,0.31476077 l 0.383388,1.93602521 v -0.00386 l 4.196905,2.27e-5 v 0.00386 z"
   id="path3973"
   style="stroke-width:0.755981" /><path
   opacity="0.4"
   d="M 4.3878269,9.3471803 C 4.1181312,9.2038158 4.013118,8.8625049 4.1682904,8.599408 5.0425357,7.1175769 6.2127773,5.8289447 7.6078699,4.8153614 9.003008,3.8017329 10.59018,3.0870046 12.26968,2.7134964 c 0.287695,-0.063994 0.564906,0.1274435 0.631954,0.4110805 l -8e-6,1.0525314 C 11.319209,4.4839917 9.8199348,5.1253444 8.5146828,6.0736864 7.1586743,7.05889 6.0448212,8.3401892 5.2579672,9.820085 Z M 4.0733091,13.469325 c -0.070964,0.50709 -0.1068653,1.018618 -0.1068729,1.530697 -1.51e-5,2.858649 1.1108745,5.608278 3.096652,7.664625 L 6.3551358,23.338129 C 6.1350399,23.550658 5.7767055,23.544882 5.5741482,23.315608 3.5489691,21.022737 2.4236856,18.061463 2.4237007,14.989824 c 0,-0.400096 0.019058,-0.799912 0.057175,-1.19802 0.029067,-0.30361 0.3138525,-0.517288 0.6158967,-0.47484 z M 19.836712,24.917051 c -1.506425,0.734709 -3.160683,1.116608 -4.836773,1.116601 -1.67535,-8e-6 -3.328776,-0.381696 -4.834778,-1.115815 l -0.4332751,0.873182 c -0.1341789,0.27514 -0.017955,0.61447 0.2629071,0.736327 1.577798,0.684474 3.281338,1.038893 5.005176,1.038901 1.723793,7e-6 3.427332,-0.354397 5.005183,-1.038856 0.280817,-0.121857 0.397048,-0.461179 0.26287,-0.736327 l -0.431279,-0.874013 c -6.43e-4,3.25e-4 -0.0014,5.06e-4 -0.002,8.31e-4 M 24.742069,9.8201757 C 23.955184,8.3402724 22.841384,7.0589202 21.485383,6.0737468 20.180139,5.1254427 18.680918,4.4840673 17.098501,4.1771234 l 7e-6,-1.0523953 c 0.067,-0.2836294 0.344266,-0.4752105 0.631999,-0.411209 1.6795,0.3735233 3.266665,1.088312 4.661742,2.1019028 1.395123,1.0135984 2.565357,2.3022382 3.439542,3.7841221 0.155218,0.2630516 0.0502,0.6043625 -0.219499,0.7477194 z m 1.184665,3.6492023 m -2.989915,9.195337 c 1.985747,-2.056332 3.096705,-4.805946 3.09672,-7.664594 0,-0.51369 -0.03589,-1.026836 -0.107364,-1.535544 l 0.977089,-0.147552 c 0.302044,-0.0424 0.586867,0.171275 0.615889,0.474892 0.03811,0.398108 0.05721,0.797879 0.05721,1.198021 -1.5e-5,3.071639 -1.125366,6.032904 -3.150568,8.325708 -0.202519,0.22932 -0.559969,0.235965 -0.78002,0.02343 z"
   id="path3975"
   style="stroke-width:0.755981" /><rect
   x="12.901604"
   y="2.8433819"
   opacity="0.58"
   fill="#586fd1"
   width="4.1969051"
   height="0.66190779"
   id="rect3977"
   style="stroke-width:0.755981" />
</svg>
