<svg xmlns="http://www.w3.org/2000/svg" xmlns:xlink="http://www.w3.org/1999/xlink" width="240" height="380" viewBox="0 0 240 380">
  <defs>
    <clipPath id="clip-samp_panel">
      <rect width="240" height="380"/>
    </clipPath>
  </defs>
  <g id="samp_panel" clip-path="url(#clip-samp_panel)">
    <rect width="240" height="380" fill="#353535"/>
    <path id="Path_1" data-name="Path 1" d="M7.875-2.8a1.841,1.841,0,0,0-.664-1.5A7.012,7.012,0,0,0,4.781-5.34,8.515,8.515,0,0,1,2.2-6.422,2.554,2.554,0,0,1,1.047-8.594a2.545,2.545,0,0,1,1.074-2.121,4.412,4.412,0,0,1,2.746-.816,4.555,4.555,0,0,1,2.027.438A3.318,3.318,0,0,1,8.281-9.875a3.2,3.2,0,0,1,.492,1.742H7.8a2.39,2.39,0,0,0-.8-1.877,3.1,3.1,0,0,0-2.141-.709,3.372,3.372,0,0,0-2.078.583,1.819,1.819,0,0,0-.773,1.522,1.722,1.722,0,0,0,.7,1.416,6.445,6.445,0,0,0,2.227.966,10.465,10.465,0,0,1,2.32.868A3.307,3.307,0,0,1,8.445-4.289a2.688,2.688,0,0,1,.4,1.477A2.571,2.571,0,0,1,7.77-.656,4.575,4.575,0,0,1,4.938.156,5.551,5.551,0,0,1,2.73-.273a3.371,3.371,0,0,1-1.523-1.2A3.106,3.106,0,0,1,.688-3.25h.961a2.271,2.271,0,0,0,.9,1.9,3.8,3.8,0,0,0,2.391.7A3.544,3.544,0,0,0,7.07-1.242,1.832,1.832,0,0,0,7.875-2.8Zm9.3-2.523h-5.3V0h-.961V-11.375h7.047v.813H11.875v4.43h5.3ZM20.344-.812h7.023V0H19.18V-.727l6.75-9.836H19.383v-.812h7.734v.681Zm13.992-3.82V0h-.961V-11.375H37.25a4.085,4.085,0,0,1,2.8.906,3.151,3.151,0,0,1,1.027,2.492A3.122,3.122,0,0,1,40.09-5.5a4.2,4.2,0,0,1-2.863.871Zm0-.812H37.25a3.075,3.075,0,0,0,2.133-.665,2.375,2.375,0,0,0,.734-1.854,2.485,2.485,0,0,0-.73-1.882,2.93,2.93,0,0,0-2.074-.716H34.336ZM44.055,0h-.937V-12h.938ZM51.93,0a4.421,4.421,0,0,1-.18-1.18A3.26,3.26,0,0,1,50.5-.191a3.84,3.84,0,0,1-1.613.348,2.834,2.834,0,0,1-1.973-.68,2.214,2.214,0,0,1-.754-1.719A2.262,2.262,0,0,1,47.184-4.2a4.936,4.936,0,0,1,2.863-.719h1.7v-.961A1.852,1.852,0,0,0,51.184-7.3a2.309,2.309,0,0,0-1.629-.52,2.549,2.549,0,0,0-1.617.5,1.486,1.486,0,0,0-.641,1.2l-.937-.008A2.174,2.174,0,0,1,47.3-7.871a3.61,3.61,0,0,1,2.3-.738,3.293,3.293,0,0,1,2.23.707,2.537,2.537,0,0,1,.84,1.973v4A4.961,4.961,0,0,0,52.93-.094V0ZM48.992-.672a3.139,3.139,0,0,0,1.676-.453,2.666,2.666,0,0,0,1.074-1.211V-4.2H50.07a4.189,4.189,0,0,0-2.187.512,1.536,1.536,0,0,0-.789,1.363,1.511,1.511,0,0,0,.527,1.18A1.987,1.987,0,0,0,48.992-.672Zm8.734-.672L60.2-8.453H61.2L57.594,1.438l-.187.438a2.27,2.27,0,0,1-2.148,1.539,2.622,2.622,0,0,1-.719-.109l-.008-.773.484.047a1.731,1.731,0,0,0,1.113-.34,2.579,2.579,0,0,0,.723-1.168L57.266-.07,54.078-8.453H55.1ZM65.82.156a3.67,3.67,0,0,1-1.949-.531,3.62,3.62,0,0,1-1.355-1.48,4.616,4.616,0,0,1-.484-2.129V-4.32a4.974,4.974,0,0,1,.473-2.2A3.76,3.76,0,0,1,63.82-8.051a3.248,3.248,0,0,1,1.828-.559A3.052,3.052,0,0,1,68.09-7.559a4.262,4.262,0,0,1,.9,2.871v.523H62.961v.18a3.539,3.539,0,0,0,.824,2.395,2.622,2.622,0,0,0,2.074.957,3.046,3.046,0,0,0,1.324-.273,2.937,2.937,0,0,0,1.043-.875l.586.445A3.411,3.411,0,0,1,65.82.156Zm-.172-7.969a2.337,2.337,0,0,0-1.777.773,3.573,3.573,0,0,0-.879,2.078h5.07v-.1a3.1,3.1,0,0,0-.7-1.984A2.155,2.155,0,0,0,65.648-7.812Zm9.07.156a3.492,3.492,0,0,0-.633-.055,2.283,2.283,0,0,0-1.48.488A2.674,2.674,0,0,0,71.742-5.8V0h-.93V-8.453h.914l.016,1.344a2.486,2.486,0,0,1,2.383-1.5,1.538,1.538,0,0,1,.617.1Z" transform="translate(82 24)" fill="#fff"/>
    <path id="Path_11" data-name="Path 11" d="M11.988-13.788,5.058-9.144,10.224-.4-.612,2.88l-.054-.162L6.21-1.89l-5.2-8.73,10.926-3.294Zm9.576,17.55H17.478L18.216-.63A7.707,7.707,0,0,1,14.724.2,4.177,4.177,0,0,1,12.384-.4a1.818,1.818,0,0,1-.9-1.584,3.489,3.489,0,0,1,1.458-2.556A8.143,8.143,0,0,1,16.47-6.282a6.643,6.643,0,0,1,2.736-.108l.216-1.35h.2ZM19.08-5.67a5.413,5.413,0,0,0-1.206-.144,3.149,3.149,0,0,0-2.214.828,2.753,2.753,0,0,0-.864,2.2,2.025,2.025,0,0,0,.486,1.341,1.574,1.574,0,0,0,1.242.531,3.776,3.776,0,0,0,1.854-.612ZM29.61.2H27.162l.288-2.214a4.872,4.872,0,0,1-4.1,2.394A4.1,4.1,0,0,1,22.086.2l2.448-6.84.27.054a8.654,8.654,0,0,0-.126,1.494q0,1.962.9,1.962A.921.921,0,0,0,25.92-3.2a3.269,3.269,0,0,0,1.548-1.584,6.586,6.586,0,0,0,.81-2.178h.216ZM34.434-9.954l-1.548.468.4,1.584-.936-1.332-1.368.864.972-1.3L30.708-10.71l1.53.522.612-1.494-.036,1.62ZM34.29-7.326,32.346.072h-.2L30.2-7.326Zm8.262.54L40.1.054,39.834,0a8.654,8.654,0,0,0,.126-1.494q0-1.962-.9-1.962a.921.921,0,0,0-.342.072A3.269,3.269,0,0,0,37.17-1.8,6.727,6.727,0,0,0,36.342.378h-.2L35.028-6.786h2.43l-.27,2.214a4.872,4.872,0,0,1,4.1-2.394A4.322,4.322,0,0,1,42.552-6.786Zm8.982.558L47.79-3.564,50.166.666,50,.9,45.828-2l-.522,3.132H45.09l-1.944-11.5h4.1L46.008-3.1l2.178-3.132Zm10.8,1.53-7.74,8.73-.162-.108,1.674-4.1L51.75-4.968l3.672-1.818,1.044,5.742L58.86-6.876ZM73.656-.522H69.012L69.174.5,65.16,1.1l.252-1.62H62.658l-.036-.216,2.952-.882L67.1-11.9h.126l1.458,9.342L73.656-4.05ZM84.06,0H80.1l.342-1.512A7.9,7.9,0,0,1,78.3-.36,5.832,5.832,0,0,1,76.374,0a2.67,2.67,0,0,1-1.611-.441,1.423,1.423,0,0,1-.6-1.215,3.513,3.513,0,0,1,1.215-2.385A7.494,7.494,0,0,1,78.3-5.868a5.988,5.988,0,0,1,1.944-.36,3.051,3.051,0,0,1,1.206.216l.036-.216h.576ZM80.334-3.222a2.764,2.764,0,0,0,.216-1.026q0-1.206-.99-1.206a2.174,2.174,0,0,0-1.4.657,4.07,4.07,0,0,0-1.1,1.575A2.764,2.764,0,0,0,76.842-2.2q0,1.188.99,1.188a2.17,2.17,0,0,0,1.413-.648A4.037,4.037,0,0,0,80.334-3.222ZM94.752-4.3a3.479,3.479,0,0,1-1.458,2.538A8.143,8.143,0,0,1,89.766-.018a7.486,7.486,0,0,1-1.674.2A5.644,5.644,0,0,1,86.8.036l-.144.846h-.216l-1.944-11.5h4.1l-.864,5.094A8.1,8.1,0,0,1,91.494-6.5a4.174,4.174,0,0,1,2.349.6A1.835,1.835,0,0,1,94.752-4.3ZM91.44-3.51a2.025,2.025,0,0,0-.486-1.341,1.574,1.574,0,0,0-1.242-.531,4.046,4.046,0,0,0-2.142.792L86.922-.7a4.871,4.871,0,0,0,1.44.234,3.075,3.075,0,0,0,2.214-.864A2.779,2.779,0,0,0,91.44-3.51Zm11.5,3.132-6.894,1.71-.054-.108L98.91-1.062,95.184-5.544l6.57-1.764.036.09-2.7,2.232Z" transform="translate(70 372)" fill="#fff"/>
    <g id="Standard_Output_Jack" data-name="Standard Output Jack" transform="translate(199.5 300)">
      <rect id="Rectangle_9" data-name="Rectangle 9" width="32" height="50" rx="3"/>
      <path id="Path_12" data-name="Path 12" d="M8.613-4.437a5.751,5.751,0,0,1-.475,2.413,3.625,3.625,0,0,1-1.357,1.6A3.715,3.715,0,0,1,4.744.137,3.536,3.536,0,0,1,1.928-1.111,4.988,4.988,0,0,1,.854-4.478V-5.5a5.715,5.715,0,0,1,.482-2.41A3.681,3.681,0,0,1,2.7-9.526a3.686,3.686,0,0,1,2.03-.564,3.72,3.72,0,0,1,2.027.554A3.637,3.637,0,0,1,8.114-7.971a5.634,5.634,0,0,1,.5,2.345Zm-.841-1.08a4.4,4.4,0,0,0-.813-2.816A2.7,2.7,0,0,0,4.73-9.352,2.694,2.694,0,0,0,2.519-8.33,4.434,4.434,0,0,0,1.7-5.476v1.039a4.4,4.4,0,0,0,.82,2.806A2.691,2.691,0,0,0,4.744-.595,2.67,2.67,0,0,0,6.973-1.617a4.516,4.516,0,0,0,.8-2.847ZM15.3-.937A2.659,2.659,0,0,1,12.94.137a2.288,2.288,0,0,1-1.8-.687,3.009,3.009,0,0,1-.629-2.034V-7.4h.813v4.71q0,2.112,1.709,2.112a2.1,2.1,0,0,0,2.249-1.47V-7.4h.82V0h-.793ZM19.5-9.29V-7.4h1.531v.67H19.5v4.934a1.545,1.545,0,0,0,.222.917.861.861,0,0,0,.742.3,5.089,5.089,0,0,0,.663-.068l.034.664a2.674,2.674,0,0,1-.875.115,1.459,1.459,0,0,1-1.224-.489,2.3,2.3,0,0,1-.383-1.439V-6.727h-1.36V-7.4h1.36V-9.29Z" transform="translate(5 15)" fill="#fff"/>
    </g>
    <path id="Path_6" data-name="Path 6" d="M3.814-1.494,6.252-8.531h1.23L4.318,0h-1L.164-8.531H1.389ZM7.9-3.229A3.745,3.745,0,0,1,8.265-4.9a2.732,2.732,0,0,1,1.02-1.148,2.775,2.775,0,0,1,1.491-.4,2.674,2.674,0,0,1,2.095.9,3.449,3.449,0,0,1,.8,2.385V-3.1a3.777,3.777,0,0,1-.354,1.661A2.692,2.692,0,0,1,12.3-.293a2.807,2.807,0,0,1-1.515.41A2.667,2.667,0,0,1,8.7-.779a3.432,3.432,0,0,1-.8-2.373Zm1.09.129a2.712,2.712,0,0,0,.489,1.693,1.566,1.566,0,0,0,1.31.639A1.556,1.556,0,0,0,12.1-1.415a2.966,2.966,0,0,0,.486-1.813,2.708,2.708,0,0,0-.5-1.69,1.574,1.574,0,0,0-1.315-.647,1.557,1.557,0,0,0-1.295.639A2.944,2.944,0,0,0,8.988-3.1ZM16.207,0H15.123V-9h1.084Z" transform="translate(207 212)" fill="#fff"/>
    <path id="Path_8" data-name="Path 8" d="M3.814-1.494,6.252-8.531h1.23L4.318,0h-1L.164-8.531H1.389ZM8.672.732H7.74L11.3-8.531h.926ZM20.133-3.99A5.277,5.277,0,0,1,19.711-1.8a3.2,3.2,0,0,1-1.2,1.427,3.289,3.289,0,0,1-1.8.492,3.261,3.261,0,0,1-1.787-.5,3.272,3.272,0,0,1-1.21-1.412,5.064,5.064,0,0,1-.442-2.124v-.615A5.215,5.215,0,0,1,13.7-6.7a3.26,3.26,0,0,1,1.21-1.444,3.247,3.247,0,0,1,1.79-.5,3.307,3.307,0,0,1,1.808.5,3.19,3.19,0,0,1,1.2,1.436,5.3,5.3,0,0,1,.422,2.188Zm-1.119-.551A3.825,3.825,0,0,0,18.4-6.87,2.01,2.01,0,0,0,16.7-7.682a1.988,1.988,0,0,0-1.679.812,3.747,3.747,0,0,0-.63,2.253v.627a3.831,3.831,0,0,0,.618,2.312,2,2,0,0,0,1.7.841A1.989,1.989,0,0,0,18.4-1.632a3.809,3.809,0,0,0,.615-2.276Zm5.18,3.773a1.561,1.561,0,0,0,1.014-.352A1.237,1.237,0,0,0,25.688-2h1.025a1.966,1.966,0,0,1-.375,1.037,2.47,2.47,0,0,1-.923.785,2.663,2.663,0,0,1-1.222.293,2.612,2.612,0,0,1-2.06-.864,3.442,3.442,0,0,1-.765-2.364v-.182a3.817,3.817,0,0,1,.34-1.646,2.588,2.588,0,0,1,.976-1.119,2.771,2.771,0,0,1,1.5-.4,2.543,2.543,0,0,1,1.772.639,2.283,2.283,0,0,1,.753,1.658H25.688a1.494,1.494,0,0,0-.466-1.011,1.449,1.449,0,0,0-1.034-.4,1.517,1.517,0,0,0-1.28.595,2.793,2.793,0,0,0-.454,1.72v.205A2.737,2.737,0,0,0,22.9-1.359,1.524,1.524,0,0,0,24.193-.768ZM29.4-7.875V-6.34h1.184V-5.5H29.4v3.937a.88.88,0,0,0,.158.572A.666.666,0,0,0,30.1-.8a2.624,2.624,0,0,0,.516-.07V0a3.161,3.161,0,0,1-.832.116,1.35,1.35,0,0,1-1.1-.439,1.888,1.888,0,0,1-.369-1.248V-5.5H27.164V-6.34h1.154V-7.875Z" transform="translate(8 313)" fill="#fff"/>
    <path id="Path_7" data-name="Path 7" d="M7.289-1.119a2.6,2.6,0,0,1-1.21.929A4.887,4.887,0,0,1,4.271.117,3.506,3.506,0,0,1,2.42-.372,3.26,3.26,0,0,1,1.169-1.764,4.806,4.806,0,0,1,.715-3.855V-4.6a4.487,4.487,0,0,1,.9-2.988A3.134,3.134,0,0,1,4.143-8.648a3.237,3.237,0,0,1,2.15.683,2.974,2.974,0,0,1,1,1.937H6.164a1.86,1.86,0,0,0-2.016-1.7,1.991,1.991,0,0,0-1.714.795,3.88,3.88,0,0,0-.589,2.3v.7A3.636,3.636,0,0,0,2.5-1.65,2.127,2.127,0,0,0,4.277-.8a3.921,3.921,0,0,0,1.107-.14,1.713,1.713,0,0,0,.785-.473V-3.328H4.2v-.92H7.289ZM12.908,0a2.277,2.277,0,0,1-.152-.668,2.419,2.419,0,0,1-1.8.785,2.238,2.238,0,0,1-1.538-.53,1.716,1.716,0,0,1-.6-1.345A1.792,1.792,0,0,1,9.565-3.3a3.55,3.55,0,0,1,2.118-.548h1.055v-.5a1.217,1.217,0,0,0-.34-.905,1.366,1.366,0,0,0-1-.337,1.581,1.581,0,0,0-.973.293.863.863,0,0,0-.393.709H8.941A1.5,1.5,0,0,1,9.278-5.5a2.3,2.3,0,0,1,.914-.7,3.075,3.075,0,0,1,1.269-.258,2.506,2.506,0,0,1,1.717.548A1.976,1.976,0,0,1,13.822-4.4v2.918a3.567,3.567,0,0,0,.223,1.389V0Zm-1.8-.826a1.905,1.905,0,0,0,.967-.264,1.6,1.6,0,0,0,.662-.686v-1.3h-.85Q9.9-3.076,9.9-1.91a.987.987,0,0,0,.34.8A1.306,1.306,0,0,0,11.109-.826Zm5.883-7.049V-6.34h1.184V-5.5H16.992v3.937a.88.88,0,0,0,.158.572.666.666,0,0,0,.539.191,2.624,2.624,0,0,0,.516-.07V0a3.161,3.161,0,0,1-.832.116,1.35,1.35,0,0,1-1.1-.439,1.888,1.888,0,0,1-.369-1.248V-5.5H14.754V-6.34h1.154V-7.875ZM22.072.117a2.77,2.77,0,0,1-2.1-.847,3.142,3.142,0,0,1-.809-2.265v-.2a3.8,3.8,0,0,1,.36-1.685,2.811,2.811,0,0,1,1.008-1.16,2.534,2.534,0,0,1,1.4-.419,2.374,2.374,0,0,1,1.922.814,3.526,3.526,0,0,1,.686,2.332v.451H20.25A2.254,2.254,0,0,0,20.8-1.345a1.722,1.722,0,0,0,1.333.577A1.888,1.888,0,0,0,23.1-1a2.444,2.444,0,0,0,.7-.621l.662.516A2.662,2.662,0,0,1,22.072.117Zm-.135-5.684a1.446,1.446,0,0,0-1.1.478,2.321,2.321,0,0,0-.551,1.339h3.176v-.082a2.065,2.065,0,0,0-.445-1.28A1.361,1.361,0,0,0,21.938-5.566Z" transform="translate(11 263)" fill="#fff"/>
    <path id="Path_2" data-name="Path 2" d="M3.814-1.494,6.252-8.531h1.23L4.318,0h-1L.164-8.531H1.389ZM10.828.117a2.77,2.77,0,0,1-2.1-.847,3.142,3.142,0,0,1-.809-2.265v-.2a3.8,3.8,0,0,1,.36-1.685A2.811,2.811,0,0,1,9.29-6.038a2.534,2.534,0,0,1,1.4-.419,2.374,2.374,0,0,1,1.922.814A3.526,3.526,0,0,1,13.3-3.311v.451H9.006a2.254,2.254,0,0,0,.548,1.515,1.722,1.722,0,0,0,1.333.577A1.888,1.888,0,0,0,11.859-1a2.444,2.444,0,0,0,.7-.621l.662.516A2.662,2.662,0,0,1,10.828.117Zm-.135-5.684a1.446,1.446,0,0,0-1.1.478A2.321,2.321,0,0,0,9.041-3.75h3.176v-.082a2.065,2.065,0,0,0-.445-1.28A1.361,1.361,0,0,0,10.693-5.566ZM15.732,0H14.648V-9h1.084Z" transform="translate(15 211)" fill="#fff"/>
    <path id="Path_3" data-name="Path 3" d="M7.553-3.99A5.277,5.277,0,0,1,7.131-1.8a3.2,3.2,0,0,1-1.2,1.427,3.289,3.289,0,0,1-1.8.492,3.261,3.261,0,0,1-1.787-.5A3.272,3.272,0,0,1,1.134-1.79,5.064,5.064,0,0,1,.691-3.914v-.615A5.215,5.215,0,0,1,1.119-6.7a3.26,3.26,0,0,1,1.21-1.444,3.247,3.247,0,0,1,1.79-.5,3.307,3.307,0,0,1,1.808.5,3.19,3.19,0,0,1,1.2,1.436,5.3,5.3,0,0,1,.422,2.188ZM6.434-4.541A3.825,3.825,0,0,0,5.824-6.87a2.01,2.01,0,0,0-1.705-.812A1.988,1.988,0,0,0,2.44-6.87a3.747,3.747,0,0,0-.63,2.253v.627a3.831,3.831,0,0,0,.618,2.312,2,2,0,0,0,1.7.841,1.989,1.989,0,0,0,1.688-.794,3.809,3.809,0,0,0,.615-2.276Zm5.18,3.773a1.561,1.561,0,0,0,1.014-.352A1.237,1.237,0,0,0,13.107-2h1.025a1.966,1.966,0,0,1-.375,1.037,2.47,2.47,0,0,1-.923.785,2.663,2.663,0,0,1-1.222.293,2.612,2.612,0,0,1-2.06-.864,3.442,3.442,0,0,1-.765-2.364v-.182a3.817,3.817,0,0,1,.34-1.646A2.588,2.588,0,0,1,10.1-6.059a2.771,2.771,0,0,1,1.5-.4,2.543,2.543,0,0,1,1.772.639,2.283,2.283,0,0,1,.753,1.658H13.107a1.494,1.494,0,0,0-.466-1.011,1.449,1.449,0,0,0-1.034-.4,1.517,1.517,0,0,0-1.28.595,2.793,2.793,0,0,0-.454,1.72v.205a2.737,2.737,0,0,0,.451,1.688A1.524,1.524,0,0,0,11.613-.768Zm5.209-7.107V-6.34h1.184V-5.5H16.822v3.937a.88.88,0,0,0,.158.572A.666.666,0,0,0,17.52-.8a2.624,2.624,0,0,0,.516-.07V0A3.161,3.161,0,0,1,17.2.117a1.35,1.35,0,0,1-1.1-.439,1.888,1.888,0,0,1-.369-1.248V-5.5H14.584V-6.34h1.154V-7.875Z" transform="translate(63 212)" fill="#fff"/>
    <path id="Path_5" data-name="Path 5" d="M.99,0V-8.531H3.4a3.877,3.877,0,0,1,1.969.492,3.329,3.329,0,0,1,1.321,1.4A4.558,4.558,0,0,1,7.16-4.553v.545a4.574,4.574,0,0,1-.466,2.115A3.277,3.277,0,0,1,5.364-.5,4.124,4.124,0,0,1,3.352,0ZM2.115-7.611V-.92H3.3a2.575,2.575,0,0,0,2.024-.809,3.344,3.344,0,0,0,.724-2.3v-.5a3.4,3.4,0,0,0-.683-2.261,2.429,2.429,0,0,0-1.937-.818ZM11.32.117a2.77,2.77,0,0,1-2.1-.847,3.142,3.142,0,0,1-.809-2.265v-.2a3.8,3.8,0,0,1,.36-1.685,2.811,2.811,0,0,1,1.008-1.16,2.534,2.534,0,0,1,1.4-.419,2.374,2.374,0,0,1,1.922.814,3.526,3.526,0,0,1,.686,2.332v.451H9.5a2.254,2.254,0,0,0,.548,1.515,1.722,1.722,0,0,0,1.333.577A1.888,1.888,0,0,0,12.352-1a2.444,2.444,0,0,0,.7-.621l.662.516A2.662,2.662,0,0,1,11.32.117Zm-.135-5.684a1.446,1.446,0,0,0-1.1.478A2.321,2.321,0,0,0,9.533-3.75h3.176v-.082a2.065,2.065,0,0,0-.445-1.28A1.361,1.361,0,0,0,11.186-5.566ZM20.4-3.1A3.8,3.8,0,0,1,19.74-.768a2.122,2.122,0,0,1-1.793.885,2.325,2.325,0,0,1-1.816-.732V2.438H15.047V-6.34h.99l.053.7a2.233,2.233,0,0,1,1.84-.82,2.162,2.162,0,0,1,1.808.861A3.838,3.838,0,0,1,20.4-3.2Zm-1.084-.123a2.8,2.8,0,0,0-.457-1.693,1.472,1.472,0,0,0-1.254-.621,1.593,1.593,0,0,0-1.477.873v3.029a1.6,1.6,0,0,0,1.488.867,1.465,1.465,0,0,0,1.239-.618A3.058,3.058,0,0,0,19.318-3.223ZM23.25-7.875V-6.34h1.184V-5.5H23.25v3.937a.88.88,0,0,0,.158.572.666.666,0,0,0,.539.191,2.624,2.624,0,0,0,.516-.07V0a3.161,3.161,0,0,1-.832.116,1.35,1.35,0,0,1-1.1-.439,1.888,1.888,0,0,1-.369-1.248V-5.5H21.012V-6.34h1.154V-7.875Zm3.533,2.3a2.3,2.3,0,0,1,1.875-.885q2.01,0,2.027,2.268V0H29.6V-4.2a1.459,1.459,0,0,0-.313-1.014,1.256,1.256,0,0,0-.958-.328,1.564,1.564,0,0,0-.926.281,1.91,1.91,0,0,0-.621.738V0H25.7V-9h1.084Z" transform="translate(152 212)" fill="#fff"/>
    <path id="Path_9" data-name="Path 9" d="M5.7-3.768H2.115V0H.99V-8.531H6.275v.92H2.115v2.924H5.7ZM9.076-8.531,11.865-1.57l2.789-6.961h1.459V0H14.988V-3.322l.105-3.586L12.293,0h-.861L8.637-6.891l.111,3.568V0H7.623V-8.531Z" transform="translate(63 313)" fill="#fff"/>
    <path id="Path_10" data-name="Path 10" d="M2.121-.92H6.164V0H.99V-8.531H2.121ZM12.152-3.768H8.572V0H7.447V-8.531h5.285v.92H8.572v2.924h3.58Zm3.381-4.764L18.322-1.57l2.789-6.961H22.57V0H21.445V-3.322l.105-3.586L18.75,0h-.861L15.094-6.891l.111,3.568V0H14.08V-8.531Z" transform="translate(156 313)" fill="#fff"/>
    <path id="Path_4" data-name="Path 4" d="M2.115-3.34V0H.99V-8.531H4.137a3.161,3.161,0,0,1,2.194.715,2.423,2.423,0,0,1,.794,1.893,2.391,2.391,0,0,1-.776,1.913,3.3,3.3,0,0,1-2.224.671Zm0-.92H4.137A2.021,2.021,0,0,0,5.52-4.685,1.556,1.556,0,0,0,6-5.915a1.608,1.608,0,0,0-.48-1.221A1.894,1.894,0,0,0,4.2-7.611H2.115ZM9.568,0H8.484V-6.34H9.568ZM8.4-8.021a.647.647,0,0,1,.161-.445.6.6,0,0,1,.478-.182.614.614,0,0,1,.48.182.64.64,0,0,1,.164.445.619.619,0,0,1-.164.439.626.626,0,0,1-.48.176.616.616,0,0,1-.478-.176A.626.626,0,0,1,8.4-8.021Zm4.377.146V-6.34h1.184V-5.5H12.773v3.937a.88.88,0,0,0,.158.572.666.666,0,0,0,.539.191,2.624,2.624,0,0,0,.516-.07V0a3.161,3.161,0,0,1-.832.116,1.35,1.35,0,0,1-1.1-.439,1.888,1.888,0,0,1-.369-1.248V-5.5H10.535V-6.34h1.154V-7.875ZM17.766-.768a1.561,1.561,0,0,0,1.014-.352A1.237,1.237,0,0,0,19.26-2h1.025A1.966,1.966,0,0,1,19.91-.961a2.47,2.47,0,0,1-.923.785,2.663,2.663,0,0,1-1.222.293,2.612,2.612,0,0,1-2.06-.864,3.442,3.442,0,0,1-.765-2.364v-.182a3.817,3.817,0,0,1,.34-1.646,2.588,2.588,0,0,1,.976-1.119,2.771,2.771,0,0,1,1.5-.4,2.543,2.543,0,0,1,1.772.639,2.283,2.283,0,0,1,.753,1.658H19.26a1.494,1.494,0,0,0-.466-1.011,1.449,1.449,0,0,0-1.034-.4,1.517,1.517,0,0,0-1.28.595,2.793,2.793,0,0,0-.454,1.72v.205a2.737,2.737,0,0,0,.451,1.688A1.524,1.524,0,0,0,17.766-.768Zm4.822-4.8a2.3,2.3,0,0,1,1.875-.885q2.01,0,2.027,2.268V0H25.406V-4.2a1.459,1.459,0,0,0-.313-1.014,1.256,1.256,0,0,0-.958-.328,1.564,1.564,0,0,0-.926.281,1.91,1.91,0,0,0-.621.738V0H21.5V-9h1.084Z" transform="translate(106 212)" fill="#fff"/>
  </g>
</svg>
