<?xml version="1.0" encoding="UTF-8" standalone="no"?>
<svg
   xmlns:dc="http://purl.org/dc/elements/1.1/"
   xmlns:cc="http://creativecommons.org/ns#"
   xmlns:rdf="http://www.w3.org/1999/02/22-rdf-syntax-ns#"
   xmlns:svg="http://www.w3.org/2000/svg"
   xmlns="http://www.w3.org/2000/svg"
   xmlns:sodipodi="http://sodipodi.sourceforge.net/DTD/sodipodi-0.dtd"
   xmlns:inkscape="http://www.inkscape.org/namespaces/inkscape"
   width="240"
   height="380"
   viewBox="0 0 240 380"
   version="1.1"
   id="svg3578"
   sodipodi:docname="samp_panel.svg"
   inkscape:version="1.0.2-2 (e86c870879, 2021-01-15)">
  <metadata
     id="metadata3582">
    <rdf:RDF>
      <cc:Work
         rdf:about="">
        <dc:format>image/svg+xml</dc:format>
        <dc:type
           rdf:resource="http://purl.org/dc/dcmitype/StillImage" />
      </cc:Work>
    </rdf:RDF>
  </metadata>
  <sodipodi:namedview
     pagecolor="#ffffff"
     bordercolor="#666666"
     borderopacity="1"
     objecttolerance="10"
     gridtolerance="10"
     guidetolerance="10"
     inkscape:pageopacity="0"
     inkscape:pageshadow="2"
     inkscape:window-width="1920"
     inkscape:window-height="1001"
     id="namedview3580"
     showgrid="false"
     inkscape:zoom="2.1842105"
     inkscape:cx="120"
     inkscape:cy="190"
     inkscape:window-x="-9"
     inkscape:window-y="-9"
     inkscape:window-maximized="1"
     inkscape:current-layer="svg3578"
     inkscape:document-rotation="0" />
  <defs
     id="defs3559">
    <clipPath
       id="clip-samp_panel">
      <rect
         width="240"
         height="380"
         id="rect3556" />
    </clipPath>
  </defs>
  <rect
     width="241.37646"
     height="380"
     fill="#353535"
     id="rect3561"
     x="-0.46080038"
     y="0"
     style="stroke-width:1.00287" />
  <path
     id="Path_11"
     data-name="Path 11"
     d="m 81.988,358.212 -6.93,4.644 5.166,8.744 -10.836,3.28 -0.054,-0.162 6.876,-4.608 -5.2,-8.73 10.926,-3.294 z m 9.576,17.55 h -4.086 l 0.738,-4.392 a 7.707,7.707 0 0 1 -3.492,0.83 4.177,4.177 0 0 1 -2.34,-0.6 1.818,1.818 0 0 1 -0.9,-1.584 3.489,3.489 0 0 1 1.458,-2.556 8.143,8.143 0 0 1 3.528,-1.742 6.643,6.643 0 0 1 2.736,-0.108 l 0.216,-1.35 h 0.2 z M 89.08,366.33 a 5.413,5.413 0 0 0 -1.206,-0.144 3.149,3.149 0 0 0 -2.214,0.828 2.753,2.753 0 0 0 -0.864,2.2 2.025,2.025 0 0 0 0.486,1.341 1.574,1.574 0 0 0 1.242,0.531 3.776,3.776 0 0 0 1.854,-0.612 z m 10.53,5.87 h -2.448 l 0.288,-2.214 a 4.872,4.872 0 0 1 -4.1,2.394 4.1,4.1 0 0 1 -1.264,-0.18 l 2.448,-6.84 0.27,0.054 a 8.654,8.654 0 0 0 -0.126,1.494 q 0,1.962 0.9,1.962 a 0.921,0.921 0 0 0 0.342,-0.07 3.269,3.269 0 0 0 1.548,-1.584 6.586,6.586 0 0 0 0.81,-2.178 h 0.216 z m 4.824,-10.154 -1.548,0.468 0.4,1.584 -0.936,-1.332 -1.368,0.864 0.972,-1.3 -1.246,-1.04 1.53,0.522 0.612,-1.494 -0.036,1.62 z m -0.144,2.628 -1.944,7.398 h -0.2 l -1.946,-7.398 z m 8.262,0.54 -2.452,6.84 -0.266,-0.054 a 8.654,8.654 0 0 0 0.126,-1.494 q 0,-1.962 -0.9,-1.962 a 0.921,0.921 0 0 0 -0.342,0.072 3.269,3.269 0 0 0 -1.548,1.584 6.727,6.727 0 0 0 -0.828,2.178 h -0.2 l -1.114,-7.164 h 2.43 l -0.27,2.214 a 4.872,4.872 0 0 1 4.1,-2.394 4.322,4.322 0 0 1 1.264,0.18 z m 8.982,0.558 -3.744,2.664 2.376,4.23 -0.166,0.234 -4.172,-2.9 -0.522,3.132 h -0.216 l -1.944,-11.5 h 4.1 l -1.238,7.268 2.178,-3.132 z m 10.8,1.53 -7.74,8.73 -0.162,-0.108 1.674,-4.1 -4.356,-4.792 3.672,-1.818 1.044,5.742 2.394,-5.832 z m 11.322,4.176 h -4.644 l 0.162,1.022 -4.014,0.6 0.252,-1.62 h -2.754 l -0.036,-0.216 2.952,-0.882 1.526,-10.282 h 0.126 l 1.458,9.342 4.972,-1.492 z M 154.06,372 h -3.96 l 0.342,-1.512 a 7.9,7.9 0 0 1 -2.142,1.152 5.832,5.832 0 0 1 -1.926,0.36 2.67,2.67 0 0 1 -1.611,-0.441 1.423,1.423 0 0 1 -0.6,-1.215 3.513,3.513 0 0 1 1.215,-2.385 7.494,7.494 0 0 1 2.922,-1.827 5.988,5.988 0 0 1 1.944,-0.36 3.051,3.051 0 0 1 1.206,0.216 l 0.036,-0.216 h 0.576 z m -3.726,-3.222 a 2.764,2.764 0 0 0 0.216,-1.026 q 0,-1.206 -0.99,-1.206 a 2.174,2.174 0 0 0 -1.4,0.657 4.07,4.07 0 0 0 -1.1,1.575 2.764,2.764 0 0 0 -0.218,1.022 q 0,1.188 0.99,1.188 a 2.17,2.17 0 0 0 1.413,-0.648 4.037,4.037 0 0 0 1.089,-1.562 z m 14.418,-1.078 a 3.479,3.479 0 0 1 -1.458,2.538 8.143,8.143 0 0 1 -3.528,1.744 7.486,7.486 0 0 1 -1.674,0.2 5.644,5.644 0 0 1 -1.292,-0.146 l -0.144,0.846 h -0.216 l -1.944,-11.5 h 4.1 l -0.864,5.094 a 8.1,8.1 0 0 1 3.762,-0.976 4.174,4.174 0 0 1 2.349,0.6 1.835,1.835 0 0 1 0.909,1.6 z m -3.312,0.79 a 2.025,2.025 0 0 0 -0.486,-1.341 1.574,1.574 0 0 0 -1.242,-0.531 4.046,4.046 0 0 0 -2.142,0.792 l -0.648,3.89 a 4.871,4.871 0 0 0 1.44,0.234 3.075,3.075 0 0 0 2.214,-0.864 2.779,2.779 0 0 0 0.864,-2.18 z m 11.5,3.132 -6.894,1.71 -0.054,-0.108 2.918,-2.286 -3.726,-4.482 6.57,-1.764 0.036,0.09 -2.7,2.232 z"
     fill="#ffffff" />
  <g
     id="Standard_Output_Jack"
     data-name="Standard Output Jack"
     transform="translate(199.5,300)">
    <rect
       id="Rectangle_9"
       data-name="Rectangle 9"
       width="32"
       height="50"
       rx="3"
       x="0"
       y="0" />
    <path
       id="Path_12"
       data-name="Path 12"
       d="M 8.613,-4.437 A 5.751,5.751 0 0 1 8.138,-2.024 3.625,3.625 0 0 1 6.781,-0.424 3.715,3.715 0 0 1 4.744,0.137 3.536,3.536 0 0 1 1.928,-1.111 4.988,4.988 0 0 1 0.854,-4.478 V -5.5 a 5.715,5.715 0 0 1 0.482,-2.41 3.681,3.681 0 0 1 1.364,-1.616 3.686,3.686 0 0 1 2.03,-0.564 3.72,3.72 0 0 1 2.027,0.554 3.637,3.637 0 0 1 1.357,1.565 5.634,5.634 0 0 1 0.5,2.345 z M 7.772,-5.517 A 4.4,4.4 0 0 0 6.959,-8.333 2.7,2.7 0 0 0 4.73,-9.352 2.694,2.694 0 0 0 2.519,-8.33 4.434,4.434 0 0 0 1.7,-5.476 v 1.039 a 4.4,4.4 0 0 0 0.82,2.806 2.691,2.691 0 0 0 2.224,1.036 2.67,2.67 0 0 0 2.229,-1.022 4.516,4.516 0 0 0 0.8,-2.847 z m 7.528,4.58 A 2.659,2.659 0 0 1 12.94,0.137 2.288,2.288 0 0 1 11.14,-0.55 3.009,3.009 0 0 1 10.511,-2.584 V -7.4 h 0.813 v 4.71 q 0,2.112 1.709,2.112 a 2.1,2.1 0 0 0 2.249,-1.47 V -7.4 h 0.82 V 0 h -0.793 z m 4.2,-8.353 v 1.89 h 1.531 v 0.67 H 19.5 v 4.934 a 1.545,1.545 0 0 0 0.222,0.917 0.861,0.861 0 0 0 0.742,0.3 5.089,5.089 0 0 0 0.663,-0.068 l 0.034,0.664 a 2.674,2.674 0 0 1 -0.875,0.115 1.459,1.459 0 0 1 -1.224,-0.489 2.3,2.3 0 0 1 -0.383,-1.439 v -4.931 h -1.36 V -7.4 h 1.36 v -1.89 z"
       transform="translate(5,15)"
       fill="#ffffff" />
  </g>
  <path
     id="Path_6"
     data-name="Path 6"
     d="m 210.814,210.506 2.438,-7.037 h 1.23 L 211.318,212 h -1 l -3.154,-8.531 h 1.225 z m 4.086,-1.735 a 3.745,3.745 0 0 1 0.365,-1.671 2.732,2.732 0 0 1 1.02,-1.148 2.775,2.775 0 0 1 1.491,-0.4 2.674,2.674 0 0 1 2.095,0.9 3.449,3.449 0 0 1 0.8,2.385 v 0.063 a 3.777,3.777 0 0 1 -0.354,1.661 2.692,2.692 0 0 1 -1.017,1.146 2.807,2.807 0 0 1 -1.515,0.41 2.667,2.667 0 0 1 -2.085,-0.896 3.432,3.432 0 0 1 -0.8,-2.373 z m 1.09,0.129 a 2.712,2.712 0 0 0 0.489,1.693 1.566,1.566 0 0 0 1.31,0.639 1.556,1.556 0 0 0 1.311,-0.647 2.966,2.966 0 0 0 0.486,-1.813 2.708,2.708 0 0 0 -0.5,-1.69 1.574,1.574 0 0 0 -1.315,-0.647 1.557,1.557 0 0 0 -1.295,0.639 2.944,2.944 0 0 0 -0.488,1.826 z m 7.217,3.1 h -1.084 v -9 h 1.084 z"
     fill="#ffffff" />
  <path
     id="Path_8"
     data-name="Path 8"
     d="m 11.814,311.506 2.438,-7.037 h 1.23 L 12.318,313 h -1 l -3.154,-8.531 h 1.225 z m 4.858,2.226 H 15.74 l 3.56,-9.263 h 0.926 z m 11.461,-4.722 a 5.277,5.277 0 0 1 -0.422,2.19 3.2,3.2 0 0 1 -1.2,1.427 3.289,3.289 0 0 1 -1.8,0.492 3.261,3.261 0 0 1 -1.787,-0.5 3.272,3.272 0 0 1 -1.21,-1.412 5.064,5.064 0 0 1 -0.442,-2.124 v -0.615 a 5.215,5.215 0 0 1 0.428,-2.168 3.26,3.26 0 0 1 1.21,-1.444 3.247,3.247 0 0 1 1.79,-0.5 3.307,3.307 0 0 1 1.808,0.5 3.19,3.19 0 0 1 1.2,1.436 5.3,5.3 0 0 1 0.422,2.188 z m -1.119,-0.551 a 3.825,3.825 0 0 0 -0.614,-2.329 2.01,2.01 0 0 0 -1.7,-0.812 1.988,1.988 0 0 0 -1.679,0.812 3.747,3.747 0 0 0 -0.63,2.253 v 0.627 a 3.831,3.831 0 0 0 0.618,2.312 2,2 0 0 0 1.7,0.841 1.989,1.989 0 0 0 1.691,-0.795 3.809,3.809 0 0 0 0.615,-2.276 z m 5.18,3.773 a 1.561,1.561 0 0 0 1.014,-0.352 1.237,1.237 0 0 0 0.48,-0.88 h 1.025 a 1.966,1.966 0 0 1 -0.375,1.037 2.47,2.47 0 0 1 -0.923,0.785 2.663,2.663 0 0 1 -1.222,0.293 2.612,2.612 0 0 1 -2.06,-0.864 3.442,3.442 0 0 1 -0.765,-2.364 v -0.182 a 3.817,3.817 0 0 1 0.34,-1.646 2.588,2.588 0 0 1 0.976,-1.119 2.771,2.771 0 0 1 1.5,-0.4 2.543,2.543 0 0 1 1.772,0.639 2.283,2.283 0 0 1 0.753,1.658 h -1.021 a 1.494,1.494 0 0 0 -0.466,-1.011 1.449,1.449 0 0 0 -1.034,-0.4 1.517,1.517 0 0 0 -1.28,0.595 2.793,2.793 0 0 0 -0.454,1.72 v 0.205 a 2.737,2.737 0 0 0 0.446,1.695 1.524,1.524 0 0 0 1.293,0.591 z m 5.206,-7.107 v 1.535 h 1.184 v 0.84 H 37.4 v 3.937 a 0.88,0.88 0 0 0 0.158,0.572 0.666,0.666 0 0 0 0.542,0.191 2.624,2.624 0 0 0 0.516,-0.07 V 313 a 3.161,3.161 0 0 1 -0.832,0.116 1.35,1.35 0 0 1 -1.1,-0.439 1.888,1.888 0 0 1 -0.369,-1.248 V 307.5 h -1.151 v -0.84 h 1.154 v -1.535 z"
     fill="#ffffff" />
  <path
     id="Path_7"
     data-name="Path 7"
     d="m 18.289,261.881 a 2.6,2.6 0 0 1 -1.21,0.929 4.887,4.887 0 0 1 -1.808,0.307 3.506,3.506 0 0 1 -1.851,-0.489 3.26,3.26 0 0 1 -1.251,-1.392 4.806,4.806 0 0 1 -0.454,-2.091 V 258.4 a 4.487,4.487 0 0 1 0.9,-2.988 3.134,3.134 0 0 1 2.528,-1.06 3.237,3.237 0 0 1 2.15,0.683 2.974,2.974 0 0 1 1,1.937 h -1.129 a 1.86,1.86 0 0 0 -2.016,-1.7 1.991,1.991 0 0 0 -1.714,0.795 3.88,3.88 0 0 0 -0.589,2.3 v 0.7 a 3.636,3.636 0 0 0 0.655,2.283 2.127,2.127 0 0 0 1.777,0.85 3.921,3.921 0 0 0 1.107,-0.14 1.713,1.713 0 0 0 0.785,-0.473 v -1.915 H 15.2 v -0.92 h 3.089 z M 23.908,263 a 2.277,2.277 0 0 1 -0.152,-0.668 2.419,2.419 0 0 1 -1.8,0.785 2.238,2.238 0 0 1 -1.538,-0.53 1.716,1.716 0 0 1 -0.6,-1.345 1.792,1.792 0 0 1 0.747,-1.542 3.55,3.55 0 0 1 2.118,-0.548 h 1.055 v -0.5 a 1.217,1.217 0 0 0 -0.34,-0.905 1.366,1.366 0 0 0 -1,-0.337 1.581,1.581 0 0 0 -0.973,0.293 0.863,0.863 0 0 0 -0.393,0.709 h -1.091 a 1.5,1.5 0 0 1 0.337,-0.912 2.3,2.3 0 0 1 0.914,-0.7 3.075,3.075 0 0 1 1.269,-0.258 2.506,2.506 0 0 1 1.717,0.548 1.976,1.976 0 0 1 0.644,1.51 v 2.918 a 3.567,3.567 0 0 0 0.223,1.389 V 263 Z m -1.8,-0.826 a 1.905,1.905 0 0 0 0.967,-0.264 1.6,1.6 0 0 0 0.662,-0.686 v -1.3 h -0.85 q -1.987,0 -1.987,1.166 a 0.987,0.987 0 0 0 0.34,0.8 1.306,1.306 0 0 0 0.869,0.284 z m 5.883,-7.049 v 1.535 h 1.184 v 0.84 h -1.183 v 3.937 a 0.88,0.88 0 0 0 0.158,0.572 0.666,0.666 0 0 0 0.539,0.191 2.624,2.624 0 0 0 0.516,-0.07 V 263 a 3.161,3.161 0 0 1 -0.832,0.116 1.35,1.35 0 0 1 -1.1,-0.439 1.888,1.888 0 0 1 -0.369,-1.248 V 257.5 h -1.15 v -0.84 h 1.154 v -1.535 z m 5.081,7.992 a 2.77,2.77 0 0 1 -2.1,-0.847 3.142,3.142 0 0 1 -0.809,-2.265 v -0.2 a 3.8,3.8 0 0 1 0.36,-1.685 2.811,2.811 0 0 1 1.008,-1.16 2.534,2.534 0 0 1 1.4,-0.419 2.374,2.374 0 0 1 1.922,0.814 3.526,3.526 0 0 1 0.686,2.332 v 0.451 H 31.25 a 2.254,2.254 0 0 0 0.55,1.517 1.722,1.722 0 0 0 1.333,0.577 1.888,1.888 0 0 0 0.967,-0.232 2.444,2.444 0 0 0 0.7,-0.621 l 0.662,0.516 a 2.662,2.662 0 0 1 -2.39,1.222 z m -0.135,-5.684 a 1.446,1.446 0 0 0 -1.1,0.478 2.321,2.321 0 0 0 -0.551,1.339 h 3.176 v -0.082 a 2.065,2.065 0 0 0 -0.445,-1.28 1.361,1.361 0 0 0 -1.079,-0.454 z"
     fill="#ffffff" />
  <path
     id="Path_2"
     data-name="Path 2"
     d="m 18.814,209.506 2.438,-7.037 h 1.23 L 19.318,211 h -1 l -3.154,-8.531 h 1.225 z m 7.014,1.611 a 2.77,2.77 0 0 1 -2.1,-0.847 3.142,3.142 0 0 1 -0.809,-2.265 v -0.2 a 3.8,3.8 0 0 1 0.36,-1.685 2.811,2.811 0 0 1 1.011,-1.158 2.534,2.534 0 0 1 1.4,-0.419 2.374,2.374 0 0 1 1.922,0.814 3.526,3.526 0 0 1 0.688,2.332 v 0.451 h -4.294 a 2.254,2.254 0 0 0 0.548,1.515 1.722,1.722 0 0 0 1.333,0.577 1.888,1.888 0 0 0 0.972,-0.232 2.444,2.444 0 0 0 0.7,-0.621 l 0.662,0.516 a 2.662,2.662 0 0 1 -2.393,1.222 z m -0.135,-5.684 a 1.446,1.446 0 0 0 -1.1,0.478 2.321,2.321 0 0 0 -0.552,1.339 h 3.176 v -0.082 a 2.065,2.065 0 0 0 -0.445,-1.28 1.361,1.361 0 0 0 -1.079,-0.454 z M 30.732,211 h -1.084 v -9 h 1.084 z"
     fill="#ffffff" />
  <path
     id="Path_3"
     data-name="Path 3"
     d="m 70.553,208.01 a 5.277,5.277 0 0 1 -0.422,2.19 3.2,3.2 0 0 1 -1.2,1.427 3.289,3.289 0 0 1 -1.8,0.492 3.261,3.261 0 0 1 -1.787,-0.5 3.272,3.272 0 0 1 -1.21,-1.409 5.064,5.064 0 0 1 -0.443,-2.124 v -0.615 a 5.215,5.215 0 0 1 0.428,-2.171 3.26,3.26 0 0 1 1.21,-1.444 3.247,3.247 0 0 1 1.79,-0.5 3.307,3.307 0 0 1 1.808,0.5 3.19,3.19 0 0 1 1.2,1.436 5.3,5.3 0 0 1 0.422,2.188 z m -1.119,-0.551 a 3.825,3.825 0 0 0 -0.61,-2.329 2.01,2.01 0 0 0 -1.705,-0.812 1.988,1.988 0 0 0 -1.679,0.812 3.747,3.747 0 0 0 -0.63,2.253 v 0.627 a 3.831,3.831 0 0 0 0.618,2.312 2,2 0 0 0 1.7,0.841 1.989,1.989 0 0 0 1.688,-0.794 3.809,3.809 0 0 0 0.615,-2.276 z m 5.18,3.773 a 1.561,1.561 0 0 0 1.014,-0.352 1.237,1.237 0 0 0 0.479,-0.88 h 1.025 a 1.966,1.966 0 0 1 -0.375,1.037 2.47,2.47 0 0 1 -0.923,0.785 2.663,2.663 0 0 1 -1.222,0.293 2.612,2.612 0 0 1 -2.06,-0.864 3.442,3.442 0 0 1 -0.765,-2.364 v -0.182 a 3.817,3.817 0 0 1 0.34,-1.646 2.588,2.588 0 0 1 0.973,-1.118 2.771,2.771 0 0 1 1.5,-0.4 2.543,2.543 0 0 1 1.772,0.639 2.283,2.283 0 0 1 0.753,1.658 h -1.018 a 1.494,1.494 0 0 0 -0.466,-1.011 1.449,1.449 0 0 0 -1.034,-0.4 1.517,1.517 0 0 0 -1.28,0.595 2.793,2.793 0 0 0 -0.454,1.72 v 0.205 a 2.737,2.737 0 0 0 0.451,1.688 1.524,1.524 0 0 0 1.289,0.597 z m 5.209,-7.107 v 1.535 h 1.184 v 0.84 h -1.185 v 3.937 a 0.88,0.88 0 0 0 0.158,0.572 0.666,0.666 0 0 0 0.54,0.191 2.624,2.624 0 0 0 0.516,-0.07 V 212 a 3.161,3.161 0 0 1 -0.836,0.117 1.35,1.35 0 0 1 -1.1,-0.439 1.888,1.888 0 0 1 -0.369,-1.248 v -3.93 h -1.147 v -0.84 h 1.154 v -1.535 z"
     fill="#ffffff" />
  <path
     id="Path_5"
     data-name="Path 5"
     d="m 152.99,212 v -8.531 h 2.41 a 3.877,3.877 0 0 1 1.969,0.492 3.329,3.329 0 0 1 1.321,1.4 4.558,4.558 0 0 1 0.47,2.086 v 0.545 a 4.574,4.574 0 0 1 -0.466,2.115 3.277,3.277 0 0 1 -1.33,1.393 4.124,4.124 0 0 1 -2.012,0.5 z m 1.125,-7.611 v 6.691 h 1.185 a 2.575,2.575 0 0 0 2.024,-0.809 3.344,3.344 0 0 0 0.724,-2.3 v -0.5 a 3.4,3.4 0 0 0 -0.683,-2.261 2.429,2.429 0 0 0 -1.937,-0.818 z m 9.205,7.728 a 2.77,2.77 0 0 1 -2.1,-0.847 3.142,3.142 0 0 1 -0.809,-2.265 v -0.2 a 3.8,3.8 0 0 1 0.36,-1.685 2.811,2.811 0 0 1 1.008,-1.16 2.534,2.534 0 0 1 1.4,-0.419 2.374,2.374 0 0 1 1.922,0.814 3.526,3.526 0 0 1 0.686,2.332 v 0.451 H 161.5 a 2.254,2.254 0 0 0 0.548,1.515 1.722,1.722 0 0 0 1.333,0.577 1.888,1.888 0 0 0 0.971,-0.23 2.444,2.444 0 0 0 0.7,-0.621 l 0.662,0.516 a 2.662,2.662 0 0 1 -2.394,1.222 z m -0.135,-5.684 a 1.446,1.446 0 0 0 -1.1,0.478 2.321,2.321 0 0 0 -0.552,1.339 h 3.176 v -0.082 a 2.065,2.065 0 0 0 -0.445,-1.28 1.361,1.361 0 0 0 -1.078,-0.454 z m 9.215,2.467 a 3.8,3.8 0 0 1 -0.66,2.332 2.122,2.122 0 0 1 -1.793,0.885 2.325,2.325 0 0 1 -1.816,-0.732 v 3.053 h -1.084 v -8.778 h 0.99 l 0.053,0.7 a 2.233,2.233 0 0 1 1.84,-0.82 2.162,2.162 0 0 1 1.808,0.861 3.838,3.838 0 0 1 0.662,2.399 z m -1.084,-0.123 a 2.8,2.8 0 0 0 -0.457,-1.693 1.472,1.472 0 0 0 -1.254,-0.621 1.593,1.593 0 0 0 -1.477,0.873 v 3.029 a 1.6,1.6 0 0 0 1.488,0.867 1.465,1.465 0 0 0 1.239,-0.618 3.058,3.058 0 0 0 0.463,-1.837 z m 3.934,-4.652 v 1.535 h 1.184 v 0.84 h -1.184 v 3.937 a 0.88,0.88 0 0 0 0.158,0.572 0.666,0.666 0 0 0 0.539,0.191 2.624,2.624 0 0 0 0.516,-0.07 V 212 a 3.161,3.161 0 0 1 -0.832,0.116 1.35,1.35 0 0 1 -1.1,-0.439 1.888,1.888 0 0 1 -0.369,-1.248 V 206.5 h -1.15 v -0.84 h 1.154 v -1.535 z m 3.533,2.3 a 2.3,2.3 0 0 1 1.875,-0.885 q 2.01,0 2.027,2.268 V 212 H 181.6 v -4.2 a 1.459,1.459 0 0 0 -0.313,-1.014 1.256,1.256 0 0 0 -0.958,-0.328 1.564,1.564 0 0 0 -0.926,0.281 1.91,1.91 0 0 0 -0.621,0.738 V 212 H 177.7 v -9 h 1.084 z"
     fill="#ffffff" />
  <path
     id="Path_9"
     data-name="Path 9"
     d="M 68.7,309.232 H 65.115 V 313 H 63.99 v -8.531 h 5.285 v 0.92 h -4.16 v 2.924 H 68.7 Z m 3.376,-4.763 2.789,6.961 2.789,-6.961 h 1.459 V 313 h -1.125 v -3.322 l 0.105,-3.586 -2.8,6.908 h -0.861 l -2.795,-6.891 0.111,3.568 V 313 h -1.125 v -8.531 z"
     fill="#ffffff" />
  <path
     id="Path_10"
     data-name="Path 10"
     d="m 158.121,312.08 h 4.043 V 313 h -5.174 v -8.531 h 1.131 z m 10.031,-2.848 h -3.58 V 313 h -1.125 v -8.531 h 5.285 v 0.92 h -4.16 v 2.924 h 3.58 z m 3.381,-4.764 2.789,6.962 2.789,-6.961 h 1.459 V 313 h -1.125 v -3.322 l 0.105,-3.586 -2.8,6.908 h -0.861 l -2.795,-6.891 0.111,3.568 V 313 h -1.125 v -8.531 z"
     fill="#ffffff" />
  <path
     id="Path_4"
     data-name="Path 4"
     d="M 108.115,208.66 V 212 h -1.125 v -8.531 h 3.147 a 3.161,3.161 0 0 1 2.194,0.715 2.423,2.423 0 0 1 0.794,1.893 2.391,2.391 0 0 1 -0.776,1.913 3.3,3.3 0 0 1 -2.224,0.671 z m 0,-0.92 h 2.022 a 2.021,2.021 0 0 0 1.383,-0.425 1.556,1.556 0 0 0 0.48,-1.23 1.608,1.608 0 0 0 -0.48,-1.221 1.894,1.894 0 0 0 -1.32,-0.475 h -2.085 z m 7.453,4.26 h -1.084 v -6.34 h 1.084 z m -1.168,-8.021 a 0.647,0.647 0 0 1 0.161,-0.445 0.6,0.6 0 0 1 0.478,-0.182 0.614,0.614 0 0 1 0.48,0.182 0.64,0.64 0 0 1 0.164,0.445 0.619,0.619 0 0 1 -0.164,0.439 0.626,0.626 0 0 1 -0.48,0.176 0.616,0.616 0 0 1 -0.478,-0.176 0.626,0.626 0 0 1 -0.161,-0.439 z m 4.377,0.146 v 1.535 h 1.184 v 0.84 h -1.188 v 3.937 a 0.88,0.88 0 0 0 0.158,0.572 0.666,0.666 0 0 0 0.539,0.191 2.624,2.624 0 0 0 0.516,-0.07 V 212 a 3.161,3.161 0 0 1 -0.832,0.116 1.35,1.35 0 0 1 -1.1,-0.439 1.888,1.888 0 0 1 -0.369,-1.248 V 206.5 h -1.15 v -0.84 h 1.154 v -1.535 z m 4.989,7.107 a 1.561,1.561 0 0 0 1.014,-0.352 1.237,1.237 0 0 0 0.48,-0.88 h 1.025 a 1.966,1.966 0 0 1 -0.375,1.039 2.47,2.47 0 0 1 -0.923,0.785 2.663,2.663 0 0 1 -1.222,0.293 2.612,2.612 0 0 1 -2.06,-0.864 3.442,3.442 0 0 1 -0.765,-2.364 v -0.182 a 3.817,3.817 0 0 1 0.34,-1.646 2.588,2.588 0 0 1 0.976,-1.119 2.771,2.771 0 0 1 1.5,-0.4 2.543,2.543 0 0 1 1.772,0.639 2.283,2.283 0 0 1 0.753,1.658 h -1.021 a 1.494,1.494 0 0 0 -0.466,-1.011 1.449,1.449 0 0 0 -1.034,-0.4 1.517,1.517 0 0 0 -1.28,0.595 2.793,2.793 0 0 0 -0.454,1.72 v 0.205 a 2.737,2.737 0 0 0 0.451,1.688 1.524,1.524 0 0 0 1.289,0.596 z m 4.822,-4.8 a 2.3,2.3 0 0 1 1.875,-0.885 q 2.01,0 2.027,2.268 V 212 h -1.084 v -4.2 a 1.459,1.459 0 0 0 -0.313,-1.014 1.256,1.256 0 0 0 -0.958,-0.328 1.564,1.564 0 0 0 -0.926,0.281 1.91,1.91 0 0 0 -0.621,0.738 V 212 H 127.5 v -9 h 1.084 z"
     fill="#ffffff" />
  <g
     aria-label="SFZ Player"
     id="text4147"
     style="font-style:normal;font-variant:normal;font-weight:normal;font-stretch:normal;font-size:17.3333px;line-height:1.25;font-family:'Space Patrol NF';-inkscape-font-specification:'Space Patrol NF, Normal';font-variant-ligatures:normal;font-variant-caps:normal;font-variant-numeric:normal;font-variant-east-asian:normal;fill:#ffffff;fill-opacity:1"
     transform="translate(34.105188,-91.108434)">
    <path
       d="m 54.580122,98.433531 -6.673321,4.471989 4.974657,8.42399 -10.434646,3.15466 -0.052,-0.156 6.621321,-4.43733 -5.009324,-8.40665 10.521313,-3.171992 z"
       id="path4149" />
    <path
       d="m 63.853432,100.92953 -5.719989,2.27066 4.437325,1.52533 v 0.26 l -3.709326,1.23066 -0.797332,5.96266 h -0.190666 l -3.67466,-11.42265 h 9.654648 z"
       id="path4151" />
    <path
       d="m 76.541382,111.78017 -10.729312,0.65867 5.269323,-10.38265 -6.88132,-1.90666 10.729312,-0.676001 -5.269323,10.382651 z"
       id="path4153" />
    <path
       d="m 91.707969,100.58286 q 0,2.59999 -2.495995,4.45466 -2.478662,1.85466 -5.945322,1.85466 -0.294666,0 -0.450666,-0.0173 l 0.675999,7.40132 h -3.085327 l 1.455997,-17.212 h 0.173333 l 0.173333,2.079996 h 9.273315 q 0.225333,0.762665 0.225333,1.438664 z m -4.021326,-0.39867 q 0,-0.0347 -0.03467,-0.104 H 82.27865 l 0.467999,6.03199 h 0.346666 q 2.183996,0 3.51866,-1.196 1.334664,-1.19599 1.334664,-3.06799 0,-0.81466 -0.26,-1.664 z"
       id="path4155" />
    <path
       d="m 96.041279,101.51886 -1.871996,11.05864 h -0.208 l -1.871996,-11.05864 z"
       id="path4157" />
    <path
       d="m 105.97323,111.71084 h -3.81333 l 0.32934,-1.456 q -0.97067,0.728 -2.06267,1.10933 -0.987995,0.34667 -1.85466,0.34667 -0.970665,0 -1.559997,-0.416 -0.571999,-0.43333 -0.571999,-1.17867 0,-1.10933 1.161331,-2.28799 1.178665,-1.196 2.825325,-1.768 1.00533,-0.34666 1.872,-0.34666 0.676,0 1.16133,0.208 l 0.0347,-0.208 h 0.55466 z m -3.58799,-3.10266 q 0.208,-0.52 0.208,-0.988 0,-1.16133 -0.95334,-1.16133 -0.64133,0 -1.35199,0.64133 -0.710669,0.624 -1.057335,1.508 -0.207999,0.52 -0.207999,0.988 0,1.14399 0.953331,1.14399 0.658663,0 1.351993,-0.624 0.71067,-0.62399 1.05734,-1.50799 z"
       id="path4159" />
    <path
       d="m 115.31585,107.18685 -7.45332,8.40665 -0.156,-0.104 1.612,-3.95199 -4.19466,-4.61066 3.53599,-1.75067 1.00534,5.52933 2.30532,-5.61599 z"
       id="path4161" />
    <path
       d="m 123.4278,107.23885 q 0.13867,0.884 -0.81466,1.66399 -1.07467,0.90134 -3.12,1.248 -0.52,0.0867 -1.26533,0.12133 0.43333,0.572 1.33466,0.572 1.31734,0 3.068,-1.09199 l 0.38133,0.46799 q -0.572,0.52 -1.872,0.97067 -1.36933,0.468 -2.70399,0.55466 -1.52533,0.0867 -2.47866,-0.39866 -1.12667,-0.572 -1.17867,-1.83733 -0.052,-1.3 1.31733,-2.34 1.21334,-0.95333 2.99867,-1.29999 0.81466,-0.156 1.52533,-0.156 1.21333,0 1.95866,0.43333 0.74533,0.43333 0.84933,1.092 z m -3.48399,-0.95333 q -0.60667,0 -1.23067,0.43333 -1.24799,0.884 -1.24799,2.01066 0,0.90133 0.90133,0.90133 0.60666,0 1.24799,-0.45066 0.55467,-0.38134 0.90134,-0.936 0.34666,-0.572 0.34666,-1.05733 0,-0.90133 -0.91866,-0.90133 z"
       id="path4163" />
    <path
       d="m 129.49442,108.74684 -2.85999,0.17334 -0.86666,3.51866 h -0.24267 l -1.664,-6.72532 h 3.57066 l -0.32933,1.33466 2.39199,-1.33466 z"
       id="path4165" />
  </g>
</svg>
