<svg id="Layer_1" data-name="Layer 1" xmlns="http://www.w3.org/2000/svg" width="56" height="26" viewBox="0 0 56 26">
  <title>seq-scroll-button</title>
  <g>
    <path d="M10,14.93a1.48,1.48,0,0,0-.51-1.14A4.42,4.42,0,0,0,7.71,13a6,6,0,0,1-2.46-1.11,2.3,2.3,0,0,1-.89-1.84,2.41,2.41,0,0,1,1-2,3.77,3.77,0,0,1,2.47-.78,3.67,3.67,0,0,1,2.6.9,2.65,2.65,0,0,1,.93,2.07v0H10a1.86,1.86,0,0,0-.57-1.42A2.35,2.35,0,0,0,7.79,8.4a2.27,2.27,0,0,0-1.54.46A1.46,1.46,0,0,0,5.71,10a1.31,1.31,0,0,0,.58,1.09,5.8,5.8,0,0,0,1.89.76A5.34,5.34,0,0,1,10.57,13a2.43,2.43,0,0,1,.82,1.88,2.3,2.3,0,0,1-1,1.93,4.21,4.21,0,0,1-2.57.73,4.44,4.44,0,0,1-2.64-.81,2.45,2.45,0,0,1-1.11-2.16v0H5.39A1.65,1.65,0,0,0,6.09,16a2.9,2.9,0,0,0,1.75.5,2.69,2.69,0,0,0,1.61-.43A1.33,1.33,0,0,0,10,14.93Z" style="fill: #307dee"/>
    <path d="M14.3,10l.1,1a2.47,2.47,0,0,1,.92-.81,2.67,2.67,0,0,1,1.29-.3,2.26,2.26,0,0,1,1.27.35,2.08,2.08,0,0,1,.8,1,2.77,2.77,0,0,1,.92-1,2.47,2.47,0,0,1,1.34-.37,2.19,2.19,0,0,1,1.78.78A3.55,3.55,0,0,1,23.38,13v4.42H22V13a2.48,2.48,0,0,0-.37-1.55A1.38,1.38,0,0,0,20.54,11a1.42,1.42,0,0,0-1.12.48,2,2,0,0,0-.5,1.21v4.75H17.56V13a2.48,2.48,0,0,0-.38-1.52A1.35,1.35,0,0,0,16.07,11a1.88,1.88,0,0,0-1,.25,1.67,1.67,0,0,0-.6.71v5.48H13.1V10Z" style="fill: #307dee"/>
    <path d="M25,13.67a4.09,4.09,0,0,1,.89-2.7A3,3,0,0,1,28.32,9.9,3,3,0,0,1,30.75,11a4,4,0,0,1,.9,2.71v.15a4.08,4.08,0,0,1-.89,2.71,3.33,3.33,0,0,1-4.85,0A4.09,4.09,0,0,1,25,13.82Zm1.35.15a3.51,3.51,0,0,0,.49,1.94,1.65,1.65,0,0,0,1.48.76,1.63,1.63,0,0,0,1.46-.76,3.52,3.52,0,0,0,.5-1.94v-.15a3.48,3.48,0,0,0-.5-1.93A1.66,1.66,0,0,0,28.32,11a1.62,1.62,0,0,0-1.46.78,3.48,3.48,0,0,0-.49,1.93Z" style="fill: #307dee"/>
    <path d="M33,13.67a4,4,0,0,1,.89-2.7A3,3,0,0,1,36.28,9.9,3,3,0,0,1,38.71,11a4,4,0,0,1,.89,2.71v.15a4,4,0,0,1-.89,2.71,3.31,3.31,0,0,1-4.84,0A4.09,4.09,0,0,1,33,13.82Zm1.35.15a3.51,3.51,0,0,0,.49,1.94,1.8,1.8,0,0,0,2.94,0,3.52,3.52,0,0,0,.5-1.94v-.15a3.4,3.4,0,0,0-.51-1.93,1.77,1.77,0,0,0-2.93,0,3.48,3.48,0,0,0-.49,1.93Z" style="fill: #307dee"/>
    <path d="M43,8.26V10h1.4v1H43v4.49a1,1,0,0,0,.21.73.8.8,0,0,0,.57.21l.26,0a1.49,1.49,0,0,0,.25-.07l.18.92a1.2,1.2,0,0,1-.44.2,2,2,0,0,1-.59.08,1.72,1.72,0,0,1-1.3-.49,2.13,2.13,0,0,1-.49-1.56V11H40.5V10h1.18V8.26Z" style="fill: #307dee"/>
    <path d="M47.44,11a2.68,2.68,0,0,1,.94-.83,2.54,2.54,0,0,1,1.23-.3,2.37,2.37,0,0,1,1.84.72,3.11,3.11,0,0,1,.66,2.18v4.64H50.77V12.79a2,2,0,0,0-.4-1.35A1.46,1.46,0,0,0,49.2,11a2.09,2.09,0,0,0-1,.26,2.21,2.21,0,0,0-.74.72v5.46H46.09V6.77h1.35Z" style="fill: #307dee"/>
  </g>
  <rect x="0.5" y="0.5" width="55" height="25" rx="3" style="fill: none;stroke: #999;stroke-miterlimit: 10"/>
</svg>
