<svg id="Layer_1" data-name="Layer 1" xmlns="http://www.w3.org/2000/svg" width="56" height="26" viewBox="0 0 56 26">
  <title>seq-scroll-button</title>
  <rect x="0.5" y="0.5" width="55" height="25" rx="3" style="fill: none;stroke: #999;stroke-miterlimit: 10"/>
  <g>
    <path d="M13.62,17.44v-10h3.25a3.93,3.93,0,0,1,2.44.68,2.37,2.37,0,0,1,.88,2,1.81,1.81,0,0,1-.42,1.18,2.52,2.52,0,0,1-1.12.78,2.28,2.28,0,0,1,1.42.88,2.59,2.59,0,0,1,.52,1.61,2.55,2.55,0,0,1-.89,2.09,3.69,3.69,0,0,1-2.4.72ZM15,11.72h2.18a1.76,1.76,0,0,0,1.22-.42,1.43,1.43,0,0,0,.48-1.15,1.45,1.45,0,0,0-.51-1.21,2.38,2.38,0,0,0-1.47-.4H15Zm0,1.06v3.6H17.3a2.1,2.1,0,0,0,1.43-.45,1.64,1.64,0,0,0,.51-1.29,2,2,0,0,0-.43-1.37,1.63,1.63,0,0,0-1.31-.49Z" style="fill: #307dee"/>
    <path d="M26.86,17.44c0-.23-.08-.42-.1-.59a4.57,4.57,0,0,1-.05-.52,3,3,0,0,1-1,.89,2.47,2.47,0,0,1-1.3.36A2.43,2.43,0,0,1,22.67,17a2.18,2.18,0,0,1-.6-1.63,1.91,1.91,0,0,1,.85-1.66,4,4,0,0,1,2.33-.6h1.46v-.73a1.39,1.39,0,0,0-.39-1,1.83,1.83,0,0,0-2.18,0,1,1,0,0,0-.41.79H22.45l0,0a1.81,1.81,0,0,1,.77-1.48,3.14,3.14,0,0,1,2.07-.67,3.07,3.07,0,0,1,2,.64,2.25,2.25,0,0,1,.77,1.85V16a6.23,6.23,0,0,0,0,.76,4.5,4.5,0,0,0,.15.73Zm-2.23-1A2.4,2.4,0,0,0,26,16.07a1.71,1.71,0,0,0,.76-.86V14H25.2a2,2,0,0,0-1.3.41,1.26,1.26,0,0,0-.49,1,1,1,0,0,0,.31.78A1.29,1.29,0,0,0,24.63,16.45Z" style="fill: #307dee"/>
    <path d="M33.52,11.23l-.69,0a1.52,1.52,0,0,0-.9.25,1.61,1.61,0,0,0-.57.71v5.29H30V10h1.2l.13,1.08a2.6,2.6,0,0,1,.77-.89,1.81,1.81,0,0,1,1.07-.33,1.27,1.27,0,0,1,.28,0l.23.05Z" style="fill: #307dee"/>
    <path d="M39.11,15.47a.92.92,0,0,0-.33-.73,3.25,3.25,0,0,0-1.29-.5,5.36,5.36,0,0,1-2-.8,1.58,1.58,0,0,1-.68-1.36,1.92,1.92,0,0,1,.76-1.54,3.46,3.46,0,0,1,4.05,0,2,2,0,0,1,.73,1.61v0H39a1.18,1.18,0,0,0-.4-.87A1.51,1.51,0,0,0,37.55,11a1.55,1.55,0,0,0-1.07.32,1,1,0,0,0-.35.76.87.87,0,0,0,.31.69,3.16,3.16,0,0,0,1.25.45,5.3,5.3,0,0,1,2.09.82,1.64,1.64,0,0,1,.68,1.38A1.89,1.89,0,0,1,39.67,17a3.35,3.35,0,0,1-2.09.61,3.27,3.27,0,0,1-2.23-.72,2,2,0,0,1-.77-1.67l0,0h1.28a1.24,1.24,0,0,0,.53,1,2.11,2.11,0,0,0,1.17.33,1.87,1.87,0,0,0,1.13-.29A.89.89,0,0,0,39.11,15.47Z" style="fill: #307dee"/>
  </g>
</svg>
