<svg id="Layer_1" data-name="Layer 1" xmlns="http://www.w3.org/2000/svg" width="56" height="26" viewBox="0 0 56 26">
  <title>seq-scroll-button</title>
  <rect x="0.5" y="0.5" width="55" height="25" rx="3" style="fill: none;stroke: #999;stroke-miterlimit: 10"/>
  <g>
    <path d="M25.16,13.35a4.26,4.26,0,0,1-1.13,3,3.87,3.87,0,0,1-2.94,1.2,3.64,3.64,0,0,1-2.83-1.2,4.32,4.32,0,0,1-1.09-3V11.58a4.35,4.35,0,0,1,1.09-3,3.61,3.61,0,0,1,2.83-1.21A3.85,3.85,0,0,1,24,8.55a4.26,4.26,0,0,1,1.13,3Zm-1.35-1.78a3.39,3.39,0,0,0-.74-2.25,2.46,2.46,0,0,0-2-.87,2.29,2.29,0,0,0-1.88.87,3.54,3.54,0,0,0-.7,2.25v1.78a3.56,3.56,0,0,0,.7,2.26,2.29,2.29,0,0,0,1.88.87,2.46,2.46,0,0,0,2-.87,3.38,3.38,0,0,0,.74-2.26Z" style="fill: #307dee"/>
    <path d="M27.47,17.44V11H26.32V10h1.15V9.1a2.54,2.54,0,0,1,.62-1.82,2.28,2.28,0,0,1,1.73-.65,2.56,2.56,0,0,1,.47,0l.52.1-.16,1-.3,0-.37,0a1.07,1.07,0,0,0-.87.35,1.61,1.61,0,0,0-.29,1V10h1.54v1H28.82v6.4Z" style="fill: #307dee"/>
    <path d="M32.31,17.44V11H31.15V10h1.16V9.1a2.54,2.54,0,0,1,.61-1.82,2.3,2.3,0,0,1,1.73-.65,2.49,2.49,0,0,1,.47,0c.16,0,.33.06.52.1l-.16,1-.3,0-.36,0a1.07,1.07,0,0,0-.88.35,1.61,1.61,0,0,0-.29,1V10h1.54v1H33.65v6.4Z" style="fill: #307dee"/>
  </g>
</svg>
