<svg id="Layer_1" data-name="Layer 1" xmlns="http://www.w3.org/2000/svg" width="120" height="380" viewBox="0 0 120 380">
  <title>seq_panel</title>
  <rect width="120" height="380" style="fill: #e6e6e6"/>
  <g>
    <path d="M21.36,351.27l-6.94,4.65,5.17,8.75L8.76,367.94l0-.16,6.87-4.61-5.2-8.73,10.93-3.29Z"/>
    <path d="M30.94,368.82H26.85l.74-4.39a7.76,7.76,0,0,1-3.49.83,4.23,4.23,0,0,1-2.34-.59,1.83,1.83,0,0,1-.9-1.59,3.48,3.48,0,0,1,1.45-2.55,8.16,8.16,0,0,1,3.53-1.75,6.73,6.73,0,0,1,2.74-.11l.21-1.35H29Zm-2.49-9.43a5.75,5.75,0,0,0-1.2-.14,3.12,3.12,0,0,0-2.22.83,2.73,2.73,0,0,0-.86,2.19,2,2,0,0,0,.48,1.34,1.58,1.58,0,0,0,1.25.53,3.75,3.75,0,0,0,1.85-.61Z"/>
    <path d="M39,365.26H36.53l.29-2.21a4.87,4.87,0,0,1-4.1,2.39,4.08,4.08,0,0,1-1.26-.18l2.45-6.84.27.05a8.13,8.13,0,0,0-.13,1.5c0,1.31.3,2,.9,2a.86.86,0,0,0,.34-.07,3.24,3.24,0,0,0,1.55-1.59,6.61,6.61,0,0,0,.81-2.17h.22Z"/>
    <path d="M43.66,357.74l-1.94,7.39h-.2l-1.94-7.39Zm.15-2.63-1.55.46.41,1.61-.94-1.35-1.38.86,1-1.29-1.24-1,1.53.52.61-1.49,0,1.62Z"/>
    <path d="M51.92,358.28l-2.44,6.84-.27-.06a9.08,9.08,0,0,0,.12-1.49c0-1.31-.3-2-.9-2a.86.86,0,0,0-.34.07,3.26,3.26,0,0,0-1.55,1.58,6.79,6.79,0,0,0-.83,2.18h-.19l-1.12-7.16h2.43l-.27,2.21a4.85,4.85,0,0,1,4.1-2.39A4.26,4.26,0,0,1,51.92,358.28Z"/>
    <path d="M60.9,358.83l-3.74,2.67,2.38,4.23-.16.23-4.18-2.9-.52,3.14h-.22l-1.94-11.51h4.1L55.38,362l2.18-3.14Z"/>
    <path d="M70.46,360.36l-7.74,8.73-.16-.1,1.67-4.11-4.35-4.79,3.67-1.81,1,5.74,2.4-5.83Z"/>
    <path d="M85.38,364.54H80.74l.16,1-4,.59.25-1.62H74.39l0-.22,3-.88,1.53-10.28H79l1.46,9.35,5-1.5Z"/>
    <path d="M95.79,365.06h-4l.34-1.51A7.79,7.79,0,0,1,90,364.7a5.88,5.88,0,0,1-1.93.36,2.63,2.63,0,0,1-1.61-.44,1.42,1.42,0,0,1-.6-1.21A3.51,3.51,0,0,1,87.1,361,7.59,7.59,0,0,1,90,359.19a5.94,5.94,0,0,1,1.94-.36,3.15,3.15,0,0,1,1.21.22l0-.22h.58Zm-3.73-3.22a2.65,2.65,0,0,0,.22-1q0-1.2-1-1.2a2.19,2.19,0,0,0-1.41.66,4,4,0,0,0-1.09,1.57,2.65,2.65,0,0,0-.22,1c0,.79.33,1.18,1,1.18a2.14,2.14,0,0,0,1.41-.64A4.08,4.08,0,0,0,92.06,361.84Z"/>
    <path d="M105.08,360.76a3.5,3.5,0,0,1-1.46,2.54,8.09,8.09,0,0,1-3.53,1.74,7,7,0,0,1-1.67.2,6,6,0,0,1-1.3-.14l-.14.84h-.22l-1.94-11.5h4.1l-.86,5.1a8.05,8.05,0,0,1,3.76-1,4.2,4.2,0,0,1,2.35.61A1.84,1.84,0,0,1,105.08,360.76Zm-3.32.79a2,2,0,0,0-.48-1.34,1.59,1.59,0,0,0-1.24-.53,4,4,0,0,0-2.15.79l-.64,3.89a4.7,4.7,0,0,0,1.44.23,3.06,3.06,0,0,0,2.21-.86A2.76,2.76,0,0,0,101.76,361.55Z"/>
    <path d="M113.27,364.68l-6.9,1.71-.05-.1,2.91-2.29-3.72-4.48,6.57-1.77,0,.09-2.7,2.24Z"/>
  </g>
  <g>
    <path d="M43,16.09l-8.09,5.42,6,10.21L28.33,35.54l-.06-.19,8-5.38L30.22,19.79,43,15.94Z"/>
    <path d="M53,26.76a2.13,2.13,0,0,1-1,2,7.86,7.86,0,0,1-3.78,1.52,11.81,11.81,0,0,1-1.54.14,1.88,1.88,0,0,0,1.62.7A7.26,7.26,0,0,0,52,29.8l.46.57a6.81,6.81,0,0,1-2.27,1.18,13,13,0,0,1-3.27.67,5.91,5.91,0,0,1-3-.48,2.46,2.46,0,0,1-1.42-2.23,3.38,3.38,0,0,1,1.59-2.84,8.47,8.47,0,0,1,3.63-1.57,9.6,9.6,0,0,1,1.85-.19,4.74,4.74,0,0,1,2.38.53A1.87,1.87,0,0,1,53,26.76ZM48.76,25.6a2.63,2.63,0,0,0-1.49.53,3,3,0,0,0-1.51,2.43,1,1,0,0,0,1.09,1.1,2.65,2.65,0,0,0,1.51-.55A3.85,3.85,0,0,0,49.46,28a2.47,2.47,0,0,0,.42-1.27A1,1,0,0,0,48.76,25.6Z"/>
    <path d="M65.21,36.57H60.44l.86-5.13a8.93,8.93,0,0,1-4.07,1,4.81,4.81,0,0,1-2.73-.7,2.11,2.11,0,0,1-1-1.84,4.08,4.08,0,0,1,1.7-3,9.58,9.58,0,0,1,4.11-2,7.76,7.76,0,0,1,3.2-.13l.25-1.57h.23Zm-2.9-11a6.45,6.45,0,0,0-1.41-.17,3.69,3.69,0,0,0-2.58,1,3.2,3.2,0,0,0-1,2.56,2.34,2.34,0,0,0,.57,1.57,1.83,1.83,0,0,0,1.45.62,4.36,4.36,0,0,0,2.16-.72Z"/>
    <path d="M72.3,21v4.93h4.75V27.2H72.3v5H71v-5H66.21V25.94H71V21Z"/>
    <path d="M84.82,21v4.93h4.74V27.2H84.82v5H83.47v-5H78.73V25.94h4.74V21Z"/>
  </g>
  <rect x="5" y="303.5" width="70" height="45" rx="3"/>
  <g>
    <path d="M22,60v0a2.57,2.57,0,0,1-.84,2,3.25,3.25,0,0,1-2.3.81,3,3,0,0,1-2.35-1,3.75,3.75,0,0,1-.91-2.6V57.66a3.75,3.75,0,0,1,.91-2.6,3,3,0,0,1,2.35-1,3.29,3.29,0,0,1,2.31.77,2.52,2.52,0,0,1,.83,2v0H20.9a1.9,1.9,0,0,0-.53-1.42,2,2,0,0,0-1.49-.52,1.85,1.85,0,0,0-1.54.77,3.21,3.21,0,0,0-.57,1.94v1.52a3.22,3.22,0,0,0,.57,1.95,1.83,1.83,0,0,0,1.54.78,2,2,0,0,0,1.49-.52A1.94,1.94,0,0,0,20.9,60Z"/>
    <path d="M24.61,62.68H23.46V53.54h1.15Z"/>
    <path d="M26.12,59.45a3.46,3.46,0,0,1,.76-2.31A2.53,2.53,0,0,1,29,56.22a2.6,2.6,0,0,1,2.08.91,3.49,3.49,0,0,1,.76,2.32v.13A3.45,3.45,0,0,1,31,61.9a2.84,2.84,0,0,1-4.15,0,3.47,3.47,0,0,1-.76-2.32Zm1.15.13a3,3,0,0,0,.42,1.66A1.42,1.42,0,0,0,29,61.9a1.39,1.39,0,0,0,1.25-.66,3,3,0,0,0,.43-1.66v-.13a3,3,0,0,0-.43-1.66,1.53,1.53,0,0,0-2.52,0,3.05,3.05,0,0,0-.42,1.66Z"/>
    <path d="M35.78,61.9a1.52,1.52,0,0,0,1-.36,1.07,1.07,0,0,0,.44-.87h1v0a1.79,1.79,0,0,1-.73,1.46,2.68,2.68,0,0,1-1.77.63,2.56,2.56,0,0,1-2.11-.9,3.47,3.47,0,0,1-.73-2.27v-.24a3.47,3.47,0,0,1,.73-2.26,2.58,2.58,0,0,1,2.11-.91,2.55,2.55,0,0,1,1.82.66,2.08,2.08,0,0,1,.69,1.61l0,0h-1a1.35,1.35,0,0,0-.41-1,1.42,1.42,0,0,0-1-.41,1.38,1.38,0,0,0-1.29.66,3,3,0,0,0-.39,1.6v.24a3.08,3.08,0,0,0,.38,1.62A1.4,1.4,0,0,0,35.78,61.9Z"/>
    <path d="M41.48,59.75h-.75v2.93H39.58V53.54h1.15v5.3h.74l1.74-2.5h1.38l-2.17,2.88,2.48,3.46H43.54Z"/>
    <path d="M51.71,57.36l-.59,0a1.34,1.34,0,0,0-.77.21,1.49,1.49,0,0,0-.49.61v4.53H48.71V56.34h1l.11.93a2.12,2.12,0,0,1,.67-.77,1.56,1.56,0,0,1,.91-.28.93.93,0,0,1,.24,0l.2,0Z"/>
    <path d="M56.72,62.68q-.06-.28-.09-.51a3.13,3.13,0,0,1,0-.44,2.71,2.71,0,0,1-.84.77,2.21,2.21,0,0,1-1.12.3,2.07,2.07,0,0,1-1.51-.5,1.9,1.9,0,0,1-.51-1.4,1.62,1.62,0,0,1,.73-1.42,3.46,3.46,0,0,1,2-.51h1.25v-.63a1.14,1.14,0,0,0-.34-.88,1.33,1.33,0,0,0-1-.33,1.42,1.42,0,0,0-.91.29.84.84,0,0,0-.34.68H52.93v0a1.54,1.54,0,0,1,.66-1.26,3,3,0,0,1,3.51,0,1.93,1.93,0,0,1,.65,1.58v3c0,.23,0,.45,0,.66a3.25,3.25,0,0,0,.13.62Zm-1.92-.85a2,2,0,0,0,1.13-.32,1.49,1.49,0,0,0,.66-.74v-1h-1.3a1.64,1.64,0,0,0-1.11.35,1,1,0,0,0-.42.82.9.9,0,0,0,.26.67A1.14,1.14,0,0,0,54.8,61.83Z"/>
    <path d="M60.94,54.81v1.53h1.2v.86h-1.2v3.85a.82.82,0,0,0,.19.62.66.66,0,0,0,.49.19l.22,0a.65.65,0,0,0,.21-.06l.15.79a1.06,1.06,0,0,1-.37.18,2.22,2.22,0,0,1-.51.06,1.49,1.49,0,0,1-1.11-.42,1.83,1.83,0,0,1-.42-1.33V57.2h-1v-.86h1V54.81Z"/>
    <path d="M66.2,62.8a2.68,2.68,0,0,1-2.11-.88,3.33,3.33,0,0,1-.78-2.29v-.25a3.25,3.25,0,0,1,.81-2.26,2.46,2.46,0,0,1,1.9-.9A2.38,2.38,0,0,1,68,57a3.05,3.05,0,0,1,.66,2.06v.72H64.51l0,0a2.46,2.46,0,0,0,.46,1.5,1.48,1.48,0,0,0,1.25.59,3,3,0,0,0,1-.17,2.41,2.41,0,0,0,.76-.46l.45.75a2.66,2.66,0,0,1-.89.56A3.6,3.6,0,0,1,66.2,62.8ZM66,57.13a1.29,1.29,0,0,0-1,.49,2.32,2.32,0,0,0-.5,1.22v0h2.92v-.15a1.76,1.76,0,0,0-.36-1.13A1.28,1.28,0,0,0,66,57.13Z"/>
  </g>
  <g>
    <path d="M16.81,108v3.42H15.65v-8.53h3.27a3,3,0,0,1,2.12.7,2.67,2.67,0,0,1,0,3.71,3,3,0,0,1-2.12.7Zm0-.91h2.11a1.54,1.54,0,0,0,1.72-1.64,1.73,1.73,0,0,0-.43-1.18,1.65,1.65,0,0,0-1.29-.47H16.81Z"/>
    <path d="M22.78,108.23a3.49,3.49,0,0,1,.76-2.32,2.82,2.82,0,0,1,4.15,0,3.49,3.49,0,0,1,.76,2.32v.13a3.45,3.45,0,0,1-.76,2.32,2.84,2.84,0,0,1-4.15,0,3.49,3.49,0,0,1-.76-2.32Zm1.15.13a3,3,0,0,0,.43,1.66,1.54,1.54,0,0,0,2.51,0,3,3,0,0,0,.43-1.66v-.13a3,3,0,0,0-.43-1.66,1.42,1.42,0,0,0-1.26-.66,1.39,1.39,0,0,0-1.25.66,3,3,0,0,0-.43,1.66Z"/>
    <path d="M31.11,111.46H30v-9.14h1.15Z"/>
    <path d="M34.83,109.11l.2.8h0l1.56-4.79h1.28l-2.66,7.31a3.46,3.46,0,0,1-.69,1.12,1.62,1.62,0,0,1-1.21.47L33,114l-.33-.06.11-.91H33l.31,0a.71.71,0,0,0,.6-.33,3,3,0,0,0,.39-.73l.28-.66-2.36-6.21h1.29Z"/>
    <path d="M44.33,108.53a3.48,3.48,0,0,1-.66,2.21,2.17,2.17,0,0,1-1.81.84,2.56,2.56,0,0,1-1-.19,2,2,0,0,1-.75-.59v3.1H38.92v-8.78h.89l.18.82a2.23,2.23,0,0,1,.77-.7,2.32,2.32,0,0,1,1.08-.24,2.08,2.08,0,0,1,1.83.94,4.18,4.18,0,0,1,.66,2.47Zm-1.16-.13a3.41,3.41,0,0,0-.42-1.77,1.39,1.39,0,0,0-1.25-.69,1.54,1.54,0,0,0-.85.23,1.6,1.6,0,0,0-.57.61v3.06a1.56,1.56,0,0,0,.57.62,1.64,1.64,0,0,0,.86.21,1.43,1.43,0,0,0,1.24-.59,2.67,2.67,0,0,0,.42-1.55Z"/>
    <path d="M46.9,106a2.39,2.39,0,0,1,.81-.71,2.18,2.18,0,0,1,1-.26,2.07,2.07,0,0,1,1.58.61,2.68,2.68,0,0,1,.57,1.88v4H49.75v-4a1.71,1.71,0,0,0-.33-1.16,1.3,1.3,0,0,0-1-.38,1.71,1.71,0,0,0-.87.23,1.87,1.87,0,0,0-.64.61v4.68H45.75v-9.14H46.9Z"/>
    <path d="M52.3,108.23a3.49,3.49,0,0,1,.76-2.32,2.57,2.57,0,0,1,2.07-.91,2.6,2.6,0,0,1,2.08.91,3.49,3.49,0,0,1,.76,2.32v.13a3.45,3.45,0,0,1-.76,2.32,2.84,2.84,0,0,1-4.15,0,3.49,3.49,0,0,1-.76-2.32Zm1.15.13a3,3,0,0,0,.43,1.66,1.54,1.54,0,0,0,2.51,0,3,3,0,0,0,.43-1.66v-.13a3,3,0,0,0-.43-1.66,1.42,1.42,0,0,0-1.26-.66,1.39,1.39,0,0,0-1.25.66,3,3,0,0,0-.43,1.66Z"/>
    <path d="M60.42,105.12l.08.94a2.36,2.36,0,0,1,.79-.78,2.18,2.18,0,0,1,1.09-.28,2.09,2.09,0,0,1,1.59.6,2.67,2.67,0,0,1,.56,1.86v4H63.38v-4a1.68,1.68,0,0,0-.34-1.19,1.33,1.33,0,0,0-1-.35,1.64,1.64,0,0,0-.88.24,1.77,1.77,0,0,0-.61.66v4.62H59.39v-6.34Z"/>
    <path d="M68.15,109.11l.2.8h0l1.55-4.79h1.29l-2.67,7.31a3.29,3.29,0,0,1-.69,1.12,1.6,1.6,0,0,1-1.21.47l-.35,0-.34-.06.12-.91h.21l.3,0a.72.72,0,0,0,.61-.33,3.39,3.39,0,0,0,.39-.73l.28-.66-2.36-6.21h1.29Z"/>
  </g>
  <g>
    <path d="M51.41,154.81v3.7H50.26V150h3.09a3.29,3.29,0,0,1,2.14.62,2.25,2.25,0,0,1,.73,1.81,1.92,1.92,0,0,1-.34,1.14,2.33,2.33,0,0,1-1,.77,1.76,1.76,0,0,1,1,.74,2.42,2.42,0,0,1,.31,1.27v.81a2.6,2.6,0,0,0,.09.71,1.17,1.17,0,0,0,.3.52v.14H55.4a1,1,0,0,1-.29-.59,5.19,5.19,0,0,1-.06-.8v-.78a1.53,1.53,0,0,0-.41-1.11,1.43,1.43,0,0,0-1.08-.42Zm0-.91h1.82a2.15,2.15,0,0,0,1.41-.37,1.4,1.4,0,0,0,.43-1.13,1.48,1.48,0,0,0-.42-1.12,1.85,1.85,0,0,0-1.3-.39H51.41Z"/>
    <path d="M62,157.57a2.13,2.13,0,0,1-.77.78,2,2,0,0,1-1.08.28,2.05,2.05,0,0,1-1.62-.66,3.05,3.05,0,0,1-.58-2.06v-3.74h1.15v3.75a2.34,2.34,0,0,0,.3,1.39,1.09,1.09,0,0,0,.93.38,1.88,1.88,0,0,0,1-.25,1.55,1.55,0,0,0,.61-.7v-4.57h1.15v6.34h-1Z"/>
    <path d="M65.84,152.17l.09.94a2.18,2.18,0,0,1,.79-.78,2.35,2.35,0,0,1,2.68.32A2.66,2.66,0,0,1,70,154.5v4H68.8v-4a1.71,1.71,0,0,0-.33-1.19,1.29,1.29,0,0,0-1-.35,1.64,1.64,0,0,0-.88.24,1.73,1.73,0,0,0-.61.65v4.63H64.81v-6.34Z"/>
  </g>
  <g>
    <path d="M18,263.77v0a2.58,2.58,0,0,1-.85,2,3.2,3.2,0,0,1-2.29.81,3,3,0,0,1-2.36-1A3.84,3.84,0,0,1,11.6,263v-1.51a3.84,3.84,0,0,1,.91-2.61,3,3,0,0,1,2.36-1,3.36,3.36,0,0,1,2.31.77,2.59,2.59,0,0,1,.83,2.05v0H16.89a1.92,1.92,0,0,0-.53-1.42,2.06,2.06,0,0,0-1.49-.52,1.82,1.82,0,0,0-1.54.78,3.18,3.18,0,0,0-.57,1.93V263a3.19,3.19,0,0,0,.57,1.94,1.82,1.82,0,0,0,1.54.78,2,2,0,0,0,1.49-.52,1.91,1.91,0,0,0,.53-1.43Z"/>
    <path d="M20.6,266.51H19.44v-9.14H20.6Z"/>
    <path d="M24.28,263.57h-.75v2.94H22.38v-9.14h1.15v5.29h.74L26,260.17h1.38L25.22,263l2.48,3.47H26.34Z"/>
  </g>
  <g>
    <path d="M46.7,262.81v3.7H45.54V258h3.09a3.27,3.27,0,0,1,2.14.62,2.25,2.25,0,0,1,.74,1.81,1.93,1.93,0,0,1-.35,1.14,2.28,2.28,0,0,1-1,.77,1.82,1.82,0,0,1,1,.74,2.51,2.51,0,0,1,.3,1.27v.81a2.6,2.6,0,0,0,.09.71,1.1,1.1,0,0,0,.31.52v.14H50.69a1,1,0,0,1-.3-.59,5.19,5.19,0,0,1-.06-.8v-.78a1.53,1.53,0,0,0-.41-1.11,1.43,1.43,0,0,0-1.08-.42Zm0-.91h1.81a2.15,2.15,0,0,0,1.41-.37,1.4,1.4,0,0,0,.43-1.13,1.48,1.48,0,0,0-.42-1.12,1.85,1.85,0,0,0-1.3-.39H46.7Z"/>
    <path d="M55.91,266.63a2.66,2.66,0,0,1-2.11-.88,3.33,3.33,0,0,1-.78-2.29v-.26a3.28,3.28,0,0,1,.8-2.25,2.5,2.5,0,0,1,1.91-.9,2.42,2.42,0,0,1,1.94.77,3.1,3.1,0,0,1,.66,2.07v.72H54.21v0a2.45,2.45,0,0,0,.46,1.49,1.46,1.46,0,0,0,1.25.59,2.75,2.75,0,0,0,1-.17,2.34,2.34,0,0,0,.76-.46l.45.76a2.72,2.72,0,0,1-.9.56A3.58,3.58,0,0,1,55.91,266.63ZM55.73,261a1.23,1.23,0,0,0-1,.49,2.28,2.28,0,0,0-.5,1.22v0h2.92v-.15a1.79,1.79,0,0,0-.36-1.14A1.3,1.3,0,0,0,55.73,261Z"/>
    <path d="M63.31,264.82a.82.82,0,0,0-.29-.63,3,3,0,0,0-1.1-.43,4.47,4.47,0,0,1-1.74-.68,1.35,1.35,0,0,1-.58-1.17,1.69,1.69,0,0,1,.65-1.32,3,3,0,0,1,3.48,0,1.69,1.69,0,0,1,.62,1.38v0h-1.1a1,1,0,0,0-.35-.75A1.29,1.29,0,0,0,62,261a1.32,1.32,0,0,0-.91.27.83.83,0,0,0-.3.65.71.71,0,0,0,.27.59,2.85,2.85,0,0,0,1.07.39,4.59,4.59,0,0,1,1.79.7,1.4,1.4,0,0,1,.58,1.18,1.65,1.65,0,0,1-.68,1.37,2.86,2.86,0,0,1-1.79.52,2.81,2.81,0,0,1-1.91-.62,1.76,1.76,0,0,1-.66-1.43v0h1.11a1.08,1.08,0,0,0,.45.9,1.77,1.77,0,0,0,1,.28,1.62,1.62,0,0,0,1-.25A.76.76,0,0,0,63.31,264.82Z"/>
    <path d="M68.53,266.63a2.66,2.66,0,0,1-2.11-.88,3.33,3.33,0,0,1-.78-2.29v-.26a3.24,3.24,0,0,1,.81-2.25,2.46,2.46,0,0,1,1.9-.9,2.42,2.42,0,0,1,1.94.77,3.1,3.1,0,0,1,.66,2.07v.72H66.83v0a2.45,2.45,0,0,0,.46,1.49,1.46,1.46,0,0,0,1.25.59,2.75,2.75,0,0,0,1-.17,2.24,2.24,0,0,0,.76-.46l.45.76a2.77,2.77,0,0,1-.89.56A3.67,3.67,0,0,1,68.53,266.63ZM68.35,261a1.23,1.23,0,0,0-1,.49,2.28,2.28,0,0,0-.5,1.22v0h2.92v-.15a1.79,1.79,0,0,0-.36-1.14A1.3,1.3,0,0,0,68.35,261Z"/>
    <path d="M73.77,258.64v1.53H75V261h-1.2v3.85a.88.88,0,0,0,.18.63.67.67,0,0,0,.49.18l.22,0,.21-.06.16.79a1,1,0,0,1-.38.17,1.77,1.77,0,0,1-.5.07,1.49,1.49,0,0,1-1.12-.42,1.86,1.86,0,0,1-.42-1.34V261h-1v-.85h1v-1.53Z"/>
  </g>
  <g>
    <path d="M92.24,262.81v3.7H91.09V258h3.09a3.29,3.29,0,0,1,2.14.62,2.25,2.25,0,0,1,.73,1.81,1.92,1.92,0,0,1-.34,1.14,2.33,2.33,0,0,1-1,.77,1.76,1.76,0,0,1,1,.74,2.42,2.42,0,0,1,.31,1.27v.81a2.6,2.6,0,0,0,.09.71,1.17,1.17,0,0,0,.3.52v.14H96.23a1,1,0,0,1-.29-.59,5.19,5.19,0,0,1-.06-.8v-.78a1.53,1.53,0,0,0-.41-1.11,1.43,1.43,0,0,0-1.08-.42Zm0-.91h1.82a2.15,2.15,0,0,0,1.41-.37,1.4,1.4,0,0,0,.43-1.13,1.48,1.48,0,0,0-.42-1.12,1.85,1.85,0,0,0-1.3-.39H92.24Z"/>
    <path d="M102.85,265.57a2.13,2.13,0,0,1-.77.78,2,2,0,0,1-1.08.28,2.05,2.05,0,0,1-1.62-.66,3.05,3.05,0,0,1-.58-2.06v-3.74H100v3.75a2.35,2.35,0,0,0,.29,1.39,1.1,1.1,0,0,0,.94.38,1.85,1.85,0,0,0,1-.25,1.55,1.55,0,0,0,.61-.7v-4.57H104v6.34h-1Z"/>
    <path d="M106.68,260.17l.08.94a2.18,2.18,0,0,1,.79-.78,2.35,2.35,0,0,1,2.68.32,2.66,2.66,0,0,1,.56,1.85v4h-1.16v-4a1.71,1.71,0,0,0-.33-1.19,1.29,1.29,0,0,0-1-.35,1.64,1.64,0,0,0-.88.24,1.81,1.81,0,0,0-.61.65v4.63h-1.16v-6.34Z"/>
  </g>
  <g>
    <path d="M18.69,312.77l0,0a2.58,2.58,0,0,1-.85,2,3.22,3.22,0,0,1-2.29.81,3,3,0,0,1-2.36-1,3.8,3.8,0,0,1-.91-2.6v-1.51a3.82,3.82,0,0,1,.91-2.61,3,3,0,0,1,2.36-1,3.31,3.31,0,0,1,2.3.77,2.59,2.59,0,0,1,.84,2.05l0,0h-1.1a1.92,1.92,0,0,0-.53-1.42,2,2,0,0,0-1.49-.52,1.82,1.82,0,0,0-1.54.78,3.18,3.18,0,0,0-.57,1.93V312a3.19,3.19,0,0,0,.57,1.94,1.82,1.82,0,0,0,1.54.78,2,2,0,0,0,1.49-.52,1.91,1.91,0,0,0,.53-1.43Z" style="fill: #fff"/>
    <path d="M22.8,313.39l.19.67h0l.2-.67,2.2-6.41h1.25l-3.17,8.53h-1L19.34,307h1.25Z" style="fill: #fff"/>
  </g>
  <g>
    <path d="M54.78,314.38a2.81,2.81,0,0,1-1.06.86,4.23,4.23,0,0,1-1.95.39,3.49,3.49,0,0,1-2.53-1,3.4,3.4,0,0,1-1-2.53v-1.76a3.53,3.53,0,0,1,.93-2.53,3.21,3.21,0,0,1,2.41-1,3.43,3.43,0,0,1,2.3.72,2.42,2.42,0,0,1,.86,1.86l0,0h-1.1a1.77,1.77,0,0,0-.56-1.23,2.11,2.11,0,0,0-1.48-.48,1.93,1.93,0,0,0-1.58.73,2.85,2.85,0,0,0-.6,1.86v1.77a2.71,2.71,0,0,0,.67,1.87,2.2,2.2,0,0,0,1.7.73,3.12,3.12,0,0,0,1.19-.19,1.68,1.68,0,0,0,.66-.44v-1.93H51.75v-.91h3Z" style="fill: #fff"/>
    <path d="M60.45,315.51c0-.19-.07-.36-.09-.51a3.25,3.25,0,0,1,0-.44,2.72,2.72,0,0,1-.85.76,2.33,2.33,0,0,1-2.62-.2,1.83,1.83,0,0,1-.52-1.39,1.66,1.66,0,0,1,.74-1.43,3.43,3.43,0,0,1,2-.51h1.26v-.62a1.2,1.2,0,0,0-.34-.89,1.38,1.38,0,0,0-1-.32,1.36,1.36,0,0,0-.9.28.87.87,0,0,0-.35.68h-1.1v0a1.53,1.53,0,0,1,.65-1.27,2.7,2.7,0,0,1,1.78-.57,2.57,2.57,0,0,1,1.73.55,1.93,1.93,0,0,1,.66,1.58v3.05c0,.23,0,.44,0,.66a4.56,4.56,0,0,0,.13.62Zm-1.91-.85a2.1,2.1,0,0,0,1.13-.32,1.63,1.63,0,0,0,.66-.74v-1H59a1.72,1.72,0,0,0-1.12.35,1,1,0,0,0-.41.83.83.83,0,0,0,.26.66A1.06,1.06,0,0,0,58.54,314.66Z" style="fill: #fff"/>
    <path d="M64.68,307.64v1.53h1.2V310h-1.2v3.85a.88.88,0,0,0,.18.63.69.69,0,0,0,.49.18l.22,0,.22-.06.15.79a1,1,0,0,1-.38.17,1.73,1.73,0,0,1-.5.07,1.51,1.51,0,0,1-1.12-.42,1.86,1.86,0,0,1-.42-1.34V310h-1v-.85h1v-1.53Z" style="fill: #fff"/>
    <path d="M69.93,315.63a2.65,2.65,0,0,1-2.1-.88,3.33,3.33,0,0,1-.78-2.29v-.26a3.23,3.23,0,0,1,.8-2.25,2.48,2.48,0,0,1,1.91-.9,2.43,2.43,0,0,1,1.94.77,3.09,3.09,0,0,1,.65,2.07v.72H68.24l0,0a2.52,2.52,0,0,0,.47,1.49,1.44,1.44,0,0,0,1.24.59,2.68,2.68,0,0,0,1-.17,2.29,2.29,0,0,0,.77-.46l.45.76a2.82,2.82,0,0,1-.9.56A3.6,3.6,0,0,1,69.93,315.63ZM69.76,310a1.23,1.23,0,0,0-1,.49,2.37,2.37,0,0,0-.51,1.22l0,0H71.2v-.15a1.79,1.79,0,0,0-.36-1.14A1.31,1.31,0,0,0,69.76,310Z" style="fill: #fff"/>
  </g>
  <g>
    <path d="M86.22,156.36a1.25,1.25,0,0,0-.44-1,3.72,3.72,0,0,0-1.56-.66,5.1,5.1,0,0,1-2.11-.95,2,2,0,0,1-.76-1.58,2.09,2.09,0,0,1,.82-1.67,3.28,3.28,0,0,1,2.12-.67,3.16,3.16,0,0,1,2.23.77,2.28,2.28,0,0,1,.8,1.78v0h-1.1a1.61,1.61,0,0,0-.5-1.22,2,2,0,0,0-1.42-.46,2,2,0,0,0-1.32.39,1.26,1.26,0,0,0-.46,1,1.11,1.11,0,0,0,.5.93,4.94,4.94,0,0,0,1.61.65,4.56,4.56,0,0,1,2,1,2.12,2.12,0,0,1,.71,1.61,2,2,0,0,1-.85,1.66,3.57,3.57,0,0,1-2.2.63,3.85,3.85,0,0,1-2.26-.69,2.12,2.12,0,0,1-.95-1.86v0h1.1a1.41,1.41,0,0,0,.61,1.24,2.48,2.48,0,0,0,1.49.43,2.28,2.28,0,0,0,1.38-.37A1.15,1.15,0,0,0,86.22,156.36Z"/>
    <path d="M91.42,157.72a1.59,1.59,0,0,0,1-.35,1.1,1.1,0,0,0,.44-.87h1l0,0a1.79,1.79,0,0,1-.73,1.46,2.66,2.66,0,0,1-1.77.64,2.58,2.58,0,0,1-2.12-.9,3.53,3.53,0,0,1-.73-2.27v-.25a3.44,3.44,0,0,1,.74-2.25,2.87,2.87,0,0,1,3.93-.25,2,2,0,0,1,.68,1.61v0h-1a1.34,1.34,0,0,0-.41-1,1.58,1.58,0,0,0-2.34.24,3.08,3.08,0,0,0-.39,1.6v.25a3.13,3.13,0,0,0,.39,1.62A1.39,1.39,0,0,0,91.42,157.72Z"/>
    <path d="M98.21,153.19l-.59,0a1.27,1.27,0,0,0-.77.22,1.34,1.34,0,0,0-.48.61v4.53H95.21v-6.34h1l.11.92a2.18,2.18,0,0,1,.67-.76,1.51,1.51,0,0,1,.91-.28l.25,0,.19,0Z"/>
    <path d="M98.94,155.28A3.49,3.49,0,0,1,99.7,153a2.82,2.82,0,0,1,4.15,0,3.47,3.47,0,0,1,.77,2.32v.13a3.47,3.47,0,0,1-.77,2.32,2.83,2.83,0,0,1-4.15,0,3.44,3.44,0,0,1-.76-2.31Zm1.15.12a3,3,0,0,0,.43,1.67,1.54,1.54,0,0,0,2.51,0,3,3,0,0,0,.43-1.67v-.12a3,3,0,0,0-.43-1.66,1.42,1.42,0,0,0-1.26-.66,1.39,1.39,0,0,0-1.25.66,3,3,0,0,0-.43,1.66Z"/>
    <path d="M107.28,158.51h-1.16v-9.14h1.16Z"/>
    <path d="M110.3,158.51h-1.16v-9.14h1.16Z"/>
  </g>
  <g>
    <path d="M16.18,154.81v3.7H15V150h3.09a3.29,3.29,0,0,1,2.14.62,2.25,2.25,0,0,1,.73,1.81,1.92,1.92,0,0,1-.34,1.14,2.33,2.33,0,0,1-1,.77,1.76,1.76,0,0,1,1,.74,2.42,2.42,0,0,1,.31,1.27v.81a2.6,2.6,0,0,0,.09.71,1.17,1.17,0,0,0,.3.52v.14H20.17a1,1,0,0,1-.29-.59,5.19,5.19,0,0,1-.06-.8v-.78a1.53,1.53,0,0,0-.41-1.11,1.43,1.43,0,0,0-1.08-.42Zm0-.91H18a2.15,2.15,0,0,0,1.41-.37,1.4,1.4,0,0,0,.43-1.13,1.48,1.48,0,0,0-.42-1.12,1.85,1.85,0,0,0-1.3-.39H16.18Z"/>
    <path d="M25.4,158.63a2.66,2.66,0,0,1-2.11-.88,3.33,3.33,0,0,1-.78-2.29v-.26a3.23,3.23,0,0,1,.8-2.25,2.48,2.48,0,0,1,1.91-.9,2.43,2.43,0,0,1,1.94.77,3.09,3.09,0,0,1,.65,2.07v.72H23.7l0,0a2.52,2.52,0,0,0,.47,1.49,1.45,1.45,0,0,0,1.25.59,2.66,2.66,0,0,0,1-.17,2.29,2.29,0,0,0,.77-.46l.45.76a2.82,2.82,0,0,1-.9.56A3.58,3.58,0,0,1,25.4,158.63ZM25.22,153a1.23,1.23,0,0,0-1,.49,2.28,2.28,0,0,0-.5,1.22v0h2.92v-.15a1.79,1.79,0,0,0-.36-1.14A1.3,1.3,0,0,0,25.22,153Z"/>
    <path d="M31.69,157.72a1.59,1.59,0,0,0,1-.35,1.1,1.1,0,0,0,.44-.87h1v0a1.76,1.76,0,0,1-.73,1.46,2.62,2.62,0,0,1-1.76.64,2.58,2.58,0,0,1-2.12-.9,3.47,3.47,0,0,1-.73-2.27v-.25a3.44,3.44,0,0,1,.74-2.25,2.87,2.87,0,0,1,3.93-.25,2,2,0,0,1,.68,1.61v0h-1a1.34,1.34,0,0,0-.41-1,1.58,1.58,0,0,0-2.34.24,3.08,3.08,0,0,0-.39,1.6v.25a3.13,3.13,0,0,0,.39,1.62A1.39,1.39,0,0,0,31.69,157.72Z"/>
  </g>
  <g>
    <path d="M19,210.77v0a2.54,2.54,0,0,1-.84,2,3.22,3.22,0,0,1-2.29.81,3,3,0,0,1-2.36-1,3.75,3.75,0,0,1-.91-2.6v-1.51a3.77,3.77,0,0,1,.91-2.61,3,3,0,0,1,2.36-1,3.33,3.33,0,0,1,2.3.77,2.55,2.55,0,0,1,.83,2v0H17.9a1.91,1.91,0,0,0-.52-1.42,2,2,0,0,0-1.49-.52,1.81,1.81,0,0,0-1.54.78,3.18,3.18,0,0,0-.58,1.93V210a3.19,3.19,0,0,0,.58,1.94,1.81,1.81,0,0,0,1.54.78,2,2,0,0,0,1.49-.52,1.9,1.9,0,0,0,.52-1.43Z"/>
    <path d="M23.11,211.39l.2.67h0l.2-.67,2.2-6.41H27l-3.17,8.53h-1L19.66,205h1.25Z"/>
  </g>
  <g>
    <path d="M55,212.38a2.81,2.81,0,0,1-1.06.86,4.23,4.23,0,0,1-1.95.39,3.49,3.49,0,0,1-2.53-1,3.4,3.4,0,0,1-1-2.53v-1.76a3.53,3.53,0,0,1,.94-2.53,3.17,3.17,0,0,1,2.4-1,3.41,3.41,0,0,1,2.3.72,2.39,2.39,0,0,1,.86,1.86v0H53.8a1.77,1.77,0,0,0-.56-1.23,2.09,2.09,0,0,0-1.48-.48,1.94,1.94,0,0,0-1.58.73,2.85,2.85,0,0,0-.6,1.86v1.77a2.71,2.71,0,0,0,.67,1.87,2.2,2.2,0,0,0,1.7.73,3.09,3.09,0,0,0,1.19-.19,1.68,1.68,0,0,0,.66-.44v-1.93H51.93v-.91h3Z"/>
    <path d="M60.64,213.51c0-.19-.07-.36-.1-.51a3.25,3.25,0,0,1,0-.44,2.79,2.79,0,0,1-.84.76,2.13,2.13,0,0,1-1.12.31,2.07,2.07,0,0,1-1.51-.51,1.86,1.86,0,0,1-.52-1.39,1.66,1.66,0,0,1,.74-1.43,3.43,3.43,0,0,1,2-.51h1.26v-.62a1.2,1.2,0,0,0-.34-.89,1.61,1.61,0,0,0-1.87,0,.87.87,0,0,0-.35.68h-1.1v0a1.55,1.55,0,0,1,.65-1.27,2.7,2.7,0,0,1,1.78-.57,2.57,2.57,0,0,1,1.73.55,1.93,1.93,0,0,1,.66,1.58v3a4.78,4.78,0,0,0,0,.66,2.74,2.74,0,0,0,.13.62Zm-1.92-.85a2.1,2.1,0,0,0,1.13-.32,1.53,1.53,0,0,0,.66-.74v-1h-1.3a1.7,1.7,0,0,0-1.11.35,1.06,1.06,0,0,0-.42.83.83.83,0,0,0,.26.66A1.09,1.09,0,0,0,58.72,212.66Z"/>
    <path d="M64.86,205.64v1.53h1.2V208h-1.2v3.85a.88.88,0,0,0,.18.63.69.69,0,0,0,.49.18l.22,0,.22-.06.15.79a1,1,0,0,1-.38.17,1.68,1.68,0,0,1-.5.07,1.51,1.51,0,0,1-1.12-.42,1.85,1.85,0,0,1-.41-1.34V208h-1v-.85h1v-1.53Z"/>
    <path d="M70.12,213.63a2.66,2.66,0,0,1-2.11-.88,3.33,3.33,0,0,1-.78-2.29v-.26A3.28,3.28,0,0,1,68,208a2.5,2.5,0,0,1,1.91-.9,2.42,2.42,0,0,1,1.94.77,3.1,3.1,0,0,1,.66,2.07v.72H68.42v0a2.45,2.45,0,0,0,.46,1.49,1.46,1.46,0,0,0,1.25.59,2.66,2.66,0,0,0,1-.17,2.29,2.29,0,0,0,.77-.46l.45.76a2.82,2.82,0,0,1-.9.56A3.58,3.58,0,0,1,70.12,213.63ZM69.94,208a1.23,1.23,0,0,0-1,.49,2.28,2.28,0,0,0-.5,1.22v0h2.92v-.15a1.79,1.79,0,0,0-.36-1.14A1.3,1.3,0,0,0,69.94,208Z"/>
  </g>
</svg>
