<svg id="Layer_1" data-name="Layer 1" xmlns="http://www.w3.org/2000/svg" width="150" height="380" viewBox="0 0 150 380">
  <title>shaper</title>
  <rect x="0.5" y="0.5" width="149" height="379" style="fill: #e6e6e6;stroke: #000;stroke-miterlimit: 10"/>
  <g>
    <path d="M46.09,348.12l-5.39,3.61,4,6.8-8.43,2.55,0-.13,5.35-3.58-4.05-6.79,8.5-2.56Z"/>
    <path d="M53.54,361.76H50.36l.58-3.41a6,6,0,0,1-2.72.64,3.26,3.26,0,0,1-1.82-.46,1.43,1.43,0,0,1-.7-1.23,2.71,2.71,0,0,1,1.14-2A6.43,6.43,0,0,1,49.58,354a5.33,5.33,0,0,1,2.13-.08l.17-1.05H52Zm-1.93-7.33a3.94,3.94,0,0,0-.94-.11A2.45,2.45,0,0,0,49,355a2.13,2.13,0,0,0-.67,1.71,1.53,1.53,0,0,0,.38,1,1.2,1.2,0,0,0,1,.42,2.91,2.91,0,0,0,1.44-.48Z"/>
    <path d="M59.8,359H57.9l.22-1.72a3.79,3.79,0,0,1-3.19,1.86,3,3,0,0,1-1-.14l1.9-5.32.21,0a7.49,7.49,0,0,0-.1,1.17c0,1,.24,1.52.7,1.52a.86.86,0,0,0,.27,0,2.53,2.53,0,0,0,1.2-1.23,5,5,0,0,0,.63-1.7h.17Z"/>
    <path d="M63.44,353.14l-1.51,5.75h-.16l-1.51-5.75Zm.11-2-1.2.36.32,1.25-.74-1-1.07.67.76-1-1-.81,1.19.41.48-1.17,0,1.26Z"/>
    <path d="M69.87,353.56,68,358.88l-.21,0a6.26,6.26,0,0,0,.1-1.16c0-1-.23-1.53-.7-1.53a.74.74,0,0,0-.27.06,2.53,2.53,0,0,0-1.2,1.23,5.06,5.06,0,0,0-.64,1.69h-.16L64,353.56H65.9l-.21,1.72a3.8,3.8,0,0,1,3.2-1.86A3.52,3.52,0,0,1,69.87,353.56Z"/>
    <path d="M76.85,354l-2.91,2.07,1.85,3.29-.13.18-3.25-2.25-.4,2.43h-.17l-1.51-9h3.19l-1,5.66,1.7-2.43Z"/>
    <path d="M84.29,355.18l-6,6.79-.13-.08,1.3-3.19L76.05,355l2.86-1.41.81,4.47,1.86-4.54Z"/>
    <path d="M95.89,358.43H92.28l.13.8-3.12.46.19-1.26H87.34l0-.17,2.3-.68,1.19-8h.09L92,356.85l3.86-1.16Z"/>
    <path d="M104,358.84H100.9l.27-1.18a6.29,6.29,0,0,1-1.67.9,4.43,4.43,0,0,1-1.49.28,2.16,2.16,0,0,1-1.26-.34,1.13,1.13,0,0,1-.47-.95,2.71,2.71,0,0,1,1-1.85,5.89,5.89,0,0,1,2.27-1.43A4.83,4.83,0,0,1,101,354a2.38,2.38,0,0,1,.93.16l0-.16h.45Zm-2.89-2.51a2.14,2.14,0,0,0,.16-.79c0-.63-.25-.94-.77-.94a1.69,1.69,0,0,0-1.09.51,3.14,3.14,0,0,0-.85,1.22,2.21,2.21,0,0,0-.17.8c0,.62.26.92.77.92a1.66,1.66,0,0,0,1.1-.5A3.17,3.17,0,0,0,101.09,356.33Z"/>
    <path d="M111.21,355.49a2.71,2.71,0,0,1-1.14,2,6.43,6.43,0,0,1-2.74,1.36,6,6,0,0,1-1.3.15,4.67,4.67,0,0,1-1-.11l-.11.65h-.17l-1.51-8.94h3.19l-.67,4a6.31,6.31,0,0,1,2.92-.75,3.27,3.27,0,0,1,1.83.46A1.45,1.45,0,0,1,111.21,355.49Zm-2.58.62a1.53,1.53,0,0,0-.38-1,1.2,1.2,0,0,0-1-.42,3.17,3.17,0,0,0-1.67.62l-.5,3a3.79,3.79,0,0,0,1.12.18,2.38,2.38,0,0,0,1.72-.67A2.14,2.14,0,0,0,108.63,356.11Z"/>
    <path d="M117.58,358.54l-5.36,1.34,0-.09,2.27-1.78-2.9-3.48,5.11-1.37,0,.06-2.1,1.74Z"/>
  </g>
  <g>
    <path d="M58.9,16.86,52,21.51l5.17,8.74L46.3,33.53l0-.16,6.87-4.61L47.92,20l10.93-3.29Z"/>
    <path d="M67,23.86,64.55,30.7l-.27-.05a8.1,8.1,0,0,0,.13-1.49c0-1.31-.3-2-.9-2a.88.88,0,0,0-.34.08,3.26,3.26,0,0,0-1.55,1.58A6.79,6.79,0,0,0,60.79,31h-.2L58.65,19.54h4.1l-1.11,6.54a4.86,4.86,0,0,1,4.1-2.4A4.36,4.36,0,0,1,67,23.86Z"/>
    <path d="M77.53,30.65h-4l.34-1.51a7.79,7.79,0,0,1-2.14,1.15,5.84,5.84,0,0,1-1.93.36,2.69,2.69,0,0,1-1.61-.44,1.44,1.44,0,0,1-.6-1.22,3.51,3.51,0,0,1,1.21-2.38,7.59,7.59,0,0,1,2.93-1.83,6,6,0,0,1,1.94-.36,3,3,0,0,1,1.21.22l0-.22h.57ZM73.8,27.43a2.65,2.65,0,0,0,.22-1q0-1.2-1-1.2a2.15,2.15,0,0,0-1.4.65,4,4,0,0,0-1.1,1.58,2.65,2.65,0,0,0-.22,1c0,.8.33,1.19,1,1.19A2.11,2.11,0,0,0,72.71,29,4,4,0,0,0,73.8,27.43Z"/>
    <path d="M87.83,25.43a4.39,4.39,0,0,1-2,3.58,7.72,7.72,0,0,1-4.78,1.5h-.18l-1.15,8.2h-.2l-2-14.43H87.66A4,4,0,0,1,87.83,25.43Zm-3.23-.31v-.05s0,0,0,0H81.65L81,29.88a4.07,4.07,0,0,0,2.79-1,3.13,3.13,0,0,0,1.06-2.43A4.27,4.27,0,0,0,84.6,25.12Z"/>
    <path d="M97.24,26a1.84,1.84,0,0,1-.85,1.72A6.65,6.65,0,0,1,93.15,29a12.56,12.56,0,0,1-1.31.13,1.64,1.64,0,0,0,1.39.59,6.29,6.29,0,0,0,3.18-1.13l.4.48a5.79,5.79,0,0,1-2,1,10.92,10.92,0,0,1-2.8.58,5,5,0,0,1-2.58-.42,2.08,2.08,0,0,1-1.22-1.91,2.89,2.89,0,0,1,1.37-2.43,7.13,7.13,0,0,1,3.11-1.35,9.1,9.1,0,0,1,1.58-.16,4.06,4.06,0,0,1,2,.45A1.63,1.63,0,0,1,97.24,26Zm-3.62-1a2.26,2.26,0,0,0-1.28.45,2.57,2.57,0,0,0-1.29,2.08.83.83,0,0,0,.93.94,2.28,2.28,0,0,0,1.3-.47,3.25,3.25,0,0,0,.94-1A2.1,2.1,0,0,0,94.58,26,.84.84,0,0,0,93.62,25Z"/>
    <path d="M103.54,27.57l-3,.18-.9,3.66h-.25l-1.73-7h3.71l-.34,1.39,2.48-1.39Z"/>
  </g>
  <line x1="61" y1="310" x2="60" y2="289" style="fill: none;stroke: #b3b3b3;stroke-linecap: round;stroke-miterlimit: 10;stroke-width: 4px"/>
  <line x1="53" y1="261" x2="48" y2="253" style="fill: none;stroke: #b3b3b3;stroke-linecap: round;stroke-miterlimit: 10;stroke-width: 4px"/>
  <line x1="92" y1="309" x2="83" y2="215" style="fill: none;stroke: #b3b3b3;stroke-linecap: round;stroke-miterlimit: 10;stroke-width: 4px"/>
  <line x1="88" y1="186" x2="97" y2="170" style="fill: none;stroke: #b3b3b3;stroke-linecap: round;stroke-miterlimit: 10;stroke-width: 4px"/>
  <line x1="90" y1="130" x2="62" y2="101" style="fill: none;stroke: #b3b3b3;stroke-linecap: round;stroke-miterlimit: 10;stroke-width: 4px"/>
  <line x1="31" y1="188" x2="28" y2="112" style="fill: none;stroke: #b3b3b3;stroke-linecap: round;stroke-miterlimit: 10;stroke-width: 4px"/>
  <rect x="112.5" y="280.5" width="29" height="63" rx="3"/>
</svg>
