<svg xmlns="http://www.w3.org/2000/svg" xmlns:xlink="http://www.w3.org/1999/xlink" width="270" height="380" viewBox="0 0 270 380">
  <defs>
    <clipPath id="clip-sines-panel">
      <rect width="270" height="380"/>
    </clipPath>
  </defs>
  <g id="sines-panel" clip-path="url(#clip-sines-panel)">
    <rect width="270" height="380" fill="#e6e6e6"/>
    <path id="Path_9" data-name="Path 9" d="M2.468-3.9V0H1.155V-9.953H4.826a3.688,3.688,0,0,1,2.56.834,2.827,2.827,0,0,1,.926,2.208,2.79,2.79,0,0,1-.906,2.232A3.853,3.853,0,0,1,4.813-3.9Zm0-1.073H4.826a2.358,2.358,0,0,0,1.613-.5A1.815,1.815,0,0,0,7-6.9a1.876,1.876,0,0,0-.561-1.424A2.209,2.209,0,0,0,4.9-8.88H2.468ZM12.77.137a3.232,3.232,0,0,1-2.447-.988,3.666,3.666,0,0,1-.943-2.642v-.232A4.438,4.438,0,0,1,9.8-5.691a3.28,3.28,0,0,1,1.176-1.354,2.956,2.956,0,0,1,1.637-.489,2.77,2.77,0,0,1,2.242.95,4.114,4.114,0,0,1,.8,2.721v.526H10.644a2.629,2.629,0,0,0,.639,1.767A2.009,2.009,0,0,0,12.838-.9a2.2,2.2,0,0,0,1.135-.273,2.851,2.851,0,0,0,.813-.725l.772.6A3.106,3.106,0,0,1,12.77.137Zm-.157-6.631a1.687,1.687,0,0,0-1.285.557,2.708,2.708,0,0,0-.643,1.562H14.39v-.1a2.409,2.409,0,0,0-.52-1.494A1.588,1.588,0,0,0,12.612-6.494Zm8.08.232a3.79,3.79,0,0,0-.622-.048,1.667,1.667,0,0,0-1.688,1.06V0H17.117V-7.4h1.23l.021.854a1.969,1.969,0,0,1,1.764-.991,1.292,1.292,0,0,1,.561.1Zm4,5.366a1.822,1.822,0,0,0,1.183-.41,1.443,1.443,0,0,0,.561-1.025h1.2a2.293,2.293,0,0,1-.437,1.21,2.881,2.881,0,0,1-1.077.916,3.107,3.107,0,0,1-1.425.342,3.047,3.047,0,0,1-2.4-1.008A4.016,4.016,0,0,1,21.4-3.63v-.212a4.453,4.453,0,0,1,.4-1.921,3.02,3.02,0,0,1,1.138-1.306,3.233,3.233,0,0,1,1.753-.465,2.966,2.966,0,0,1,2.068.745,2.663,2.663,0,0,1,.878,1.935h-1.2a1.743,1.743,0,0,0-.543-1.179,1.691,1.691,0,0,0-1.207-.461,1.77,1.77,0,0,0-1.494.694,3.259,3.259,0,0,0-.53,2.006v.239a3.194,3.194,0,0,0,.526,1.969A1.779,1.779,0,0,0,24.691-.9Z" transform="translate(191 64)"/>
    <path id="Path_8" data-name="Path 8" d="M8.477-3.158A3.662,3.662,0,0,1,7.311-.721,3.82,3.82,0,0,1,4.7.137,3.507,3.507,0,0,1,1.876-1.128,5.088,5.088,0,0,1,.813-4.512v-.957a5.671,5.671,0,0,1,.5-2.44,3.7,3.7,0,0,1,1.4-1.617,3.911,3.911,0,0,1,2.105-.564A3.6,3.6,0,0,1,7.362-9.2,3.706,3.706,0,0,1,8.477-6.754H7.157a2.86,2.86,0,0,0-.742-1.728,2.244,2.244,0,0,0-1.6-.535,2.348,2.348,0,0,0-1.972.93,4.271,4.271,0,0,0-.714,2.648v.965A4.391,4.391,0,0,0,2.81-1.894,2.187,2.187,0,0,0,4.7-.937a2.526,2.526,0,0,0,1.678-.5,2.75,2.75,0,0,0,.776-1.726ZM11.443,0H10.179V-10.5h1.265Zm3.4,0H13.576V-7.4h1.265ZM13.474-9.358a.755.755,0,0,1,.188-.52.706.706,0,0,1,.557-.212.717.717,0,0,1,.561.212.747.747,0,0,1,.191.52.722.722,0,0,1-.191.513.73.73,0,0,1-.561.205.718.718,0,0,1-.557-.205A.73.73,0,0,1,13.474-9.358ZM19.831-.9a1.822,1.822,0,0,0,1.183-.41,1.443,1.443,0,0,0,.561-1.025h1.2a2.293,2.293,0,0,1-.437,1.21,2.881,2.881,0,0,1-1.077.916,3.107,3.107,0,0,1-1.425.342,3.047,3.047,0,0,1-2.4-1.008,4.016,4.016,0,0,1-.892-2.758v-.212a4.453,4.453,0,0,1,.4-1.921,3.02,3.02,0,0,1,1.138-1.306,3.233,3.233,0,0,1,1.753-.465,2.966,2.966,0,0,1,2.068.745,2.663,2.663,0,0,1,.878,1.935h-1.2a1.743,1.743,0,0,0-.543-1.179,1.691,1.691,0,0,0-1.207-.461,1.77,1.77,0,0,0-1.494.694,3.259,3.259,0,0,0-.53,2.006v.239a3.194,3.194,0,0,0,.526,1.969A1.779,1.779,0,0,0,19.831-.9Zm6.426-2.529-.793.827V0H24.2V-10.5h1.265v6.351l.677-.813,2.3-2.434h1.538L27.1-4.307,30.317,0H28.834Z" transform="translate(102 64)"/>
    <path id="Path_2" data-name="Path 2" d="M-338.971,55.5H-353.85V73.65" transform="translate(521.971 4)" fill="none" stroke="#707070" stroke-width="2"/>
    <path id="Path_3" data-name="Path 3" d="M-255.5,56h21.167V74.15" transform="translate(480.833 3.5)" fill="none" stroke="#707070" stroke-width="2"/>
    <path id="Path_12" data-name="Path 12" d="M3.814-1.494,6.252-8.531h1.23L4.318,0h-1L.164-8.531H1.389ZM8.672.732H7.74L11.3-8.531h.926ZM20.133-3.99A5.277,5.277,0,0,1,19.711-1.8a3.2,3.2,0,0,1-1.2,1.427,3.289,3.289,0,0,1-1.8.492,3.261,3.261,0,0,1-1.787-.5,3.272,3.272,0,0,1-1.21-1.412,5.064,5.064,0,0,1-.442-2.124v-.615A5.215,5.215,0,0,1,13.7-6.7a3.26,3.26,0,0,1,1.21-1.444,3.247,3.247,0,0,1,1.79-.5,3.307,3.307,0,0,1,1.808.5,3.19,3.19,0,0,1,1.2,1.436,5.3,5.3,0,0,1,.422,2.188Zm-1.119-.551A3.825,3.825,0,0,0,18.4-6.87,2.01,2.01,0,0,0,16.7-7.682a1.988,1.988,0,0,0-1.679.812,3.747,3.747,0,0,0-.63,2.253v.627a3.831,3.831,0,0,0,.618,2.312,2,2,0,0,0,1.7.841A1.989,1.989,0,0,0,18.4-1.632a3.809,3.809,0,0,0,.615-2.276Zm5.18,3.773a1.561,1.561,0,0,0,1.014-.352A1.237,1.237,0,0,0,25.688-2h1.025a1.966,1.966,0,0,1-.375,1.037,2.47,2.47,0,0,1-.923.785,2.663,2.663,0,0,1-1.222.293,2.612,2.612,0,0,1-2.06-.864,3.442,3.442,0,0,1-.765-2.364v-.182a3.817,3.817,0,0,1,.34-1.646,2.588,2.588,0,0,1,.976-1.119,2.771,2.771,0,0,1,1.5-.4,2.543,2.543,0,0,1,1.772.639,2.283,2.283,0,0,1,.753,1.658H25.688a1.494,1.494,0,0,0-.466-1.011,1.449,1.449,0,0,0-1.034-.4,1.517,1.517,0,0,0-1.28.595,2.793,2.793,0,0,0-.454,1.72v.205A2.737,2.737,0,0,0,22.9-1.359,1.524,1.524,0,0,0,24.193-.768ZM29.4-7.875V-6.34h1.184V-5.5H29.4v3.937a.88.88,0,0,0,.158.572A.666.666,0,0,0,30.1-.8a2.624,2.624,0,0,0,.516-.07V0a3.161,3.161,0,0,1-.832.116,1.35,1.35,0,0,1-1.1-.439,1.888,1.888,0,0,1-.369-1.248V-5.5H27.164V-6.34h1.154V-7.875Z" transform="translate(105 315)"/>
    <path id="Path_13" data-name="Path 13" d="M7.289-1.119a2.6,2.6,0,0,1-1.21.929A4.887,4.887,0,0,1,4.271.117,3.506,3.506,0,0,1,2.42-.372,3.26,3.26,0,0,1,1.169-1.764,4.806,4.806,0,0,1,.715-3.855V-4.6a4.487,4.487,0,0,1,.9-2.988A3.134,3.134,0,0,1,4.143-8.648a3.237,3.237,0,0,1,2.15.683,2.974,2.974,0,0,1,1,1.937H6.164a1.86,1.86,0,0,0-2.016-1.7,1.991,1.991,0,0,0-1.714.795,3.88,3.88,0,0,0-.589,2.3v.7A3.636,3.636,0,0,0,2.5-1.65,2.127,2.127,0,0,0,4.277-.8a3.921,3.921,0,0,0,1.107-.14,1.713,1.713,0,0,0,.785-.473V-3.328H4.2v-.92H7.289ZM12.908,0a2.277,2.277,0,0,1-.152-.668,2.419,2.419,0,0,1-1.8.785,2.238,2.238,0,0,1-1.538-.53,1.716,1.716,0,0,1-.6-1.345A1.792,1.792,0,0,1,9.565-3.3a3.55,3.55,0,0,1,2.118-.548h1.055v-.5a1.217,1.217,0,0,0-.34-.905,1.366,1.366,0,0,0-1-.337,1.581,1.581,0,0,0-.973.293.863.863,0,0,0-.393.709H8.941A1.5,1.5,0,0,1,9.278-5.5a2.3,2.3,0,0,1,.914-.7,3.075,3.075,0,0,1,1.269-.258,2.506,2.506,0,0,1,1.717.548A1.976,1.976,0,0,1,13.822-4.4v2.918a3.567,3.567,0,0,0,.223,1.389V0Zm-1.8-.826a1.905,1.905,0,0,0,.967-.264,1.6,1.6,0,0,0,.662-.686v-1.3h-.85Q9.9-3.076,9.9-1.91a.987.987,0,0,0,.34.8A1.306,1.306,0,0,0,11.109-.826Zm5.883-7.049V-6.34h1.184V-5.5H16.992v3.937a.88.88,0,0,0,.158.572.666.666,0,0,0,.539.191,2.624,2.624,0,0,0,.516-.07V0a3.161,3.161,0,0,1-.832.116,1.35,1.35,0,0,1-1.1-.439,1.888,1.888,0,0,1-.369-1.248V-5.5H14.754V-6.34h1.154V-7.875ZM22.072.117a2.77,2.77,0,0,1-2.1-.847,3.142,3.142,0,0,1-.809-2.265v-.2a3.8,3.8,0,0,1,.36-1.685,2.811,2.811,0,0,1,1.008-1.16,2.534,2.534,0,0,1,1.4-.419,2.374,2.374,0,0,1,1.922.814,3.526,3.526,0,0,1,.686,2.332v.451H20.25A2.254,2.254,0,0,0,20.8-1.345a1.722,1.722,0,0,0,1.333.577A1.888,1.888,0,0,0,23.1-1a2.444,2.444,0,0,0,.7-.621l.662.516A2.662,2.662,0,0,1,22.072.117Zm-.135-5.684a1.446,1.446,0,0,0-1.1.478,2.321,2.321,0,0,0-.551,1.339h3.176v-.082a2.065,2.065,0,0,0-.445-1.28A1.361,1.361,0,0,0,21.938-5.566Z" transform="translate(165 315)"/>
    <g id="Standard_Output_Jack" data-name="Standard Output Jack" transform="translate(221 304)">
      <rect id="Rectangle_9" data-name="Rectangle 9" width="32" height="50" rx="3"/>
      <path id="Path_14" data-name="Path 14" d="M8.812-4.655A6.157,6.157,0,0,1,8.319-2.1,3.728,3.728,0,0,1,6.925-.437,3.837,3.837,0,0,1,4.819.137,3.8,3.8,0,0,1,2.734-.441,3.817,3.817,0,0,1,1.323-2.088,5.908,5.908,0,0,1,.807-4.566v-.718a6.084,6.084,0,0,1,.5-2.536A3.8,3.8,0,0,1,2.717-9.505a3.788,3.788,0,0,1,2.088-.584,3.858,3.858,0,0,1,2.109.578,3.721,3.721,0,0,1,1.4,1.675,6.187,6.187,0,0,1,.492,2.553ZM7.506-5.3a4.463,4.463,0,0,0-.711-2.717,2.345,2.345,0,0,0-1.989-.947,2.32,2.32,0,0,0-1.958.947,4.371,4.371,0,0,0-.735,2.628v.731a4.469,4.469,0,0,0,.721,2.7,2.329,2.329,0,0,0,1.986.981A2.32,2.32,0,0,0,6.788-1.9,4.444,4.444,0,0,0,7.506-4.56ZM15.148-.731a2.686,2.686,0,0,1-2.167.868,2.3,2.3,0,0,1-1.8-.687,2.974,2.974,0,0,1-.625-2.034V-7.4h1.265v4.778q0,1.682,1.367,1.682a1.893,1.893,0,0,0,1.928-1.08V-7.4h1.265V0h-1.2Zm4.867-8.456V-7.4H21.4v.978H20.016v4.593a1.027,1.027,0,0,0,.185.667.777.777,0,0,0,.629.222,3.062,3.062,0,0,0,.6-.082V0a3.688,3.688,0,0,1-.971.136,1.575,1.575,0,0,1-1.278-.513,2.2,2.2,0,0,1-.431-1.456V-6.419H17.4V-7.4h1.347V-9.187Z" transform="translate(4 13)" fill="#fff"/>
    </g>
    <path id="Path_5" data-name="Path 5" d="M10.656-12.256,4.5-8.128,9.088-.352-.544,2.56l-.048-.144L5.52-1.68.9-9.44l9.712-2.928Zm8.512,15.6H15.536l.656-3.9a6.851,6.851,0,0,1-3.1.736,3.713,3.713,0,0,1-2.08-.528,1.616,1.616,0,0,1-.8-1.408,3.1,3.1,0,0,1,1.3-2.272A7.238,7.238,0,0,1,14.64-5.584a5.905,5.905,0,0,1,2.432-.1l.192-1.2h.176ZM16.96-5.04a4.811,4.811,0,0,0-1.072-.128,2.8,2.8,0,0,0-1.968.736,2.447,2.447,0,0,0-.768,1.952,1.8,1.8,0,0,0,.432,1.192,1.4,1.4,0,0,0,1.1.472,3.356,3.356,0,0,0,1.648-.544ZM26.32.176H24.144L24.4-1.792A4.33,4.33,0,0,1,20.752.336a3.641,3.641,0,0,1-1.12-.16L21.808-5.9l.24.048a7.693,7.693,0,0,0-.112,1.328q0,1.744.8,1.744a.819.819,0,0,0,.3-.064,2.905,2.905,0,0,0,1.376-1.408,5.855,5.855,0,0,0,.72-1.936h.192Zm4.288-9.024-1.376.416.352,1.408-.832-1.184-1.216.768L28.4-8.592,27.3-9.52l1.36.464.544-1.328-.032,1.44ZM30.48-6.512,28.752.064h-.176L26.848-6.512Zm7.344.48L35.648.048,35.408,0a7.693,7.693,0,0,0,.112-1.328q0-1.744-.8-1.744a.819.819,0,0,0-.3.064A2.905,2.905,0,0,0,33.04-1.6,5.979,5.979,0,0,0,32.3.336h-.176l-.992-6.368H33.3l-.24,1.968A4.33,4.33,0,0,1,36.7-6.192,3.842,3.842,0,0,1,37.824-6.032Zm7.984.5L42.48-3.168,44.592.592,44.448.8,40.736-1.776l-.464,2.784H40.08L38.352-9.216H42L40.9-2.752l1.936-2.784Zm9.6,1.36-6.88,7.76-.144-.1L49.872-.16,46-4.416l3.264-1.616.928,5.1L52.32-6.112ZM68.672-.464H64.544l.144.912L61.12.976l.224-1.44H58.9l-.032-.192,2.624-.784,1.36-9.136h.112l1.3,8.3L68.672-3.6ZM77.92,0H74.4l.3-1.344A7.019,7.019,0,0,1,72.8-.32,5.184,5.184,0,0,1,71.088,0a2.374,2.374,0,0,1-1.432-.392,1.265,1.265,0,0,1-.536-1.08,3.123,3.123,0,0,1,1.08-2.12,6.661,6.661,0,0,1,2.6-1.624,5.322,5.322,0,0,1,1.728-.32,2.712,2.712,0,0,1,1.072.192l.032-.192h.512ZM74.608-2.864a2.457,2.457,0,0,0,.192-.912q0-1.072-.88-1.072a1.933,1.933,0,0,0-1.248.584,3.618,3.618,0,0,0-.976,1.4,2.457,2.457,0,0,0-.192.912q0,1.056.88,1.056a1.929,1.929,0,0,0,1.256-.576A3.588,3.588,0,0,0,74.608-2.864Zm12.816-.96a3.092,3.092,0,0,1-1.3,2.256A7.238,7.238,0,0,1,82.992-.016,6.654,6.654,0,0,1,81.5.16,5.017,5.017,0,0,1,80.352.032l-.128.752h-.192L78.3-9.44h3.648l-.768,4.528a7.2,7.2,0,0,1,3.344-.864,3.71,3.71,0,0,1,2.088.536A1.631,1.631,0,0,1,87.424-3.824Zm-2.944.7a1.8,1.8,0,0,0-.432-1.192,1.4,1.4,0,0,0-1.1-.472,3.6,3.6,0,0,0-1.9.7L80.464-.624a4.33,4.33,0,0,0,1.28.208,2.733,2.733,0,0,0,1.968-.768A2.47,2.47,0,0,0,84.48-3.12ZM94.7-.336l-6.128,1.52-.048-.1L91.12-.944,87.808-4.928,93.648-6.5l.032.08-2.4,1.984Z" transform="translate(88 370)"/>
    <path id="Path_6" data-name="Path 6" d="M6.651-2.6H2.481L1.545,0H.191l3.8-9.953H5.141L8.948,0H7.6ZM2.878-3.678H6.262l-1.7-4.655Z" transform="translate(21 64)"/>
    <path id="Path_7" data-name="Path 7" d="M4.806-4.026H2.468V0H1.148V-9.953H4.443a3.9,3.9,0,0,1,2.587.766,2.755,2.755,0,0,1,.906,2.229,2.68,2.68,0,0,1-.5,1.62,3,3,0,0,1-1.4,1.032L8.374-.082V0H6.966ZM2.468-5.1H4.484A2.275,2.275,0,0,0,6.04-5.606a1.714,1.714,0,0,0,.578-1.356,1.8,1.8,0,0,0-.55-1.418,2.33,2.33,0,0,0-1.589-.5H2.468Z" transform="translate(66 64)"/>
    <path id="Path_10" data-name="Path 10" d="M6.651-2.6H2.481L1.545,0H.191l3.8-9.953H5.141L8.948,0H7.6ZM2.878-3.678H6.262l-1.7-4.655Z" transform="translate(31 317)"/>
    <path id="Path_11" data-name="Path 11" d="M4.806-4.026H2.468V0H1.148V-9.953H4.443a3.9,3.9,0,0,1,2.587.766,2.755,2.755,0,0,1,.906,2.229,2.68,2.68,0,0,1-.5,1.62,3,3,0,0,1-1.4,1.032L8.374-.082V0H6.966ZM2.468-5.1H4.484A2.275,2.275,0,0,0,6.04-5.606a1.714,1.714,0,0,0,.578-1.356,1.8,1.8,0,0,0-.55-1.418,2.33,2.33,0,0,0-1.589-.5H2.468Z" transform="translate(71 317)"/>
    <path id="Path_15" data-name="Path 15" d="M22.56-9.56q0,2.84-3.24,5.64a18.089,18.089,0,0,1-7.8,3.88A17.331,17.331,0,0,1,7.72.4,9.383,9.383,0,0,1,2.5-.92,4.031,4.031,0,0,1,.48-4.44q0-2.88,3.24-5.66a18.208,18.208,0,0,1,7.8-3.86,15.954,15.954,0,0,1,3.8-.48,9.275,9.275,0,0,1,5.22,1.34A4.078,4.078,0,0,1,22.56-9.56Zm-7.52,4a7.923,7.923,0,0,0,.6-3,4.859,4.859,0,0,0-.68-2.64,2.584,2.584,0,0,0-2.28-1.32,3.986,3.986,0,0,0-2.62,1.14A7.943,7.943,0,0,0,8-8.44a7.826,7.826,0,0,0-.6,2.96A5.067,5.067,0,0,0,8.08-2.8a2.6,2.6,0,0,0,2.28,1.28A4.1,4.1,0,0,0,13-2.64,7.3,7.3,0,0,0,15.04-5.56Z" transform="translate(75 24)"/>
    <path id="Path_16" data-name="Path 16" d="M6.74-3.42l-3.3.2L2.44.84H2.16L.24-6.92H4.36L3.98-5.38,6.74-6.92Zm13.08-4.9-2.78,1.2,2.62,9.8L8.38,2.94l-.02-.16L16.2.18l-.4-1.5A8.89,8.89,0,0,1,10.84.2,4.692,4.692,0,0,1,8.23-.46,2.016,2.016,0,0,1,7.22-2.22,3.877,3.877,0,0,1,8.84-5.06a8.871,8.871,0,0,1,3.9-1.92A7.473,7.473,0,0,1,14.2-7.2l-.66-2.42,6.28,1.16ZM14.5-2.78a3.962,3.962,0,0,0,.3-1.5,2.429,2.429,0,0,0-.34-1.32,1.292,1.292,0,0,0-1.14-.66A2.029,2.029,0,0,0,12-5.69a3.735,3.735,0,0,0-1.02,1.47,3.913,3.913,0,0,0-.3,1.48,2.533,2.533,0,0,0,.34,1.34,1.3,1.3,0,0,0,1.14.64,2.048,2.048,0,0,0,1.32-.56A3.651,3.651,0,0,0,14.5-2.78ZM31.3,0H26.9l.38-1.68A8.774,8.774,0,0,1,24.9-.4a6.48,6.48,0,0,1-2.14.4,2.967,2.967,0,0,1-1.79-.49,1.581,1.581,0,0,1-.67-1.35,3.9,3.9,0,0,1,1.35-2.65A8.327,8.327,0,0,1,24.9-6.52a6.653,6.653,0,0,1,2.16-.4,3.39,3.39,0,0,1,1.34.24l.04-.24h.64ZM27.16-3.58a3.071,3.071,0,0,0,.24-1.14q0-1.34-1.1-1.34a2.416,2.416,0,0,0-1.56.73,4.522,4.522,0,0,0-1.22,1.75,3.071,3.071,0,0,0-.24,1.14q0,1.32,1.1,1.32a2.411,2.411,0,0,0,1.57-.72A4.485,4.485,0,0,0,27.16-3.58ZM40.32-7.54,37.6.06,37.3,0a9.616,9.616,0,0,0,.14-1.66q0-2.18-1-2.18a1.024,1.024,0,0,0-.38.08A3.632,3.632,0,0,0,34.34-2,7.474,7.474,0,0,0,33.42.42H33.2L31.96-7.54h2.7l-.3,2.46a5.413,5.413,0,0,1,4.56-2.66A4.8,4.8,0,0,1,40.32-7.54Zm18.12-6.42-7.22,2.78,1.82,12H48.88l1.8-11.78L45-8.78l1.1-4.42,12.32-.86Zm10,6.42L65.72.06,65.42,0a9.616,9.616,0,0,0,.14-1.66q0-2.18-1-2.18a1.024,1.024,0,0,0-.38.08A3.632,3.632,0,0,0,62.46-2,7.474,7.474,0,0,0,61.54.42h-.22L59.16-12.34h4.56L62.48-5.08a5.413,5.413,0,0,1,4.56-2.66A4.8,4.8,0,0,1,68.44-7.54Zm7.2,4.12-3.3.2-1,4.06h-.28L69.14-6.92h4.12l-.38,1.54,2.76-1.54ZM86.1-5.16a2.059,2.059,0,0,1-.94,1.92,7.49,7.49,0,0,1-3.6,1.44,12.638,12.638,0,0,1-1.46.14A1.808,1.808,0,0,0,81.64-1a6.958,6.958,0,0,0,3.54-1.26l.44.54A6.39,6.39,0,0,1,83.46-.6a12.039,12.039,0,0,1-3.12.64,5.593,5.593,0,0,1-2.86-.46,2.334,2.334,0,0,1-1.36-2.12,3.222,3.222,0,0,1,1.52-2.7,7.958,7.958,0,0,1,3.46-1.5,9.386,9.386,0,0,1,1.76-.18,4.469,4.469,0,0,1,2.26.5A1.8,1.8,0,0,1,86.1-5.16Zm-4.02-1.1a2.486,2.486,0,0,0-1.42.5,2.868,2.868,0,0,0-1.44,2.32A.919.919,0,0,0,80.26-2.4a2.513,2.513,0,0,0,1.44-.52,3.6,3.6,0,0,0,1.04-1.09,2.339,2.339,0,0,0,.4-1.21A.928.928,0,0,0,82.08-6.26Zm14.5,1.1a2.059,2.059,0,0,1-.94,1.92,7.49,7.49,0,0,1-3.6,1.44,12.638,12.638,0,0,1-1.46.14A1.808,1.808,0,0,0,92.12-1a6.958,6.958,0,0,0,3.54-1.26l.44.54A6.39,6.39,0,0,1,93.94-.6a12.039,12.039,0,0,1-3.12.64,5.593,5.593,0,0,1-2.86-.46A2.334,2.334,0,0,1,86.6-2.54a3.222,3.222,0,0,1,1.52-2.7,7.958,7.958,0,0,1,3.46-1.5,9.386,9.386,0,0,1,1.76-.18,4.469,4.469,0,0,1,2.26.5A1.8,1.8,0,0,1,96.58-5.16Zm-4.02-1.1a2.486,2.486,0,0,0-1.42.5A2.868,2.868,0,0,0,89.7-3.44.919.919,0,0,0,90.74-2.4a2.513,2.513,0,0,0,1.44-.52,3.6,3.6,0,0,0,1.04-1.09,2.339,2.339,0,0,0,.4-1.21A.928.928,0,0,0,92.56-6.26Z" transform="translate(98 23)"/>
  </g>
</svg>
