<svg id="Layer_1" data-name="Layer 1" xmlns="http://www.w3.org/2000/svg" width="120" height="380" viewBox="0 0 120 380">
  <title>slew_panel</title>
  <rect width="120" height="380" style="fill: #e6e6e6;stroke: #000;stroke-miterlimit: 10"/>
  <g>
    <path d="M51.2,360.42,45,364.55l4.59,7.77L40,375.24l0-.15L46.07,371l-4.63-7.76,9.72-2.93Z"/>
    <path d="M54.44,363.27l-1.73,10.21h-.19l-1.73-10.21Z"/>
    <path d="M63.6,372.68H60.08l.31-1.35a7.09,7.09,0,0,1-1.91,1,5.19,5.19,0,0,1-1.71.32,2.38,2.38,0,0,1-1.43-.4,1.26,1.26,0,0,1-.54-1.08,3.13,3.13,0,0,1,1.08-2.12,6.66,6.66,0,0,1,2.6-1.62,5.45,5.45,0,0,1,1.73-.32,2.66,2.66,0,0,1,1.07.19l0-.19h.51Zm-3.31-2.87a2.4,2.4,0,0,0,.19-.91c0-.71-.29-1.07-.88-1.07a1.9,1.9,0,0,0-1.24.58,3.6,3.6,0,0,0-1,1.4,2.43,2.43,0,0,0-.19.91c0,.71.29,1.06.88,1.06a1.9,1.9,0,0,0,1.25-.58A3.4,3.4,0,0,0,60.29,369.81Z"/>
    <path d="M74.42,363.11l-3,10.22h-.18l-.08-1.68a7.13,7.13,0,0,1-4,1.22,3.73,3.73,0,0,1-2.08-.53,1.61,1.61,0,0,1-.81-1.41,3.07,3.07,0,0,1,1.29-2.25,7.3,7.3,0,0,1,3.12-1.56A5.74,5.74,0,0,1,71,367l-.17-3.89Zm-3.28,7.74-.14-3.2a4.5,4.5,0,0,0-1-.13,2.77,2.77,0,0,0-2,.77,2.47,2.47,0,0,0-.78,1.94,1.78,1.78,0,0,0,.43,1.2,1.39,1.39,0,0,0,1.11.46A4.11,4.11,0,0,0,71.14,370.85Z"/>
    <path d="M83.11,368.55a1.66,1.66,0,0,1-.75,1.53,6.08,6.08,0,0,1-2.88,1.16,10.64,10.64,0,0,1-1.17.11,1.43,1.43,0,0,0,1.23.53,5.6,5.6,0,0,0,2.83-1l.35.43a5.08,5.08,0,0,1-1.72.9,10.39,10.39,0,0,1-2.5.51,4.51,4.51,0,0,1-2.29-.37,1.89,1.89,0,0,1-1.09-1.7,2.59,2.59,0,0,1,1.22-2.16,6.55,6.55,0,0,1,2.77-1.2,8,8,0,0,1,1.41-.14,3.53,3.53,0,0,1,1.8.4A1.46,1.46,0,0,1,83.11,368.55Zm-3.22-.88a2,2,0,0,0-1.13.4,2.29,2.29,0,0,0-1.16,1.85.74.74,0,0,0,.84.84,2,2,0,0,0,1.15-.42,2.87,2.87,0,0,0,.83-.87,1.91,1.91,0,0,0,.32-1A.74.74,0,0,0,79.89,367.67Z"/>
  </g>
</svg>
