<svg xmlns="http://www.w3.org/2000/svg" xmlns:xlink="http://www.w3.org/1999/xlink" width="360" height="380" viewBox="0 0 360 380">
  <defs>
    <clipPath id="clip-substitute-panel">
      <rect width="360" height="380"/>
    </clipPath>
  </defs>
  <g id="substitute-panel" clip-path="url(#clip-substitute-panel)">
    <rect width="360" height="380" fill="#e6e6e6"/>
    <path id="Path_26" data-name="Path 26" d="M14.652-16.852l-8.47,5.676L12.5-.484l-13.244,4-.066-.2L7.59-2.31,1.232-12.98l13.354-4.026ZM23.5.242H20.5l.352-2.706A5.954,5.954,0,0,1,15.84.462,5.006,5.006,0,0,1,14.3.242l2.992-8.36.33.066a10.577,10.577,0,0,0-.154,1.826q0,2.4,1.1,2.4a1.126,1.126,0,0,0,.418-.088,4,4,0,0,0,1.892-1.936,8.05,8.05,0,0,0,.99-2.662h.264Zm13.266-5.5a4.252,4.252,0,0,1-1.782,3.1A9.952,9.952,0,0,1,30.668-.022,9.15,9.15,0,0,1,28.622.22,6.9,6.9,0,0,1,27.038.044l-.176,1.034H26.6L24.222-12.98h5.016L28.182-6.754a9.893,9.893,0,0,1,4.6-1.188,5.1,5.1,0,0,1,2.871.737A2.243,2.243,0,0,1,36.762-5.258Zm-4.048.968a2.475,2.475,0,0,0-.594-1.639A1.924,1.924,0,0,0,30.6-6.578a4.946,4.946,0,0,0-2.618.968L27.192-.858a5.953,5.953,0,0,0,1.76.286,3.758,3.758,0,0,0,2.706-1.056A3.4,3.4,0,0,0,32.714-4.29ZM46.772-.462l-8.426,2.09L38.28,1.5,41.844-1.3,37.29-6.776l8.03-2.156.044.11-3.3,2.728ZM62.766-9.416l-11.858.572L52.514,0H47.5l1.584-8.756-4.752.22v-1.848l4.994.242.572-3.19h.22l.572,3.256L62.766-9.5Zm-3.432-2.75-1.892.572.484,1.936-1.144-1.628L55.11-10.23,56.3-11.814,54.78-13.09l1.87.638.748-1.826-.044,1.98Zm-.176,3.212L56.782.088H56.54L54.164-8.954Zm16.17-.462L63.47-8.844,65.076,0H60.06l1.584-8.756-4.752.22v-1.848l4.994.242.572-3.19h.22l.572,3.256L75.328-9.5ZM76.12.242H73.128l.352-2.706A5.954,5.954,0,0,1,68.464.462a5.006,5.006,0,0,1-1.54-.22l2.992-8.36.33.066a10.577,10.577,0,0,0-.154,1.826q0,2.4,1.1,2.4a1.126,1.126,0,0,0,.418-.088A4,4,0,0,0,73.5-5.852a8.05,8.05,0,0,0,.99-2.662h.264ZM92.312-9.416l-11.858.572L82.06,0H77.044l1.584-8.756-4.752.22v-1.848l4.994.242.572-3.19h.22l.572,3.256L92.312-9.5Zm2.376,3.74a2.265,2.265,0,0,1-1.034,2.112,8.239,8.239,0,0,1-3.96,1.584,13.9,13.9,0,0,1-1.606.154,1.989,1.989,0,0,0,1.694.726,7.654,7.654,0,0,0,3.894-1.386l.484.594A7.029,7.029,0,0,1,91.784-.66a13.243,13.243,0,0,1-3.432.7,6.153,6.153,0,0,1-3.146-.506,2.567,2.567,0,0,1-1.5-2.332,3.544,3.544,0,0,1,1.672-2.97,8.754,8.754,0,0,1,3.806-1.65,10.325,10.325,0,0,1,1.936-.2,4.916,4.916,0,0,1,2.486.55A1.976,1.976,0,0,1,94.688-5.676Zm-4.422-1.21a2.735,2.735,0,0,0-1.562.55A3.155,3.155,0,0,0,87.12-3.784,1.011,1.011,0,0,0,88.264-2.64a2.764,2.764,0,0,0,1.584-.572,3.962,3.962,0,0,0,1.144-1.2,2.573,2.573,0,0,0,.44-1.331A1.021,1.021,0,0,0,90.266-6.886Z" transform="translate(133 22)"/>
    <path id="Path_27" data-name="Path 27" d="M10.656-12.256,4.5-8.128,9.088-.352-.544,2.56l-.048-.144L5.52-1.68.9-9.44l9.712-2.928Zm8.512,15.6H15.536l.656-3.9a6.851,6.851,0,0,1-3.1.736,3.713,3.713,0,0,1-2.08-.528,1.616,1.616,0,0,1-.8-1.408,3.1,3.1,0,0,1,1.3-2.272A7.238,7.238,0,0,1,14.64-5.584a5.905,5.905,0,0,1,2.432-.1l.192-1.2h.176ZM16.96-5.04a4.811,4.811,0,0,0-1.072-.128,2.8,2.8,0,0,0-1.968.736,2.447,2.447,0,0,0-.768,1.952,1.8,1.8,0,0,0,.432,1.192,1.4,1.4,0,0,0,1.1.472,3.356,3.356,0,0,0,1.648-.544ZM26.32.176H24.144L24.4-1.792A4.33,4.33,0,0,1,20.752.336a3.641,3.641,0,0,1-1.12-.16L21.808-5.9l.24.048a7.693,7.693,0,0,0-.112,1.328q0,1.744.8,1.744a.819.819,0,0,0,.3-.064,2.905,2.905,0,0,0,1.376-1.408,5.855,5.855,0,0,0,.72-1.936h.192Zm4.288-9.024-1.376.416.352,1.408-.832-1.184-1.216.768L28.4-8.592,27.3-9.52l1.36.464.544-1.328-.032,1.44ZM30.48-6.512,28.752.064h-.176L26.848-6.512Zm7.344.48L35.648.048,35.408,0a7.693,7.693,0,0,0,.112-1.328q0-1.744-.8-1.744a.819.819,0,0,0-.3.064A2.905,2.905,0,0,0,33.04-1.6,5.979,5.979,0,0,0,32.3.336h-.176l-.992-6.368H33.3l-.24,1.968A4.33,4.33,0,0,1,36.7-6.192,3.842,3.842,0,0,1,37.824-6.032Zm7.984.5L42.48-3.168,44.592.592,44.448.8,40.736-1.776l-.464,2.784H40.08L38.352-9.216H42L40.9-2.752l1.936-2.784Zm9.6,1.36-6.88,7.76-.144-.1L49.872-.16,46-4.416l3.264-1.616.928,5.1L52.32-6.112ZM68.672-.464H64.544l.144.912L61.12.976l.224-1.44H58.9l-.032-.192,2.624-.784,1.36-9.136h.112l1.3,8.3L68.672-3.6ZM77.92,0H74.4l.3-1.344A7.019,7.019,0,0,1,72.8-.32,5.184,5.184,0,0,1,71.088,0a2.374,2.374,0,0,1-1.432-.392,1.265,1.265,0,0,1-.536-1.08,3.123,3.123,0,0,1,1.08-2.12,6.661,6.661,0,0,1,2.6-1.624,5.322,5.322,0,0,1,1.728-.32,2.712,2.712,0,0,1,1.072.192l.032-.192h.512ZM74.608-2.864a2.457,2.457,0,0,0,.192-.912q0-1.072-.88-1.072a1.933,1.933,0,0,0-1.248.584,3.618,3.618,0,0,0-.976,1.4,2.457,2.457,0,0,0-.192.912q0,1.056.88,1.056a1.929,1.929,0,0,0,1.256-.576A3.588,3.588,0,0,0,74.608-2.864Zm12.816-.96a3.092,3.092,0,0,1-1.3,2.256A7.238,7.238,0,0,1,82.992-.016,6.654,6.654,0,0,1,81.5.16,5.017,5.017,0,0,1,80.352.032l-.128.752h-.192L78.3-9.44h3.648l-.768,4.528a7.2,7.2,0,0,1,3.344-.864,3.71,3.71,0,0,1,2.088.536A1.631,1.631,0,0,1,87.424-3.824Zm-2.944.7a1.8,1.8,0,0,0-.432-1.192,1.4,1.4,0,0,0-1.1-.472,3.6,3.6,0,0,0-1.9.7L80.464-.624a4.33,4.33,0,0,0,1.28.208,2.733,2.733,0,0,0,1.968-.768A2.47,2.47,0,0,0,84.48-3.12ZM94.7-.336l-6.128,1.52-.048-.1L91.12-.944,87.808-4.928,93.648-6.5l.032.08-2.4,1.984Z" transform="translate(42 373)"/>
    <path id="Path_7" data-name="Path 7" d="M6.645-4.4H2.468V0H1.155V-9.953H7.321V-8.88H2.468v3.411H6.645ZM10.069,0H8.8V-7.4h1.265ZM8.7-9.358a.755.755,0,0,1,.188-.52.706.706,0,0,1,.557-.212.717.717,0,0,1,.561.212.747.747,0,0,1,.191.52.722.722,0,0,1-.191.513.73.73,0,0,1-.561.205.718.718,0,0,1-.557-.205A.73.73,0,0,1,8.7-9.358ZM13.289-7.4l.041.93a2.7,2.7,0,0,1,2.215-1.066q2.345,0,2.365,2.646V0H16.646V-4.895a1.7,1.7,0,0,0-.366-1.183,1.466,1.466,0,0,0-1.118-.383,1.825,1.825,0,0,0-1.08.328,2.228,2.228,0,0,0-.725.861V0H12.093V-7.4Zm9.6,7.533a3.232,3.232,0,0,1-2.447-.988A3.666,3.666,0,0,1,19.5-3.493v-.232a4.438,4.438,0,0,1,.42-1.965,3.28,3.28,0,0,1,1.176-1.354,2.956,2.956,0,0,1,1.637-.489,2.77,2.77,0,0,1,2.242.95,4.114,4.114,0,0,1,.8,2.721v.526H20.761A2.629,2.629,0,0,0,21.4-1.569,2.009,2.009,0,0,0,22.955-.9a2.2,2.2,0,0,0,1.135-.273,2.851,2.851,0,0,0,.813-.725l.772.6A3.106,3.106,0,0,1,22.887.137Zm-.157-6.631a1.687,1.687,0,0,0-1.285.557A2.708,2.708,0,0,0,20.8-4.375h3.705v-.1a2.409,2.409,0,0,0-.52-1.494A1.588,1.588,0,0,0,22.729-6.494Z" transform="translate(112 49)"/>
    <path id="Path_1" data-name="Path 1" d="M142,63.15" fill="none" stroke="#707070" stroke-width="1"/>
    <path id="Path_9" data-name="Path 9" d="M4.45-1.743l2.844-8.21H8.729L5.038,0H3.876L.191-9.953H1.62ZM9.215-3.767a4.369,4.369,0,0,1,.427-1.955,3.187,3.187,0,0,1,1.189-1.34,3.238,3.238,0,0,1,1.74-.472,3.119,3.119,0,0,1,2.444,1.046,4.024,4.024,0,0,1,.933,2.782v.089a4.407,4.407,0,0,1-.414,1.938A3.14,3.14,0,0,1,14.352-.342a3.275,3.275,0,0,1-1.767.479A3.111,3.111,0,0,1,10.148-.909a4,4,0,0,1-.933-2.769Zm1.271.15a3.164,3.164,0,0,0,.571,1.976A1.827,1.827,0,0,0,12.585-.9a1.816,1.816,0,0,0,1.531-.755,3.46,3.46,0,0,0,.567-2.116,3.159,3.159,0,0,0-.578-1.972,1.836,1.836,0,0,0-1.535-.755,1.816,1.816,0,0,0-1.511.745A3.434,3.434,0,0,0,10.486-3.616ZM18.908,0H17.644V-10.5h1.265Z" transform="translate(18 108)"/>
    <path id="Path_19" data-name="Path 19" d="M4.45-1.743l2.844-8.21H8.729L5.038,0H3.876L.191-9.953H1.62ZM9.215-3.767a4.369,4.369,0,0,1,.427-1.955,3.187,3.187,0,0,1,1.189-1.34,3.238,3.238,0,0,1,1.74-.472,3.119,3.119,0,0,1,2.444,1.046,4.024,4.024,0,0,1,.933,2.782v.089a4.407,4.407,0,0,1-.414,1.938A3.14,3.14,0,0,1,14.352-.342a3.275,3.275,0,0,1-1.767.479A3.111,3.111,0,0,1,10.148-.909a4,4,0,0,1-.933-2.769Zm1.271.15a3.164,3.164,0,0,0,.571,1.976A1.827,1.827,0,0,0,12.585-.9a1.816,1.816,0,0,0,1.531-.755,3.46,3.46,0,0,0,.567-2.116,3.159,3.159,0,0,0-.578-1.972,1.836,1.836,0,0,0-1.535-.755,1.816,1.816,0,0,0-1.511.745A3.434,3.434,0,0,0,10.486-3.616ZM18.908,0H17.644V-10.5h1.265Z" transform="translate(19 319)"/>
    <path id="Path_21" data-name="Path 21" d="M4.088-4.437A6.172,6.172,0,0,1,1.63-5.629,2.279,2.279,0,0,1,.861-7.376,2.408,2.408,0,0,1,1.8-9.321a3.736,3.736,0,0,1,2.444-.769,4.078,4.078,0,0,1,1.829.4A3.007,3.007,0,0,1,7.318-8.6a2.8,2.8,0,0,1,.441,1.524H6.439A1.82,1.82,0,0,0,5.865-8.5a2.335,2.335,0,0,0-1.62-.518,2.391,2.391,0,0,0-1.514.428A1.428,1.428,0,0,0,2.188-7.4,1.285,1.285,0,0,0,2.7-6.37,5.062,5.062,0,0,0,4.46-5.6,8.152,8.152,0,0,1,6.4-4.83a2.946,2.946,0,0,1,1.039.981,2.5,2.5,0,0,1,.338,1.319A2.326,2.326,0,0,1,6.836-.591,4.022,4.022,0,0,1,4.313.137,4.678,4.678,0,0,1,2.4-.256,3.221,3.221,0,0,1,1.029-1.333,2.627,2.627,0,0,1,.547-2.885H1.866a1.714,1.714,0,0,0,.667,1.425,2.806,2.806,0,0,0,1.781.523A2.58,2.58,0,0,0,5.906-1.36,1.377,1.377,0,0,0,6.46-2.516a1.351,1.351,0,0,0-.513-1.131A5.911,5.911,0,0,0,4.088-4.437ZM13.829-.731a2.686,2.686,0,0,1-2.167.868,2.3,2.3,0,0,1-1.8-.687,2.974,2.974,0,0,1-.625-2.034V-7.4H10.5v4.778q0,1.682,1.367,1.682a1.893,1.893,0,0,0,1.928-1.08V-7.4H15.06V0h-1.2Zm9.413-2.885a4.4,4.4,0,0,1-.779,2.724A2.49,2.49,0,0,1,20.371.137,2.578,2.578,0,0,1,18.2-.854L18.143,0H16.98V-10.5h1.265v3.917a2.564,2.564,0,0,1,2.112-.95,2.505,2.505,0,0,1,2.116,1.019,4.53,4.53,0,0,1,.769,2.789ZM21.978-3.76a3.417,3.417,0,0,0-.5-2,1.652,1.652,0,0,0-1.436-.7,1.857,1.857,0,0,0-1.8,1.162v3.2A1.909,1.909,0,0,0,20.057-.937a1.643,1.643,0,0,0,1.415-.7A3.634,3.634,0,0,0,21.978-3.76ZM34-2.6h-4.17L28.889,0H27.535l3.8-9.953h1.148L36.292,0H34.945ZM30.222-3.678h3.384l-1.7-4.655Z" transform="translate(59 319)"/>
    <path id="Path_20" data-name="Path 20" d="M4.088-4.437A6.172,6.172,0,0,1,1.63-5.629,2.279,2.279,0,0,1,.861-7.376,2.408,2.408,0,0,1,1.8-9.321a3.736,3.736,0,0,1,2.444-.769,4.078,4.078,0,0,1,1.829.4A3.007,3.007,0,0,1,7.318-8.6a2.8,2.8,0,0,1,.441,1.524H6.439A1.82,1.82,0,0,0,5.865-8.5a2.335,2.335,0,0,0-1.62-.518,2.391,2.391,0,0,0-1.514.428A1.428,1.428,0,0,0,2.188-7.4,1.285,1.285,0,0,0,2.7-6.37,5.062,5.062,0,0,0,4.46-5.6,8.152,8.152,0,0,1,6.4-4.83a2.946,2.946,0,0,1,1.039.981,2.5,2.5,0,0,1,.338,1.319A2.326,2.326,0,0,1,6.836-.591,4.022,4.022,0,0,1,4.313.137,4.678,4.678,0,0,1,2.4-.256,3.221,3.221,0,0,1,1.029-1.333,2.627,2.627,0,0,1,.547-2.885H1.866a1.714,1.714,0,0,0,.667,1.425,2.806,2.806,0,0,0,1.781.523A2.58,2.58,0,0,0,5.906-1.36,1.377,1.377,0,0,0,6.46-2.516a1.351,1.351,0,0,0-.513-1.131A5.911,5.911,0,0,0,4.088-4.437ZM13.829-.731a2.686,2.686,0,0,1-2.167.868,2.3,2.3,0,0,1-1.8-.687,2.974,2.974,0,0,1-.625-2.034V-7.4H10.5v4.778q0,1.682,1.367,1.682a1.893,1.893,0,0,0,1.928-1.08V-7.4H15.06V0h-1.2Zm9.413-2.885a4.4,4.4,0,0,1-.779,2.724A2.49,2.49,0,0,1,20.371.137,2.578,2.578,0,0,1,18.2-.854L18.143,0H16.98V-10.5h1.265v3.917a2.564,2.564,0,0,1,2.112-.95,2.505,2.505,0,0,1,2.116,1.019,4.53,4.53,0,0,1,.769,2.789ZM21.978-3.76a3.417,3.417,0,0,0-.5-2,1.652,1.652,0,0,0-1.436-.7,1.857,1.857,0,0,0-1.8,1.162v3.2A1.909,1.909,0,0,0,20.057-.937a1.643,1.643,0,0,0,1.415-.7A3.634,3.634,0,0,0,21.978-3.76ZM28.5,0V-9.953h3.254a3.777,3.777,0,0,1,2.437.67A2.414,2.414,0,0,1,35.007-7.3a2.022,2.022,0,0,1-.4,1.234,2.57,2.57,0,0,1-1.08.831,2.308,2.308,0,0,1,1.275.858,2.462,2.462,0,0,1,.468,1.507,2.662,2.662,0,0,1-.868,2.105A3.59,3.59,0,0,1,31.951,0Zm1.313-4.655v3.582h2.167a2.087,2.087,0,0,0,1.446-.475,1.669,1.669,0,0,0,.53-1.309q0-1.8-1.955-1.8Zm0-1.053h1.982a2.078,2.078,0,0,0,1.377-.432,1.447,1.447,0,0,0,.516-1.171,1.423,1.423,0,0,0-.479-1.2,2.35,2.35,0,0,0-1.456-.373H29.812Z" transform="translate(107 319)"/>
    <line id="Line_3" data-name="Line 3" y2="13" transform="translate(29 211.5)" fill="none" stroke="#707070" stroke-linecap="round" stroke-width="2"/>
    <line id="Line_4" data-name="Line 4" y2="10" transform="translate(29 256.5)" fill="none" stroke="#707070" stroke-linecap="round" stroke-width="2"/>
    <path id="Path_12" data-name="Path 12" d="M2.468-3.9V0H1.155V-9.953H4.826a3.688,3.688,0,0,1,2.56.834,2.827,2.827,0,0,1,.926,2.208,2.79,2.79,0,0,1-.906,2.232A3.853,3.853,0,0,1,4.813-3.9Zm0-1.073H4.826a2.358,2.358,0,0,0,1.613-.5A1.815,1.815,0,0,0,7-6.9a1.876,1.876,0,0,0-.561-1.424A2.209,2.209,0,0,0,4.9-8.88H2.468Zm9.666,1.832.191,1.313.28-1.183,1.969-6.945h1.107L17.6-3.008l.273,1.2.212-1.34,1.545-6.809h1.319L18.539,0h-1.2L15.292-7.253l-.157-.759-.157.759L12.852,0h-1.2L9.249-9.953h1.313Z" transform="translate(18 172)"/>
    <path id="Path_13" data-name="Path 13" d="M1.155,0V-9.953h2.81a4.523,4.523,0,0,1,2.3.574A3.884,3.884,0,0,1,7.8-7.745a5.318,5.318,0,0,1,.55,2.434v.636A5.336,5.336,0,0,1,7.81-2.208,3.823,3.823,0,0,1,6.258-.581,4.811,4.811,0,0,1,3.91,0ZM2.468-8.88v7.807H3.849A3,3,0,0,0,6.21-2.017a3.9,3.9,0,0,0,.844-2.689v-.582a3.963,3.963,0,0,0-.8-2.637A2.834,2.834,0,0,0,4-8.88ZM11.512,0H10.247V-7.4h1.265ZM10.145-9.358a.755.755,0,0,1,.188-.52.706.706,0,0,1,.557-.212.717.717,0,0,1,.561.212.747.747,0,0,1,.191.52.722.722,0,0,1-.191.513.73.73,0,0,1-.561.205.718.718,0,0,1-.557-.205A.73.73,0,0,1,10.145-9.358Zm5.831,7.643L17.808-7.4H19.1L16.447,0h-.964L12.8-7.4H14.1Zm13.5-.889h-4.17L24.37,0H23.017l3.8-9.953h1.148L31.773,0H30.427ZM25.7-3.678h3.384l-1.7-4.655Z" transform="translate(61 172)"/>
    <path id="Path_14" data-name="Path 14" d="M1.155,0V-9.953h2.81a4.523,4.523,0,0,1,2.3.574A3.884,3.884,0,0,1,7.8-7.745a5.318,5.318,0,0,1,.55,2.434v.636A5.336,5.336,0,0,1,7.81-2.208,3.823,3.823,0,0,1,6.258-.581,4.811,4.811,0,0,1,3.91,0ZM2.468-8.88v7.807H3.849A3,3,0,0,0,6.21-2.017a3.9,3.9,0,0,0,.844-2.689v-.582a3.963,3.963,0,0,0-.8-2.637A2.834,2.834,0,0,0,4-8.88ZM11.512,0H10.247V-7.4h1.265ZM10.145-9.358a.755.755,0,0,1,.188-.52.706.706,0,0,1,.557-.212.717.717,0,0,1,.561.212.747.747,0,0,1,.191.52.722.722,0,0,1-.191.513.73.73,0,0,1-.561.205.718.718,0,0,1-.557-.205A.73.73,0,0,1,10.145-9.358Zm5.831,7.643L17.808-7.4H19.1L16.447,0h-.964L12.8-7.4H14.1ZM23.98,0V-9.953h3.254a3.777,3.777,0,0,1,2.437.67A2.414,2.414,0,0,1,30.488-7.3a2.022,2.022,0,0,1-.4,1.234,2.57,2.57,0,0,1-1.08.831,2.308,2.308,0,0,1,1.275.858,2.462,2.462,0,0,1,.468,1.507,2.662,2.662,0,0,1-.868,2.105A3.59,3.59,0,0,1,27.433,0Zm1.313-4.655v3.582H27.46a2.087,2.087,0,0,0,1.446-.475,1.669,1.669,0,0,0,.53-1.309q0-1.8-1.955-1.8Zm0-1.053h1.982a2.078,2.078,0,0,0,1.377-.432,1.447,1.447,0,0,0,.516-1.171,1.423,1.423,0,0,0-.479-1.2,2.35,2.35,0,0,0-1.456-.373H25.293Z" transform="translate(109 172)"/>
    <path id="Path_10" data-name="Path 10" d="M4.088-4.437A6.172,6.172,0,0,1,1.63-5.629,2.279,2.279,0,0,1,.861-7.376,2.408,2.408,0,0,1,1.8-9.321a3.736,3.736,0,0,1,2.444-.769,4.078,4.078,0,0,1,1.829.4A3.007,3.007,0,0,1,7.318-8.6a2.8,2.8,0,0,1,.441,1.524H6.439A1.82,1.82,0,0,0,5.865-8.5a2.335,2.335,0,0,0-1.62-.518,2.391,2.391,0,0,0-1.514.428A1.428,1.428,0,0,0,2.188-7.4,1.285,1.285,0,0,0,2.7-6.37,5.062,5.062,0,0,0,4.46-5.6,8.152,8.152,0,0,1,6.4-4.83a2.946,2.946,0,0,1,1.039.981,2.5,2.5,0,0,1,.338,1.319A2.326,2.326,0,0,1,6.836-.591,4.022,4.022,0,0,1,4.313.137,4.678,4.678,0,0,1,2.4-.256,3.221,3.221,0,0,1,1.029-1.333,2.627,2.627,0,0,1,.547-2.885H1.866a1.714,1.714,0,0,0,.667,1.425,2.806,2.806,0,0,0,1.781.523A2.58,2.58,0,0,0,5.906-1.36,1.377,1.377,0,0,0,6.46-2.516a1.351,1.351,0,0,0-.513-1.131A5.911,5.911,0,0,0,4.088-4.437ZM13.829-.731a2.686,2.686,0,0,1-2.167.868,2.3,2.3,0,0,1-1.8-.687,2.974,2.974,0,0,1-.625-2.034V-7.4H10.5v4.778q0,1.682,1.367,1.682a1.893,1.893,0,0,0,1.928-1.08V-7.4H15.06V0h-1.2Zm9.413-2.885a4.4,4.4,0,0,1-.779,2.724A2.49,2.49,0,0,1,20.371.137,2.578,2.578,0,0,1,18.2-.854L18.143,0H16.98V-10.5h1.265v3.917a2.564,2.564,0,0,1,2.112-.95,2.505,2.505,0,0,1,2.116,1.019,4.53,4.53,0,0,1,.769,2.789ZM21.978-3.76a3.417,3.417,0,0,0-.5-2,1.652,1.652,0,0,0-1.436-.7,1.857,1.857,0,0,0-1.8,1.162v3.2A1.909,1.909,0,0,0,20.057-.937a1.643,1.643,0,0,0,1.415-.7A3.634,3.634,0,0,0,21.978-3.76ZM34-2.6h-4.17L28.889,0H27.535l3.8-9.953h1.148L36.292,0H34.945ZM30.222-3.678h3.384l-1.7-4.655Z" transform="translate(59 108)"/>
    <path id="Path_11" data-name="Path 11" d="M4.088-4.437A6.172,6.172,0,0,1,1.63-5.629,2.279,2.279,0,0,1,.861-7.376,2.408,2.408,0,0,1,1.8-9.321a3.736,3.736,0,0,1,2.444-.769,4.078,4.078,0,0,1,1.829.4A3.007,3.007,0,0,1,7.318-8.6a2.8,2.8,0,0,1,.441,1.524H6.439A1.82,1.82,0,0,0,5.865-8.5a2.335,2.335,0,0,0-1.62-.518,2.391,2.391,0,0,0-1.514.428A1.428,1.428,0,0,0,2.188-7.4,1.285,1.285,0,0,0,2.7-6.37,5.062,5.062,0,0,0,4.46-5.6,8.152,8.152,0,0,1,6.4-4.83a2.946,2.946,0,0,1,1.039.981,2.5,2.5,0,0,1,.338,1.319A2.326,2.326,0,0,1,6.836-.591,4.022,4.022,0,0,1,4.313.137,4.678,4.678,0,0,1,2.4-.256,3.221,3.221,0,0,1,1.029-1.333,2.627,2.627,0,0,1,.547-2.885H1.866a1.714,1.714,0,0,0,.667,1.425,2.806,2.806,0,0,0,1.781.523A2.58,2.58,0,0,0,5.906-1.36,1.377,1.377,0,0,0,6.46-2.516a1.351,1.351,0,0,0-.513-1.131A5.911,5.911,0,0,0,4.088-4.437ZM13.829-.731a2.686,2.686,0,0,1-2.167.868,2.3,2.3,0,0,1-1.8-.687,2.974,2.974,0,0,1-.625-2.034V-7.4H10.5v4.778q0,1.682,1.367,1.682a1.893,1.893,0,0,0,1.928-1.08V-7.4H15.06V0h-1.2Zm9.413-2.885a4.4,4.4,0,0,1-.779,2.724A2.49,2.49,0,0,1,20.371.137,2.578,2.578,0,0,1,18.2-.854L18.143,0H16.98V-10.5h1.265v3.917a2.564,2.564,0,0,1,2.112-.95,2.505,2.505,0,0,1,2.116,1.019,4.53,4.53,0,0,1,.769,2.789ZM21.978-3.76a3.417,3.417,0,0,0-.5-2,1.652,1.652,0,0,0-1.436-.7,1.857,1.857,0,0,0-1.8,1.162v3.2A1.909,1.909,0,0,0,20.057-.937a1.643,1.643,0,0,0,1.415-.7A3.634,3.634,0,0,0,21.978-3.76ZM28.5,0V-9.953h3.254a3.777,3.777,0,0,1,2.437.67A2.414,2.414,0,0,1,35.007-7.3a2.022,2.022,0,0,1-.4,1.234,2.57,2.57,0,0,1-1.08.831,2.308,2.308,0,0,1,1.275.858,2.462,2.462,0,0,1,.468,1.507,2.662,2.662,0,0,1-.868,2.105A3.59,3.59,0,0,1,31.951,0Zm1.313-4.655v3.582h2.167a2.087,2.087,0,0,0,1.446-.475,1.669,1.669,0,0,0,.53-1.309q0-1.8-1.955-1.8Zm0-1.053h1.982a2.078,2.078,0,0,0,1.377-.432,1.447,1.447,0,0,0,.516-1.171,1.423,1.423,0,0,0-.479-1.2,2.35,2.35,0,0,0-1.456-.373H29.812Z" transform="translate(107 108)"/>
    <path id="Path_15" data-name="Path 15" d="M1.155,0V-9.953h2.81a4.523,4.523,0,0,1,2.3.574A3.884,3.884,0,0,1,7.8-7.745a5.318,5.318,0,0,1,.55,2.434v.636A5.336,5.336,0,0,1,7.81-2.208,3.823,3.823,0,0,1,6.258-.581,4.811,4.811,0,0,1,3.91,0ZM2.468-8.88v7.807H3.849A3,3,0,0,0,6.21-2.017a3.9,3.9,0,0,0,.844-2.689v-.582a3.963,3.963,0,0,0-.8-2.637A2.834,2.834,0,0,0,4-8.88ZM11.512,0H10.247V-7.4h1.265ZM10.145-9.358a.755.755,0,0,1,.188-.52.706.706,0,0,1,.557-.212.717.717,0,0,1,.561.212.747.747,0,0,1,.191.52.722.722,0,0,1-.191.513.73.73,0,0,1-.561.205.718.718,0,0,1-.557-.205A.73.73,0,0,1,10.145-9.358Zm5.831,7.643L17.808-7.4H19.1L16.447,0h-.964L12.8-7.4H14.1ZM23.98,0V-9.953h3.254a3.777,3.777,0,0,1,2.437.67A2.414,2.414,0,0,1,30.488-7.3a2.022,2.022,0,0,1-.4,1.234,2.57,2.57,0,0,1-1.08.831,2.308,2.308,0,0,1,1.275.858,2.462,2.462,0,0,1,.468,1.507,2.662,2.662,0,0,1-.868,2.105A3.59,3.59,0,0,1,27.433,0Zm1.313-4.655v3.582H27.46a2.087,2.087,0,0,0,1.446-.475,1.669,1.669,0,0,0,.53-1.309q0-1.8-1.955-1.8Zm0-1.053h1.982a2.078,2.078,0,0,0,1.377-.432,1.447,1.447,0,0,0,.516-1.171,1.423,1.423,0,0,0-.479-1.2,2.35,2.35,0,0,0-1.456-.373H25.293Z" transform="translate(217 172)"/>
    <path id="Path_16" data-name="Path 16" d="M1.155,0V-9.953h2.81a4.523,4.523,0,0,1,2.3.574A3.884,3.884,0,0,1,7.8-7.745a5.318,5.318,0,0,1,.55,2.434v.636A5.336,5.336,0,0,1,7.81-2.208,3.823,3.823,0,0,1,6.258-.581,4.811,4.811,0,0,1,3.91,0ZM2.468-8.88v7.807H3.849A3,3,0,0,0,6.21-2.017a3.9,3.9,0,0,0,.844-2.689v-.582a3.963,3.963,0,0,0-.8-2.637A2.834,2.834,0,0,0,4-8.88ZM11.512,0H10.247V-7.4h1.265ZM10.145-9.358a.755.755,0,0,1,.188-.52.706.706,0,0,1,.557-.212.717.717,0,0,1,.561.212.747.747,0,0,1,.191.52.722.722,0,0,1-.191.513.73.73,0,0,1-.561.205.718.718,0,0,1-.557-.205A.73.73,0,0,1,10.145-9.358Zm5.831,7.643L17.808-7.4H19.1L16.447,0h-.964L12.8-7.4H14.1Zm13.5-.889h-4.17L24.37,0H23.017l3.8-9.953h1.148L31.773,0H30.427ZM25.7-3.678h3.384l-1.7-4.655Z" transform="translate(265 172)"/>
    <path id="Path_17" data-name="Path 17" d="M2.468-3.9V0H1.155V-9.953H4.826a3.688,3.688,0,0,1,2.56.834,2.827,2.827,0,0,1,.926,2.208,2.79,2.79,0,0,1-.906,2.232A3.853,3.853,0,0,1,4.813-3.9Zm0-1.073H4.826a2.358,2.358,0,0,0,1.613-.5A1.815,1.815,0,0,0,7-6.9a1.876,1.876,0,0,0-.561-1.424A2.209,2.209,0,0,0,4.9-8.88H2.468Zm9.666,1.832.191,1.313.28-1.183,1.969-6.945h1.107L17.6-3.008l.273,1.2.212-1.34,1.545-6.809h1.319L18.539,0h-1.2L15.292-7.253l-.157-.759-.157.759L12.852,0h-1.2L9.249-9.953h1.313Z" transform="translate(318 172)"/>
    <line id="Line_17" data-name="Line 17" y2="13" transform="translate(77 211.5)" fill="none" stroke="#707070" stroke-linecap="round" stroke-width="2"/>
    <line id="Line_18" data-name="Line 18" y2="10" transform="translate(77 256.5)" fill="none" stroke="#707070" stroke-linecap="round" stroke-width="2"/>
    <line id="Line_19" data-name="Line 19" y2="13" transform="translate(125 211.5)" fill="none" stroke="#707070" stroke-linecap="round" stroke-width="2"/>
    <line id="Line_20" data-name="Line 20" y2="10" transform="translate(125 256.5)" fill="none" stroke="#707070" stroke-linecap="round" stroke-width="2"/>
    <line id="Line_21" data-name="Line 21" y2="13" transform="translate(329 211.5)" fill="none" stroke="#707070" stroke-linecap="round" stroke-width="2"/>
    <line id="Line_22" data-name="Line 22" y2="10" transform="translate(329 256.5)" fill="none" stroke="#707070" stroke-linecap="round" stroke-width="2"/>
    <line id="Line_23" data-name="Line 23" y2="13" transform="translate(281 211.5)" fill="none" stroke="#707070" stroke-linecap="round" stroke-width="2"/>
    <line id="Line_24" data-name="Line 24" y2="10" transform="translate(281 256.5)" fill="none" stroke="#707070" stroke-linecap="round" stroke-width="2"/>
    <line id="Line_25" data-name="Line 25" y2="13" transform="translate(233 211.5)" fill="none" stroke="#707070" stroke-linecap="round" stroke-width="2"/>
    <line id="Line_26" data-name="Line 26" y2="10" transform="translate(233 256.5)" fill="none" stroke="#707070" stroke-linecap="round" stroke-width="2"/>
    <path id="Path_8" data-name="Path 8" d="M6.645-4.4H2.468V0H1.155V-9.953H7.321V-8.88H2.468v3.411H6.645ZM10.069,0H8.8V-7.4h1.265ZM8.7-9.358a.755.755,0,0,1,.188-.52.706.706,0,0,1,.557-.212.717.717,0,0,1,.561.212.747.747,0,0,1,.191.52.722.722,0,0,1-.191.513.73.73,0,0,1-.561.205.718.718,0,0,1-.557-.205A.73.73,0,0,1,8.7-9.358ZM13.289-7.4l.041.93a2.7,2.7,0,0,1,2.215-1.066q2.345,0,2.365,2.646V0H16.646V-4.895a1.7,1.7,0,0,0-.366-1.183,1.466,1.466,0,0,0-1.118-.383,1.825,1.825,0,0,0-1.08.328,2.228,2.228,0,0,0-.725.861V0H12.093V-7.4Zm9.6,7.533a3.232,3.232,0,0,1-2.447-.988A3.666,3.666,0,0,1,19.5-3.493v-.232a4.438,4.438,0,0,1,.42-1.965,3.28,3.28,0,0,1,1.176-1.354,2.956,2.956,0,0,1,1.637-.489,2.77,2.77,0,0,1,2.242.95,4.114,4.114,0,0,1,.8,2.721v.526H20.761A2.629,2.629,0,0,0,21.4-1.569,2.009,2.009,0,0,0,22.955-.9a2.2,2.2,0,0,0,1.135-.273,2.851,2.851,0,0,0,.813-.725l.772.6A3.106,3.106,0,0,1,22.887.137Zm-.157-6.631a1.687,1.687,0,0,0-1.285.557A2.708,2.708,0,0,0,20.8-4.375h3.705v-.1a2.409,2.409,0,0,0-.52-1.494A1.588,1.588,0,0,0,22.729-6.494Z" transform="translate(220 49)"/>
    <path id="Path_6" data-name="Path 6" d="M4.45-1.743l2.844-8.21H8.729L5.038,0H3.876L.191-9.953H1.62ZM9.215-3.767a4.369,4.369,0,0,1,.427-1.955,3.187,3.187,0,0,1,1.189-1.34,3.238,3.238,0,0,1,1.74-.472,3.119,3.119,0,0,1,2.444,1.046,4.024,4.024,0,0,1,.933,2.782v.089a4.407,4.407,0,0,1-.414,1.938A3.14,3.14,0,0,1,14.352-.342a3.275,3.275,0,0,1-1.767.479A3.111,3.111,0,0,1,10.148-.909a4,4,0,0,1-.933-2.769Zm1.271.15a3.164,3.164,0,0,0,.571,1.976A1.827,1.827,0,0,0,12.585-.9a1.816,1.816,0,0,0,1.531-.755,3.46,3.46,0,0,0,.567-2.116,3.159,3.159,0,0,0-.578-1.972,1.836,1.836,0,0,0-1.535-.755,1.816,1.816,0,0,0-1.511.745A3.434,3.434,0,0,0,10.486-3.616ZM18.908,0H17.644V-10.5h1.265Z" transform="translate(318 108)"/>
    <path id="Path_5" data-name="Path 5" d="M4.088-4.437A6.172,6.172,0,0,1,1.63-5.629,2.279,2.279,0,0,1,.861-7.376,2.408,2.408,0,0,1,1.8-9.321a3.736,3.736,0,0,1,2.444-.769,4.078,4.078,0,0,1,1.829.4A3.007,3.007,0,0,1,7.318-8.6a2.8,2.8,0,0,1,.441,1.524H6.439A1.82,1.82,0,0,0,5.865-8.5a2.335,2.335,0,0,0-1.62-.518,2.391,2.391,0,0,0-1.514.428A1.428,1.428,0,0,0,2.188-7.4,1.285,1.285,0,0,0,2.7-6.37,5.062,5.062,0,0,0,4.46-5.6,8.152,8.152,0,0,1,6.4-4.83a2.946,2.946,0,0,1,1.039.981,2.5,2.5,0,0,1,.338,1.319A2.326,2.326,0,0,1,6.836-.591,4.022,4.022,0,0,1,4.313.137,4.678,4.678,0,0,1,2.4-.256,3.221,3.221,0,0,1,1.029-1.333,2.627,2.627,0,0,1,.547-2.885H1.866a1.714,1.714,0,0,0,.667,1.425,2.806,2.806,0,0,0,1.781.523A2.58,2.58,0,0,0,5.906-1.36,1.377,1.377,0,0,0,6.46-2.516a1.351,1.351,0,0,0-.513-1.131A5.911,5.911,0,0,0,4.088-4.437ZM13.829-.731a2.686,2.686,0,0,1-2.167.868,2.3,2.3,0,0,1-1.8-.687,2.974,2.974,0,0,1-.625-2.034V-7.4H10.5v4.778q0,1.682,1.367,1.682a1.893,1.893,0,0,0,1.928-1.08V-7.4H15.06V0h-1.2Zm9.413-2.885a4.4,4.4,0,0,1-.779,2.724A2.49,2.49,0,0,1,20.371.137,2.578,2.578,0,0,1,18.2-.854L18.143,0H16.98V-10.5h1.265v3.917a2.564,2.564,0,0,1,2.112-.95,2.505,2.505,0,0,1,2.116,1.019,4.53,4.53,0,0,1,.769,2.789ZM21.978-3.76a3.417,3.417,0,0,0-.5-2,1.652,1.652,0,0,0-1.436-.7,1.857,1.857,0,0,0-1.8,1.162v3.2A1.909,1.909,0,0,0,20.057-.937a1.643,1.643,0,0,0,1.415-.7A3.634,3.634,0,0,0,21.978-3.76ZM34-2.6h-4.17L28.889,0H27.535l3.8-9.953h1.148L36.292,0H34.945ZM30.222-3.678h3.384l-1.7-4.655Z" transform="translate(263 108)"/>
    <path id="Path_4" data-name="Path 4" d="M4.088-4.437A6.172,6.172,0,0,1,1.63-5.629,2.279,2.279,0,0,1,.861-7.376,2.408,2.408,0,0,1,1.8-9.321a3.736,3.736,0,0,1,2.444-.769,4.078,4.078,0,0,1,1.829.4A3.007,3.007,0,0,1,7.318-8.6a2.8,2.8,0,0,1,.441,1.524H6.439A1.82,1.82,0,0,0,5.865-8.5a2.335,2.335,0,0,0-1.62-.518,2.391,2.391,0,0,0-1.514.428A1.428,1.428,0,0,0,2.188-7.4,1.285,1.285,0,0,0,2.7-6.37,5.062,5.062,0,0,0,4.46-5.6,8.152,8.152,0,0,1,6.4-4.83a2.946,2.946,0,0,1,1.039.981,2.5,2.5,0,0,1,.338,1.319A2.326,2.326,0,0,1,6.836-.591,4.022,4.022,0,0,1,4.313.137,4.678,4.678,0,0,1,2.4-.256,3.221,3.221,0,0,1,1.029-1.333,2.627,2.627,0,0,1,.547-2.885H1.866a1.714,1.714,0,0,0,.667,1.425,2.806,2.806,0,0,0,1.781.523A2.58,2.58,0,0,0,5.906-1.36,1.377,1.377,0,0,0,6.46-2.516a1.351,1.351,0,0,0-.513-1.131A5.911,5.911,0,0,0,4.088-4.437ZM13.829-.731a2.686,2.686,0,0,1-2.167.868,2.3,2.3,0,0,1-1.8-.687,2.974,2.974,0,0,1-.625-2.034V-7.4H10.5v4.778q0,1.682,1.367,1.682a1.893,1.893,0,0,0,1.928-1.08V-7.4H15.06V0h-1.2Zm9.413-2.885a4.4,4.4,0,0,1-.779,2.724A2.49,2.49,0,0,1,20.371.137,2.578,2.578,0,0,1,18.2-.854L18.143,0H16.98V-10.5h1.265v3.917a2.564,2.564,0,0,1,2.112-.95,2.505,2.505,0,0,1,2.116,1.019,4.53,4.53,0,0,1,.769,2.789ZM21.978-3.76a3.417,3.417,0,0,0-.5-2,1.652,1.652,0,0,0-1.436-.7,1.857,1.857,0,0,0-1.8,1.162v3.2A1.909,1.909,0,0,0,20.057-.937a1.643,1.643,0,0,0,1.415-.7A3.634,3.634,0,0,0,21.978-3.76ZM28.5,0V-9.953h3.254a3.777,3.777,0,0,1,2.437.67A2.414,2.414,0,0,1,35.007-7.3a2.022,2.022,0,0,1-.4,1.234,2.57,2.57,0,0,1-1.08.831,2.308,2.308,0,0,1,1.275.858,2.462,2.462,0,0,1,.468,1.507,2.662,2.662,0,0,1-.868,2.105A3.59,3.59,0,0,1,31.951,0Zm1.313-4.655v3.582h2.167a2.087,2.087,0,0,0,1.446-.475,1.669,1.669,0,0,0,.53-1.309q0-1.8-1.955-1.8Zm0-1.053h1.982a2.078,2.078,0,0,0,1.377-.432,1.447,1.447,0,0,0,.516-1.171,1.423,1.423,0,0,0-.479-1.2,2.35,2.35,0,0,0-1.456-.373H29.812Z" transform="translate(215 108)"/>
    <path id="Path_18" data-name="Path 18" d="M4.45-1.743l2.844-8.21H8.729L5.038,0H3.876L.191-9.953H1.62Zm5.667,2.6H9.03L13.187-9.953h1.08Zm13.371-5.51A6.157,6.157,0,0,1,23-2.1,3.728,3.728,0,0,1,21.6-.437,3.837,3.837,0,0,1,19.5.137a3.8,3.8,0,0,1-2.085-.578A3.817,3.817,0,0,1,16-2.088a5.908,5.908,0,0,1-.516-2.478v-.718a6.084,6.084,0,0,1,.5-2.536,3.8,3.8,0,0,1,1.412-1.685,3.788,3.788,0,0,1,2.088-.584,3.858,3.858,0,0,1,2.109.578A3.721,3.721,0,0,1,23-7.837a6.187,6.187,0,0,1,.492,2.553ZM22.183-5.3a4.463,4.463,0,0,0-.711-2.717,2.345,2.345,0,0,0-1.989-.947,2.32,2.32,0,0,0-1.958.947,4.371,4.371,0,0,0-.735,2.628v.731a4.469,4.469,0,0,0,.721,2.7A2.329,2.329,0,0,0,19.5-.978,2.32,2.32,0,0,0,21.465-1.9a4.444,4.444,0,0,0,.718-2.656ZM28.226-.9a1.822,1.822,0,0,0,1.183-.41,1.443,1.443,0,0,0,.561-1.025h1.2a2.293,2.293,0,0,1-.437,1.21,2.881,2.881,0,0,1-1.077.916,3.107,3.107,0,0,1-1.425.342,3.047,3.047,0,0,1-2.4-1.008,4.016,4.016,0,0,1-.892-2.758v-.212a4.453,4.453,0,0,1,.4-1.921,3.02,3.02,0,0,1,1.138-1.306,3.233,3.233,0,0,1,1.753-.465,2.966,2.966,0,0,1,2.068.745,2.663,2.663,0,0,1,.878,1.935h-1.2a1.743,1.743,0,0,0-.543-1.179,1.691,1.691,0,0,0-1.207-.461,1.77,1.77,0,0,0-1.494.694,3.259,3.259,0,0,0-.53,2.006v.239a3.194,3.194,0,0,0,.526,1.969A1.779,1.779,0,0,0,28.226-.9ZM34.3-9.187V-7.4h1.381v.978H34.3v4.593a1.027,1.027,0,0,0,.185.667.777.777,0,0,0,.629.222,3.062,3.062,0,0,0,.6-.082V0a3.688,3.688,0,0,1-.971.136,1.575,1.575,0,0,1-1.278-.513,2.2,2.2,0,0,1-.431-1.456V-6.419H31.691V-7.4h1.347V-9.187Z" transform="translate(162 262)"/>
    <g id="output_jack" data-name="output jack" transform="translate(165 311)">
      <rect id="Rectangle_9" data-name="Rectangle 9" width="32" height="50" rx="3"/>
      <path id="Path_25" data-name="Path 25" d="M8.812-4.655A6.157,6.157,0,0,1,8.319-2.1,3.728,3.728,0,0,1,6.925-.437,3.837,3.837,0,0,1,4.819.137,3.8,3.8,0,0,1,2.734-.441,3.817,3.817,0,0,1,1.323-2.088,5.908,5.908,0,0,1,.807-4.566v-.718a6.084,6.084,0,0,1,.5-2.536A3.8,3.8,0,0,1,2.717-9.505a3.788,3.788,0,0,1,2.088-.584,3.858,3.858,0,0,1,2.109.578,3.721,3.721,0,0,1,1.4,1.675,6.187,6.187,0,0,1,.492,2.553ZM7.506-5.3a4.463,4.463,0,0,0-.711-2.717,2.345,2.345,0,0,0-1.989-.947,2.32,2.32,0,0,0-1.958.947,4.371,4.371,0,0,0-.735,2.628v.731a4.469,4.469,0,0,0,.721,2.7,2.329,2.329,0,0,0,1.986.981A2.32,2.32,0,0,0,6.788-1.9,4.444,4.444,0,0,0,7.506-4.56ZM15.148-.731a2.686,2.686,0,0,1-2.167.868,2.3,2.3,0,0,1-1.8-.687,2.974,2.974,0,0,1-.625-2.034V-7.4h1.265v4.778q0,1.682,1.367,1.682a1.893,1.893,0,0,0,1.928-1.08V-7.4h1.265V0h-1.2Zm4.867-8.456V-7.4H21.4v.978H20.016v4.593a1.027,1.027,0,0,0,.185.667.777.777,0,0,0,.629.222,3.062,3.062,0,0,0,.6-.082V0a3.688,3.688,0,0,1-.971.136,1.575,1.575,0,0,1-1.278-.513,2.2,2.2,0,0,1-.431-1.456V-6.419H17.4V-7.4h1.347V-9.187Z" transform="translate(3 13)" fill="#fff"/>
      <g id="normal-ish_jack" data-name="normal-ish jack" transform="translate(4 17)">
        <path id="path7255" d="M100.736,143.323a12,12,0,1,1,12-12,12.012,12.012,0,0,1-12,12" transform="translate(-88.736 -119.323)" fill="#e6e6e6" stroke="#636663" stroke-width="1"/>
        <path id="path7261" d="M98.87,138.458a9,9,0,1,1,9-9,9.01,9.01,0,0,1-9,9" transform="translate(-86.736 -117.323)" fill="#e6e6e6" stroke="#636663" stroke-width="1"/>
        <path id="path7265" d="M100.989,126.576a5,5,0,1,1-5-5,5,5,0,0,1,5,5" transform="translate(-83.789 -114.377)"/>
      </g>
    </g>
    <path id="Path_28" data-name="Path 28" d="M10.656-12.256,4.5-8.128,9.088-.352-.544,2.56l-.048-.144L5.52-1.68.9-9.44l9.712-2.928Zm8.512,15.6H15.536l.656-3.9a6.851,6.851,0,0,1-3.1.736,3.713,3.713,0,0,1-2.08-.528,1.616,1.616,0,0,1-.8-1.408,3.1,3.1,0,0,1,1.3-2.272A7.238,7.238,0,0,1,14.64-5.584a5.905,5.905,0,0,1,2.432-.1l.192-1.2h.176ZM16.96-5.04a4.811,4.811,0,0,0-1.072-.128,2.8,2.8,0,0,0-1.968.736,2.447,2.447,0,0,0-.768,1.952,1.8,1.8,0,0,0,.432,1.192,1.4,1.4,0,0,0,1.1.472,3.356,3.356,0,0,0,1.648-.544ZM26.32.176H24.144L24.4-1.792A4.33,4.33,0,0,1,20.752.336a3.641,3.641,0,0,1-1.12-.16L21.808-5.9l.24.048a7.693,7.693,0,0,0-.112,1.328q0,1.744.8,1.744a.819.819,0,0,0,.3-.064,2.905,2.905,0,0,0,1.376-1.408,5.855,5.855,0,0,0,.72-1.936h.192Zm4.288-9.024-1.376.416.352,1.408-.832-1.184-1.216.768L28.4-8.592,27.3-9.52l1.36.464.544-1.328-.032,1.44ZM30.48-6.512,28.752.064h-.176L26.848-6.512Zm7.344.48L35.648.048,35.408,0a7.693,7.693,0,0,0,.112-1.328q0-1.744-.8-1.744a.819.819,0,0,0-.3.064A2.905,2.905,0,0,0,33.04-1.6,5.979,5.979,0,0,0,32.3.336h-.176l-.992-6.368H33.3l-.24,1.968A4.33,4.33,0,0,1,36.7-6.192,3.842,3.842,0,0,1,37.824-6.032Zm7.984.5L42.48-3.168,44.592.592,44.448.8,40.736-1.776l-.464,2.784H40.08L38.352-9.216H42L40.9-2.752l1.936-2.784Zm9.6,1.36-6.88,7.76-.144-.1L49.872-.16,46-4.416l3.264-1.616.928,5.1L52.32-6.112ZM68.672-.464H64.544l.144.912L61.12.976l.224-1.44H58.9l-.032-.192,2.624-.784,1.36-9.136h.112l1.3,8.3L68.672-3.6ZM77.92,0H74.4l.3-1.344A7.019,7.019,0,0,1,72.8-.32,5.184,5.184,0,0,1,71.088,0a2.374,2.374,0,0,1-1.432-.392,1.265,1.265,0,0,1-.536-1.08,3.123,3.123,0,0,1,1.08-2.12,6.661,6.661,0,0,1,2.6-1.624,5.322,5.322,0,0,1,1.728-.32,2.712,2.712,0,0,1,1.072.192l.032-.192h.512ZM74.608-2.864a2.457,2.457,0,0,0,.192-.912q0-1.072-.88-1.072a1.933,1.933,0,0,0-1.248.584,3.618,3.618,0,0,0-.976,1.4,2.457,2.457,0,0,0-.192.912q0,1.056.88,1.056a1.929,1.929,0,0,0,1.256-.576A3.588,3.588,0,0,0,74.608-2.864Zm12.816-.96a3.092,3.092,0,0,1-1.3,2.256A7.238,7.238,0,0,1,82.992-.016,6.654,6.654,0,0,1,81.5.16,5.017,5.017,0,0,1,80.352.032l-.128.752h-.192L78.3-9.44h3.648l-.768,4.528a7.2,7.2,0,0,1,3.344-.864,3.71,3.71,0,0,1,2.088.536A1.631,1.631,0,0,1,87.424-3.824Zm-2.944.7a1.8,1.8,0,0,0-.432-1.192,1.4,1.4,0,0,0-1.1-.472,3.6,3.6,0,0,0-1.9.7L80.464-.624a4.33,4.33,0,0,0,1.28.208,2.733,2.733,0,0,0,1.968-.768A2.47,2.47,0,0,0,84.48-3.12ZM94.7-.336l-6.128,1.52-.048-.1L91.12-.944,87.808-4.928,93.648-6.5l.032.08-2.4,1.984Z" transform="translate(224 373)"/>
    <path id="Path_24" data-name="Path 24" d="M4.45-1.743l2.844-8.21H8.729L5.038,0H3.876L.191-9.953H1.62ZM9.215-3.767a4.369,4.369,0,0,1,.427-1.955,3.187,3.187,0,0,1,1.189-1.34,3.238,3.238,0,0,1,1.74-.472,3.119,3.119,0,0,1,2.444,1.046,4.024,4.024,0,0,1,.933,2.782v.089a4.407,4.407,0,0,1-.414,1.938A3.14,3.14,0,0,1,14.352-.342a3.275,3.275,0,0,1-1.767.479A3.111,3.111,0,0,1,10.148-.909a4,4,0,0,1-.933-2.769Zm1.271.15a3.164,3.164,0,0,0,.571,1.976A1.827,1.827,0,0,0,12.585-.9a1.816,1.816,0,0,0,1.531-.755,3.46,3.46,0,0,0,.567-2.116,3.159,3.159,0,0,0-.578-1.972,1.836,1.836,0,0,0-1.535-.755,1.816,1.816,0,0,0-1.511.745A3.434,3.434,0,0,0,10.486-3.616ZM18.908,0H17.644V-10.5h1.265Z" transform="translate(318 319)"/>
    <path id="Path_23" data-name="Path 23" d="M4.088-4.437A6.172,6.172,0,0,1,1.63-5.629,2.279,2.279,0,0,1,.861-7.376,2.408,2.408,0,0,1,1.8-9.321a3.736,3.736,0,0,1,2.444-.769,4.078,4.078,0,0,1,1.829.4A3.007,3.007,0,0,1,7.318-8.6a2.8,2.8,0,0,1,.441,1.524H6.439A1.82,1.82,0,0,0,5.865-8.5a2.335,2.335,0,0,0-1.62-.518,2.391,2.391,0,0,0-1.514.428A1.428,1.428,0,0,0,2.188-7.4,1.285,1.285,0,0,0,2.7-6.37,5.062,5.062,0,0,0,4.46-5.6,8.152,8.152,0,0,1,6.4-4.83a2.946,2.946,0,0,1,1.039.981,2.5,2.5,0,0,1,.338,1.319A2.326,2.326,0,0,1,6.836-.591,4.022,4.022,0,0,1,4.313.137,4.678,4.678,0,0,1,2.4-.256,3.221,3.221,0,0,1,1.029-1.333,2.627,2.627,0,0,1,.547-2.885H1.866a1.714,1.714,0,0,0,.667,1.425,2.806,2.806,0,0,0,1.781.523A2.58,2.58,0,0,0,5.906-1.36,1.377,1.377,0,0,0,6.46-2.516a1.351,1.351,0,0,0-.513-1.131A5.911,5.911,0,0,0,4.088-4.437ZM13.829-.731a2.686,2.686,0,0,1-2.167.868,2.3,2.3,0,0,1-1.8-.687,2.974,2.974,0,0,1-.625-2.034V-7.4H10.5v4.778q0,1.682,1.367,1.682a1.893,1.893,0,0,0,1.928-1.08V-7.4H15.06V0h-1.2Zm9.413-2.885a4.4,4.4,0,0,1-.779,2.724A2.49,2.49,0,0,1,20.371.137,2.578,2.578,0,0,1,18.2-.854L18.143,0H16.98V-10.5h1.265v3.917a2.564,2.564,0,0,1,2.112-.95,2.505,2.505,0,0,1,2.116,1.019,4.53,4.53,0,0,1,.769,2.789ZM21.978-3.76a3.417,3.417,0,0,0-.5-2,1.652,1.652,0,0,0-1.436-.7,1.857,1.857,0,0,0-1.8,1.162v3.2A1.909,1.909,0,0,0,20.057-.937a1.643,1.643,0,0,0,1.415-.7A3.634,3.634,0,0,0,21.978-3.76ZM34-2.6h-4.17L28.889,0H27.535l3.8-9.953h1.148L36.292,0H34.945ZM30.222-3.678h3.384l-1.7-4.655Z" transform="translate(263 319)"/>
    <path id="Path_22" data-name="Path 22" d="M4.088-4.437A6.172,6.172,0,0,1,1.63-5.629,2.279,2.279,0,0,1,.861-7.376,2.408,2.408,0,0,1,1.8-9.321a3.736,3.736,0,0,1,2.444-.769,4.078,4.078,0,0,1,1.829.4A3.007,3.007,0,0,1,7.318-8.6a2.8,2.8,0,0,1,.441,1.524H6.439A1.82,1.82,0,0,0,5.865-8.5a2.335,2.335,0,0,0-1.62-.518,2.391,2.391,0,0,0-1.514.428A1.428,1.428,0,0,0,2.188-7.4,1.285,1.285,0,0,0,2.7-6.37,5.062,5.062,0,0,0,4.46-5.6,8.152,8.152,0,0,1,6.4-4.83a2.946,2.946,0,0,1,1.039.981,2.5,2.5,0,0,1,.338,1.319A2.326,2.326,0,0,1,6.836-.591,4.022,4.022,0,0,1,4.313.137,4.678,4.678,0,0,1,2.4-.256,3.221,3.221,0,0,1,1.029-1.333,2.627,2.627,0,0,1,.547-2.885H1.866a1.714,1.714,0,0,0,.667,1.425,2.806,2.806,0,0,0,1.781.523A2.58,2.58,0,0,0,5.906-1.36,1.377,1.377,0,0,0,6.46-2.516a1.351,1.351,0,0,0-.513-1.131A5.911,5.911,0,0,0,4.088-4.437ZM13.829-.731a2.686,2.686,0,0,1-2.167.868,2.3,2.3,0,0,1-1.8-.687,2.974,2.974,0,0,1-.625-2.034V-7.4H10.5v4.778q0,1.682,1.367,1.682a1.893,1.893,0,0,0,1.928-1.08V-7.4H15.06V0h-1.2Zm9.413-2.885a4.4,4.4,0,0,1-.779,2.724A2.49,2.49,0,0,1,20.371.137,2.578,2.578,0,0,1,18.2-.854L18.143,0H16.98V-10.5h1.265v3.917a2.564,2.564,0,0,1,2.112-.95,2.505,2.505,0,0,1,2.116,1.019,4.53,4.53,0,0,1,.769,2.789ZM21.978-3.76a3.417,3.417,0,0,0-.5-2,1.652,1.652,0,0,0-1.436-.7,1.857,1.857,0,0,0-1.8,1.162v3.2A1.909,1.909,0,0,0,20.057-.937a1.643,1.643,0,0,0,1.415-.7A3.634,3.634,0,0,0,21.978-3.76ZM28.5,0V-9.953h3.254a3.777,3.777,0,0,1,2.437.67A2.414,2.414,0,0,1,35.007-7.3a2.022,2.022,0,0,1-.4,1.234,2.57,2.57,0,0,1-1.08.831,2.308,2.308,0,0,1,1.275.858,2.462,2.462,0,0,1,.468,1.507,2.662,2.662,0,0,1-.868,2.105A3.59,3.59,0,0,1,31.951,0Zm1.313-4.655v3.582h2.167a2.087,2.087,0,0,0,1.446-.475,1.669,1.669,0,0,0,.53-1.309q0-1.8-1.955-1.8Zm0-1.053h1.982a2.078,2.078,0,0,0,1.377-.432,1.447,1.447,0,0,0,.516-1.171,1.423,1.423,0,0,0-.479-1.2,2.35,2.35,0,0,0-1.456-.373H29.812Z" transform="translate(215 319)"/>
  </g>
</svg>
