<svg xmlns="http://www.w3.org/2000/svg" xmlns:xlink="http://www.w3.org/1999/xlink" width="25" height="24" viewBox="0 0 25 24">
  <defs>
    <clipPath id="clip-white-handle-4">
      <rect width="25" height="24"/>
    </clipPath>
  </defs>
  <g id="white-handle-4" clip-path="url(#clip-white-handle-4)">
    <g id="Union_1" data-name="Union 1" fill="#fff">
      <path d="M 22.9995002746582 23.50030136108398 L 1.999799966812134 23.50030136108398 C 1.172809958457947 23.50030136108398 0.5 22.82709121704102 0.5 21.99960136413574 L 0.5 16.00020027160645 C 0.5 15.17321109771729 1.172809958457947 14.50040054321289 1.999799966812134 14.50040054321289 L 2.500200033187866 14.50040054321289 L 3.000200033187866 14.50040054321289 L 3.000200033187866 14.00040054321289 L 3.000200033187866 0.5000006556510925 L 22 0.5000006556510925 L 22 14.00040054321289 L 22 14.50040054321289 L 22.5 14.50040054321289 L 22.9995002746582 14.50040054321289 C 23.82649040222168 14.50040054321289 24.49930000305176 15.17321109771729 24.49930000305176 16.00020027160645 L 24.49930000305176 21.99960136413574 C 24.49930000305176 22.82709121704102 23.82649040222168 23.50030136108398 22.9995002746582 23.50030136108398 Z" stroke="none"/>
      <path d="M 22.9995002746582 23.00030136108398 C 23.55079078674316 23.00030136108398 23.99930000305176 22.5513916015625 23.99930000305176 21.99960136413574 L 23.99930000305176 16.00020027160645 C 23.99930000305176 15.4489107131958 23.55079078674316 15.00040054321289 22.9995002746582 15.00040054321289 L 22.5 15.00040054321289 L 21.5 15.00040054321289 L 21.5 14.00040054321289 L 21.5 1.000000715255737 L 3.500200033187866 1.000000715255737 L 3.500200033187866 14.00040054321289 L 3.500200033187866 15.00040054321289 L 2.500200033187866 15.00040054321289 L 1.999799966812134 15.00040054321289 C 1.448510050773621 15.00040054321289 1 15.4489107131958 1 16.00020027160645 L 1 21.99960136413574 C 1 22.5513916015625 1.448510050773621 23.00030136108398 1.999799966812134 23.00030136108398 L 22.9995002746582 23.00030136108398 M 22.9995002746582 24.00030136108398 L 1.999799966812134 24.00030136108398 C 0.8955000042915344 24.00030136108398 1.525878090546939e-09 23.10480117797852 1.525878090546939e-09 21.99960136413574 L 1.525878090546939e-09 16.00020027160645 C 1.525878090546939e-09 14.89500045776367 0.8955000042915344 14.00040054321289 1.999799966812134 14.00040054321289 L 2.500200033187866 14.00040054321289 L 2.500200033187866 6.805419729971618e-07 L 22.5 6.805419729971618e-07 L 22.5 14.00040054321289 L 22.9995002746582 14.00040054321289 C 24.10379981994629 14.00040054321289 24.99930000305176 14.89500045776367 24.99930000305176 16.00020027160645 L 24.99930000305176 21.99960136413574 C 24.99930000305176 23.10480117797852 24.10379981994629 24.00030136108398 22.9995002746582 24.00030136108398 Z" stroke="none" fill="#0"/>
    </g>
    <path id="Path_4" data-name="Path 4" d="M4.565-7.7v5.086h.988v.806H4.565V0H3.7V-1.81H.075v-.763Q.58-3.142,1.1-3.789T2.081-5.1q.47-.666.87-1.329A12.149,12.149,0,0,0,3.625-7.7Zm-3.5,5.086H3.7V-6.386q-.4.7-.763,1.257t-.685,1q-.325.451-.62.816Z" transform="translate(10 20)"/>
  </g>
</svg>
