<svg xmlns="http://www.w3.org/2000/svg" xmlns:xlink="http://www.w3.org/1999/xlink" width="25" height="24" viewBox="0 0 25 24">
  <defs>
    <clipPath id="clip-white-handle-8">
      <rect width="25" height="24"/>
    </clipPath>
  </defs>
  <g id="white-handle-8" clip-path="url(#clip-white-handle-8)">
    <g id="Union_1" data-name="Union 1" fill="#fff">
      <path d="M 22.9995002746582 23.50030136108398 L 1.999799966812134 23.50030136108398 C 1.172809958457947 23.50030136108398 0.5 22.82709121704102 0.5 21.99960136413574 L 0.5 16.00020027160645 C 0.5 15.17321109771729 1.172809958457947 14.50040054321289 1.999799966812134 14.50040054321289 L 2.500200033187866 14.50040054321289 L 3.000200033187866 14.50040054321289 L 3.000200033187866 14.00040054321289 L 3.000200033187866 0.5000006556510925 L 22 0.5000006556510925 L 22 14.00040054321289 L 22 14.50040054321289 L 22.5 14.50040054321289 L 22.9995002746582 14.50040054321289 C 23.82649040222168 14.50040054321289 24.49930000305176 15.17321109771729 24.49930000305176 16.00020027160645 L 24.49930000305176 21.99960136413574 C 24.49930000305176 22.82709121704102 23.82649040222168 23.50030136108398 22.9995002746582 23.50030136108398 Z" stroke="none"/>
      <path d="M 22.9995002746582 23.00030136108398 C 23.55079078674316 23.00030136108398 23.99930000305176 22.5513916015625 23.99930000305176 21.99960136413574 L 23.99930000305176 16.00020027160645 C 23.99930000305176 15.4489107131958 23.55079078674316 15.00040054321289 22.9995002746582 15.00040054321289 L 22.5 15.00040054321289 L 21.5 15.00040054321289 L 21.5 14.00040054321289 L 21.5 1.000000715255737 L 3.500200033187866 1.000000715255737 L 3.500200033187866 14.00040054321289 L 3.500200033187866 15.00040054321289 L 2.500200033187866 15.00040054321289 L 1.999799966812134 15.00040054321289 C 1.448510050773621 15.00040054321289 1 15.4489107131958 1 16.00020027160645 L 1 21.99960136413574 C 1 22.5513916015625 1.448510050773621 23.00030136108398 1.999799966812134 23.00030136108398 L 22.9995002746582 23.00030136108398 M 22.9995002746582 24.00030136108398 L 1.999799966812134 24.00030136108398 C 0.8955000042915344 24.00030136108398 1.525878090546939e-09 23.10480117797852 1.525878090546939e-09 21.99960136413574 L 1.525878090546939e-09 16.00020027160645 C 1.525878090546939e-09 14.89500045776367 0.8955000042915344 14.00040054321289 1.999799966812134 14.00040054321289 L 2.500200033187866 14.00040054321289 L 2.500200033187866 6.805419729971618e-07 L 22.5 6.805419729971618e-07 L 22.5 14.00040054321289 L 22.9995002746582 14.00040054321289 C 24.10379981994629 14.00040054321289 24.99930000305176 14.89500045776367 24.99930000305176 16.00020027160645 L 24.99930000305176 21.99960136413574 C 24.99930000305176 23.10480117797852 24.10379981994629 24.00030136108398 22.9995002746582 24.00030136108398 Z" stroke="none" fill="#0"/>
    </g>
    <path id="Path_3" data-name="Path 3" d="M.483-2.148a2.049,2.049,0,0,1,.1-.615,2.228,2.228,0,0,1,.277-.577A2.289,2.289,0,0,1,1.3-3.83a2.125,2.125,0,0,1,.6-.349A2.284,2.284,0,0,1,1.112-4.9a1.7,1.7,0,0,1-.3-.969A1.87,1.87,0,0,1,.98-6.649a1.889,1.889,0,0,1,.454-.623,2.1,2.1,0,0,1,.688-.411,2.448,2.448,0,0,1,.859-.148,2.424,2.424,0,0,1,.865.15,2.135,2.135,0,0,1,.688.414,1.857,1.857,0,0,1,.451.623,1.884,1.884,0,0,1,.161.779,1.7,1.7,0,0,1-.3.969,2.312,2.312,0,0,1-.784.717,2.106,2.106,0,0,1,.6.349,2.323,2.323,0,0,1,.443.489,2.228,2.228,0,0,1,.277.577,2.049,2.049,0,0,1,.1.615,2.287,2.287,0,0,1-.183.924,2.064,2.064,0,0,1-.513.717,2.368,2.368,0,0,1-.79.465A2.951,2.951,0,0,1,2.981.124a2.912,2.912,0,0,1-1-.167,2.4,2.4,0,0,1-.79-.465,2.078,2.078,0,0,1-.518-.717A2.259,2.259,0,0,1,.483-2.148Zm.956-.075a1.819,1.819,0,0,0,.11.65,1.4,1.4,0,0,0,.312.494,1.36,1.36,0,0,0,.489.314,1.766,1.766,0,0,0,.636.11,1.677,1.677,0,0,0,.623-.113A1.452,1.452,0,0,0,4.1-1.085a1.425,1.425,0,0,0,.322-.494,1.728,1.728,0,0,0,.115-.645,1.646,1.646,0,0,0-.11-.6,1.513,1.513,0,0,0-.314-.5,1.476,1.476,0,0,0-.489-.338,1.59,1.59,0,0,0-.639-.124,1.607,1.607,0,0,0-.615.115,1.472,1.472,0,0,0-.489.322,1.493,1.493,0,0,0-.325.494A1.644,1.644,0,0,0,1.439-2.224ZM1.713-5.8a1.283,1.283,0,0,0,.1.508,1.279,1.279,0,0,0,.274.408,1.287,1.287,0,0,0,.406.274,1.237,1.237,0,0,0,.494.1,1.228,1.228,0,0,0,.5-.1,1.284,1.284,0,0,0,.406-.277,1.34,1.34,0,0,0,.274-.408,1.241,1.241,0,0,0,.1-.5,1.317,1.317,0,0,0-.1-.516,1.262,1.262,0,0,0-.271-.408,1.27,1.27,0,0,0-.406-.271,1.27,1.27,0,0,0-.5-.1,1.281,1.281,0,0,0-.518.1,1.252,1.252,0,0,0-.4.277A1.209,1.209,0,0,0,1.8-6.3,1.389,1.389,0,0,0,1.713-5.8Z" transform="translate(10 20)"/>
  </g>
</svg>
