<svg xmlns="http://www.w3.org/2000/svg" xmlns:xlink="http://www.w3.org/1999/xlink" width="25" height="24" viewBox="0 0 25 24">
  <defs>
    <clipPath id="clip-white-handle-2">
      <rect width="25" height="24"/>
    </clipPath>
  </defs>
  <g id="white-handle-2" clip-path="url(#clip-white-handle-2)">
    <g id="Union_1" data-name="Union 1" fill="#fff">
      <path d="M 22.9995002746582 23.50030136108398 L 1.999799966812134 23.50030136108398 C 1.172809958457947 23.50030136108398 0.5 22.82709121704102 0.5 21.99960136413574 L 0.5 16.00020027160645 C 0.5 15.17321109771729 1.172809958457947 14.50040054321289 1.999799966812134 14.50040054321289 L 2.500200033187866 14.50040054321289 L 3.000200033187866 14.50040054321289 L 3.000200033187866 14.00040054321289 L 3.000200033187866 0.5000006556510925 L 22 0.5000006556510925 L 22 14.00040054321289 L 22 14.50040054321289 L 22.5 14.50040054321289 L 22.9995002746582 14.50040054321289 C 23.82649040222168 14.50040054321289 24.49930000305176 15.17321109771729 24.49930000305176 16.00020027160645 L 24.49930000305176 21.99960136413574 C 24.49930000305176 22.82709121704102 23.82649040222168 23.50030136108398 22.9995002746582 23.50030136108398 Z" stroke="none"/>
      <path d="M 22.9995002746582 23.00030136108398 C 23.55079078674316 23.00030136108398 23.99930000305176 22.5513916015625 23.99930000305176 21.99960136413574 L 23.99930000305176 16.00020027160645 C 23.99930000305176 15.4489107131958 23.55079078674316 15.00040054321289 22.9995002746582 15.00040054321289 L 22.5 15.00040054321289 L 21.5 15.00040054321289 L 21.5 14.00040054321289 L 21.5 1.000000715255737 L 3.500200033187866 1.000000715255737 L 3.500200033187866 14.00040054321289 L 3.500200033187866 15.00040054321289 L 2.500200033187866 15.00040054321289 L 1.999799966812134 15.00040054321289 C 1.448510050773621 15.00040054321289 1 15.4489107131958 1 16.00020027160645 L 1 21.99960136413574 C 1 22.5513916015625 1.448510050773621 23.00030136108398 1.999799966812134 23.00030136108398 L 22.9995002746582 23.00030136108398 M 22.9995002746582 24.00030136108398 L 1.999799966812134 24.00030136108398 C 0.8955000042915344 24.00030136108398 1.525878090546939e-09 23.10480117797852 1.525878090546939e-09 21.99960136413574 L 1.525878090546939e-09 16.00020027160645 C 1.525878090546939e-09 14.89500045776367 0.8955000042915344 14.00040054321289 1.999799966812134 14.00040054321289 L 2.500200033187866 14.00040054321289 L 2.500200033187866 6.805419729971618e-07 L 22.5 6.805419729971618e-07 L 22.5 14.00040054321289 L 22.9995002746582 14.00040054321289 C 24.10379981994629 14.00040054321289 24.99930000305176 14.89500045776367 24.99930000305176 16.00020027160645 L 24.99930000305176 21.99960136413574 C 24.99930000305176 23.10480117797852 24.10379981994629 24.00030136108398 22.9995002746582 24.00030136108398 Z" stroke="none" fill="#0"/>
    </g>
    <path id="Path_6" data-name="Path 6" d="M4.146-5.683a1.593,1.593,0,0,0-.11-.618,1.224,1.224,0,0,0-.3-.438A1.232,1.232,0,0,0,3.287-7a1.756,1.756,0,0,0-.559-.086,1.848,1.848,0,0,0-.5.07,2.454,2.454,0,0,0-.481.193,2.957,2.957,0,0,0-.451.3,3.259,3.259,0,0,0-.406.381V-7.09a2.634,2.634,0,0,1,.83-.551,2.922,2.922,0,0,1,1.12-.191,2.7,2.7,0,0,1,.875.137,2.007,2.007,0,0,1,.7.4,1.85,1.85,0,0,1,.465.65,2.192,2.192,0,0,1,.169.886,3.039,3.039,0,0,1-.1.827,2.558,2.558,0,0,1-.317.7,3.369,3.369,0,0,1-.534.628,7.57,7.57,0,0,1-.757.612q-.542.387-.894.661a3.953,3.953,0,0,0-.559.513,1.488,1.488,0,0,0-.29.478A1.671,1.671,0,0,0,1.5-.79H5.339V0H.585V-.381a3.178,3.178,0,0,1,.107-.87,2.259,2.259,0,0,1,.354-.714,3.964,3.964,0,0,1,.647-.677q.4-.338.98-.763a6.2,6.2,0,0,0,.7-.575,2.988,2.988,0,0,0,.454-.548,1.968,1.968,0,0,0,.244-.556A2.4,2.4,0,0,0,4.146-5.683Z" transform="translate(10 20)"/>
  </g>
</svg>
